<?xml version="1.0" encoding="utf-8"?>
<!-- Generated by IcoMoon.io -->
<!DOCTYPE svg PUBLIC "-//W3C//DTD SVG 1.1//EN" "http://www.w3.org/Graphics/SVG/1.1/DTD/svg11.dtd">
<svg version="1.1" xmlns="http://www.w3.org/2000/svg" xmlns:xlink="http://www.w3.org/1999/xlink" width="64" height="64" viewBox="0 0 64 64">
<path fill="#000" d="M9.274 0v4.113h-2.18c-2.146 0-3.427 1.355-3.427 3.621s1.281 3.62 3.427 3.62h2.18v2.455h-2.18c-2.146 0-3.427 1.352-3.427 3.62s1.281 3.621 3.427 3.621h2.18v2.454h-2.18c-2.146 0-3.427 1.353-3.427 3.62s1.281 3.621 3.427 3.621h2.18v2.509h-2.18c-2.146 0-3.427 1.354-3.427 3.621s1.281 3.62 3.427 3.62h2.18v2.454h-2.18c-2.146 0-3.427 1.352-3.427 3.62 0 2.269 1.281 3.621 3.427 3.621h2.18v2.454h-2.18c-2.146 0-3.427 1.354-3.427 3.62 0 2.268 1.281 3.62 3.427 3.62h2.18v4.115h51.059v-64h-51.059zM12.922 57.948h-5.828c-1.059 0-1.487-0.486-1.487-1.683s0.428-1.682 1.487-1.682h5.828c1.059 0 1.488 0.484 1.488 1.682s-0.429 1.683-1.488 1.683zM12.922 48.254h-5.828c-1.059 0-1.487-0.486-1.487-1.684s0.428-1.682 1.487-1.682h5.828c1.059 0 1.488 0.485 1.488 1.683s-0.429 1.683-1.488 1.683zM12.922 38.558h-5.828c-1.059 0-1.487-0.485-1.487-1.682 0-1.198 0.428-1.683 1.487-1.683h5.828c1.059 0 1.488 0.484 1.488 1.683 0 1.196-0.429 1.682-1.488 1.682zM12.922 28.806h-5.828c-1.059 0-1.487-0.484-1.487-1.683 0-1.196 0.428-1.683 1.487-1.683h5.828c1.059 0 1.488 0.486 1.488 1.683 0 1.198-0.429 1.683-1.488 1.683zM12.922 19.112h-5.828c-1.059 0-1.487-0.485-1.487-1.684 0-1.196 0.428-1.682 1.487-1.682h5.828c1.059 0 1.488 0.485 1.488 1.682 0 1.198-0.429 1.684-1.488 1.684zM12.922 9.416h-5.828c-1.059 0-1.487-0.484-1.487-1.682 0-1.196 0.428-1.684 1.487-1.684h5.828c1.059 0 1.488 0.488 1.488 1.684 0 1.197-0.429 1.682-1.488 1.682zM51.205 45.604l-30.638 0.004v-3.155c0 0 0.020-1.858 3.824-3.553 1.838-0.821 4.563-2.924 8.597-3.665-1.037-1.108-1.812-2.846-2.628-4.918-0.47-1.197-0.392-2.218-0.392-3.672 0-1.068-0.202-2.783 0.061-3.724 0.895-3.198 3.163-4.084 5.82-4.084 2.654 0 4.921 0.881 5.818 4.074 0.266 0.944 0.064 2.663 0.064 3.734 0 1.452 0.080 2.468-0.389 3.663-0.808 2.061-1.596 3.802-2.636 4.915 4.066 0.728 6.811 2.847 8.661 3.669 3.82 1.697 3.836 3.561 3.836 3.561v3.151z"></path>
</svg>
