<?xml version="1.0" encoding="utf-8"?>
<!-- Generated by IcoMoon.io -->
<!DOCTYPE svg PUBLIC "-//W3C//DTD SVG 1.1//EN" "http://www.w3.org/Graphics/SVG/1.1/DTD/svg11.dtd">
<svg version="1.1" xmlns="http://www.w3.org/2000/svg" xmlns:xlink="http://www.w3.org/1999/xlink" width="45" height="64" viewBox="0 0 45 64">
<path d="M14.245 12.901c0.144 0 0.28-0.042 0.411-0.102 1.327 3.41 4.312 5.792 7.799 5.792 3.614 0 6.614-2.567 7.883-6.183 0.167 0.104 0.35 0.163 0.542 0.163 0.784 0 1.413-1.57 1.413-2.759 0-1.135-0.569-1.449-1.297-1.54-0.019-7.057-3.963-8.271-8.54-8.271-4.657 0-8.464 2.094-8.53 8.649-0.632 0.22-1.102 0.467-1.102 1.49 0 1.192 0.635 2.763 1.422 2.763zM32 40.504l-7.198 7.198 5.307 5.27-5.416 5.418c-3.206 3.191 1.201 7.759 4.506 4.472l8.544-8.907c1.851-1.884 2.359-5.346 0.402-7.307-0.020-0.014-6.145-6.144-6.145-6.144zM14.877 52.972l5.27-5.27-7.198-7.198c0 0-6.109 6.13-6.109 6.144-1.976 1.961-1.469 5.423 0.363 7.307l8.581 8.907c3.288 3.287 7.694-1.282 4.51-4.472l-5.416-5.418zM44.034 33.268l-12.252-12.288c-1.007-0.985-2.157-1.587-3.854-1.601h-0.611c-1.398 0.812-2.981 1.278-4.663 1.278s-3.265-0.466-4.663-1.278h-0.934c-1.717 0.014-2.793 0.634-3.782 1.601l-12.106 12.144c-3.321 3.325 1.161 7.564 4.473 4.253l7.308-7.381v6.946l19.087-0.001v-6.981l7.526 7.525c3.020 3.202 7.624-1.078 4.472-4.217z"></path>
</svg>
