<?xml version="1.0" encoding="utf-8"?>
<!-- Generated by IcoMoon.io -->
<!DOCTYPE svg PUBLIC "-//W3C//DTD SVG 1.1//EN" "http://www.w3.org/Graphics/SVG/1.1/DTD/svg11.dtd">
<svg version="1.1" xmlns="http://www.w3.org/2000/svg" xmlns:xlink="http://www.w3.org/1999/xlink" width="84" height="64" viewBox="0 0 84 64">
<path fill="#000" d="M71.204 64h-58.053c-1.593 0-2.982-1.086-3.368-2.63l-9.679-38.702c-0.465-1.861 0.667-3.746 2.526-4.211 1.864-0.47 3.746 0.667 4.211 2.528l9.019 36.072h52.631l9.019-36.072c0.463-1.861 2.336-2.993 4.211-2.526 1.861 0.465 2.991 2.35 2.526 4.211l-9.677 38.702c-0.384 1.544-1.773 2.627-3.366 2.627z"></path>
<path fill="#000" d="M44.441 39.903c-0.653 0-1.313-0.183-1.901-0.569l-18.474-12.124c-1.604-1.053-2.051-3.204-0.998-4.808 1.053-1.602 3.206-2.049 4.808-0.998l15.631 10.258c3.887-5.521 13.246-18.163 25.729-30.646 1.357-1.357 3.553-1.357 4.91 0 1.357 1.354 1.357 3.556 0 4.91-15.746 15.746-26.694 32.252-26.803 32.414-0.667 1.014-1.771 1.563-2.903 1.563z"></path>
</svg>
