<?xml version="1.0" encoding="utf-8"?>
<!-- Generated by IcoMoon.io -->
<!DOCTYPE svg PUBLIC "-//W3C//DTD SVG 1.1//EN" "http://www.w3.org/Graphics/SVG/1.1/DTD/svg11.dtd">
<svg version="1.1" xmlns="http://www.w3.org/2000/svg" xmlns:xlink="http://www.w3.org/1999/xlink" width="74" height="64" viewBox="0 0 74 64">
<path fill="#000" d="M62.173 64h-50.689c-1.391 0-2.604-0.948-2.941-2.296l-8.451-33.793c-0.406-1.625 0.582-3.271 2.205-3.677 1.627-0.408 3.271 0.582 3.677 2.205l7.875 31.497h45.955l7.873-31.497c0.404-1.625 2.050-2.612 3.675-2.205s2.614 2.052 2.207 3.677l-8.447 33.791c-0.336 1.35-1.548 2.298-2.939 2.298z"></path>
<path fill="#000" d="M44.26 29.356c0 0 3.232-29.356-25.689-29.356 17.353 9.254 11.928 29.356 11.928 29.356h-9.177l16.029 19.265 16.084-19.265h-9.175z"></path>
</svg>
