<?xml version="1.0" encoding="utf-8"?>
<!-- Generated by IcoMoon.io -->
<!DOCTYPE svg PUBLIC "-//W3C//DTD SVG 1.1//EN" "http://www.w3.org/Graphics/SVG/1.1/DTD/svg11.dtd">
<svg version="1.1" xmlns="http://www.w3.org/2000/svg" xmlns:xlink="http://www.w3.org/1999/xlink" width="64" height="64" viewBox="0 0 64 64">
<path fill="#000" d="M48.199 7.166c-11.836 0-15.989 10.764-15.989 10.764s-3.677-10.764-15.987-10.764-16.014 10.764-16.014 10.764v38.274c0 0 4.651-10.811 16.014-10.811s15.986 10.825 15.986 10.825 4.154-10.825 15.989-10.825 16.011 10.811 16.011 10.811v-38.036c0 0-4.174-11.002-16.010-11.002zM16.223 40.949c-4.78 0-8.599 1.483-11.57 3.465v-25.611c0.884-1.915 4.004-7.191 11.57-7.191 8.711 0 11.503 6.996 11.794 7.794l1.535 4.007v22.324c-3.164-2.609-7.536-4.788-13.329-4.788zM59.764 44.266c-2.942-1.909-6.744-3.316-11.566-3.316-5.843 0-10.186 2.068-13.314 4.596v-22.313l1.458-3.668c0.131-0.324 3.317-7.951 11.856-7.951 7.18 0 10.589 5.554 11.566 7.505v25.148z"></path>
</svg>
