<?xml version="1.0" encoding="utf-8"?>
<!-- Generated by IcoMoon.io -->
<!DOCTYPE svg PUBLIC "-//W3C//DTD SVG 1.1//EN" "http://www.w3.org/Graphics/SVG/1.1/DTD/svg11.dtd">
<svg version="1.1" xmlns="http://www.w3.org/2000/svg" xmlns:xlink="http://www.w3.org/1999/xlink" width="76" height="64" viewBox="0 0 76 64">
<path fill="#000" d="M70.053 20.021l-1.475 3.066c1.375 0.46 2.705 0.95 3.936 1.497-1.552 3.729-7.008 4.293-11.473 5.163-16.365 3.19-44.857 2.855-56.796-4.017 0.851-1.041 2.061-1.913 3.516-2.645l-1.485-3.488c-2.692 1.030-4.677 2.294-5.474 3.841-2.25 4.374 0.667 13.138 3.442 18.927 2.724 5.691 6.556 10.881 10.9 14.346 14.074 11.215 38.306 8.735 49.341-2.298 6.801-6.804 11.043-14.8 11.47-30.976-1.706-1.335-3.697-2.458-5.901-3.416z"></path>
<path fill="#000" d="M41.755 18.53c-0.335-0.107-0.69-0.168-1.040-0.197-2.036-0.178-4.111 1.339-3.354 3.832 0.482 1.588 1.713 2.557 3.131 3.299 0.175 0.092 0.371 0.090 0.569 0.030 0.417-0.125 0.673-0.404 0.744-0.817 0.081-0.471-0.148-0.825-0.539-1.067-0.756-0.474-1.484-0.979-1.88-1.818-0.373-0.784-0.014-1.367 0.854-1.428 0.702-0.049 1.318 0.206 1.918 0.525 1.017 0.54 1.666 0.203 1.814-0.94 0.093-0.712 0.277-1.391 0.691-1.987 0.535-0.773 1.359-0.902 2.124-0.351 0.854 0.619 1.152 1.633 0.783 2.802-0.149 0.474-0.195 0.904 0.179 1.283 0.379 0.382 0.823 0.314 1.287 0.173 0.813-0.248 1.631-0.479 2.494-0.478 0.283 0.017 0.57 0.008 0.847 0.053 0.541 0.090 0.688 0.386 0.439 0.869-0.197 0.38-0.477 0.7-0.8 0.982-0.497 0.434-1.059 0.766-1.622 1.105-0.502 0.303-0.647 0.858-0.397 1.332 0.238 0.452 0.799 0.691 1.266 0.462 1.374-0.671 2.583-1.553 3.341-2.925 0.893-1.617 0.236-3.188-1.527-3.727-0.961-0.295-1.928-0.235-2.89-0.049-0.38 0.074-0.453-0.053-0.471-0.393-0.068-1.195-0.593-2.174-1.489-2.947-1.484-1.28-3.458-1.218-4.789 0.13-0.549 0.554-0.902 1.221-1.14 1.953-0.095 0.292-0.223 0.397-0.541 0.296z"></path>
<path fill="#000" d="M58.824 17.493c0.721-0.412 1.363-0.963 2.093-1.352 1.174-0.619 1.641-1.546 1.45-2.79 0.016-0.738-0.032-1.424-0.217-2.096-0.486-1.768-2.239-3.010-3.91-2.731-1.15 0.195-2.071 0.83-2.767 1.741-0.819 1.078-1.335 2.324-1.776 3.598-0.116 0.336-0.139 0.693-0.087 1.049 0.373 2.523 3.007 3.837 5.213 2.58z"></path>
<path fill="#000" d="M10.985 20.405c0.495-0.174 0.783-0.661 0.662-1.183-0.081-0.344-0.21-0.675-0.314-1.014-0.218-0.705-0.262-1.427-0.157-2.151 0.031-0.242 0.11-0.515 0.374-0.602 0.277-0.090 0.462 0.126 0.632 0.301 0.377 0.391 0.604 0.873 0.802 1.367 0.166 0.418 0.397 0.748 0.891 0.8 0.505 0.052 0.841-0.193 1.101-0.596 0.26-0.405 0.574-0.766 0.948-1.069 0.661-0.54 1.18-0.431 1.474 0.375 0.375 1.037 0.3 2.062-0.387 2.972-1.059 1.404-0.997 1.646 0.647 2.372 0.73 0.323 1.459 0.663 1.92 1.363 0.339 0.513 0.232 0.893-0.317 1.166-0.505 0.253-1.052 0.295-1.698 0.255-0.103 0-0.297-0.005-0.492 0.003-0.583 0.020-0.954 0.353-0.997 0.889-0.045 0.576 0.27 0.979 0.856 1.088 1.095 0.2 2.155 0.082 3.166-0.379 1.724-0.791 2.224-2.67 1.134-4.219-0.435-0.617-0.987-1.131-1.661-1.458-0.51-0.245-0.519-0.496-0.318-0.974 0.571-1.354 0.561-2.733-0.065-4.071-0.83-1.775-2.651-2.264-4.247-1.174-0.713 0.489-0.713 0.489-1.332-0.139-1.628-1.65-3.762-1.11-4.365 1.118-0.422 1.567-0.045 3.056 0.569 4.495 0.19 0.444 0.739 0.617 1.176 0.464z"></path>
<path fill="#000" d="M27.641 6.549c1.353 0.16 2.702 0.234 4.068 0.113 2.213-0.196 3.347-1.346 3.236-3.366-0.087-1.591-1.23-2.958-2.655-3.163-0.628-0.090-1.261-0.169-1.961-0.118-0.258 0-0.576-0.018-0.893 0.003-1.393 0.087-2.332 0.684-2.606 1.709-0.334 1.24-0.412 2.507-0.249 3.781 0.084 0.673 0.397 0.962 1.061 1.041z"></path>
<path fill="#000" d="M29.381 17.011c-1.175-0.016-2.057 0.052-2.537 0.797-0.667 1.034-1.526 1.906-2.237 2.894-0.86 1.196-0.528 2.309 0.844 2.836 1.306 0.504 2.649 0.876 4.047 1.047 1.989 0.239 3.553-0.583 4.448-2.374 0.406-0.814 0.632-1.689 0.857-2.562 0.13-0.503-0.077-0.939-0.54-1.157-1.655-0.779-3.367-1.384-4.882-1.482z"></path>
<path fill="#000" d="M23.839 16.124c0.396 0.212 0.837 0.267 1.289 0.222 1.084-0.104 1.972-0.644 2.825-1.258 0.94-0.675 1.517-1.535 1.37-2.623-0.008-1.878-0.927-3.337-2.51-4.116-0.51-0.251-1.052-0.353-1.6-0.205-1.985 0.538-3.332 1.881-4.312 3.606-0.402 0.708-0.234 1.502 0.262 2.153 0.713 0.945 1.632 1.667 2.675 2.222z"></path>
<path fill="#000" d="M33.269 10.812c-0.287 0.983-0.031 1.823 0.84 2.353 1.929 1.169 3.959 1.359 6.034 0.408 0.902-0.413 1.579-1.080 1.783-2.107 0.428-2.144-1.389-4.346-3.568-4.334-2.77 0.014-4.352 1.16-5.089 3.681z"></path>
<path fill="#000" d="M60.536 22.942c-0.489 0.535-0.947 1.106-1.195 1.803-0.227 0.638-0.021 1.022 0.635 1.197 0.201 0.055 0.418 0.058 0.627 0.083 0.489 0.008 0.95-0.109 1.397-0.295 1.472-0.61 2.748-1.537 3.92-2.596 0.731-0.662 1.214-1.515 1.436-2.494 0.13-0.569 0.216-1.157-0.286-1.579-0.527-0.445-1.084-0.145-1.589 0.101-1.896 0.932-3.528 2.219-4.946 3.778z"></path>
<path fill="#000" d="M45.932 10.26c1.097-0.892 1.993-1.954 2.662-3.202 0.39-0.723 0.662-1.487 0.7-2.145 0.012-0.848-0.321-1.279-0.893-1.339-0.551-0.056-0.997 0.332-1.091 0.987-0.125 0.883-0.491 1.654-1.002 2.368-0.489 0.679-1.092 1.253-1.704 1.816-0.53 0.491-0.59 1.031-0.187 1.493 0.391 0.445 0.969 0.466 1.515 0.021z"></path>
<path fill="#000" d="M47.286 23.069c-0.392-0.103-0.797-0.143-1.035-0.186-1.657-0.036-2.928 0.677-3.39 1.806-0.228 0.558-0.077 1.061 0.404 1.332 0.479 0.273 1.040 0.169 1.334-0.347 0.352-0.619 0.873-0.784 1.515-0.74 0.261 0.018 0.523 0.071 0.786 0.093 0.584 0.053 1.019-0.256 1.134-0.801 0.113-0.53-0.178-1.009-0.747-1.158z"></path>
<path fill="#000" d="M13.399 20.304c-0.795-0.004-1.295 0.199-1.713 0.587-0.39 0.362-0.447 0.886-0.168 1.301 0.269 0.401 0.774 0.602 1.21 0.36 0.553-0.306 0.899-0.078 1.246 0.301 0.132 0.144 0.251 0.299 0.395 0.428 0.374 0.34 0.879 0.364 1.266 0.077 0.387-0.29 0.561-0.815 0.304-1.23-0.632-1.023-1.504-1.724-2.541-1.824z"></path>
</svg>
