<?xml version="1.0" encoding="utf-8"?>
<!-- Generated by IcoMoon.io -->
<!DOCTYPE svg PUBLIC "-//W3C//DTD SVG 1.1//EN" "http://www.w3.org/Graphics/SVG/1.1/DTD/svg11.dtd">
<svg version="1.1" xmlns="http://www.w3.org/2000/svg" xmlns:xlink="http://www.w3.org/1999/xlink" width="89" height="64" viewBox="0 0 89 64">
<path d="M45.488 6.875c-7.883 0.027-14.533 4.784-15.708 10.515-0.171 0.84-0.947 2.156-0.011 2.568 1.046 0.461 1.221-1.091 1.784-1.747 0.373-0.433 0.641-0.959 0.946-1.449 5.825-9.412 18.458-8.957 23.922-0.155 0.45 0.726 0.829 2.171 1.87 1.69 1.155-0.533 0.658-1.896 0.305-2.917-0.186-0.536-0.491-1.043-0.814-1.515-3.229-4.731-7.849-6.804-12.294-6.99zM56.514 0c-3.525-0.005-8.378 1.565-10.518 3.405-0.37 0.32-0.935 0.6-0.639 1.2 0.214 0.439 0.758 0.4 1.161 0.323 1.621-0.311 3.247-0.623 4.847-1.024 7.301-1.832 13.339 0.149 18.146 5.928 0.686 0.829 1.358 1.68 2.118 2.441 0.485 0.483 1.115 1.274 1.814 0.818 0.749-0.488 0.136-1.311-0.115-1.949-2.558-6.542-9.492-11.131-16.814-11.142zM44.342 11.666c-4.229 0.017-8.042 2.662-9.251 6.51-0.242 0.771-0.882 1.841-0.044 2.393 0.921 0.608 1.464-0.555 2.058-1.099 0.473-0.432 0.83-0.991 1.252-1.483 3.411-3.994 8.477-4.066 12.007-0.153 0.674 0.747 1.246 1.587 1.924 2.331 0.42 0.464 0.926 1.108 1.627 0.755 0.755-0.38 0.364-1.168 0.255-1.758-0.788-4.284-5.043-7.511-9.828-7.495zM69.293 17.976c1.491 0.023 2.776 0.662 4.019 1.399 0.929 0.549 1.826 1.149 2.752 1.697 0.367 0.22 0.805 0.423 1.18 0.049 0.379-0.374 0.171-0.823-0.024-1.193-1.553-2.941-4.010-4.837-7.287-5.060-3.12-0.212-5.99 0.791-7.766 3.685-0.379 0.617-1.115 1.42-0.347 2.117 0.645 0.591 1.332-0.145 1.941-0.452 1.787-0.897 3.39-2.22 5.532-2.243zM56.952 5.217c-0.568 0.095-1.344 0.223-2.118 0.364-0.5 0.091-1.106 0.183-1.202 0.744-0.121 0.718 0.556 0.941 1.065 1.161 3.962 1.696 7.928 3.378 11.903 5.047 0.503 0.212 1.127 0.612 1.543-0.027 0.317-0.494-0.183-0.935-0.468-1.33-2.587-3.593-6.058-5.626-10.722-5.958zM26.604 12.571c-3.99 0.033-7.229 2.265-8.32 5.734-0.194 0.615-0.536 1.324 0.024 1.827 0.632 0.568 1.209-0.049 1.714-0.402 2.423-1.696 4.831-3.409 7.23-5.138 0.5-0.361 1.312-0.67 1.061-1.435-0.245-0.747-1.077-0.544-1.708-0.586zM44.494 20.576c1.296 0 2.591 0.014 3.888-0.008 0.426-0.006 0.903-0.035 1.074-0.536 0.174-0.495-0.174-0.785-0.5-1.082-2.412-2.19-6.287-2.29-8.758-0.224-0.394 0.33-0.836 0.661-0.642 1.239 0.194 0.585 0.761 0.6 1.265 0.606 1.224 0.018 2.449 0.008 3.673 0.005z"></path>
<path d="M11.624 18.712c2.212-8.892 10.318-12.551 16.012-12.271 1.541 0.076 2.987 0.436 4.361 1.105 0.446 0.217 0.997 0.415 0.983 1.024-0.012 0.591-0.529 0.836-0.994 1.021-1.549 0.621-3.156 0.996-4.837 0.967-5.452-0.095-9.177 2.411-11.262 7.428-0.782 1.881-2.029 3.129-4.264 2.891 0-0.721 0-1.446 0-2.165z"></path>
<path d="M45.488 6.875c4.446 0.186 9.065 2.259 12.294 6.992 0.323 0.473 0.627 0.979 0.814 1.515 0.352 1.021 0.85 2.384-0.305 2.917-1.042 0.48-1.421-0.964-1.87-1.69-5.463-8.804-18.097-9.257-23.922 0.155-0.305 0.489-0.573 1.015-0.946 1.449-0.562 0.658-0.736 2.208-1.784 1.747-0.936-0.412-0.161-1.73 0.011-2.568 1.173-5.732 7.825-10.489 15.708-10.516z"></path>
<path d="M56.514 0c7.322 0.011 14.256 4.6 16.814 11.143 0.252 0.638 0.864 1.461 0.115 1.949-0.699 0.456-1.329-0.335-1.814-0.818-0.761-0.761-1.432-1.612-2.118-2.441-4.808-5.781-10.845-7.761-18.147-5.929-1.602 0.402-3.226 0.714-4.847 1.024-0.403 0.077-0.947 0.117-1.161-0.323-0.295-0.6 0.27-0.88 0.639-1.2 2.141-1.84 6.995-3.409 10.519-3.405z"></path>
<path d="M44.342 11.666c4.785-0.017 9.040 3.211 9.828 7.496 0.109 0.589 0.5 1.377-0.255 1.758-0.702 0.353-1.208-0.291-1.627-0.755-0.677-0.744-1.249-1.584-1.924-2.331-3.531-3.912-8.596-3.841-12.007 0.153-0.421 0.491-0.779 1.050-1.252 1.483-0.596 0.543-1.136 1.706-2.058 1.099-0.838-0.552-0.199-1.621 0.044-2.393 1.211-3.849 5.022-6.495 9.251-6.511z"></path>
<path d="M69.291 17.976c-2.14 0.023-3.744 1.346-5.525 2.243-0.609 0.306-1.296 1.043-1.941 0.452-0.77-0.699-0.032-1.5 0.347-2.117 1.776-2.893 4.646-3.896 7.766-3.685 3.276 0.221 5.732 2.117 7.287 5.060 0.195 0.37 0.403 0.818 0.024 1.193-0.376 0.374-0.814 0.17-1.18-0.049-0.926-0.549-1.823-1.149-2.752-1.697-1.247-0.736-2.532-1.376-4.026-1.399z"></path>
<path d="M56.952 5.217c4.664 0.332 8.136 2.365 10.722 5.96 0.285 0.396 0.785 0.836 0.468 1.33-0.414 0.639-1.040 0.238-1.543 0.027-3.975-1.671-7.94-3.352-11.903-5.047-0.509-0.22-1.187-0.442-1.065-1.161 0.094-0.561 0.702-0.655 1.202-0.744 0.774-0.141 1.55-0.268 2.118-0.365z"></path>
<path d="M26.606 12.569c0.629 0.044 1.461-0.158 1.706 0.589 0.252 0.765-0.561 1.074-1.061 1.435-2.399 1.729-4.808 3.441-7.23 5.138-0.505 0.352-1.082 0.97-1.714 0.402-0.559-0.503-0.218-1.212-0.024-1.827 1.093-3.47 4.331-5.702 8.322-5.737z"></path>
<path d="M44.494 20.578c-1.224 0.002-2.449 0.012-3.673-0.005-0.505-0.006-1.071-0.023-1.265-0.606-0.194-0.58 0.248-0.911 0.642-1.239 2.471-2.064 6.346-1.965 8.758 0.224 0.326 0.297 0.674 0.586 0.5 1.082-0.171 0.5-0.649 0.53-1.074 0.536-1.297 0.020-2.593 0.006-3.888 0.008z"></path>
<path d="M77.459 10.665l2.571 5.588c1.605 0.536 3.158 1.109 4.593 1.747-1.811 4.352-8.177 5.010-13.389 6.025-19.099 3.723-52.347 3.332-66.282-4.688 0.992-1.215 2.405-2.232 4.103-3.087l2.567-5.585c-6.643 1.905-9.757 4.193-10.689 5.998-2.626 5.105 0.779 15.332 4.017 22.090 3.179 6.642 7.651 12.697 12.721 16.742 16.424 13.088 44.703 10.193 57.581-2.682 7.937-7.94 12.889-17.273 13.386-36.15-1.99-1.558-5.367-4.093-11.18-5.998z"></path>
</svg>
