<?xml version="1.0" encoding="utf-8"?>
<!-- Generated by IcoMoon.io -->
<!DOCTYPE svg PUBLIC "-//W3C//DTD SVG 1.1//EN" "http://www.w3.org/Graphics/SVG/1.1/DTD/svg11.dtd">
<svg version="1.1" xmlns="http://www.w3.org/2000/svg" xmlns:xlink="http://www.w3.org/1999/xlink" width="83" height="64" viewBox="0 0 83 64">
<path fill="#000" d="M67.38 13.273c-0.434-0.152-0.789-0.401-1.097-0.725-1.4-1.478-3.115-2.402-5.081-2.875-0.407-0.098-0.762-0.243-1.013-0.593-0.704-0.983-1.676-1.622-2.768-2.078-0.514-0.215-0.843-0.559-1.118-1.035-1.907-3.317-5.725-4.559-9.268-3.007-0.488 0.213-0.893 0.256-1.364-0.007-1.23-0.687-2.566-0.925-3.963-0.858-0.494 0.024-0.979-0.006-1.334-0.415-0.649-0.752-1.535-1.164-2.348-1.678-1.452 0-2.906 0-4.358 0-1.747 0.723-3.355 1.639-4.176 3.449-0.357 0.785-0.882 1.155-1.701 1.33-1.976 0.421-3.741 1.259-5.042 2.873-0.307 0.38-0.713 0.482-1.142 0.604-2.358 0.667-4.082 2.060-4.897 4.422-0.218 0.634-0.579 0.981-1.222 1.185-1.082 0.34-2.074 0.866-2.9 1.68-1.536 1.512-2.085 3.347-2.175 5.324 0.943 0.349 1.937 0.681 2.983 0.999-0.017-0.41-0.018-0.821 0.018-1.235 0.223-2.566 1.936-4.202 4.475-4.088 1.004 0.044 1.331-0.198 1.347-1.216 0.030-1.829 0.745-3.428 2.624-3.924 1.556-0.411 2.927-0.862 3.739-2.368 0.138-0.253 0.496-0.404 0.777-0.559 1.148-0.633 2.404-0.947 3.684-1.117 0.892-0.118 1.452-0.371 1.659-1.381 0.394-1.932 1.747-2.929 3.644-3.2 1.849-0.265 2.973 0.735 3.714 2.282 0.323 0.673 0.684 0.769 1.316 0.366 0.782-0.499 1.632-0.513 2.557-0.314 1.653 0.358 2.634 1.422 3.212 2.91 0.525-0.235 0.595-0.626 0.787-0.916 1.353-2.031 3.237-2.454 5.335-1.206 1.094 0.651 1.605 1.663 1.863 2.845 0.097 0.444 0.115 0.909 0.768 0.846 1.417-0.134 2.398 0.622 3.135 1.691 0.477 0.691 1.045 1.033 1.862 1.162 1.858 0.296 3.434 1.154 4.627 2.626 0.404 0.499 0.879 0.78 1.486 0.95 2.013 0.566 3.054 1.842 3.168 3.91 0.053 0.964 0.060 1.94-0.024 2.9-0.010 0.105 0.001 0.188 0.004 0.279 1.239-0.283 2.431-0.586 3.569-0.907-0.366-0.572-0.506-1.196-0.538-1.976-0.135-3.297-1.546-5.799-4.823-6.953z"></path>
<path fill="#000" d="M72.711 13.934l2.415 5.246c1.506 0.504 2.963 1.041 4.311 1.64-1.7 4.085-7.677 4.703-12.568 5.655-17.928 3.495-49.14 3.128-62.219-4.401 0.932-1.141 2.257-2.095 3.852-2.897l2.41-5.243c-6.236 1.788-9.159 3.936-10.034 5.63-2.465 4.792 0.731 14.392 3.771 20.736 2.984 6.234 7.182 11.918 11.941 15.716 15.418 12.285 41.964 9.569 54.052-2.518 7.451-7.453 12.098-16.213 12.566-33.934-1.869-1.462-5.040-3.842-10.496-5.63z"></path>
</svg>
