<?xml version="1.0" encoding="utf-8"?>
<!-- Generated by IcoMoon.io -->
<!DOCTYPE svg PUBLIC "-//W3C//DTD SVG 1.1//EN" "http://www.w3.org/Graphics/SVG/1.1/DTD/svg11.dtd">
<svg version="1.1" xmlns="http://www.w3.org/2000/svg" xmlns:xlink="http://www.w3.org/1999/xlink" width="58" height="64" viewBox="0 0 58 64">
<path d="M57.668 33.204c-0.325 12.284-3.544 18.352-8.709 23.519-8.376 8.374-26.775 10.258-37.46 1.742-3.297-2.63-6.207-6.571-8.276-10.892-2.106-4.396-4.323-11.050-2.612-14.37 2.461-4.782 19.819-6.019 27.877-6.099 12.188-0.118 23 1.269 29.181 6.099zM18.467 30.153c-5.775 0.537-12.667 1.639-15.244 4.79 9.066 5.216 30.696 5.472 43.122 3.050 3.39-0.662 7.534-1.087 8.712-3.92-9.47-4.2-25.001-4.999-36.589-3.92z"></path>
<path d="M9.114 19.848l-4.447-10.014c-0.373-0.84 0.005-1.826 0.846-2.199v0c0.841-0.373 1.828 0.004 2.204 0.844v0l4.446 10.015c0.374 0.845-0.004 1.828-0.846 2.202v0c-0.221 0.097-0.451 0.144-0.677 0.144v0c-0.639-0.001-1.248-0.37-1.526-0.992v0z"></path>
<path d="M27.314 15.571v-13.906c0-0.92 0.75-1.665 1.672-1.665v0c0.922 0 1.666 0.744 1.666 1.665v0 13.906c0 0.925-0.744 1.672-1.666 1.672v0c-0.923-0.001-1.672-0.748-1.672-1.672v0z"></path>
<path d="M44.33 20.695c-0.845-0.376-1.221-1.361-0.847-2.206v0l4.447-10.012c0.375-0.84 1.361-1.22 2.203-0.846v0c0.843 0.375 1.221 1.36 0.847 2.201v0l-4.447 10.012c-0.278 0.624-0.89 0.994-1.527 0.994v0c-0.228 0.001-0.457-0.046-0.676-0.143v0z"></path>
</svg>
