<?xml version="1.0" encoding="utf-8"?>
<!-- Generated by IcoMoon.io -->
<!DOCTYPE svg PUBLIC "-//W3C//DTD SVG 1.1//EN" "http://www.w3.org/Graphics/SVG/1.1/DTD/svg11.dtd">
<svg version="1.1" xmlns="http://www.w3.org/2000/svg" xmlns:xlink="http://www.w3.org/1999/xlink" width="96" height="64" viewBox="0 0 96 64">
<path fill="#000" d="M2.581 0.359c2.719-0.7 8.516-0.16 11.937-0.16 23.464 0 45.639 0 69.706 0 3.86 0 9.321-0.486 10.669 0.953 1.062 1.147 0.793 4.663 0.793 7.164 0 16.201 0 31.268 0 47.745 0 2.823 0.224 5.909-0.959 7.003-1.533 1.431-7.68 0.798-11.14 0.798-24.041 0-47.186 0-71.614 0-3.568 0-9.621 0.506-10.983-0.956-1.573-1.687-0.799-11.95-0.799-15.278 0-6.242 0-9.981 0-15.439 0-9.224 0-15.101 0-23.395-0.001-4.323-0.715-7.636 2.39-8.435zM19.292 7.042c-0.857 7.475-4.978 11.683-12.735 12.259 0 8.486 0 16.974 0 25.461 7.884 0.608 12.125 4.852 12.735 12.736 19.095 0 38.193 0 57.293 0 0.599-7.894 4.866-12.118 12.731-12.736 0-8.487 0-16.975 0-25.461-7.855-0.632-12.111-4.866-12.731-12.736-19.043 0-38.089 0-57.132 0-0.191 0.028-0.177 0.253-0.161 0.477z"></path>
<path fill="#000" d="M46.344 11.5c5.246-0.605 9.967 2.095 12.42 5.089 4.333 5.307 6.584 15.023 3.659 23.557-0.937 2.731-2.125 5.443-3.659 7.319-4.103 5.019-11.539 6.961-17.51 3.505-4.959-2.872-8.784-10.127-9.231-17.349-0.41-6.609 2.005-13.25 5.091-17.033 1.839-2.24 5.182-4.622 9.23-5.089zM45.551 17.707c-2.525 2.141-4.852 4.483-7.319 6.682 1.161 1.441 2.274 2.925 3.821 3.981 0.988-0.658 1.947-2.186 2.705-2.55 0 4.725 0 9.446 0 14.165-2.126 0-4.248 0-6.371 0 0 1.592 0 3.183 0 4.775 6.371 0 12.732 0 19.096 0 0-1.591 0-3.182 0-4.775-2.069-0.106-4.56 0.212-6.365-0.161 0-7.372 0-14.745 0-22.117-1.855 0-3.711 0-5.568 0z"></path>
</svg>
