<?xml version="1.0" encoding="utf-8"?>
<!-- Generated by IcoMoon.io -->
<!DOCTYPE svg PUBLIC "-//W3C//DTD SVG 1.1//EN" "http://www.w3.org/Graphics/SVG/1.1/DTD/svg11.dtd">
<svg version="1.1" xmlns="http://www.w3.org/2000/svg" xmlns:xlink="http://www.w3.org/1999/xlink" width="51" height="64" viewBox="0 0 51 64">
<path d="M31.715 64c-3.835-3.294-8.239-0.826-12.815-0.417-5.188 0.464-10.023-1.719-12.149-7.256-0.51-1.328-0.545-3.039 0.9-3.901 1.718-1.023 1.322 1.181 2.102 1.717 2.873 1.976 5.89 2.315 8.611 0.216 5.047-3.895 9.737-3.788 14.757 0.057 2.742 2.101 5.755 1.65 8.603-0.345 0.721-0.506 0.21-2.835 2.047-1.566 1.208 0.836 1.402 2.278 0.939 3.603-2.045 5.839-7.026 7.053-12.994 7.893z"></path>
<path d="M32.893 43.998c1.16 0.306 2.054 0.982 1.953 2.245-0.097 1.226-0.965 2.011-2.237 1.889-1.191-0.113-2.116-0.823-1.979-2.145 0.128-1.227 1.022-1.858 2.262-1.989z"></path>
<path d="M18.71 44.035c1.242 0.243 1.974 0.942 1.885 2.251-0.090 1.347-0.963 1.96-2.218 1.847-1.133-0.102-1.752-0.922-1.75-2.028 0.002-1.31 0.829-1.938 2.083-2.070z"></path>
<path d="M49.974 11.862c-1.835-3.517-4.985-5.24-8.978-4.986-1.784 0.113-2.909-0.17-4.099-1.789-4.962-6.752-17.33-6.785-22.337-0.088-1.147 1.534-2.145 2.015-4.037 1.876-4.094-0.298-7.294 1.484-9.225 5.168-2.003 3.823-1.767 7.853 1.249 10.729 4.287 4.087 4.449 9.104 4.493 14.26 0.023 2.431 0.799 3.765 3.266 4.003 5.365 0.517 10.726 1.061 15.853 1.571 5.113-0.538 9.926-1.078 14.746-1.538 2.616-0.251 3.501-1.607 3.46-4.188-0.080-5.201 0.326-10.121 4.569-14.217 3.002-2.897 2.982-7.075 1.039-10.799zM47.626 17.763c-0.658 3.174-2.711 5.201-5.834 6.109-1.084 0.315-3.047 0.488-3.108 0.932-0.223 1.628 1.901 0.652 2.363 1.475 1.778 3.179-0.515 6.357-0.215 9.585 0.16 1.726-1.236 2.127-2.654 2.259-3.724 0.349-7.448 0.696-11.173 1.043-0.004-0.1-0.010-0.199-0.013-0.298-2.311 0-4.626 0.089-6.933-0.016-9.416-0.428-10.089-1.119-10.511-10.478-0.023-0.527-0.038-1.166 0.221-1.578 1.319-2.107 1.262-1.921-1.447-3.396-3.893-2.119-6.317-5.404-3.945-9.755 2.315-4.248 6.060-4.791 9.957-1.677 1.525 1.22 1.486 0.196 1.667-0.901 0.898-5.434 4.633-7.652 9.618-7.622 5.058 0.030 9.059 2.006 9.649 7.837 0.154 1.522 0.658 1.731 1.796 0.649 2.539-2.415 5.407-2.366 8.158-0.577 2.244 1.461 2.931 3.863 2.404 6.411z"></path>
</svg>
