<?xml version="1.0" encoding="utf-8"?>
<!-- Generated by IcoMoon.io -->
<!DOCTYPE svg PUBLIC "-//W3C//DTD SVG 1.1//EN" "http://www.w3.org/Graphics/SVG/1.1/DTD/svg11.dtd">
<svg version="1.1" xmlns="http://www.w3.org/2000/svg" xmlns:xlink="http://www.w3.org/1999/xlink" width="73" height="64" viewBox="0 0 73 64">
<path d="M51.114 11.171c1.078-0.486 2.058-0.966 3.066-1.376 4.201-1.708 8.409-1.581 12.488 0.293 4.031 1.851 6.18 5.185 6.607 9.553 0.502 5.131-0.928 9.557-5.198 12.758-2.27 1.7-4.906 2.414-7.711 2.517-1.062 0.040-2.127 0.007-3.309 0.007-0.21 4.932-0.419 9.821-0.633 14.836-1.545 0.11-3.066 0.219-4.706 0.337 0-0.378 0-0.677 0-0.976 0-1.908 0.004-3.814-0.003-5.722-0.002-0.391 0.038-0.814-0.093-1.166-0.125-0.331-0.411-0.767-0.695-0.826-0.273-0.056-0.706 0.247-0.939 0.51-0.247 0.28-0.362 0.686-0.495 1.053-0.797 2.213-1.597 4.424-2.359 6.649-0.171 0.497-0.403 0.718-0.943 0.713-2.35-0.021-4.7-0.010-7.144-0.010-0.383-2.172-0.772-4.428-1.184-6.68-0.105-0.573-0.215-1.166-0.453-1.691-0.126-0.273-0.535-0.576-0.816-0.575s-0.622 0.316-0.824 0.58c-0.175 0.226-0.219 0.568-0.273 0.867-0.453 2.508-0.895 5.018-1.352 7.595-0.25 0.016-0.492 0.048-0.736 0.046-2.019-0.017-4.039-0.070-6.057-0.048-0.652 0.007-0.916-0.235-1.117-0.828-0.753-2.228-1.554-4.44-2.361-6.649-0.253-0.692-0.445-1.69-1.374-1.546-1.008 0.157-0.82 1.199-0.83 1.954-0.029 1.963-0.010 3.927-0.010 5.89 0 0.275 0 0.549 0 0.948-1.581-0.102-3.075-0.198-4.695-0.302-0.214-4.986-0.425-9.925-0.646-15.082-1.59 0-3.139 0.146-4.652-0.024-6.884-0.78-11.557-6.032-11.664-12.97-0.056-3.685 0.882-6.997 3.61-9.619 2.399-2.306 5.372-3.257 8.617-3.505 2.833-0.217 5.521 0.31 8.063 1.585 0.622 0.312 1.265 0.581 1.981 0.908 0.387-0.854 0.736-1.668 1.119-2.466 2.683-5.609 7.135-8.704 13.348-8.711 5.816-0.007 10.13 2.836 12.888 7.968 0.541 1.005 0.966 2.075 1.486 3.203z"></path>
<path d="M17.518 63.136c-0.136-3.256-0.262-6.271-0.391-9.383 13.071 0.771 26.047 0.751 39.137-0.137-0.125 3.028-0.248 5.985-0.374 9.071-12.782 1.733-25.532 1.613-38.371 0.45z"></path>
</svg>
