<?xml version="1.0" encoding="utf-8"?>
<!-- Generated by IcoMoon.io -->
<!DOCTYPE svg PUBLIC "-//W3C//DTD SVG 1.1//EN" "http://www.w3.org/Graphics/SVG/1.1/DTD/svg11.dtd">
<svg version="1.1" xmlns="http://www.w3.org/2000/svg" xmlns:xlink="http://www.w3.org/1999/xlink" width="64" height="64" viewBox="0 0 64 64">
<path d="M63.422 17.689c0-7.388-5.988-12.474-13.377-12.474-1.616 0-3.158 0.301-4.594 0.827-3.342-3.725-8.18-6.085-13.58-6.085-5.403 0-10.241 2.36-13.583 6.089-1.437-0.528-2.984-0.83-4.604-0.83-7.388 0-13.377 5.087-13.377 12.474 0 7.016 5.403 12.759 12.276 13.321v15.624c0 4.238 8.614 7.676 19.24 7.676s19.243-3.437 19.243-7.676v-15.62c6.909-0.523 12.356-6.281 12.356-13.324zM30.148 46.634v-11.394c0.554 0.024 1.111 0.038 1.676 0.038 0.62 0 1.229-0.016 1.833-0.044v13.616h-3.508v-2.217zM41.637 46.634v-12.502c1.271-0.375 2.446-0.477 3.507-0.981v13.665c-0.927 0.581-2.113 1.132-3.507 1.608v-1.789zM18.832 47.011v-13.705c1.066 0.484 2.244 0.564 3.508 0.92v14.308c-1.38-0.446-2.557-0.967-3.508-1.523z"></path>
<path d="M12.583 52.978v2.208c0 0.252 0.011 0.476 0.028 0.687-0.019 0.132-0.028 0.268-0.028 0.408 0 4.24 8.614 7.676 19.24 7.676s19.243-3.436 19.243-7.676c0-0.14-0.011-0.276-0.029-0.408 0.018-0.212 0.029-0.436 0.029-0.687v-2.208c-4.315 3.292-11.962 4.838-19.243 4.838s-14.927-1.547-19.24-4.838z"></path>
</svg>
