<?xml version="1.0" encoding="utf-8"?>
<!-- Generated by IcoMoon.io -->
<!DOCTYPE svg PUBLIC "-//W3C//DTD SVG 1.1//EN" "http://www.w3.org/Graphics/SVG/1.1/DTD/svg11.dtd">
<svg version="1.1" xmlns="http://www.w3.org/2000/svg" xmlns:xlink="http://www.w3.org/1999/xlink" width="53" height="64" viewBox="0 0 53 64">
<path fill="#000" d="M42.086 1.546c-1.349 1.405-3.076 2.336-4.674 3.436-10.867 7.48-22.091 15.344-33.007 22.964-0.055-1.006 0.916-1.565 1.512-2.2 4.394-4.665 10.023-8.325 15.404-12.373 2.967-2.236 6.041-4.507 9.075-6.742 1.517-1.116 3.128-2.172 4.677-3.3 1.583-1.155 2.931-2.403 4.675-3.161 1.104-0.481 2.15 0.087 2.338 1.375z"></path>
<path fill="#000" d="M8.944 28.773c1.157-1.387 2.911-2.186 4.538-3.028 4.911-2.537 10.164-4.731 15.678-7.014 7.216-2.981 14.828-6.074 22.003-8.114 0.797-0.223 1.894 0.109 1.926 1.239 0.050 1.787-3.337 2.363-4.814 2.889-12.978 4.592-26.316 9.549-39.331 14.027z"></path>
<path fill="#000" d="M0.143 37.163c17.282 0 34.564 0 51.845 0-0.394 6.704-1.614 12.226-4.538 16.775-1.767 2.746-4.465 5.259-7.151 7.702-0.882 0.802-1.977 2.014-2.752 2.199-1.514 0.364-3.757 0-5.637 0-3.962 0-7.322 0-11.277 0-1.847 0-3.825 0.32-5.5 0-1.069-0.2-2.105-1.253-3.163-2.063-6.74-5.171-11.423-13.041-11.964-24.205-0.012-0.192-0.023-0.388 0.138-0.409z"></path>
<path fill="#000" d="M18.158 34.548c-0.231-0.324 0.484-1.473 0-2.063-2.192-1.678-5.095 0.933-5.776 2.75-1.787-0.025-3.834 0.731-5.776 0.824-0.457 0.023-1.351 0.391-1.375-0.412 0.065-0.722 0.97-0.568 1.375-0.688 1.443-0.436 3.479-0.717 4.813-1.375 1.364-0.674 2.216-2.146 3.438-2.611 1.376-0.524 2.712-0.010 4.538-0.416 1.188-0.262 1.929-1.563 3.3-2.063 3.082-1.119 6.020 0.428 7.84 2.063 1.717-0.532 3.405-0.765 4.814-0.135 1.359 0.606 2.114 2.111 3.161 2.749 3.075 0.042 5.279 0.955 7.288 2.064-0.663 0.833-1.928 0.427-3.025 0.274-1.638-0.226-3.41-0.652-4.951-0.138-1.034-0.911-1.147-1.926-2.202-2.749-2.382-1.864-5.811-0.141-8.113 0.962 0.092-0.724 1.302-1.536 0.825-2.611-0.403-0.908-2.681-1.234-3.987-1.102-2.968 0.299-4.235 4.131-6.188 4.676z"></path>
</svg>
