<?xml version="1.0" encoding="utf-8"?>
<!-- Generated by IcoMoon.io -->
<!DOCTYPE svg PUBLIC "-//W3C//DTD SVG 1.1//EN" "http://www.w3.org/Graphics/SVG/1.1/DTD/svg11.dtd">
<svg version="1.1" xmlns="http://www.w3.org/2000/svg" xmlns:xlink="http://www.w3.org/1999/xlink" width="64" height="64" viewBox="0 0 64 64">
<path d="M32.062 0c-17.707 0-32.062 14.355-32.062 32.062 0 8.769 3.524 16.711 9.228 22.5 0.173-1.76 0.511-3.599 0.938-5.405 0.921-3.91 2.699-7.066 4.894-8.562 1.122-0.766 2.616-1.284 4.369-1.401 0.025 0 0.2-0.171 0.351-0.176 2.339-0.059 4.956 2.764 6.815 3.498 5.472 2.161 10.897 0.507 14.681-1.923 0.889-0.574 1.971-1.455 2.973-1.576 1.649-0.196 3.645 0.606 4.718 1.226 2.835 1.641 4.163 4.394 5.068 7.341 0.538 1.747 1.058 4.112 1.305 6.514 5.442-5.746 8.786-13.498 8.786-22.037 0-17.708-14.353-32.062-32.062-32.062zM41.8 36.923c-1.088 1.217-2.929 2.659-4.544 3.321-6.419 2.628-13.705-0.925-16.253-5.943-1.544-3.037-1.921-7.387-0.176-11.188 1.411-3.068 4.629-6.369 10.136-6.989 4.848-0.541 8.396 1.296 10.837 4.020 3.765 4.202 4.185 12.107 0 16.778zM32.186 63.98c0 0.011 0.009 0.020 0.020 0.020s0.020-0.009 0.020-0.020c0-0.011-0.009-0.020-0.020-0.020s-0.020 0.009-0.020 0.020z"></path>
</svg>
