<?xml version="1.0" encoding="utf-8"?>
<!-- Generated by IcoMoon.io -->
<!DOCTYPE svg PUBLIC "-//W3C//DTD SVG 1.1//EN" "http://www.w3.org/Graphics/SVG/1.1/DTD/svg11.dtd">
<svg version="1.1" xmlns="http://www.w3.org/2000/svg" xmlns:xlink="http://www.w3.org/1999/xlink" width="64" height="64" viewBox="0 0 64 64">
<path d="M25.206 46.31h5.98v-5.381h-5.921c-0.14 1.673-0.019 3.608-0.059 5.381zM25.206 39.731h5.98v-5.981h-5.921c-0.14 1.875-0.019 4.006-0.059 5.981zM25.206 32.554h5.98v-5.384h-5.921c-0.14 1.675-0.019 3.608-0.059 5.384zM18.626 32.554h5.383v-5.384h-5.323c-0.14 1.675-0.020 3.608-0.060 5.384zM25.804 20.892c0-0.775 0.177-2.752-0.179-3.112-0.338-0.333-1.295-0.158-1.915-0.117-0.379 0.283-0.299 0.844-0.299 1.375v1.733c0 0.844-0.238 2.815 0.179 3.231 0.322 0.323 1.725 0.308 2.034 0 0.397-0.4 0.179-2.262 0.179-3.11zM18.626 46.31h5.383v-5.381h-5.323c-0.14 1.673-0.020 3.608-0.060 5.381zM32.383 46.31h5.981v-5.381h-5.921c-0.14 1.673-0.022 3.608-0.060 5.381zM18.626 39.731h5.383v-5.981h-5.323c-0.14 1.875-0.020 4.006-0.060 5.981zM39.558 32.554h5.386v-5.384h-5.323c-0.14 1.675-0.021 3.608-0.062 5.384zM39.558 39.731h5.386v-5.981h-5.323c-0.14 1.875-0.021 4.006-0.062 5.981zM32 0c-17.672 0-32 14.327-32 32s14.328 32 32 32c17.673 0 32-14.327 32-32s-14.327-32-32-32zM45.66 48.583c-0.858 0.26-2.181 0.121-3.41 0.121h-21.112c-1.198 0-2.614 0.14-3.349-0.121-0.601-0.212-1.256-0.927-1.436-1.435-0.25-0.706-0.12-2.010-0.12-3.108v-19.321c0-1.077-0.134-2.227 0.12-3.050 0.515-1.669 2.141-1.823 4.666-1.677-0.268-2.571 0.423-4.354 2.392-4.721 3.268-0.614 5.335 1.058 4.785 4.665 2.272 0.14 4.804 0.019 7.178 0.056-0.217-2.421 0.264-4 1.971-4.604 0.867-0.304 2.348-0.394 3.35 0 1.554 0.612 2.086 2.252 1.854 4.604 1.136 0.071 2.267-0.14 3.11 0.121 0.727 0.225 1.331 0.806 1.556 1.438 0.269 0.75 0.119 1.967 0.119 3.108v19.381c0 2.427 0.169 3.983-1.675 4.543zM32.383 39.731h5.981v-5.981h-5.921c-0.14 1.875-0.022 4.006-0.060 5.981zM39.558 46.31h5.386v-5.381h-5.323c-0.14 1.673-0.021 3.608-0.062 5.381zM32.383 32.554h5.981v-5.384h-5.921c-0.14 1.675-0.022 3.608-0.060 5.384zM40.158 20.892c0-0.775 0.177-2.752-0.179-3.112-0.336-0.333-1.296-0.158-1.912-0.117-0.379 0.283-0.3 0.844-0.3 1.375v1.733c0 0.844-0.238 2.815 0.179 3.231 0.321 0.323 1.723 0.308 2.034 0 0.397-0.4 0.179-2.262 0.179-3.11z"></path>
</svg>
