<?xml version="1.0" encoding="utf-8"?>
<!-- Generated by IcoMoon.io -->
<!DOCTYPE svg PUBLIC "-//W3C//DTD SVG 1.1//EN" "http://www.w3.org/Graphics/SVG/1.1/DTD/svg11.dtd">
<svg version="1.1" xmlns="http://www.w3.org/2000/svg" xmlns:xlink="http://www.w3.org/1999/xlink" width="64" height="64" viewBox="0 0 64 64">
<path fill="#1d1d1b" d="M32 64c-17.645 0-32-14.354-32-31.999s14.355-32.001 32-32.001c17.645 0 32 14.356 32 32.001s-14.355 31.999-32 31.999zM32 1.048c-17.067 0-30.951 13.885-30.951 30.953s13.885 30.953 30.951 30.953c17.065 0 30.953-13.885 30.953-30.953s-13.885-30.953-30.953-30.953z"></path>
<path fill="#000" d="M45.562 51.265h-25.512c-0.605 0-1.095-0.491-1.095-1.094v-35.232c0-0.604 0.489-1.094 1.095-1.094h17.009c0.288 0 0.567 0.116 0.772 0.32l8.503 8.504c0.208 0.205 0.322 0.483 0.322 0.775v26.725c0 0.605-0.488 1.096-1.094 1.096zM21.144 49.075h23.324v-25.179l-7.862-7.864h-15.462v33.044z"></path>
<path fill="#000" d="M45.562 24.537h-8.503c-0.609 0-1.095-0.49-1.095-1.093v-8.505h2.187v7.41h7.411v2.188z"></path>
<path fill="#000" d="M33.15 26.967h-6.893c-0.605 0-1.095-0.49-1.095-1.095s0.489-1.094 1.095-1.094h6.893c0.606 0 1.094 0.489 1.094 1.094 0.001 0.605-0.489 1.095-1.094 1.095z"></path>
<path fill="#000" d="M40.041 31.828h-13.785c-0.605 0-1.095-0.49-1.095-1.095s0.489-1.094 1.095-1.094h13.785c0.605 0 1.094 0.489 1.094 1.094s-0.487 1.095-1.094 1.095z"></path>
<path fill="#000" d="M40.041 36.685h-13.785c-0.605 0-1.095-0.487-1.095-1.093s0.489-1.095 1.095-1.095h13.785c0.605 0 1.094 0.491 1.094 1.095 0.001 0.605-0.487 1.093-1.094 1.093z"></path>
<path fill="#000" d="M40.041 41.547h-13.785c-0.605 0-1.095-0.491-1.095-1.094 0-0.605 0.489-1.095 1.095-1.095h13.785c0.605 0 1.094 0.489 1.094 1.095 0.001 0.602-0.487 1.094-1.094 1.094z"></path>
</svg>
