<?xml version="1.0" encoding="utf-8"?>
<!-- Generated by IcoMoon.io -->
<!DOCTYPE svg PUBLIC "-//W3C//DTD SVG 1.1//EN" "http://www.w3.org/Graphics/SVG/1.1/DTD/svg11.dtd">
<svg version="1.1" xmlns="http://www.w3.org/2000/svg" xmlns:xlink="http://www.w3.org/1999/xlink" width="64" height="64" viewBox="0 0 64 64">
<path fill="#000" d="M31.677 17.966c-2.302 0.171-4.825 1.325-6.093 2.733-0.992 1.1-1.756 2.558-1.681 4.552 0.080 2.102 1.266 3.348 2.312 4.483 1.717 1.862 3.206 4.058 3.572 7.143h5.043c0.236-2.404 1.127-3.94 2.239-5.46 1.362-1.865 3.562-3.254 3.644-6.237 0.052-1.886-0.783-3.488-1.681-4.481-1.471-1.631-4.383-2.952-7.355-2.733zM37.211 25.18c-0.098 0.314-0.454 0.492-0.7 0.492-0.814 0-0.56-0.706-0.842-1.331-0.279-0.623-1.121-0.965-1.89-1.19-0.628-0.185-2.066-0.167-2.172-0.842-0.072-0.454 0.176-0.65 0.49-0.771 1.022-0.396 3.136 0.402 3.993 1.121 0.419 0.35 1.4 1.621 1.121 2.521zM31.999 0c-17.671 0-31.999 14.326-31.999 32.001 0 17.67 14.328 31.999 31.999 31.999 17.675 0 31.999-14.329 31.999-31.999 0-17.675-14.324-32.001-31.999-32.001zM43.515 25.672c-0.331 4.625-3.892 6.029-5.462 9.666-0.192 0.438-0.494 1.312-0.421 1.679 0.079 0.404 0.634 0.585 0.84 1.123 0.308 0.788 0.15 1.573-0.348 2.173 0.112 0.398 0.436 0.688 0.488 1.188 0.096 0.894-0.34 1.738-0.979 2.033 0.81 1.581-0.283 3.246-2.031 3.152-0.375 0.442-0.558 0.902-0.981 1.26-1.755 1.488-4.83 0.784-5.533-1.26-1.762 0.127-2.929-1.517-2.101-3.081-0.979-0.429-1.327-2.358-0.492-3.223-0.442-0.694-0.673-1.267-0.35-2.171 0.209-0.586 0.747-0.744 0.842-1.123 0.207-0.833-0.893-2.658-1.192-3.15-1.812-2.991-5.036-4.481-4.693-9.598 0.348-5.173 5.143-8.779 10.227-9.177 3.589-0.279 6.605 0.975 8.757 2.731 2.084 1.704 3.686 4.211 3.43 7.777z"></path>
</svg>
