<?xml version="1.0" encoding="utf-8"?>
<!-- Generated by IcoMoon.io -->
<!DOCTYPE svg PUBLIC "-//W3C//DTD SVG 1.1//EN" "http://www.w3.org/Graphics/SVG/1.1/DTD/svg11.dtd">
<svg version="1.1" xmlns="http://www.w3.org/2000/svg" xmlns:xlink="http://www.w3.org/1999/xlink" width="64" height="64" viewBox="0 0 64 64">
<path d="M42.92 55.056c-0.168-1.173-1.212-2.473-2.321-2.889l-13.198-4.949c-1.109-0.416-2.702-1.442-3.54-2.279l-3.416-3.416c-0.838-0.838-0.554-1.523 0.631-1.523s2.839 0.685 3.677 1.523l1.262 1.262c0.838 0.838 2.482 1.66 3.655 1.828l10.812 1.544c1.173 0.168 1.768-0.594 1.324-1.692l-0.999-2.469c-0.444-1.098-0.22-1.996 0.5-1.996s1.993 0.685 2.83 1.523l5.57 5.57c0.838 0.838 1.523 2.492 1.523 3.677s0.62 2.898 1.379 3.808l0.916 1.1c6.435-5.853 10.474-14.294 10.474-23.678 0-17.674-14.326-32-32-32s-32 14.326-32 32 14.326 32 32 32c4.196 0 8.2-0.816 11.872-2.284l-0.952-6.66zM30 18.041v-2.041h-1c-0.55 0-1-0.45-1-1s0.45-1 1-1h6c0.55 0 1 0.45 1 1s-0.45 1-1 1h-1v2.096c9.645 0.739 17.111 5.933 17.111 15.904h-39.111c0-10.276 7.928-15.478 18-15.959zM6.195 35.306h52.536c0 1.413-1.473 2.57-3.274 2.57h-45.988c-1.801 0-3.274-1.156-3.274-2.57z"></path>
</svg>
