<?xml version="1.0" encoding="utf-8"?>
<!-- Generated by IcoMoon.io -->
<!DOCTYPE svg PUBLIC "-//W3C//DTD SVG 1.1//EN" "http://www.w3.org/Graphics/SVG/1.1/DTD/svg11.dtd">
<svg version="1.1" xmlns="http://www.w3.org/2000/svg" xmlns:xlink="http://www.w3.org/1999/xlink" width="66" height="64" viewBox="0 0 66 64">
<path fill="#000" d="M33.062 0c-18.26 0-33.062 14.802-33.062 33.062 0 14.152 8.894 26.221 21.395 30.938l-4.864-22.672-8.363 7.589-1.231-1.105 10.372-10.374 8.166 12.197h15.171l3.018-4.507h-8.188c-0.528-0.001-0.965-0.439-0.965-0.965s0.438-0.965 0.965-0.966h9.482l4.028-6.016 10.201 10.201-1.029 1.332-8.566-7.387-4.864 22.672c12.501-4.717 21.395-16.786 21.395-30.938 0-18.26-14.802-33.062-33.062-33.062zM26.2 16.364l10.173 19.967h-1.806l-10.541-18.86 2.173-1.107zM15.632 22.693l1.896-1.535 12.274 15.173h-2.242l-11.928-13.639zM44.271 41.911l-8.795 0.001c-1.244 0.002-2.252 1.009-2.254 2.252 0.002 1.243 1.009 2.25 2.254 2.252h5.777l-1.294 1.931h-13.796l-7.185-10.729h28.166l-2.873 4.292z"></path>
</svg>
