<?xml version="1.0" encoding="utf-8"?>
<!-- Generated by IcoMoon.io -->
<!DOCTYPE svg PUBLIC "-//W3C//DTD SVG 1.1//EN" "http://www.w3.org/Graphics/SVG/1.1/DTD/svg11.dtd">
<svg version="1.1" xmlns="http://www.w3.org/2000/svg" xmlns:xlink="http://www.w3.org/1999/xlink" width="64" height="64" viewBox="0 0 64 64">
<path fill="#000" d="M32 64c-17.645 0-32-14.355-32-31.999s14.355-32.001 32-32.001 32.001 14.356 32.001 32.001-14.356 31.999-32.001 31.999zM32 1.048c-17.067 0-30.951 13.885-30.951 30.952s13.885 30.952 30.951 30.952 30.952-13.885 30.952-30.952-13.885-30.952-30.952-30.952z"></path>
<path fill="#000" d="M44.614 39.571c-1.186-0.654-2.248-1.146-3.426-1.908-0.557-0.359-1.239-0.906-1.773-0.886-0.864 0.036-1.575 1.21-2.029 1.779-0.431 0.538-1.269 1.735-2.029 1.773-0.569 0.029-1.235-0.508-1.775-0.823-1.671-0.986-3.368-2.169-4.567-3.361-1.241-1.242-2.348-2.899-3.355-4.565-0.334-0.55-0.884-1.196-0.823-1.836 0.077-0.831 1.154-1.412 1.838-1.965 0.472-0.385 1.694-1.168 1.707-2.092 0.014-0.486-0.538-1.171-0.881-1.709-0.787-1.217-1.279-2.284-1.906-3.425-0.314-0.573-0.619-1.172-1.137-1.521-1.207 0.067-2.372 0.171-3.234 0.633-0.863 0.46-1.485 1.471-1.967 2.348-0.808 1.461-1.294 3.165-0.892 5.259 0.235 1.194 0.753 2.481 1.209 3.678 1.388 3.638 3.405 6.126 5.958 8.683 2.592 2.592 5.109 4.594 8.685 5.957 1.207 0.46 2.503 0.971 3.742 1.204 2.147 0.4 3.623-0.071 5.135-0.884 0.871-0.474 1.825-1.017 2.34-1.967 0.405-0.744 0.692-1.963 0.694-3.232-0.362-0.546-0.976-0.844-1.514-1.14z"></path>
</svg>
