<?xml version="1.0" encoding="utf-8"?>
<!-- Generated by IcoMoon.io -->
<!DOCTYPE svg PUBLIC "-//W3C//DTD SVG 1.1//EN" "http://www.w3.org/Graphics/SVG/1.1/DTD/svg11.dtd">
<svg version="1.1" xmlns="http://www.w3.org/2000/svg" xmlns:xlink="http://www.w3.org/1999/xlink" width="64" height="64" viewBox="0 0 64 64">
<path d="M0 32c0-17.675 14.328-32 32-32v0c17.67 0 32 14.325 32 32v0c0 17.67-14.33 31.997-32 32v0c-17.672-0.003-32-14.33-32-32v0zM1.563 32c0.030 16.81 13.627 30.408 30.437 30.437v0c16.81-0.030 30.409-13.627 30.439-30.437v0c-0.030-16.812-13.629-30.406-30.439-30.439v0c-16.81 0.033-30.408 13.627-30.437 30.439v0z"></path>
<path d="M32.225 15.412c2.643 0 4.63 1.132 6.050 2.713 2.483 2.775 2.764 7.994 0 11.077-0.721 0.802-1.934 1.756-2.999 2.192-0.99 0.404-2.009 0.585-3.013 0.585-3.3 0-6.428-1.97-7.714-4.505-1.019-2.007-1.269-4.878-0.117-7.383 0.93-2.028 3.058-4.208 6.692-4.616 0.378-0.042 0.745-0.062 1.1-0.062zM40.237 30.565c1.010 0 2.134 0.462 2.766 0.827 1.872 1.082 2.747 2.9 3.348 4.845 0.755 2.46 1.467 6.775 0.457 9.228-0.331 0.805-1.394 2.054-2.421 2.54-1.113 0.52-2.632 0.582-4.325 0.582-0.543 0-1.104-0.006-1.673-0.006-3.943 0-8.843 0-12.919 0-4.397 0-7.099-0.159-8.303-3.234-0.816-2.073-0.464-5.14 0.226-8.073 0.612-2.579 1.784-4.664 3.234-5.652 0.738-0.504 1.725-0.846 2.882-0.923 0.017 0 0.134-0.114 0.231-0.116 0.017 0 0.033 0 0.050 0 1.533 0 3.236 1.829 4.449 2.307 1.177 0.465 2.351 0.663 3.484 0.663 2.346 0 4.521-0.848 6.206-1.931 0.589-0.379 1.302-0.957 1.961-1.038 0.112-0.016 0.228-0.020 0.347-0.020zM32.225 16.973c-0.3 0-0.612 0.017-0.927 0.053-3.562 0.4-4.995 2.732-5.446 3.715-0.859 1.864-0.823 4.229 0.091 6.025 1.074 2.117 3.734 3.651 6.323 3.651 0.843 0 1.658-0.158 2.423-0.47 0.738-0.303 1.783-1.072 2.427-1.79 2.304-2.569 1.9-6.867-0.002-8.993-1.308-1.453-2.953-2.192-4.889-2.192v0zM40.237 32.126c-0.056 0-0.111 0.002-0.165 0.009-0.169 0.034-0.643 0.359-0.899 0.532-0.137 0.094-0.272 0.184-0.4 0.269-1.547 0.994-4.026 2.179-7.051 2.179-1.395 0-2.761-0.261-4.059-0.773-0.621-0.243-1.213-0.66-1.84-1.099-0.517-0.362-1.25-0.879-1.756-1.044l-0.457 0.061c-0.818 0.055-1.566 0.286-2.104 0.653-1.104 0.751-2.073 2.516-2.596 4.722-0.958 4.082-0.688 6.138-0.293 7.141 0.765 1.951 2.224 2.245 6.851 2.245l14.594 0.006c1.322 0 2.805-0.033 3.667-0.435 0.656-0.309 1.447-1.257 1.637-1.719 0.748-1.814 0.297-5.565-0.506-8.176-0.638-2.071-1.428-3.255-2.636-3.952-0.514-0.298-1.355-0.618-1.986-0.618v0z"></path>
</svg>
