<?xml version="1.0" encoding="utf-8"?>
<!-- Generated by IcoMoon.io -->
<!DOCTYPE svg PUBLIC "-//W3C//DTD SVG 1.1//EN" "http://www.w3.org/Graphics/SVG/1.1/DTD/svg11.dtd">
<svg version="1.1" xmlns="http://www.w3.org/2000/svg" xmlns:xlink="http://www.w3.org/1999/xlink" width="64" height="64" viewBox="0 0 64 64">
<path d="M32 64c-17.645 0-32-14.355-32-31.999s14.355-32.001 32-32.001 32.001 14.356 32.001 32.001-14.356 31.999-32.001 31.999zM32 1.048c-17.067 0-30.951 13.885-30.951 30.952s13.885 30.952 30.951 30.952 30.952-13.885 30.952-30.952-13.885-30.952-30.952-30.952z"></path>
<path d="M31.907 18.047c-5.759 0-10.428 4.672-10.428 10.424 0 1.615 0.377 3.136 1.031 4.499h-0.006l0.038 0.065c0.224 0.46 0.474 0.905 0.76 1.323l8.604 14.963 8.522-14.86c1.195-1.696 1.903-3.758 1.903-5.991 0-5.751-4.675-10.424-10.425-10.424zM31.907 31.581c-2.072 0-3.738-1.68-3.738-3.74 0-2.067 1.665-3.741 3.738-3.741 2.066 0 3.732 1.674 3.732 3.741 0 2.059-1.666 3.74-3.732 3.74z"></path>
</svg>
