<?xml version="1.0" encoding="utf-8"?>
<!-- Generated by IcoMoon.io -->
<!DOCTYPE svg PUBLIC "-//W3C//DTD SVG 1.1//EN" "http://www.w3.org/Graphics/SVG/1.1/DTD/svg11.dtd">
<svg version="1.1" xmlns="http://www.w3.org/2000/svg" xmlns:xlink="http://www.w3.org/1999/xlink" width="64" height="64" viewBox="0 0 64 64">
<path fill="#000" d="M46.5 22.325c-0.362-0.36-2.431-0.167-3.358-0.167-8.575 0-16.932-0.046-25.286 0.056-0.355 0.281-0.274 0.744-0.279 1.117-0.096 6.202 0 12.062 0 18.24 0 0.762-0.183 2.342 0.111 2.742 0.193 0.256 0.921 0.221 1.567 0.221h23.72c0.66 0 3.162 0.196 3.525-0.166 0.294-0.296 0.167-1.846 0.167-2.629v-16.783c0.001-0.794 0.144-2.315-0.166-2.63zM24.288 42.296h-4.474c0.038-2.216-0.074-4.585 0.055-6.712h4.419v6.712zM31.002 42.296h-4.474v-15.494c-0.006-0.081-0.010-0.16 0.055-0.169h4.419v15.662zM37.717 42.296h-4.476v-11.019c-0.004-0.081-0.009-0.158 0.056-0.169h4.42v11.188zM44.429 42.296h-4.475v-17.729c-0.004-0.084-0.010-0.162 0.054-0.171h4.421v17.9zM32 0c-17.673 0-32 14.329-32 32.002 0 17.671 14.327 31.998 32 31.998s32-14.327 32-31.998c0-17.673-14.327-32.002-32-32.002zM48.792 44.871c-0.238 0.736-0.986 1.484-1.621 1.734-0.783 0.306-2.383 0.166-3.638 0.166h-22.822c-1.229 0-2.831 0.15-3.638-0.166-0.531-0.208-1.3-0.9-1.566-1.567-0.26-0.652-0.168-1.708-0.168-2.796v-17.454c0-0.908-0.086-2.027 0.111-2.796 0.305-1.179 1.228-1.862 2.238-2.015 0.020-0.004 0.054-0.056 0.112-0.056h25.846c1.254 0 2.779-0.125 3.525 0.171 0.621 0.242 1.365 0.929 1.621 1.788 0.238 0.788 0.112 1.696 0.112 2.796v17.454c0 0.958 0.104 2.077-0.112 2.741z"></path>
</svg>
