<?xml version="1.0" encoding="utf-8"?>
<!-- Generated by IcoMoon.io -->
<!DOCTYPE svg PUBLIC "-//W3C//DTD SVG 1.1//EN" "http://www.w3.org/Graphics/SVG/1.1/DTD/svg11.dtd">
<svg version="1.1" xmlns="http://www.w3.org/2000/svg" xmlns:xlink="http://www.w3.org/1999/xlink" width="64" height="64" viewBox="0 0 64 64">
<path fill="#000" d="M32 0c-17.673 0-32 14.327-32 32s14.327 32 32 32c17.675 0 32-14.327 32-32s-14.325-32-32-32zM49.686 31.862c-1.036 3.873-3.592 6.073-6.181 8.567-3.162 3.048-6.092 5.94-9.403 9.077-0.579 0.556-1.44 1.544-2.119 1.544-0.807 0-2.024-1.433-2.77-2.127-0.912-0.834-1.709-1.704-2.446-2.446-1.7-1.692-3.377-3.235-4.958-4.762-1.601-1.542-3.496-3.133-4.893-4.892-1.434-1.804-2.779-4.025-2.964-6.756-0.209-3.131 0.882-5.55 2.188-7.019 1.586-1.792 4.28-3.171 7.984-2.898 3.483 0.252 5.72 2.506 7.791 4.312 2.403-1.794 4.261-4.052 7.918-4.312 2.484-0.181 4.565 0.475 6.050 1.344 1.617 0.954 2.719 2.194 3.417 3.996 0.746 1.909 0.931 4.342 0.386 6.374z"></path>
</svg>
