<?xml version="1.0" encoding="utf-8"?>
<!-- Generated by IcoMoon.io -->
<!DOCTYPE svg PUBLIC "-//W3C//DTD SVG 1.1//EN" "http://www.w3.org/Graphics/SVG/1.1/DTD/svg11.dtd">
<svg version="1.1" xmlns="http://www.w3.org/2000/svg" xmlns:xlink="http://www.w3.org/1999/xlink" width="64" height="64" viewBox="0 0 64 64">
<path d="M32.578 18.692c-3.054 0-5.531 2.477-5.531 5.531s2.477 5.527 5.531 5.527c3.055 0 5.53-2.473 5.53-5.527s-2.475-5.531-5.53-5.531zM32 0c-17.673 0-32 14.327-32 32s14.327 32 32 32c17.675 0 32-14.327 32-32s-14.325-32-32-32zM45.173 34.052l-12.595 21.948-12.743-22.152c-1.692-2.475-2.682-5.466-2.682-8.69 0-8.521 6.905-15.425 15.425-15.425 8.516 0 15.422 6.904 15.422 15.425 0 3.313-1.048 6.38-2.827 8.894z"></path>
</svg>
