<?xml version="1.0" encoding="utf-8"?>
<!-- Generated by IcoMoon.io -->
<!DOCTYPE svg PUBLIC "-//W3C//DTD SVG 1.1//EN" "http://www.w3.org/Graphics/SVG/1.1/DTD/svg11.dtd">
<svg version="1.1" xmlns="http://www.w3.org/2000/svg" xmlns:xlink="http://www.w3.org/1999/xlink" width="64" height="64" viewBox="0 0 64 64">
<path d="M54.64 50.076l-4.811-6.868c-2.058 0.146-4.538-1.216-6.243-3.652-2.252-3.215-2.298-7.065-0.1-8.609 2.196-1.539 5.804-0.183 8.055 3.030 1.705 2.429 2.143 5.227 1.31 7.11l5.917 8.442c3.304-5.036 5.232-11.055 5.232-17.528 0-17.674-14.326-32-32-32s-32 14.326-32 32c0 11.842 6.438 22.175 16 27.708v-37.708h34v8.123c-0.65-0.493-1.322-0.9-2-1.209v-4.914h-30v36.779c4.229 2.062 8.979 3.22 14 3.22 5.831 0 11.292-1.567 16-4.292v-14.826c0.678 0.218 1.352 0.342 2 0.354v13.221c2.404-1.639 4.57-3.598 6.443-5.814l-1.802-2.568zM26 30h10v2h-10v-2zM26 34h12v2h-12v-2zM26 38h6v2h-6v-2zM26 42h10v2h-10v-2zM22 30h2v2h-2v-2zM22 34h2v2h-2v-2zM22 38h2v2h-2v-2zM22 42h2v2h-2v-2zM44 58h-22v-2h22v2zM44 54h-22v-2h22v2zM44 50h-22v-2h22v2z"></path>
</svg>
