<?xml version="1.0" encoding="utf-8"?>
<!-- Generated by IcoMoon.io -->
<!DOCTYPE svg PUBLIC "-//W3C//DTD SVG 1.1//EN" "http://www.w3.org/Graphics/SVG/1.1/DTD/svg11.dtd">
<svg version="1.1" xmlns="http://www.w3.org/2000/svg" xmlns:xlink="http://www.w3.org/1999/xlink" width="64" height="64" viewBox="0 0 64 64">
<path fill="#000" d="M32 64c-17.645 0-32-14.355-32-31.999s14.355-32.001 32-32.001 32.001 14.356 32.001 32.001-14.356 31.999-32.001 31.999zM32 1.048c-17.067 0-30.951 13.885-30.951 30.952s13.885 30.952 30.951 30.952 30.952-13.885 30.952-30.952-13.885-30.952-30.952-30.952z"></path>
<path fill="#000" d="M32 16.648c2.081 0 3.794 1.673 3.794 3.794s-1.713 3.794-3.794 3.794c-2.081 0-3.794-1.673-3.794-3.794s1.713-3.794 3.794-3.794zM28.817 29.418c0-1.836 1.305-3.305 3.183-3.305s3.183 1.469 3.183 3.305v15.585c0 1.836-1.305 3.305-3.183 3.305s-3.183-1.469-3.183-3.305v-15.585z"></path>
</svg>
