<?xml version="1.0" encoding="utf-8"?>
<!-- Generated by IcoMoon.io -->
<!DOCTYPE svg PUBLIC "-//W3C//DTD SVG 1.1//EN" "http://www.w3.org/Graphics/SVG/1.1/DTD/svg11.dtd">
<svg version="1.1" xmlns="http://www.w3.org/2000/svg" xmlns:xlink="http://www.w3.org/1999/xlink" width="64" height="64" viewBox="0 0 64 64">
<path d="M64 32.041c-0.087 15.18-10.666 28.327-25.682 31.259-12 2.344-22.263-1.234-30.404-10.282-5.451-6.060-7.987-13.313-7.91-21.405 0.141-15.052 10.702-27.991 25.599-30.914 11.947-2.342 22.143 1.24 30.314 10.177 4.373 4.783 6.852 10.495 7.727 16.877 0.198 1.419 0.239 2.858 0.356 4.29zM31.953 59.206c14.986 0.006 27.134-12.167 27.151-27.2 0.017-15.014-12.149-27.189-27.155-27.174-15.008 0.015-27.187 12.192-27.178 27.18 0.009 14.984 12.211 27.191 27.182 27.195z"></path>
<path d="M34.359 20.677c0 3.311-0.013 6.623 0.017 9.932 0.006 0.455 0.134 0.965 0.358 1.362 2.363 4.151 4.76 8.28 7.135 12.425 0.215 0.374 0.41 0.796 0.467 1.215 0.167 1.199-0.489 2.235-1.545 2.576-1.112 0.359-2.307-0.111-2.931-1.191-2.344-4.053-4.638-8.137-7.042-12.156-0.903-1.513-1.3-3.031-1.281-4.79 0.072-6.41 0.028-12.824 0.034-19.238 0-0.344-0.006-0.704 0.085-1.031 0.297-1.121 1.453-1.928 2.517-1.804 1.206 0.139 2.179 1.187 2.181 2.418 0.017 3.43 0.008 6.856 0.008 10.282z"></path>
<path d="M11.927 34.391c-0.561 0-1.121 0.017-1.682-0.004-1.294-0.047-2.369-1.118-2.388-2.352-0.019-1.261 1.078-2.395 2.384-2.425 1.123-0.026 2.243-0.028 3.362 0.002 1.332 0.036 2.388 1.133 2.373 2.42-0.015 1.251-1.069 2.31-2.369 2.356-0.559 0.021-1.12 0.004-1.68 0.004z"></path>
<path d="M51.893 34.391c-0.561 0-1.123 0.017-1.682-0.004-1.302-0.043-2.382-1.11-2.388-2.341-0.008-1.308 1.087-2.418 2.44-2.44 1.074-0.019 2.149-0.019 3.223 0.002 1.372 0.026 2.482 1.133 2.463 2.416-0.019 1.268-1.11 2.327-2.448 2.365-0.536 0.015-1.072 0.002-1.609 0.002z"></path>
<path d="M34.359 52.011c0 0.532 0.013 1.063-0.004 1.596-0.039 1.315-1.146 2.425-2.401 2.421-1.259-0.008-2.361-1.118-2.386-2.438-0.019-1.086-0.021-2.173 0.002-3.261 0.026-1.287 1.114-2.356 2.363-2.365 1.283-0.009 2.388 1.069 2.421 2.384 0.017 0.553 0.004 1.108 0.004 1.663z"></path>
</svg>
