<?xml version="1.0" encoding="utf-8"?>
<!-- Generated by IcoMoon.io -->
<!DOCTYPE svg PUBLIC "-//W3C//DTD SVG 1.1//EN" "http://www.w3.org/Graphics/SVG/1.1/DTD/svg11.dtd">
<svg version="1.1" xmlns="http://www.w3.org/2000/svg" xmlns:xlink="http://www.w3.org/1999/xlink" width="69" height="64" viewBox="0 0 69 64">
<path fill="#000" d="M33.235 5.166c-0.612-3.054-3.297-5.166-6.297-5.166-0.419 0-0.844 0.041-1.269 0.127-3.48 0.696-5.738 4.086-5.041 7.567 0.613 3.054 3.297 5.166 6.298 5.166 0.419 0 0.844-0.041 1.27-0.127 3.479-0.698 5.737-4.086 5.038-7.567z"></path>
<path fill="#000" d="M29.358 41.651c-1.728 0.346-2.367 2.173-2.048 3.763 0.335 1.675 1.657 3.039 3.358 2.698 1.728-0.346 2.351-2.185 2.033-3.778-0.337-1.672-1.682-3.015-3.343-2.683z"></path>
<path fill="#000" d="M68.886 45.194l-3.022-15.073c-0.666-3.318-3.609-5.629-6.875-5.629-0.452 0-0.911 0.044-1.371 0.136l-51.99 10.423c-3.778 0.756-6.25 4.468-5.492 8.247l3.022 15.073c0.665 3.319 3.609 5.629 6.876 5.629 0.452 0 0.911-0.044 1.371-0.136l51.989-10.423c3.778-0.756 6.25-4.468 5.492-8.247zM15.008 52.991c-2.679 0.538-5.066-1.618-5.556-4.067-0.472-2.353 0.737-5.157 3.662-5.743 1.715-0.344 3.206 0.248 4.055 1.379l-1.243 1.284c-0.666-1-1.718-1.157-2.535-0.992-1.781 0.357-2.344 2.211-2.037 3.748 0.344 1.714 1.772 3.043 3.376 2.72 0.831-0.167 1.739-0.788 1.965-1.923l1.714 0.575c-0.295 1.563-1.891 2.716-3.401 3.019zM19.716 51.963l-1.935-9.662 1.878-0.377 1.607 8.016 4.925-0.987 0.331 1.646-6.806 1.364zM30.972 49.777c-2.735 0.547-5.058-1.505-5.554-3.984-0.515-2.571 0.978-5.291 3.631-5.823 2.735-0.547 5.057 1.577 5.545 4.014 0.514 2.559-0.954 5.26-3.622 5.794zM39.938 48.022c-1.443 0.289-3.033 0.127-4.306-0.438l0.504-1.787c0.392 0.262 2.021 0.828 3.49 0.533 1.021-0.204 1.479-0.664 1.352-1.304-0.172-0.858-1.214-0.903-2.807-1.008-1.937-0.135-2.961-0.582-3.26-2.065-0.394-1.972 0.957-3.349 2.917-3.741 1.347-0.271 2.632-0.004 3.59 0.398l-0.525 1.691c-0.299-0.222-1.633-0.662-2.791-0.431-1.021 0.204-1.458 0.702-1.319 1.397 0.158 0.79 0.948 0.845 2.48 0.933 2.003 0.108 3.322 0.467 3.675 2.236 0.419 2.082-1.097 3.207-3.002 3.588zM44.518 46.991l-1.937-9.662 6.587-1.32 0.33 1.647-4.709 0.944 0.466 2.326 4.070-0.816 0.305 1.524-4.070 0.816 0.505 2.519 4.83-0.969 0.331 1.646-6.709 1.345zM55.843 44.722l-3.511 0.703-1.937-9.662 3.511-0.703c3.158-0.634 5.194 1.196 5.729 3.863 0.585 2.924-0.895 5.216-3.793 5.798z"></path>
<path fill="#000" d="M54.237 36.707l-1.633 0.328 1.277 6.368 1.631-0.328c1.851-0.372 2.598-1.95 2.232-3.774-0.374-1.864-1.684-2.96-3.507-2.594z"></path>
<path fill="#000" d="M34.999 10.17c-0.192 0.41-0.404 0.811-0.66 1.194-0.46 0.69-1.007 1.296-1.619 1.822l10.523 11.805 4.213-0.845-12.457-13.975z"></path>
<path fill="#000" d="M19.033 29.843l5.162-14.954c-1.218-0.397-2.33-1.050-3.265-1.906l-6.111 17.703 4.214-0.844z"></path>
</svg>
