<?xml version="1.0" encoding="utf-8"?>
<!-- Generated by IcoMoon.io -->
<!DOCTYPE svg PUBLIC "-//W3C//DTD SVG 1.1//EN" "http://www.w3.org/Graphics/SVG/1.1/DTD/svg11.dtd">
<svg version="1.1" xmlns="http://www.w3.org/2000/svg" xmlns:xlink="http://www.w3.org/1999/xlink" width="80" height="64" viewBox="0 0 80 64">
<path fill="#000" d="M5.633 0.197c0.045-0.009 0.129-0.135 0.264-0.135 20.034 0 40.719 0 61.461 0 2.979 0 6.611-0.294 8.384 0.402 1.477 0.58 3.245 2.218 3.857 4.254 0.561 1.875 0.266 4.035 0.266 6.653 0 13.521 0 27.803 0 41.507 0 2.277 0.248 4.937-0.266 6.517-0.571 1.748-2.343 3.53-3.857 4.124-1.862 0.729-5.664 0.398-8.649 0.398-18.43 0-35.911 0-54.275 0-2.922 0-6.732 0.355-8.649-0.398-1.263-0.495-3.091-2.146-3.722-3.721-0.621-1.547-0.401-4.067-0.401-6.653 0-13.806 0-27.878 0-41.507 0-2.165-0.207-4.82 0.266-6.653 0.725-2.801 2.92-4.425 5.322-4.788z"></path>
<path fill="#fff" d="M50.269 15.072c0.67 0 1.34 0 2.011 0 0.044 0.012 0.087 0.029 0.132 0.034 0.434 0.047 0.872 0.073 1.303 0.139 3.538 0.54 6.636 2.018 9.178 4.534 4.182 4.142 5.83 9.183 4.956 14.993-0.562 3.741-2.279 6.943-5.046 9.527-3.942 3.681-8.629 5.155-13.97 4.441-3.077-0.411-5.81-1.664-8.206-3.643-0.214-0.178-0.424-0.36-0.639-0.543-0.036 0.027-0.065 0.046-0.089 0.068-2.573 2.287-5.556 3.686-8.972 4.152-1.893 0.258-3.779 0.198-5.646-0.2-3.698-0.788-6.797-2.614-9.276-5.465-2.267-2.608-3.603-5.642-4.022-9.076-0.040-0.329-0.078-0.658-0.117-0.987 0-0.684 0-1.368 0-2.052 0.012-0.058 0.029-0.115 0.038-0.174 0.089-0.684 0.137-1.375 0.27-2.050 0.756-3.824 2.602-7.033 5.542-9.592 2.574-2.241 5.567-3.567 8.959-3.986 0.329-0.041 0.659-0.079 0.987-0.117 0.683 0 1.368 0 2.051 0 0.037 0.012 0.073 0.030 0.11 0.034 0.393 0.043 0.79 0.070 1.181 0.126 3.243 0.459 6.1 1.776 8.6 3.883 0.129 0.108 0.256 0.218 0.383 0.328 0.166-0.145 0.314-0.277 0.465-0.404 2.553-2.156 5.487-3.442 8.805-3.849 0.336-0.043 0.674-0.079 1.010-0.118v0zM14.918 27.878c-0.474 2.854-0.944 5.683-1.415 8.522 0.565 0 1.114 0 1.671 0 0.362-2.138 0.722-4.263 1.081-6.388 0.011 0.002 0.022 0.004 0.033 0.006 0.048 2.128 0.095 4.256 0.144 6.397 0.369 0 0.711-0.009 1.052 0.004 0.151 0.006 0.208-0.051 0.256-0.187 0.623-1.763 1.253-3.524 1.882-5.285 0.122-0.343 0.247-0.685 0.371-1.027 0.009 0.003 0.017 0.006 0.026 0.009-0.342 2.154-0.683 4.309-1.026 6.477 0.608 0 1.187 0 1.788 0 0.472-2.842 0.943-5.68 1.416-8.525-0.050-0.007-0.076-0.013-0.103-0.013-0.862-0.001-1.724 0.003-2.585-0.005-0.139-0.001-0.171 0.071-0.205 0.174-0.372 1.142-0.746 2.283-1.12 3.425-0.18 0.548-0.36 1.095-0.54 1.643-0.011-0.002-0.021-0.005-0.032-0.007-0.029-1.738-0.059-3.475-0.089-5.221-0.875 0-1.733 0-2.606 0v0zM64.223 30.27c-0.032-0.010-0.040-0.011-0.044-0.015-0.027-0.031-0.053-0.062-0.080-0.094-0.401-0.47-0.879-0.795-1.521-0.817-0.755-0.026-1.362 0.299-1.832 0.851-1.147 1.349-1.497 2.922-1.063 4.619 0.448 1.753 2.259 2.249 3.604 1.043 0.029-0.026 0.061-0.048 0.115-0.089-0.026 0.229-0.049 0.428-0.072 0.631 0.577 0 1.134 0 1.698 0 0.463-2.845 0.924-5.678 1.387-8.524-0.612 0-1.191 0-1.788 0-0.068 0.4-0.135 0.796-0.201 1.192-0.068 0.397-0.133 0.793-0.202 1.203h-0.001zM26.609 36.407c0.086-0.616 0.166-1.21 0.253-1.803 0.147-1.006 0.332-2.008 0.437-3.018 0.135-1.293-0.568-2.103-1.854-2.242-0.786-0.085-1.55 0.030-2.313 0.203-0.289 0.065-0.444 0.171-0.468 0.49-0.029 0.384-0.118 0.763-0.188 1.185 0.132-0.034 0.227-0.056 0.321-0.084 0.704-0.21 1.425-0.258 2.15-0.173 0.584 0.068 0.802 0.504 0.565 1.011-0.415 0-0.817-0.016-1.217 0.004-0.48 0.023-0.943 0.138-1.378 0.354-1.13 0.56-1.476 1.717-1.298 2.778 0.113 0.669 0.46 1.194 1.146 1.355 0.824 0.192 1.588 0.020 2.213-0.594 0.046-0.045 0.075-0.109 0.112-0.165 0.015 0.014 0.029 0.026 0.044 0.039 0 0.219 0 0.438 0 0.66 0.497 0 0.981 0 1.475 0v0zM55.354 36.408c0.073-0.524 0.142-1.032 0.217-1.538 0.076-0.513 0.167-1.024 0.235-1.539 0.089-0.676 0.207-1.353 0.23-2.032 0.036-1.040-0.545-1.71-1.57-1.91-0.879-0.171-1.738-0.035-2.596 0.163-0.272 0.063-0.418 0.164-0.443 0.467-0.031 0.391-0.119 0.777-0.185 1.179 0.052 0 0.079 0.005 0.103-0.001 0.053-0.012 0.105-0.028 0.157-0.044 0.729-0.234 1.478-0.276 2.23-0.182 0.579 0.072 0.77 0.502 0.512 1.006-0.408 0-0.804-0.016-1.197 0.004-0.474 0.024-0.929 0.141-1.36 0.348-1.416 0.683-1.566 2.346-1.164 3.264 0.193 0.443 0.519 0.772 0.995 0.874 0.838 0.18 1.601 0.018 2.231-0.604 0.043-0.042 0.085-0.086 0.145-0.148 0 0.257 0 0.473 0 0.692 0.492 0 0.969 0 1.459 0h0.001zM40.732 33.542c0.158-0.609 0.24-1.207 0.232-1.819-0.022-1.671-1.265-2.669-2.944-2.39-0.984 0.163-1.647 0.792-2.101 1.645-0.527 0.991-0.68 2.060-0.524 3.162 0.199 1.409 0.964 2.174 2.338 2.377 0.767 0.114 1.524 0.025 2.276-0.153 0.227-0.054 0.344-0.148 0.343-0.387 0-0.114 0.039-0.228 0.058-0.343 0.057-0.352 0.114-0.703 0.175-1.080-0.081 0.037-0.13 0.061-0.18 0.082-0.782 0.33-1.59 0.448-2.423 0.25-0.575-0.136-0.875-0.551-0.878-1.13-0.002-0.172 0.056-0.219 0.225-0.219 1.059 0.007 2.12 0.004 3.179 0.004 0.074 0 0.148 0 0.225 0v0zM50.789 29.957c0.102-0.586 0.203-1.155 0.293-1.726 0.008-0.045-0.059-0.133-0.109-0.15-0.244-0.087-0.491-0.168-0.742-0.232-1.661-0.426-3.087-0.035-4.123 1.35-1.132 1.514-1.362 3.255-0.934 5.066 0.276 1.172 1.015 1.963 2.224 2.245 0.775 0.181 1.534 0.046 2.285-0.158 0.045-0.012 0.092-0.092 0.103-0.147 0.072-0.397 0.135-0.794 0.2-1.192 0.030-0.189 0.059-0.378 0.089-0.565-0.382 0.12-0.726 0.259-1.084 0.336-1.071 0.231-1.893-0.321-2.090-1.392-0.141-0.769-0.065-1.526 0.209-2.256 0.547-1.458 1.731-1.974 3.174-1.395 0.164 0.066 0.324 0.139 0.504 0.216v0zM32.043 29.488c-0.023-0.020-0.032-0.034-0.043-0.035-0.819-0.126-1.641-0.221-2.465-0.052-1.506 0.309-2.279 1.879-1.583 3.206 0.254 0.484 0.687 0.765 1.158 1.002 0.195 0.098 0.391 0.194 0.582 0.3 0.213 0.118 0.305 0.301 0.271 0.548-0.032 0.237-0.167 0.391-0.389 0.452-0.183 0.050-0.377 0.103-0.562 0.089-0.568-0.042-1.135-0.116-1.725-0.18-0.072 0.436-0.158 0.926-0.228 1.418-0.005 0.038 0.087 0.12 0.144 0.133 0.829 0.173 1.666 0.219 2.506 0.115 0.572-0.071 1.115-0.236 1.514-0.689 0.97-1.102 0.576-2.89-0.77-3.522-0.215-0.102-0.441-0.193-0.634-0.329-0.108-0.076-0.203-0.228-0.224-0.359-0.050-0.321 0.127-0.539 0.484-0.584 0.309-0.039 0.626-0.029 0.939-0.023 0.256 0.005 0.512 0.035 0.774 0.055 0.087-0.534 0.17-1.043 0.253-1.546v0zM34.943 34.855c-0.126 0-0.227 0-0.327 0-0.102-0.001-0.205 0.003-0.307-0.005-0.307-0.021-0.446-0.162-0.455-0.465-0.002-0.088 0-0.179 0.015-0.265 0.158-0.935 0.321-1.87 0.477-2.806 0.021-0.123 0.070-0.157 0.186-0.153 0.252 0.007 0.504 0.002 0.77 0.002 0.078-0.569 0.152-1.121 0.23-1.7-0.316 0-0.611 0-0.926 0 0.068-0.361 0.13-0.694 0.197-1.047-0.578 0-1.137-0.004-1.696 0.008-0.040 0.001-0.103 0.108-0.115 0.172-0.287 1.717-0.572 3.433-0.848 5.152-0.075 0.47-0.165 0.948-0.159 1.42 0.012 0.917 0.544 1.406 1.458 1.393 0.277-0.004 0.554-0.068 0.832-0.096 0.327-0.033 0.504-0.174 0.518-0.535 0.012-0.357 0.095-0.711 0.148-1.073h0.001zM40.954 36.413c0.583 0 1.148 0.004 1.715-0.006 0.042-0.001 0.114-0.086 0.123-0.141 0.118-0.686 0.209-1.377 0.345-2.060 0.14-0.701 0.306-1.399 0.495-2.089 0.123-0.449 0.424-0.727 0.929-0.705 0.010 0 0.022-0.013 0.026-0.015 0.099-0.34 0.182-0.678 0.296-1.007 0.112-0.326 0.254-0.641 0.389-0.977-0.863-0.117-1.265 0.475-1.701 1.040 0.048-0.323 0.097-0.647 0.146-0.971-0.566 0-1.102 0-1.638 0-0.376 2.314-0.749 4.611-1.125 6.929v0zM59.568 31.425c0.236-0.684 0.464-1.348 0.694-2.014-0.836-0.112-1.233 0.482-1.671 1.037 0.049-0.321 0.097-0.641 0.149-0.978-0.080-0.006-0.139-0.015-0.199-0.015-0.417-0.001-0.834 0.005-1.251-0.003-0.146-0.003-0.195 0.043-0.218 0.191-0.29 1.861-0.589 3.721-0.884 5.583-0.062 0.389-0.12 0.778-0.183 1.189 0.58 0 1.14 0.004 1.699-0.007 0.039-0.001 0.101-0.096 0.111-0.154 0.13-0.76 0.234-1.526 0.383-2.282 0.124-0.628 0.277-1.252 0.46-1.866 0.128-0.432 0.411-0.728 0.91-0.68v0zM63.8 32.515c-0.024 0.469-0.081 0.931-0.283 1.355-0.102 0.212-0.232 0.421-0.391 0.593-0.292 0.315-0.668 0.42-1.084 0.294-0.391-0.118-0.544-0.444-0.604-0.807-0.112-0.681-0.056-1.352 0.24-1.981 0.108-0.229 0.268-0.447 0.449-0.624 0.448-0.434 1.414-0.441 1.597 0.52 0.041 0.214 0.052 0.433 0.076 0.649v0zM25.289 33.322c-0.023 0.573-0.145 1.091-0.588 1.481-0.244 0.215-0.538 0.29-0.857 0.249-0.22-0.028-0.374-0.152-0.454-0.363-0.165-0.432 0.023-0.967 0.43-1.185 0.459-0.245 0.949-0.253 1.468-0.182v0zM54.050 33.323c-0.021 0.548-0.146 1.038-0.54 1.425-0.236 0.232-0.524 0.335-0.856 0.31-0.303-0.023-0.521-0.221-0.575-0.519-0.080-0.448 0.129-0.878 0.539-1.069 0.453-0.21 0.931-0.219 1.431-0.148v0zM37.276 32.12c0.115-0.88 0.694-1.36 1.352-1.232 0.38 0.074 0.605 0.305 0.648 0.691 0.019 0.174 0.003 0.352 0.003 0.542-0.671 0-1.337 0-2.003 0z"></path>
</svg>
