<?xml version="1.0" encoding="utf-8"?>
<!-- Generated by IcoMoon.io -->
<!DOCTYPE svg PUBLIC "-//W3C//DTD SVG 1.1//EN" "http://www.w3.org/Graphics/SVG/1.1/DTD/svg11.dtd">
<svg version="1.1" xmlns="http://www.w3.org/2000/svg" xmlns:xlink="http://www.w3.org/1999/xlink" width="80" height="64" viewBox="0 0 80 64">
<path fill="#000" d="M5.633 0.197c0.045-0.009 0.129-0.135 0.264-0.135 20.034 0 40.719 0 61.461 0 2.979 0 6.611-0.294 8.384 0.402 1.477 0.58 3.245 2.218 3.857 4.254 0.561 1.875 0.266 4.035 0.266 6.653 0 13.521 0 27.803 0 41.507 0 2.277 0.248 4.937-0.266 6.517-0.571 1.748-2.343 3.53-3.857 4.124-1.862 0.729-5.664 0.398-8.649 0.398-18.43 0-35.911 0-54.275 0-2.922 0-6.732 0.355-8.649-0.398-1.263-0.495-3.091-2.146-3.722-3.721-0.621-1.547-0.401-4.067-0.401-6.653 0-13.806 0-27.878 0-41.507 0-2.165-0.207-4.82 0.266-6.653 0.725-2.801 2.92-4.425 5.322-4.788z"></path>
<path fill="#fff" d="M34.931 23.986v-1.45h-5.552v6.945h5.556v-1.459l-3.872-0.005 0.019-1.323 0.217-0.018h3.546l-0.005-0.553v-0.892l-3.739-0.009v-1.232l3.83-0.004zM45.455 22.536l-1.738 0.009 0.010 6.936h1.727v-6.944zM28.166 22.536h-2.753l-0.496 1.166-1.525 3.545-0.623-1.369-1.535-3.343h-2.724l-0.005 6.543-0.132-0.303-2.049-4.769-0.619-1.473h-2.48l-2.974 6.945h1.809l0.071-0.151 0.572-1.379h3.474l0.6 1.53h3.375v-5.429l1.525 3.39 0.921 2.040h1.459l1.378-3.125 1.015-2.171v5.297h1.719l-0.004-6.945zM13.313 26.468l0.1-0.245 1.010-2.413 0.666 1.529 0.444 1.128h-2.219zM48.392 24.519c0.226-0.288 0.604-0.387 0.944-0.462 0.647-0.032 1.95-0.019 1.95-0.019v-1.501c0 0-0.733 0-1.1 0-0.713-0.005-1.444 0-2.124 0.241-0.213 0.099-0.439 0.17-0.624 0.317-0.425 0.326-0.764 0.774-0.934 1.288-0.156 0.412-0.193 0.854-0.26 1.289-0.029 0.274-0.018 0.553-0.010 0.826 0.061 0.486 0.109 0.996 0.35 1.436 0.241 0.571 0.704 1.057 1.294 1.26 0.401 0.175 0.836 0.256 1.27 0.288 0.783-0.014 2.355 0 2.355 0l0.59-1.525h3.484l0.618 1.525h3.386l0.014-5.151 3.155 5.165 2.346-0.014 0.004-6.945h-1.736l-0.006 4.735-1.118-1.823-0.331-0.566-1.138-1.888-0.236-0.458h-2.606v4.485l-0.018 1.978-2.771-6.463h-2.489l-1.917 4.466c0 0-0.298 0.666-0.42 1.006-0.51 0.024-1.020 0.005-1.516-0.127-0.406-0.122-0.608-0.543-0.736-0.911-0.141-0.614-0.138-1.261 0.014-1.869 0.066-0.213 0.194-0.402 0.316-0.582h-0zM52.98 25.902l0.581-1.411 0.303-0.68 0.59 1.393 0.283 0.685 0.213 0.562h-2.172l0.203-0.548zM42.707 25.052c0.114-0.523 0.109-1.104-0.156-1.585-0.184-0.345-0.529-0.566-0.878-0.723-0.415-0.156-0.864-0.213-1.308-0.208-1.431 0.005-4.287 0.005-4.287 0.005v6.94h1.681l-0.005-2.224 0.005-0.292c0 0 1.185-0.005 1.756 0.005 0.396 0.009 0.822 0.033 1.161 0.265 0.109 0.095 0.21 0.179 0.255 0.359 0.047 0.187 0.078 0.36 0.085 0.566 0.015 0.446 0.010 1.322 0.010 1.322h1.69c0 0 0.038-1.421-0.056-2.128-0.062-0.317-0.265-0.595-0.515-0.794-0.146-0.108-0.311-0.184-0.457-0.297 0.463-0.271 0.869-0.686 1.020-1.21v0zM40.616 25.383c-0.307 0.17-0.666 0.142-1.007 0.136-0.538 0-1.609 0-1.609 0h-0.241v-1.534h0.34c0 0 1.293-0.014 1.941 0.013 0.203 0.014 0.415 0.057 0.599 0.151 0.416 0.274 0.373 0.963-0.023 1.233v0zM56.361 35.944v-1.454h-5.562l0.004 6.968h5.557v-1.455l-3.867-0.004v-1.369h3.773v-1.45h-3.773v-1.237h3.867zM60.766 39.953c-1.148 0.010-3.442 0.010-3.442 0.010v1.496c0 0 2.229 0.001 3.343 0.005 0.698 0.002 0.818-0.052 1.204-0.165 0.406-0.128 0.746-0.401 1.010-0.731 0.251-0.373 0.298-0.831 0.331-1.266 0.014-0.505-0.095-1.029-0.411-1.43-0.232-0.232-0.528-0.388-0.841-0.482-0.831-0.241-1.709-0.151-2.564-0.222-0.132-0.042-0.287-0.081-0.363-0.208-0.203-0.235-0.128-0.613 0.094-0.807 0.26-0.169 0.581-0.16 0.878-0.165h2.87c0 0 0.005-1.072 0.005-1.496h-3.583c-0.637-0.009-1.293 0.292-1.704 0.793-0.557 0.708-0.566 1.736-0.147 2.516 0.226 0.349 0.595 0.586 0.991 0.699 0.497 0.136 1.006 0.24 1.521 0.226 0.345-0.005 0.689 0.023 1.034 0.056 0.189 0.066 0.406 0.198 0.43 0.419 0.014 0.161 0.028 0.35-0.085 0.482-0.119 0.193-0.355 0.269-0.572 0.269v0zM69.335 37.946c-0.335-0.424-0.878-0.594-1.393-0.67-0.316-0.024-0.631-0.076-0.948-0.057-0.349 0.019-0.689-0.042-1.039-0.047-0.212-0.038-0.472-0.142-0.514-0.387-0.067-0.184-0.056-0.411 0.094-0.558 0.175-0.16 0.415-0.244 0.656-0.244 1.682-0 3.154 0 3.154 0v-1.492h-3.484c-0.434 0.005-0.883 0.113-1.255 0.339-0.411 0.227-0.723 0.624-0.864 1.072-0.151 0.448-0.118 0.935-0.029 1.393 0.142 0.443 0.42 0.878 0.859 1.072 0.435 0.212 0.925 0.268 1.402 0.345 0.406 0.038 0.813-0.010 1.219 0.047 0.133 0.019 0.278 0 0.402 0.076 0.287 0.122 0.434 0.524 0.25 0.789-0.109 0.208-0.33 0.34-0.562 0.335-1.147 0.005-3.447 0.005-3.447 0.005v1.496c0 0 2.295 0.002 3.442 0 0.383-0.001 0.737-0.076 1.091-0.18 0.425-0.132 0.841-0.387 1.034-0.802 0.231-0.383 0.307-0.836 0.284-1.275 0.023-0.444-0.094-0.893-0.35-1.257v0zM40.591 34.58c-0.382-0.080-0.777-0.089-1.17-0.089-1.681-0.001-5.043 0-5.043 0l-2.153 2.251-2.059-2.251h-6.685v6.968h6.572l1.086-1.142 1.039-1.1 2.049 2.243h3.253v-2.3c0 0 1.676 0 2.507-0.018 0.454-0.038 0.907-0.128 1.323-0.312 0.27-0.128 0.486-0.33 0.684-0.543 0.25-0.316 0.383-0.713 0.411-1.109 0.099-0.59-0.033-1.204-0.316-1.728-0.351-0.483-0.922-0.766-1.498-0.87v0zM29.884 39.292l-0.666 0.703-4.061 0.006v-1.378h3.626v-1.44h-3.626v-1.227h4.112l1.837 2.026-1.222 1.311zM35.767 39.391v1.402l-0.359-0.411-2.115-2.361 0.873-0.963 1.6-1.724v4.056h0.001zM40.493 37.3c-0.090 0.193-0.303 0.292-0.501 0.353-0.325 0.080-0.665 0.038-0.996 0.047-0.5-0.009-1.516-0.014-1.516-0.014v-1.737c0 0 1.232 0 1.847-0.005 0.208-0.010 0.411 0 0.614 0.019 0.293 0.009 0.576 0.274 0.651 0.552 0.033 0.265 0.053 0.554-0.099 0.784v0zM49.869 36.756c0.066-0.458 0.042-0.963-0.218-1.364-0.392-0.548-1.161-0.879-1.826-0.898-0.237-0.014-0.614-0.005-0.614-0.005h-4.009c-0.009 2.323 0 6.968 0 6.968h1.699v-2.521c0 0 0.817-0.028 1.223-0.019 0.477 0.010 0.972-0.038 1.426 0.123 0.35 0.114 0.524 0.481 0.553 0.822 0.028 0.533 0.013 1.596 0.013 1.596h1.687c0 0 0.009-1.128 0-1.695-0.033-0.349-0.066-0.732-0.303-1.010-0.194-0.245-0.495-0.35-0.732-0.539 0.557-0.282 1.020-0.82 1.101-1.458v0zM47.909 37.158c-0.142 0.222-0.411 0.303-0.656 0.321-0.783 0.042-2.351 0.004-2.351 0.004v-1.534h-0.010c0 0 1.199-0.005 1.803-0.005 0.241 0.019 0.489 0.033 0.727 0.071 0.257 0.040 0.543 0.18 0.586 0.453 0.024 0.232 0.042 0.491-0.1 0.689v0z"></path>
</svg>
