<?xml version="1.0" encoding="utf-8"?>
<!-- Generated by IcoMoon.io -->
<!DOCTYPE svg PUBLIC "-//W3C//DTD SVG 1.1//EN" "http://www.w3.org/Graphics/SVG/1.1/DTD/svg11.dtd">
<svg version="1.1" xmlns="http://www.w3.org/2000/svg" xmlns:xlink="http://www.w3.org/1999/xlink" width="80" height="64" viewBox="0 0 80 64">
<path fill="#000" d="M5.633 0.197c0.045-0.009 0.129-0.135 0.264-0.135 20.034 0 40.719 0 61.461 0 2.979 0 6.611-0.294 8.384 0.402 1.477 0.58 3.245 2.218 3.857 4.254 0.561 1.875 0.266 4.035 0.266 6.653 0 13.521 0 27.803 0 41.507 0 2.277 0.248 4.937-0.266 6.517-0.571 1.748-2.343 3.53-3.857 4.124-1.862 0.729-5.664 0.398-8.649 0.398-18.43 0-35.911 0-54.275 0-2.922 0-6.732 0.355-8.649-0.398-1.263-0.495-3.091-2.146-3.722-3.721-0.621-1.547-0.401-4.067-0.401-6.653 0-13.806 0-27.878 0-41.507 0-2.165-0.207-4.82 0.266-6.653 0.725-2.801 2.92-4.425 5.322-4.788z"></path>
<path fill="#fff" d="M61.478 35.117c0-0.245 0.179-0.423 0.401-0.423 0.245 0 0.423 0.178 0.423 0.423 0 0.223-0.178 0.423-0.423 0.423-0.222 0-0.401-0.201-0.401-0.423v0zM61.879 35.429c0.179 0 0.334-0.134 0.334-0.312s-0.156-0.312-0.334-0.312c-0.156 0-0.312 0.134-0.312 0.312s0.156 0.312 0.312 0.312v0zM61.835 35.295h-0.089v-0.356h0.156c0.023 0 0.067 0 0.089 0 0.044 0.023 0.044 0.067 0.044 0.112 0 0.022-0.022 0.067-0.067 0.089l0.089 0.156h-0.111l-0.045-0.134h-0.067v0.133-0.2h0.045c0.022 0 0.045 0 0.045-0.023 0.023 0 0.023-0.022 0.023-0.044 0 0 0-0.023-0.023-0.023 0-0.023-0.023 0-0.045 0h-0.045v0.29h0zM29.143 24.169l-3.975 10.723-0.426-2.179c-0.961-2.602-2.832-4.976-5.624-6.567l3.635 13.733 4.298-0 6.393-15.709h-4.301zM32.549 39.885l2.54-15.729h4.064l-2.542 15.729h-4.062zM51.344 24.543c-0.804-0.319-2.070-0.663-3.639-0.663-4.019 0-6.843 2.134-6.867 5.188-0.026 2.266 2.019 3.525 3.557 4.28 1.583 0.77 2.113 1.264 2.107 1.953-0.013 1.050-1.267 1.529-2.434 1.529-1.622 0-2.487-0.233-3.817-0.825l-0.528-0.246-0.567 3.517c0.948 0.445 2.702 0.82 4.526 0.843 4.265 0 7.037-2.112 7.070-5.376 0.018-1.792-1.067-3.152-3.414-4.275-1.416-0.728-2.294-1.21-2.28-1.95 0.003-0.653 0.736-1.351 2.33-1.351 1.328-0.027 2.283 0.28 3.039 0.604l0.361 0.182 0.554-3.409zM61.757 24.17h-3.136c-0.974 0-1.702 0.283-2.132 1.305l-6.029 14.412h4.268c0 0 0.697-1.936 0.854-2.363 0.467 0 4.608 0.008 5.199 0.008 0.125 0.551 0.496 2.355 0.496 2.355h3.771l-3.291-15.717zM56.749 34.307c0.34-0.901 1.62-4.395 1.62-4.395-0.026 0.043 0.33-0.913 0.541-1.501l0.271 1.36c0 0 0.78 3.752 0.941 4.537-0.631 0-2.578 0-3.372 0v0zM21.481 23.901h-6.55l-0.037 0.27c5.091 1.3 8.451 4.504 9.848 8.282l-1.42-7.226c-0.244-1-0.958-1.29-1.84-1.326z"></path>
</svg>
