<?xml version="1.0" encoding="utf-8"?>
<!-- Generated by IcoMoon.io -->
<!DOCTYPE svg PUBLIC "-//W3C//DTD SVG 1.1//EN" "http://www.w3.org/Graphics/SVG/1.1/DTD/svg11.dtd">
<svg version="1.1" xmlns="http://www.w3.org/2000/svg" xmlns:xlink="http://www.w3.org/1999/xlink" width="80" height="64" viewBox="0 0 80 64">
<path fill="#000" d="M5.631 0.196c0.048-0.010 0.131-0.134 0.267-0.134 20.033 0 40.719 0 61.461 0 2.976 0 6.611-0.296 8.383 0.401 1.476 0.58 3.245 2.218 3.859 4.253 0.56 1.876 0.264 4.035 0.264 6.653 0 13.522 0 27.803 0 41.507 0 2.277 0.248 4.938-0.264 6.517-0.571 1.749-2.343 3.531-3.859 4.123-1.861 0.73-5.665 0.398-8.649 0.398-18.431 0-35.912 0-54.277 0-2.921 0-6.733 0.354-8.649-0.398-1.263-0.496-3.090-2.146-3.721-3.721-0.622-1.548-0.404-4.067-0.404-6.652 0-13.807 0-27.88 0-41.508 0-2.163-0.205-4.82 0.267-6.652 0.725-2.801 2.919-4.426 5.321-4.788zM74.541 10.707c0-1.445 0.388-4.144-0.397-4.923-0.902-0.902-5.848-0.398-7.981-0.398-20.23 0-40.643-0.112-60.135 0.131-1.034 1.029-0.665 3.072-0.665 4.924 0 1.902 0 3.913 0 5.587 23.060 0 46.119 0 69.176 0 0.001-1.194 0.001-3.203 0.001-5.321zM5.365 32.391c0 6.457 0 12.768 0 19.555 0 1.825-0.354 5.497 0.398 6.253 0.824 0.823 5.845 0.396 8.252 0.396 17.547 0 34.444 0 51.882 0 2.339 0 7.34 0.51 8.248-0.396 0.795-0.79 0.397-4.399 0.397-6.253 0-7.357 0-12.803 0-19.956-23.012 0-46.024 0-69.044 0-0.15 0.022-0.142 0.213-0.132 0.402z"></path>
<path fill="#000" d="M21.331 47.956c0 1.772 0 3.546 0 5.32-3.548 0-7.096 0-10.641 0 0-1.774 0-3.548 0-5.32 3.544 0 7.093 0 10.641 0z"></path>
<path fill="#000" d="M42.619 47.956c0 1.772 0 3.546 0 5.32-5.325 0-10.647 0-15.967 0 0.089-1.73-0.179-3.814 0.137-5.32 5.272 0 10.55 0 15.83 0z"></path>
</svg>
