<?xml version="1.0" encoding="utf-8"?>
<!-- Generated by IcoMoon.io -->
<!DOCTYPE svg PUBLIC "-//W3C//DTD SVG 1.1//EN" "http://www.w3.org/Graphics/SVG/1.1/DTD/svg11.dtd">
<svg version="1.1" xmlns="http://www.w3.org/2000/svg" xmlns:xlink="http://www.w3.org/1999/xlink" width="45" height="64" viewBox="0 0 45 64">
<path d="M28.899 22.625c2.575 0 3.739-1.861 3.739-4.359 0-2.499-1.162-4.689-3.739-4.689-2.575 0-3.881 2.025-3.881 4.523-0.001 2.499 1.306 4.525 3.881 4.525zM19.021 24.908c0.703-0.871 1.796-1.433 3.345-1.506v-0.027c0-1.487 0-3.044 0-5.117 0-5.59 3.329-7.325 6.611-7.267 3.192 0.055 6.339 1.748 6.339 7.267v5.117c-0.006 0-0.013 0-0.020 0v0.021c3.094 0.116 4.41 2.137 4.41 4.728v15.397c0 0 0 2.031-2.281 2.031l-1.142 0.019v17.101h-15.213v-31.981c0 0-1.465 1.466-2.15 2.15-1.736 1.735-3.596 1.944-5.352 0.189-2.475-2.476-3.938-3.939-4.592-4.593-1.256-1.256-1.292-2.792-0.171-3.914 1.123-1.122 2.588-1.329 4.001 0.085 0.557 0.558 0.619 0.607 3.261 3.25l2.949-2.948h0.005z"></path>
<path d="M11.728 62.669v-60.829c1.59-0.539 8.039-1.141 9.825-1.141 8.828 0 16.578 2.181 19.73 7.363-7.702-3.696-20.947-3.382-26.204-1.504v56.111l-3.35-0.001z"></path>
</svg>
