<?xml version="1.0" encoding="utf-8"?>
<!-- Generated by IcoMoon.io -->
<!DOCTYPE svg PUBLIC "-//W3C//DTD SVG 1.1//EN" "http://www.w3.org/Graphics/SVG/1.1/DTD/svg11.dtd">
<svg version="1.1" xmlns="http://www.w3.org/2000/svg" xmlns:xlink="http://www.w3.org/1999/xlink" width="80" height="64" viewBox="0 0 80 64">
<path fill="#000" d="M38.249 64c-5.706-0.007-11.381-0.35-16.959-1.65-4.478-1.043-8.722-2.645-12.436-5.434-4.763-3.576-7.54-8.389-8.419-14.224-1.633-10.828 1.353-20.4 8.37-28.697 6.381-7.547 14.623-11.964 24.339-13.443 12.123-1.844 23.155 0.9 32.737 8.687 7.262 5.902 11.752 13.497 13.191 22.796 0.701 4.532 0.601 9.045-0.765 13.463-1.863 6.029-5.834 10.258-11.343 13.147-4.002 2.1-8.298 3.3-12.724 4.073-3.762 0.656-7.557 1.011-11.374 1.182-1.541 0.067-3.079 0.057-4.618 0.098zM76.138 37.281c0.016-1.247-0.093-2.486-0.238-3.722-0.844-7.181-3.735-13.447-8.753-18.618-8.577-8.836-19.128-12.46-31.335-11.355-5.281 0.478-10.249 2.045-14.847 4.693-6.51 3.748-11.456 8.976-14.675 15.79-2.57 5.441-3.435 11.173-2.745 17.134 0.368 3.186 1.348 6.174 3.201 8.834 2.374 3.41 5.672 5.613 9.445 7.17 5.541 2.287 11.391 3.012 17.311 3.279 3.517 0.158 7.040 0.122 10.561-0.075 3.245-0.181 6.473-0.496 9.672-1.062 4.025-0.711 7.947-1.778 11.595-3.676 3.659-1.904 6.663-4.505 8.582-8.234 1.641-3.192 2.198-6.616 2.226-10.159z"></path>
<path fill="#000" d="M31.597 41.145c-2.041-1.006-4.024-1.983-6.006-2.962-0.207-0.102-0.423-0.197-0.614-0.323-0.412-0.272-0.518-0.677-0.333-1.106 0.192-0.446 0.578-0.597 1.047-0.455 0.221 0.067 0.433 0.166 0.641 0.266 2.504 1.209 5.007 2.42 7.511 3.632 0.114 0.055 0.229 0.109 0.339 0.171 0.352 0.198 0.611 0.477 0.583 0.902-0.026 0.401-0.309 0.626-0.663 0.768-1.193 0.478-2.387 0.953-3.58 1.432-1.622 0.652-3.243 1.305-4.864 1.96-0.487 0.198-0.893 0.051-1.097-0.408-0.228-0.512-0.061-0.926 0.51-1.158 1.952-0.791 3.912-1.567 5.866-2.353 0.209-0.084 0.446-0.123 0.66-0.367z"></path>
<path fill="#000" d="M54.091 45.551c-0.138-0.048-0.318-0.103-0.493-0.173-2.664-1.057-5.325-2.12-7.992-3.171-0.448-0.177-0.794-0.436-0.813-0.94-0.017-0.465 0.326-0.693 0.707-0.877 2.677-1.29 5.349-2.588 8.027-3.877 0.592-0.285 1.144-0.15 1.373 0.308 0.23 0.456 0.001 0.966-0.603 1.268-1.904 0.953-3.814 1.893-5.719 2.842-0.183 0.091-0.494 0.133-0.49 0.34 0.005 0.267 0.343 0.258 0.544 0.34 1.817 0.733 3.639 1.456 5.459 2.184 0.156 0.063 0.311 0.13 0.46 0.208 0.374 0.194 0.61 0.493 0.471 0.923-0.13 0.398-0.48 0.561-0.932 0.624z"></path>
<path fill="#000" d="M39.831 54.873c-2.879 0.001-5.035-1.651-5.656-4.258-0.069-0.291-0.133-0.586-0.014-0.87 0.152-0.366 0.458-0.557 0.84-0.578 0.351-0.020 0.599 0.188 0.747 0.493 0.081 0.169 0.13 0.357 0.172 0.54 0.406 1.783 1.718 2.879 3.544 2.959 2.143 0.094 3.531-0.783 4.127-2.611 0.078-0.24 0.126-0.491 0.217-0.726 0.196-0.502 0.671-0.767 1.102-0.592 0.494 0.202 0.691 0.584 0.578 1.12-0.46 2.194-2.358 4.032-4.558 4.406-0.396 0.067-0.79 0.147-1.1 0.115z"></path>
</svg>
