<?xml version="1.0" encoding="utf-8"?>
<!-- Generated by IcoMoon.io -->
<!DOCTYPE svg PUBLIC "-//W3C//DTD SVG 1.1//EN" "http://www.w3.org/Graphics/SVG/1.1/DTD/svg11.dtd">
<svg version="1.1" xmlns="http://www.w3.org/2000/svg" xmlns:xlink="http://www.w3.org/1999/xlink" width="64" height="64" viewBox="0 0 64 64">
<path d="M64.133 50.624c0.131-0.387 0.218-0.792 0.218-1.221v-35.534c0-0.407-0.082-0.792-0.2-1.161l-20.876 17.873 20.858 20.044z"></path>
<path d="M32.351 34.892l8.283-6.738 20.964-17.945c-0.344-0.102-0.701-0.175-1.077-0.175h-56.335c-0.377 0-0.735 0.073-1.080 0.175l20.977 17.956 8.269 6.727z"></path>
<path d="M60.519 53.236c0.361 0 0.703-0.066 1.035-0.162l-21.061-20.231-8.141 6.626-8.129-6.615-21.070 20.222c0.331 0.093 0.673 0.16 1.034 0.16h56.333z"></path>
<path d="M0.553 12.707c-0.119 0.369-0.201 0.754-0.201 1.161v35.535c0 0.429 0.087 0.836 0.22 1.221l20.868-20.035-20.886-17.883z"></path>
</svg>
