<?xml version="1.0" encoding="utf-8"?>
<!-- Generated by IcoMoon.io -->
<!DOCTYPE svg PUBLIC "-//W3C//DTD SVG 1.1//EN" "http://www.w3.org/Graphics/SVG/1.1/DTD/svg11.dtd">
<svg version="1.1" xmlns="http://www.w3.org/2000/svg" xmlns:xlink="http://www.w3.org/1999/xlink" width="64" height="64" viewBox="0 0 64 64">
<path d="M19.605 33.204l2.662 2.658 5.421-5.425-2.666-2.659c1.031-4.16-0.873-9.721-5.234-14.081-5.766-5.767-13.638-7.243-17.579-3.301-3.945 3.945-2.469 11.813 3.299 17.581 4.365 4.367 9.934 6.267 14.096 5.227z"></path>
<path d="M63.198 17.090c-1.069-1.070-2.803-1.070-3.872 0l-12.257 12.255c-0.744 0.513-1.612 0.286-2.582-0.685-0.192-0.193-0.424-0.308-0.652-0.432l13.314-13.315c1.069-1.070 1.069-2.804 0-3.873s-2.802-1.069-3.871 0l-13.013 13.012c-0.184-0.011-0.368-0.009-0.552 0.006-0.107-0.168-0.184-0.352-0.333-0.502-0.967-0.967-1.199-1.836-0.684-2.582l12.257-12.257c1.069-1.070 1.069-2.804 0-3.873s-2.803-1.069-3.872 0l-12.52 12.528c-1.66 1.919-2.767 6.068 0.732 9.799l-25.109 25.109c-1.498 1.499-1.498 3.926 0 5.422 0.748 0.749 1.729 1.126 2.71 1.126s1.963-0.377 2.711-1.126l25.098-25.097c1.814 1.78 3.742 2.448 5.484 2.448 1.878 0 3.543-0.762 4.628-1.708l12.385-12.384c1.069-1.068 1.069-2.803-0.001-3.872z"></path>
<path d="M37.347 40.111l-5.422 5.424 13.305 13.3c0.748 0.749 1.731 1.124 2.713 1.124 0.98 0 1.962-0.374 2.708-1.124 1.499-1.498 1.499-3.924 0-5.421l-13.304-13.303z"></path>
</svg>
