<?xml version="1.0" encoding="utf-8"?>
<!-- Generated by IcoMoon.io -->
<!DOCTYPE svg PUBLIC "-//W3C//DTD SVG 1.1//EN" "http://www.w3.org/Graphics/SVG/1.1/DTD/svg11.dtd">
<svg version="1.1" xmlns="http://www.w3.org/2000/svg" xmlns:xlink="http://www.w3.org/1999/xlink" width="64" height="64" viewBox="0 0 64 64">
<path d="M32 64c-17.645 0-32-14.355-32-32s14.355-32 32-32 32 14.355 32 32-14.355 32-32 32zM32 2.133c-16.468 0-29.867 13.398-29.867 29.867s13.398 29.867 29.867 29.867 29.867-13.398 29.867-29.867-13.398-29.867-29.867-29.867z"></path>
<path d="M29.311 54.586c-2.315 0-5.102-6.27-5.102-7.791 0-0.924 0.417-1.758 0.785-2.495 0.289-0.576 0.56-1.12 0.56-1.54-0.014-0.485-1.147-2.049-2.378-3.28-0.201-0.201-0.313-0.47-0.313-0.754 0-1.234-0.237-2.083-0.704-2.525-0.761-0.718-2.422-0.622-4.181-0.523-0.692 0.039-1.406 0.080-2.118 0.080-4.034 0-5.1-4.218-5.1-6.447 0-0.42 0.086-10.306 7.58-11.805 3.379-0.677 5.747-0.481 7.040 0.578 0.518 0.425 0.757 0.895 0.868 1.254 1.507 1.198 4.159 0.582 6.512 0.035 0.821-0.191 1.612-0.374 2.329-0.471 0.311-2.673 0.289-5.241-0.057-6.053-1.684 0.783-3.335 0.82-4.605 0.115-1.246-0.692-2.020-2.016-2.179-3.728-0.457-4.907 10.401-7.415 12.582-7.869 0.573-0.123 1.14 0.25 1.261 0.827s-0.25 1.141-0.826 1.262c-4.515 0.94-11.1 3.364-10.893 5.582 0.065 0.7 0.308 1.625 1.091 2.061 0.689 0.383 1.693 0.301 2.749-0.226 0.961-0.48 1.66-0.15 1.99 0.089 1.724 1.244 1.297 6.226 0.889 9.086-0.075 0.526-0.525 0.916-1.056 0.916-0.691 0-1.712 0.237-2.793 0.489-2.863 0.666-6.428 1.493-8.722-0.8-0.201-0.201-0.313-0.471-0.313-0.754-0.055-0.218-1.162-1.156-5.449-0.299-5.798 1.159-5.866 9.628-5.866 9.713 0.001 0.174 0.054 4.314 2.966 4.314 0.672 0 1.344-0.038 1.997-0.076 2.23-0.128 4.339-0.249 5.769 1.101 0.849 0.802 1.297 1.993 1.363 3.633 0.903 0.946 2.699 3.012 2.699 4.477 0 0.924-0.417 1.758-0.785 2.495-0.289 0.576-0.56 1.12-0.56 1.54 0.012 0.995 2.163 5.133 3.071 5.658 4.578-0.028 6.899-1.932 6.899-5.658 0-0.46 0.293-0.866 0.73-1.011 0.015-0.005 1.824-0.639 3.619-2.433 0.305-0.305 0.333-0.455 0.333-0.457-0.036-0.135-0.448-0.494-0.67-0.687-0.588-0.511-1.318-1.148-1.318-2.137 0-0.811 0.625-1.492 2.165-3.095 2.29-2.381 4.437-4.81 3.885-6.354-1.133 0.382-3.082 0.756-4.394-0.556-0.137-0.137-0.234-0.308-0.281-0.496-0.516-2.063-1.349-4.141-1.826-4.58-0.448-0.049-0.812-0.295-0.993-0.678-0.125-0.265-0.258-0.803 0.258-1.434 0.969-1.18 5.494-3.726 10.171-2.763 4.577-2.559 5.812-9.071 5.825-9.138 0.107-0.579 0.665-0.961 1.241-0.859 0.579 0.106 0.963 0.661 0.858 1.241-0.059 0.323-1.507 7.942-7.297 10.837-0.228 0.113-0.492 0.142-0.735 0.081-3.135-0.784-6.27 0.483-7.686 1.378 0.801 0.907 1.525 2.592 2.163 5.042 0.69 0.372 2.021-0.048 2.618-0.34 0.409-0.203 0.906-0.123 1.228 0.201 3.070 3.070-1.041 7.344-3.495 9.898-0.566 0.59-1.253 1.303-1.515 1.674 0.115 0.11 0.367 0.329 0.53 0.469 0.576 0.501 1.364 1.187 1.399 2.228 0.023 0.69-0.297 1.374-0.956 2.032-1.451 1.452-2.911 2.267-3.747 2.656-0.313 4.506-3.595 7.071-9.111 7.071z"></path>
</svg>
