<?xml version="1.0" encoding="utf-8"?>
<!-- Generated by IcoMoon.io -->
<!DOCTYPE svg PUBLIC "-//W3C//DTD SVG 1.1//EN" "http://www.w3.org/Graphics/SVG/1.1/DTD/svg11.dtd">
<svg version="1.1" xmlns="http://www.w3.org/2000/svg" xmlns:xlink="http://www.w3.org/1999/xlink" width="64" height="64" viewBox="0 0 64 64">
<path d="M46.053 13.291c-0.086-0.418-2.216-10.217-13.92-10.217-11.7 0-13.83 9.8-13.917 10.217l-0.086 0.427-5.521 0.001v50.28h38.781v-50.28h-5.252l-0.086-0.429zM49 33.032h-34v-16h34v16zM54.733 10.51v53.49h-2.274v-51.35h-5.469c-0.581-2.040-3.699-10.646-14.857-10.646-11.157 0-14.273 8.605-14.857 10.646h-5.734v51.35h-2.273v-53.49h5.615c-0.001 0 2.005-10.51 17.117-10.51s17.382 10.51 17.382 10.51h5.35z"></path>
</svg>
