<?xml version="1.0" encoding="utf-8"?>
<!-- Generated by IcoMoon.io -->
<!DOCTYPE svg PUBLIC "-//W3C//DTD SVG 1.1//EN" "http://www.w3.org/Graphics/SVG/1.1/DTD/svg11.dtd">
<svg version="1.1" xmlns="http://www.w3.org/2000/svg" xmlns:xlink="http://www.w3.org/1999/xlink" width="64" height="64" viewBox="0 0 64 64">
<path d="M60.953-0.002h-57.903c-1.68 0-3.050 1.37-3.050 3.047v57.909c0 1.677 1.37 3.047 3.050 3.047h57.904c1.687 0 3.047-1.37 3.047-3.047v-57.909c-0.001-1.677-1.36-3.047-3.048-3.047zM58.616 3.045c-6.354 3.883-13.939 8.399-21.751 13.017-0.401-0.274-0.758-0.582-1.166-0.848 7.213-4.38 14.17-8.572 20.259-12.169h2.659zM25.74 47.014c0.213-0.123 0.415-0.247 0.595-0.37 0.42 0.81 0.762 1.648 1.037 2.513-0.104 0.065-0.204 0.123-0.308 0.188-0.444 0.268-0.911 0.552-1.361 0.823 0.025-0.138 0.078-0.281 0.095-0.42 0.113-0.951 0.091-1.857-0.058-2.734zM25.435 45.803c-0.156-0.487-0.347-0.969-0.59-1.44-0.129-0.247-0.28-0.474-0.427-0.703 0.482 0.599 0.907 1.268 1.319 1.953-0.101 0.060-0.202 0.123-0.302 0.19zM24.801 52.756c0.134-0.252 0.216-0.502 0.325-0.753 0.872-0.526 1.743-1.055 2.613-1.578 0.068 0.292 0.116 0.594 0.169 0.893-1.229 0.748-2.46 1.495-3.667 2.233 0.184-0.27 0.404-0.504 0.559-0.796zM24.574 39.388c-3.38-3.042-7.685-5.12-13.636-5.282 0.031-2.75-0.068-5.651 0.050-8.355 0.907 0 2.268 0.034 3.227 0.154 3.672 0.437 6.862 1.5 9.672 2.917 2.815 1.422 5.19 3.159 7.316 5.284 3.594 3.594 6.516 8.275 7.792 14.243 0.135 0.636 0.313 1.276 0.38 1.981 0.125 1.216 0.297 2.773 0.308 4.090-1.37 0.023-2.787 0.034-4.204 0.034s-2.834-0.011-4.204-0.034c-0.052-3.978-1.051-7.136-2.512-9.751-1.169-2.088-2.564-3.82-4.189-5.281zM22.137 45.764c0.524 1.013 0.807 2.148 0.633 3.63-0.081 0.683-0.362 1.375-0.661 1.93-0.842 1.583-2.487 2.923-4.644 3.121-0.204 0.020-0.396 0.028-0.583 0.028-1.773 0-3.162-0.765-4.063-1.6-1.031-0.948-1.768-2.308-1.88-4.039-0.13-1.901 0.719-3.44 1.651-4.393 0.916-0.938 2.133-1.74 3.959-1.828 0.112-0.005 0.219-0.005 0.333-0.005 2.551 0.001 4.354 1.414 5.255 3.156zM16.94 39.561c0.107-0.062 0.215-0.128 0.322-0.19l0.315-0.193c0.199-0.12 0.4-0.238 0.599-0.357 0.322 0.148 0.641 0.308 0.953 0.477-0.221 0.135-0.445 0.274-0.667 0.409-0.496-0.086-1.001-0.14-1.522-0.146zM20.147 40.163c0.076-0.047 0.155-0.093 0.23-0.14 0.281 0.188 0.547 0.417 0.82 0.622-0.339-0.182-0.687-0.344-1.051-0.482zM35.287 29.737c-2.443-2.38-5.27-4.54-8.556-6.17-1.641-0.815-3.333-1.604-5.204-2.159-0.943-0.279-1.884-0.579-2.87-0.813-1.237-0.294-2.599-0.534-3.987-0.633-0.219-0.016-0.44-0.089-0.66-0.104-0.984-0.065-2-0.104-3.047-0.128-0.044-2.792-0.044-5.764 0-8.557 0-0.044 0.019-0.065 0.050-0.076 1.75 0.042 3.487 0.132 5.156 0.308 0.13 0.013 0.281 0.084 0.406 0.099 0.031 0.005 0.065 0.005 0.086 0.005 0.089 0 0.169-0.011 0.25-0.011 0.036 0 0.062 0.003 0.093 0.005 0.115 0.016 0.213 0.089 0.328 0.101 4.349 0.607 8.227 1.831 11.685 3.456 1.737 0.815 3.388 1.651 4.924 2.641 6.104 3.927 11.151 8.99 14.756 15.467 0.908 1.628 1.776 3.313 2.437 5.099 0.235 0.513 0.459 1.029 0.61 1.626 0.437 1.055 0.771 2.205 1.062 3.404 0.891 3.25 1.5 6.981 1.448 11.147-0.448 0-0.901 0-1.349 0-1.286 0-2.575 0.008-3.857 0.008-1.138 0-2.263-0.008-3.376-0.031-0.055-6.62-1.756-11.811-4.092-16.252-1.707-3.257-3.899-6.075-6.295-8.431zM53.476 3.045c-5.529 3.28-11.884 7.108-19.012 11.438-0.135-0.078-0.268-0.155-0.401-0.232 6.815-4.014 13.261-7.844 18.808-11.206h0.604zM50.403 3.045c-5.379 3.244-11.381 6.809-17.611 10.478-0.451-0.236-0.86-0.427-1.292-0.636 5.641-3.457 11.136-6.8 16.215-9.842h2.688zM45.251 3.045c-4.599 2.767-9.651 5.843-15.104 9.184-0.126-0.059-0.258-0.106-0.386-0.164 5.279-3.112 10.404-6.15 15.204-9.020h0.286zM42.472 3.045c-4.58 2.733-9.362 5.567-14.169 8.402-0.375-0.154-0.746-0.319-1.126-0.462 4.391-2.7 8.735-5.364 12.956-7.94h2.339zM37.704 3.045c-3.868 2.364-7.909 4.844-12.084 7.409-0.456-0.151-0.905-0.32-1.366-0.457 3.972-2.37 7.867-4.699 11.617-6.952h1.834zM33.396 3.045c-3.548 2.129-7.183 4.302-10.87 6.503-0.443-0.112-0.879-0.244-1.327-0.342 3.417-2.088 6.796-4.147 10.114-6.161h2.084zM28.865 3.045c-2.954 1.796-6.123 3.729-9.541 5.817-0.224-0.039-0.446-0.087-0.672-0.123 3.254-1.93 6.448-3.83 9.571-5.694h0.643zM25.74 3.045c-2.997 1.787-6.012 3.575-9.029 5.365-0.076-0.013-0.143-0.030-0.228-0.039-0.478-0.050-0.992-0.081-1.491-0.12 2.823-1.732 5.663-3.473 8.494-5.206h2.253zM21.053 3.045c-2.285 1.399-4.644 2.844-7.204 4.417-0.342 0.211-0.723 0.443-1.072 0.658-0.324-0.014-0.647-0.030-0.984-0.040 2.84-1.692 5.652-3.371 8.434-5.035h0.826zM3.050 3.045h2.129c-0.708 0.432-1.416 0.866-2.129 1.302v-1.302zM3.050 5.834c1.485-0.908 3.006-1.837 4.562-2.789h1.393c-1.844 1.133-3.691 2.269-5.525 3.394l-0.429 0.265v-0.869zM3.050 8.19l1.092-0.67c2.352-1.444 4.814-2.954 7.288-4.475h2.492c-3.572 2.185-7.224 4.413-10.871 6.635v-1.49zM3.050 11.171c3.285-2 7.030-4.287 11.746-7.172 0.517-0.316 1.039-0.636 1.558-0.953h1.397c-3.938 2.354-7.881 4.706-11.62 6.932l-0.050 0.026c-1.031 0.614-2.028 1.207-3.031 1.804v-0.637zM3.050 13.288c1.232-0.733 2.468-1.468 3.68-2.193 0.439-0.261 0.879-0.524 1.319-0.785-0.073 0.254-0.121 0.517-0.128 0.789-1.604 0.984-3.24 1.984-4.871 2.983v-0.795zM3.050 15.572c1.62-0.989 3.244-1.985 4.853-2.971-0.004 0.342-0.005 0.685-0.008 1.030-0.373 0.221-0.757 0.448-1.127 0.667-1.264 0.748-2.487 1.47-3.719 2.198v-0.924zM3.050 17.974c1.46-0.865 2.924-1.731 4.363-2.582 0.157-0.092 0.316-0.186 0.473-0.28 0 0.25 0 0.492 0 0.74-1.611 0.984-3.222 1.969-4.835 2.952v-0.83zM3.050 20.295c1.577-0.963 3.188-1.945 4.845-2.957 0.003 0.509 0.005 1.020 0.011 1.522-1.618 0.988-3.236 1.977-4.856 2.965v-1.53zM3.050 23.314c1.585-0.966 3.205-1.955 4.871-2.972l0.016 0.969c-1.635 0.999-3.263 1.994-4.887 2.983v-0.98zM3.050 25.785c1.646-1.005 3.325-2.033 5.012-3.064h0.005l-0.028 0.66c-1.675 0.987-3.347 1.972-4.988 2.943v-0.54zM3.050 27.803c1.629-0.964 3.278-1.936 4.925-2.907l-0.031 0.723c-0.004 0.086 0 0.174-0.003 0.261-1.628 0.999-3.259 1.999-4.891 2.998v-1.076zM3.050 30.37c1.608-0.984 3.225-1.974 4.874-2.988-0.004 0.249-0.005 0.496-0.008 0.746-1.633 0.96-3.26 1.916-4.867 2.862v-0.62zM3.050 32.47c1.61-0.949 3.228-1.903 4.851-2.856 0 0.352-0.013 0.704-0.012 1.053-1.62 0.986-3.237 1.969-4.839 2.941v-1.139zM3.050 35.099c1.557-0.945 3.171-1.927 4.836-2.94 0.001 0.328 0.001 0.652 0 0.98-1.627 0.961-3.245 1.919-4.836 2.865v-0.904zM3.050 37.482c1.597-0.948 3.212-1.904 4.83-2.862l-0.020 1.565c-1.611 0.981-3.218 1.964-4.811 2.936v-1.639zM3.050 40.6c1.879-1.143 3.806-2.318 5.742-3.5l0.373 0.011c-2.054 1.204-4.098 2.404-6.116 3.592v-0.102zM3.050 42.18c2.796-1.648 5.612-3.303 8.441-4.962 0.651 0.034 1.278 0.104 1.893 0.193-3.429 2.094-6.889 4.199-10.333 6.292v-1.524zM3.050 45.196c3.829-2.331 7.876-4.795 12.167-7.415 0.51 0.128 1.022 0.255 1.509 0.425-1.642 0.978-3.249 1.933-4.864 2.892-0.045 0.031-0.095 0.052-0.14 0.084-2.947 1.753-5.845 3.476-8.672 5.162v-1.147zM3.050 47.827c1.975-1.18 3.957-2.359 5.946-3.544-0.286 0.524-0.518 1.068-0.692 1.633-1.759 1.076-3.515 2.146-5.253 3.204v-1.292zM3.050 50.6c1.612-0.981 3.257-1.981 4.906-2.987-0.019 0.185-0.017 0.37-0.023 0.555-1.629 0.956-3.259 1.911-4.882 2.868v-0.436zM3.050 52.508c1.636-0.964 3.285-1.932 4.937-2.901 0.031 0.244 0.067 0.49 0.116 0.729-1.688 1.026-3.374 2.052-5.052 3.076v-0.903zM3.050 54.9c1.746-1.062 3.554-2.163 5.421-3.3 0.126 0.349 0.255 0.695 0.423 1.023-1.988 1.188-3.935 2.357-5.844 3.508v-1.231zM3.050 57.616c2.121-1.278 4.284-2.575 6.492-3.899 0.263 0.37 0.569 0.706 0.888 1.034-2.507 1.518-4.973 3.008-7.38 4.456v-1.591zM3.050 60.955v-0.268c2.607-1.565 5.392-3.244 8.378-5.057 0.090 0.070 0.177 0.14 0.268 0.205-2.947 1.771-5.774 3.479-8.468 5.12h-0.179zM5.676 60.955c2.357-1.429 4.777-2.891 7.266-4.386 0.423 0.208 0.855 0.38 1.304 0.518-2.181 1.313-4.318 2.599-6.436 3.868h-2.133zM10.276 60.955c1.896-1.138 3.836-2.305 5.831-3.508 0.26 0.023 0.513 0.073 0.775 0.073 0.286 0 0.575-0.013 0.868-0.036 0.044-0.005 0.084-0.023 0.129-0.028-1.964 1.208-3.837 2.372-5.646 3.5h-1.956zM14.635 60.955c4.236-2.628 8.828-5.44 13.476-8.269 0.044 0.429 0.074 0.87 0.092 1.316-3.941 2.393-7.828 4.748-11.498 6.953h-2.069zM19.166 60.955c2.764-1.667 5.809-3.51 9.078-5.495l0.013 1.068c-2.456 1.51-4.841 2.987-7.164 4.427h-1.928zM23.507 60.955c1.882-1.166 3.776-2.336 5.694-3.516l2.034 0.031c0.042 0 0.084 0 0.125 0-1.913 1.166-3.822 2.325-5.732 3.484h-2.121zM28.073 60.955c1.8-1.093 3.692-2.244 5.699-3.466 0.573 0.005 1.13 0.013 1.708 0.013 0.086 0 0.167-0.003 0.25-0.003-2.011 1.247-3.86 2.398-5.56 3.456h-2.097zM32.574 60.955c1.891-1.174 3.75-2.328 5.602-3.474 0.492-0.003 1.003-0.003 1.487-0.011-1.901 1.162-3.807 2.323-5.719 3.484h-1.37zM36.391 60.955c1.271-0.773 2.614-1.594 4.084-2.49 0.555-0.341 1.128-0.69 1.69-1.034l0.586-0.008v-0.013l0.82 0.016c-0.050 0.031-0.099 0.062-0.148 0.093-1.995 1.25-3.796 2.38-5.479 3.435h-1.552zM40.334 60.955c1.224-0.768 2.456-1.539 3.667-2.297l0.096-0.062c0.596-0.372 1.193-0.748 1.789-1.123 0.428 0.008 0.86 0.016 1.334 0.019-1.769 1.076-3.662 2.229-5.684 3.463h-1.203zM46.413 60.955h-2.433c1.888-1.154 3.766-2.294 5.678-3.456 0.445-0.003 0.891-0.003 1.331-0.003 0.242 0 0.487 0 0.732-0.003-1.323 0.865-2.63 1.716-3.893 2.539-0.5 0.326-0.951 0.62-1.414 0.923zM50.528 60.955h-1.792c1.932-1.258 3.687-2.404 5.302-3.459 0.068 0 0.132 0 0.198 0l2 0.013c-1.474 0.888-3.005 1.812-4.646 2.804-0.351 0.212-0.711 0.428-1.062 0.641zM60.95 60.955h-0.339c0.117-0.078 0.224-0.148 0.339-0.224v0.224zM60.95 59.212c-0.889 0.586-1.766 1.164-2.647 1.742h-1.336c1.435-0.943 2.76-1.815 3.982-2.622v0.88zM60.95 56.817c-2.102 1.386-4.212 2.773-6.29 4.138h-1.68c2.62-1.58 5.32-3.211 7.97-4.799v0.661zM60.95 54.674c-1.157 0.695-2.387 1.432-3.676 2.211l0.020-1.526c1.347-0.885 2.555-1.685 3.654-2.418v1.733zM60.95 51.412c-1.172 0.784-2.387 1.591-3.657 2.428-0.003-0.31-0.016-0.62-0.026-0.933 1.292-0.768 2.516-1.495 3.684-2.18v0.685zM60.95 49.243c-1.129 0.659-2.355 1.383-3.72 2.201-0.020-0.347-0.068-0.692-0.099-1.042 1.339-0.846 2.607-1.653 3.819-2.432v1.273zM60.95 46.46c-1.253 0.804-2.569 1.644-3.951 2.521-0.020-0.172-0.028-0.344-0.052-0.516 1.404-0.841 2.737-1.633 4.004-2.383v0.378zM60.95 44.603c-1.267 0.748-2.673 1.58-4.225 2.513-0.057-0.352-0.107-0.703-0.172-1.052 1.529-0.958 2.992-1.883 4.396-2.773v1.313zM60.95 41.78c-1.496 0.95-3.048 1.932-4.67 2.95-0.060-0.274-0.128-0.547-0.196-0.823 1.692-1.019 3.313-1.989 4.866-2.914v0.787zM60.95 39.508c-1.558 0.927-3.282 1.964-5.17 3.099-0.008-0.023-0.011-0.050-0.019-0.073-0.109-0.448-0.224-0.834-0.339-1.237 1.945-1.208 3.796-2.365 5.527-3.457v1.668zM60.95 36.336c-1.844 1.164-3.834 2.409-5.917 3.704-0.076-0.227-0.154-0.451-0.235-0.667 2.167-1.298 4.237-2.53 6.152-3.657v0.62zM60.95 34.25c-1.923 1.13-4.126 2.44-6.569 3.904-0.14-0.378-0.286-0.734-0.432-1.047-0.013-0.039-0.031-0.070-0.047-0.109 2.518-1.541 4.891-3.008 7.048-4.355v1.607zM60.95 31.137c-2.314 1.448-4.868 3.028-7.558 4.681-0.096-0.219-0.188-0.437-0.286-0.651 2.82-1.677 5.466-3.238 7.844-4.622v0.592zM60.95 29.076c-2.373 1.375-5.163 3.017-8.371 4.924-0.146-0.294-0.289-0.549-0.437-0.831 3.148-1.894 6.112-3.689 8.808-5.344v1.252zM60.95 26.328c-2.876 1.768-6.053 3.694-9.402 5.713-0.062-0.111-0.13-0.247-0.188-0.356-0.052-0.092-0.12-0.171-0.169-0.26 3.479-2.1 6.773-4.075 9.759-5.842v0.745zM60.95 24.096c-3.035 1.793-6.53 3.888-10.449 6.257-0.162-0.271-0.344-0.53-0.51-0.796 3.386-2.044 6.58-3.981 9.401-5.719 0.544-0.336 1.052-0.651 1.558-0.964v1.222zM60.95 21.371c-3.428 2.126-7.387 4.538-11.652 7.112-0.247-0.369-0.461-0.761-0.719-1.122 4.568-2.709 8.76-5.159 12.371-7.217v1.227zM60.953 18.685c-3.681 2.079-8.076 4.645-13.147 7.654-0.028-0.036-0.060-0.069-0.089-0.106 3.602-2.146 7.013-4.193 10.050-6.042 1.143-0.695 2.185-1.334 3.186-1.95v0.444zM60.953 16.747c-4.074 2.513-8.852 5.396-14.066 8.5-0.25-0.308-0.505-0.611-0.766-0.911 5.475-3.302 10.522-6.315 14.833-8.82v1.231zM60.953 14.045c-4.303 2.49-9.54 5.609-15.658 9.304-0.138-0.151-0.252-0.319-0.393-0.47 4.475-2.689 8.699-5.246 12.438-7.542 1.313-0.806 2.484-1.534 3.612-2.237v0.946zM60.953 11.604c-4.832 3.007-10.644 6.54-16.979 10.348-0.339-0.341-0.714-0.654-1.062-0.986 6.722-4.044 12.912-7.722 18.041-10.68v1.317zM60.953 8.823c-5.097 2.924-11.477 6.711-19.007 11.248-0.154-0.138-0.294-0.284-0.451-0.42 6.724-3.949 12.944-7.63 18.11-10.758 0.474-0.286 0.905-0.549 1.348-0.819v0.749zM60.953 6.587c-5.668 3.451-12.754 7.652-20.428 12.164-0.244-0.204-0.518-0.384-0.765-0.582 7.894-4.796 15.275-9.222 21.195-12.648v1.067zM60.953 4.054c-5.785 3.327-13.292 7.828-22.307 13.306-0.216-0.163-0.443-0.322-0.661-0.483 8.261-4.881 16.094-9.545 22.376-13.404 0.206-0.126 0.396-0.244 0.592-0.364v0.946z"></path>
</svg>
