<?xml version="1.0" encoding="utf-8"?>
<!-- Generated by IcoMoon.io -->
<!DOCTYPE svg PUBLIC "-//W3C//DTD SVG 1.1//EN" "http://www.w3.org/Graphics/SVG/1.1/DTD/svg11.dtd">
<svg version="1.1" xmlns="http://www.w3.org/2000/svg" xmlns:xlink="http://www.w3.org/1999/xlink" width="64" height="64" viewBox="0 0 64 64">
<path d="M62.644-0.405h-60.884c-0.882 0-1.601 0.72-1.601 1.601v60.885c0 0.881 0.72 1.601 1.601 1.601h60.884c0.881 0 1.602-0.72 1.602-1.601v-60.885c-0.001-0.881-0.721-1.601-1.602-1.601zM56.656 2.799h0.746c-2.782 1.634-5.833 3.446-9.124 5.416l0.068-0.38c2.38-1.428 4.685-2.816 6.782-4.097 0.532-0.325 1.023-0.628 1.529-0.939zM54.095 2.799c-2.368 1.442-4.947 2.995-7.61 4.589l-1.273-0.227c-0.18-0.033-0.527-0.081-0.968-0.137 2.438-1.469 4.817-2.897 7.056-4.226h2.795zM36.55 53.733c-2.827 0-5.644 0-8.463 0 0-7.656 0-15.317 0-22.974-2.852-0.028-2.975-0.028-4.584-0.047 0-0.644 0.036-4.394 0.036-6.516 0.407 0 0.756 0 1.069 0 1.075 0 1.779-0.005 3.437-0.039 0.026-1.544 0.042-6.316 0.042-7.317 0.214-1.166-0.332-6.882 8.146-7.195 4.020 0.108 7.698 0.545 8.423 0.67-0.204 1.153-0.766 4.603-1.069 6.723-1.366-0.244-2.561-0.524-3.593-0.524-1.466 0-2.597 0.557-3.443 2.542-0.062 1.64-0.036 3.364-0.042 5.061 0.72 0.039 1.471 0.044 2.228 0.044 0.933 0 1.877-0.013 2.811-0.013 0.761 0 1.512 0.011 2.238 0.047-0.303 4.151-0.355 4.733-0.516 6.407-2.685 0.044-3.792 0.028-6.718 0.039-0.064 7.596 0.029 15.385-0.002 23.092zM23.48 20.994l-2.102-0.005c1.162-0.715 2.33-1.433 3.497-2.15-0.001 0.424-0.003 0.87-0.004 1.339-0.467 0.274-0.926 0.543-1.391 0.817zM45.37 20.614c-0.229 0.138-0.467 0.278-0.699 0.419l-0.724-0.036c-0.104-0.005-0.229-0.008-0.34-0.013 0.298-0.173 0.603-0.353 0.895-0.525l0.868 0.156zM42.489 20.092c-0.483 0.284-0.96 0.566-1.448 0.852-0.308 0.003-0.615 0.005-0.923 0.006-0.135 0.003-0.267 0.003-0.402 0.003 0-0.115 0.003-0.224 0.005-0.339 0.433-0.263 0.867-0.527 1.299-0.788 0.352 0.057 0.735 0.128 1.132 0.204 0.109 0.021 0.224 0.041 0.337 0.061zM39.737 34.063c0.13-0.076 0.256-0.151 0.387-0.228 0.101 0 0.205 0 0.31 0-0.227 0.136-0.466 0.279-0.696 0.418-0.001-0.062-0.001-0.127-0.001-0.19zM43.080 33.81c0.087 0 0.157 0 0.245-0.003l2.615-0.042c-2.026 1.218-4.096 2.462-6.199 3.719-0.003-0.561-0.003-1.114-0.003-1.671 1.128-0.679 2.242-1.344 3.341-2.004zM48.692 2.799c-2.089 1.246-4.323 2.595-6.634 3.989-0.089-0.008-0.19-0.016-0.282-0.023 2.269-1.355 4.488-2.684 6.621-3.966h0.294zM45.788 2.799c-2.060 1.237-4.18 2.505-6.332 3.787-0.704-0.044-1.455-0.081-2.225-0.11 2.043-1.249 4.060-2.478 6.032-3.676h2.524zM40.697 2.799c-2.031 1.239-4.141 2.528-6.287 3.841-1.173 0.148-2.259 0.388-3.223 0.751 2.611-1.564 5.181-3.108 7.646-4.592h1.864zM3.364 2.799h3.125c-1.029 0.631-2.075 1.271-3.125 1.914v-1.914zM3.364 6.278c1.518-0.928 3.034-1.854 4.628-2.832 0.353-0.217 0.704-0.43 1.058-0.647h1.439c-2.368 1.458-4.74 2.918-7.125 4.382v-0.903zM3.364 8.748c3.167-1.943 6.416-3.941 9.675-5.948h2.647c-1.212 0.74-2.486 1.52-3.841 2.349l-0.107 0.062c-2.753 1.684-5.564 3.399-8.373 5.114v-1.578zM3.364 11.892c2.684-1.636 5.664-3.458 9.174-5.606 1.89-1.156 3.8-2.323 5.707-3.486h1.558c-5.494 3.295-11.119 6.644-16.373 9.771l-0.052 0.031c-0.004 0.003-0.009 0.005-0.013 0.008v-0.717zM3.364 14.164c0.232-0.138 0.467-0.277 0.696-0.414 6.17-3.668 12.426-7.396 18.342-10.949h0.775c-3.569 2.183-7.416 4.542-11.628 7.127-2.595 1.592-5.375 3.297-8.185 5.020v-0.783zM3.364 16.511c3.061-1.875 6.102-3.739 8.906-5.458 4.484-2.754 9.011-5.529 13.47-8.253h2.474c-7.937 4.747-16.342 9.718-24.117 14.316-0.249 0.148-0.487 0.288-0.732 0.433v-1.037zM3.364 19.103c0.472-0.279 0.947-0.561 1.413-0.837 8.839-5.226 17.828-10.543 26.044-15.466h0.603c-5.93 3.595-12.733 7.748-20.732 12.642l-0.076 0.044c-2.394 1.465-4.825 2.949-7.252 4.433v-0.816zM3.364 21.484c2.588-1.58 5.236-3.197 8.024-4.902 7.616-4.66 15.358-9.392 22.612-13.782h2.238c-7.331 4.412-15.267 9.141-23.092 13.803-3.268 1.948-6.53 3.894-9.781 5.835v-0.953zM3.364 23.992c3.499-2.089 7.010-4.184 10.473-6.245 4.755-2.832 9.535-5.681 14.192-8.466-0.417 0.378-0.844 0.748-1.183 1.201-0.312 0.414-0.531 0.834-0.746 1.252-2.307 1.416-4.636 2.848-7.007 4.305-5.194 3.197-10.472 6.435-15.729 9.649v-1.695zM3.364 27.254c5.423-3.315 11.011-6.743 16.452-10.092 1.824-1.122 3.655-2.248 5.483-3.372-0.121 0.488-0.202 0.933-0.252 1.332-3.393 1.999-6.772 3.99-10.054 5.921-3.868 2.276-7.78 4.576-11.628 6.845v-0.635zM3.364 29.44c4.095-2.417 8.228-4.852 12.303-7.25 3.067-1.803 6.147-3.615 9.213-5.423v0.080c0 0.092 0 0.268-0.001 0.428-3.304 2.028-6.678 4.105-10.174 6.256-3.596 2.214-7.462 4.593-11.34 6.972v-1.063zM3.364 32.066c3.988-2.445 8.056-4.947 12.039-7.401 1.625-1 3.278-2.019 4.934-3.036v1.207c-1.313 0.771-2.647 1.555-3.94 2.312l-0.123 0.073c-4.285 2.511-8.631 5.061-12.91 7.578v-0.732zM3.364 34.35c4.667-2.748 9.365-5.503 13.722-8.058 1.082-0.634 2.165-1.271 3.251-1.908 0 0.241 0 0.497-0.001 0.767-1.178 0.718-2.339 1.426-3.547 2.163-4.444 2.709-8.959 5.463-13.425 8.178v-1.142zM3.364 37.054c4.276-2.597 8.898-5.413 14.126-8.603 0.93-0.569 1.887-1.15 2.835-1.727-0.004 0.453-0.006 0.9-0.011 1.335-5.663 3.332-11.387 6.706-16.95 9.996v-1.002zM3.364 39.61c5.711-3.382 11.502-6.796 16.939-9.994-0.004 0.506-0.006 0.928-0.006 1.096v0.197c-1.124 0.688-2.243 1.372-3.408 2.087l-0.065 0.047c-4.458 2.73-8.985 5.5-13.459 8.233v-1.667zM3.364 42.838c4.687-2.859 9.508-5.811 14.225-8.702 0.893-0.548 1.802-1.103 2.707-1.659v0.612c-5.639 3.299-11.337 6.637-16.932 9.923v-0.174zM3.364 44.564c6.059-3.564 12.182-7.148 18.201-10.665l1.808 0.019c-3.271 1.989-6.628 4.034-10.154 6.185-3.253 1.984-6.557 3.995-9.854 6.004v-1.542zM3.364 47.668c3.372-2.052 6.854-4.172 10.561-6.436 3.597-2.193 7.277-4.436 10.955-6.673v2.034c-0.036-0.135-0.095-0.253-0.123-0.394-3.363 2-6.723 3.997-10.017 5.953-3.882 2.306-7.666 4.556-11.377 6.764v-1.249zM3.364 50.473c3.927-2.336 7.872-4.685 11.764-7.001l0.336-0.199c3.135-1.865 6.283-3.734 9.416-5.599v0.965c-2.164 1.322-4.359 2.662-6.636 4.057l-0.292 0.178c-4.826 2.954-9.737 5.958-14.588 8.916v-1.316zM3.364 53.35c5.147-3.132 10.43-6.363 15.576-9.513 1.95-1.192 3.95-2.418 5.94-3.633v1.052c-2.852 1.675-5.712 3.348-8.507 4.986-4.124 2.415-8.57 5.022-13.010 7.63v-0.522zM3.364 55.423c4.506-2.647 9.054-5.312 13.521-7.932l0.271-0.159c2.57-1.505 5.15-3.018 7.724-4.528v0.42c-5.151 3.124-10.599 6.438-16.381 9.962l-0.372 0.227c-1.591 0.971-3.176 1.935-4.762 2.9v-0.89zM3.364 57.871c1.879-1.142 3.793-2.308 5.828-3.547 5.041-3.068 10.36-6.308 15.688-9.538v1.562c-0.369 0.219-0.741 0.441-1.108 0.66-6.876 4.092-13.83 8.238-20.408 12.188v-1.325zM3.815 60.476c6.68-4.008 13.725-8.204 20.64-12.321l0.081-0.047c0.115-0.068 0.229-0.135 0.344-0.206v1.437c-5.963 3.643-12.216 7.46-18.294 11.137h-2.771zM9.156 60.476c4.767-2.889 9.991-6.073 15.724-9.571v0.564c-5.117 3.046-10.205 6.082-15.082 9.007h-0.643zM12.391 60.476c4.145-2.485 8.351-4.994 12.488-7.459v1.284c-3.315 2.009-6.76 4.090-10.216 6.175h-2.272zM17.238 60.476c2.532-1.528 5.089-3.072 7.642-4.615v1.064c-1.953 1.188-3.928 2.39-5.821 3.551h-1.82zM21.615 60.476c1.919-1.173 3.866-2.357 5.806-3.538h2.374c-1.945 1.18-3.893 2.367-5.826 3.538h-2.355zM26.537 60.476c1.865-1.132 3.81-2.314 5.826-3.538h1.773c-1.923 1.18-3.847 2.362-5.759 3.538h-1.84zM30.924 60.476c1.952-1.203 3.876-2.381 5.764-3.538h2.39c-0.516 0.315-1.012 0.618-1.54 0.941-1.38 0.842-2.822 1.722-4.253 2.597h-2.36zM61.043 60.476h-4.113c1.513-0.993 2.887-1.901 4.113-2.715v2.715zM61.043 56.161c-2.051 1.366-4.269 2.83-6.538 4.316h-1.914c3.007-1.815 5.881-3.536 8.452-5.046v0.731zM61.043 53.876c-2.908 1.702-6.554 3.888-11.028 6.6h-1.54c4.5-2.819 8.845-5.555 12.57-7.938v1.338zM61.043 50.948c-4.46 2.861-9.785 6.212-15.084 9.529h-1.385c5.828-3.554 11.661-7.091 16.468-9.93v0.401zM61.043 48.992c-4.543 2.676-10.749 6.433-19.036 11.484h-1.594c7.204-4.457 14.538-8.999 20.63-12.859v1.374zM61.043 46.029c-6.546 4.157-14.463 9.060-21.801 13.603l-0.062 0.039c-0.448 0.278-0.866 0.537-1.301 0.805h-2.036c0.79-0.483 1.563-0.951 2.384-1.455 7.698-4.7 15.996-9.763 22.818-13.827v0.835zM61.043 43.639c-5.237 3.114-12.165 7.319-21.303 12.895l0.008-1.476c7.873-4.828 15.266-9.372 21.295-13.169v1.749zM61.043 40.304c-6.172 3.896-13.868 8.631-21.29 13.184 0.003-0.344 0-0.693 0.003-1.040 7.534-4.577 15.143-9.18 21.287-12.796v0.652zM61.043 38.108c-5.211 3.059-12.175 7.252-21.284 12.78 0-0.483 0-0.962 0-1.444 7.917-4.804 15.333-9.313 21.284-13.023v1.687zM61.043 34.837c-6.102 3.823-13.808 8.511-21.284 13.046 0-0.339-0.003-0.67-0.003-1.006 7.824-4.716 15.336-9.205 21.287-12.666v0.626zM61.043 32.667c-5.164 2.992-12.121 7.136-21.292 12.659-0.003-0.386-0.003-0.774-0.003-1.157 7.881-4.694 15.219-9.089 21.295-12.813v1.312zM61.043 29.778c-6.183 3.798-13.688 8.304-21.3 12.842 0-0.258 0-0.524 0-0.785 7.622-4.644 15.104-9.175 21.3-12.837v0.78zM61.043 27.435c-5.656 3.339-12.809 7.661-21.3 12.835 0-0.409 0-0.816 0-1.228 7.252-4.334 14.113-8.463 19.688-11.897 0.574-0.353 1.075-0.667 1.612-0.997v1.287zM61.043 24.572c-4.287 2.66-9.386 5.754-14.838 9.036l0.167-1.756c5.428-3.229 10.441-6.166 14.671-8.573v1.294zM61.043 21.743c-4.029 2.274-8.898 5.117-14.517 8.456 0.005-0.056 0.011-0.112 0.016-0.167 4.016-2.388 7.807-4.663 11.179-6.715 1.192-0.724 2.275-1.389 3.323-2.036v0.462zM61.043 19.708c-4.17 2.574-9.062 5.524-14.364 8.684 0.036-0.421 0.073-0.907 0.117-1.52 5.218-3.144 10.074-6.036 14.246-8.464v1.3zM61.043 16.868c-3.962 2.292-8.697 5.105-14.124 8.372 0.019-0.253 0.036-0.491 0.057-0.776 3.666-2.212 7.15-4.324 10.295-6.253 1.361-0.837 2.587-1.597 3.771-2.332v0.99zM61.043 14.306c-4.071 2.532-8.814 5.426-13.946 8.525l0.12-1.671-0.162-0.008c5.137-3.072 9.883-5.876 13.988-8.243v1.396zM61.043 11.378c-4.090 2.348-8.996 5.243-14.64 8.617l0.101-0.719c4.796-2.832 9.26-5.486 13.156-7.843 0.491-0.297 0.921-0.561 1.383-0.841v0.786zM61.043 9.027c-4.144 2.523-9.013 5.428-14.296 8.555l0.011-0.090c0.057-0.38 0.12-0.804 0.186-1.241 5.176-3.115 9.974-5.963 14.1-8.35v1.126zM61.043 6.359c-3.893 2.24-8.525 4.982-13.834 8.174 0.047-0.304 0.096-0.604 0.143-0.897 4.757-2.838 9.227-5.524 13.101-7.903 0.204-0.124 0.39-0.24 0.589-0.361v0.987zM61.043 3.796c-3.99 2.46-8.543 5.209-13.412 8.117 0.070-0.433 0.132-0.799 0.174-1.037l0.164-0.919c4.352-2.606 8.426-5.022 12.082-7.156h0.991v0.996z"></path>
</svg>
