<?xml version="1.0" encoding="utf-8"?>
<!-- Generated by IcoMoon.io -->
<!DOCTYPE svg PUBLIC "-//W3C//DTD SVG 1.1//EN" "http://www.w3.org/Graphics/SVG/1.1/DTD/svg11.dtd">
<svg version="1.1" xmlns="http://www.w3.org/2000/svg" xmlns:xlink="http://www.w3.org/1999/xlink" width="64" height="64" viewBox="0 0 64 64">
<path opacity="0.8" fill="#000" d="M57.046 16.283c3.592-2.573 2.574-2.701 6.403-3.401-1.317-2.546 1.738-5.601 0-7.332-2.268 0.082-4.97-0.516-8.46 0.095-4.359 0.509-9.973 1.195-11.861 4.664-0.149 2.682-2.315 5.425-3.278 7.604-1.059 2.363-1.025 6.375-3.083 7.957-0.489 3.761-1.793 8.207-3.068 12.302-0.652 2.044 0.583 1.262-1.303 2.912-1.439-5.785-4.317-9.783-5.866-16.94-1.311-6.103-3.219-13.469-7.394-16.858-3.36-2.721-14.82-1.798-18.588-1.94-1.731 1.738 1.324 4.8 0 7.339 2.844 1.732 4.339 2.62 8.398 3.476 5.547 11.005 9.022 21.475 13.619 32.82 0.435 0.373 0.849 0.76 1.263 1.161 0.699 2.723 3.020 4.875 3.531 7.163 0.964 0.652 2.092 1.080 3.292 1.392 1.812-0.428 5.6-0.259 7.407-0.673 1.717-4.888 3.408-6.796 5.37-11.453 0.835-0.393 1.541-3.095 2.166-3.673 1.073-5.316 4.63-10.625 6.097-15.588 2.444-2.567 1.868-5.819 3.659-8.981 0.17-0.307 1.121-1.168 1.338-1.508 0.122-0.183 0.23-0.373 0.359-0.537zM9.774 8.055c-0.135 0.502-0.732 0.604-0.828 1.154-1.052-0.149-0.027-1.493 0.828-1.154zM4.316 11.917c0.36-0.964 1.154-1.527 1.269-2.708 1.813 0.272-0.183 2.756 0.835 3.089-0.719 1.358-0.679-1.107-2.104-0.38zM10.195 14.233c-1.29 0.292-0.801-1.059-2.092-0.766 0.516-0.822 1.155-1.515 1.67-2.322 0.951 0.284 0.177 2.158 0.421 3.088zM11.879 9.209c1.031 0.849 2.593 1.215 2.932 2.708-1.357-0.638-1.67 0.367-2.511 1.155-0.965-0.536-0.164-2.682-0.421-3.863zM12.3 16.935c0.366-1.073 1.548-1.398 1.676-2.702 1.854-0.047 0.373 2.010 0 2.315 0.612 3.164 2.172 5.465 2.94 8.5-2.736-1.88-2.268-6.945-4.617-8.112zM20.684 25.428c-0.829-0.604-1.548-2.484-2.098-3.87-0.869-2.152-1.487-3.992-1.67-6.171 1.996 2.662 2.919 6.314 3.768 10.041zM23.624 35.85c-0.116 0.788-1.569 0.366-1.677 1.161-1.561-2.946-2.451-6.503-4.196-9.268 3.143 1.609 3.415 5.867 5.873 8.107zM21.947 37.778c0.726 0.353 1.46 0.72 1.256 1.935-0.828-0.279-1.12-1.032-1.256-1.935zM23.203 40.1c1.432 0.74 1.67 2.593 2.526 3.849-1.548-0.624-1.779-2.478-2.526-3.849zM26.978 47.432c-1.005-0.49-0.835-2.064-1.67-2.702 1.107-1.12 1.779 1.419 1.67 2.702zM29.503 46.264c0.625 0.333 0.897 0.979 0.828 1.942-0.618-0.333-0.896-0.978-0.828-1.942zM32.015 50.521c-1.004-0.149 0.238 1.752-1.263 1.155v-1.922c1.352 0.577 1.487 0.116 2.947 0-0.054 1.419-0.611 0.964-1.684 0.767zM56.116 8.795c0.082 0.679-0.373 1.12-0.937 1.521-0.075-0.523-0.177-1.086-0.509-1.874 0.509 0.027 0.998 0.034 1.181-0.244 0.129 0.163 0.238 0.36 0.265 0.597zM40.406 36.63c-1.086-0.666 0.821-1.805 0.421-3.095 1.14 0.706-0.231 2.328-0.421 3.095zM40.828 30.058c-0.095-2.539 2.607-5.838 3.774-8.5 0.196 2.642-2.716 5.744-3.774 8.5zM45.444 29.678c-0.924-1.894 1.507-4.012 2.092-5.797 0.543 1.534-1.928 3.619-2.092 5.797zM48.384 20.018c-0.367 0.075 1.46-4.23 2.092-5.785 1.608 1.242-1.277 4.284-2.092 5.785zM48.384 12.298c0.618-0.564 1.215-1.14 1.853-1.684 0.007 0.007 0.014 0.020 0.014 0.035 0.19-0.136 0.393-0.259 0.597-0.388 0.325-0.259 0.665-0.509 0.998-0.767 0.4-0.217 0.835-0.414 1.31-0.571 0.116-0.135 0.204-0.183 0.258-0.094-0.094 0.020-0.164 0.068-0.258 0.094-0.646 0.808-2.249 4.766-4.773 3.374z"></path>
</svg>
