<?xml version="1.0" encoding="utf-8"?>
<!-- Generated by IcoMoon.io -->
<!DOCTYPE svg PUBLIC "-//W3C//DTD SVG 1.1//EN" "http://www.w3.org/Graphics/SVG/1.1/DTD/svg11.dtd">
<svg version="1.1" xmlns="http://www.w3.org/2000/svg" xmlns:xlink="http://www.w3.org/1999/xlink" width="64" height="64" viewBox="0 0 64 64">
<path d="M60.95 0h-57.9c-1.68 0-3.050 1.37-3.050 3.047v57.907c0 1.676 1.37 3.046 3.050 3.046h57.901c1.679 0 3.049-1.37 3.049-3.047v-57.906c0-1.677-1.37-3.047-3.050-3.047zM59.065 3.047c-7.781 4.78-17.724 10.681-27.698 16.563-0.005-0.482-0.016-0.964-0.065-1.446 8.995-5.474 17.828-10.81 25.151-15.116h2.612zM35.773 35.308c0.904-0.005 1.784-0.008 2.659-0.008-1.401 0.836-2.807 1.677-4.219 2.518-0.117-0.003-0.235-0.008-0.349-0.011-0.62-0.016-1.552-0.044-1.865-0.14-0.020-0.011-0.034-0.039-0.052-0.052 1.283-0.773 2.561-1.544 3.827-2.307zM31.429 36.448c-0.055-0.325-0.096-0.69-0.117-1.132 0.182 0 0.372 0 0.563 0 0.476 0 0.956-0.003 1.435-0.003-0.624 0.377-1.244 0.749-1.88 1.135zM40.969 35.263c0.792-0.026 1.58-0.093 2.341-0.271-1.498 0.908-3.044 1.849-4.638 2.82-0.37 0.008-0.745 0.019-1.115 0.019-0.3 0-0.599 0.003-0.896 0.005 1.451-0.865 2.888-1.724 4.308-2.573zM42.706 32.019c-0.852 0.216-1.911 0.232-2.95 0.232-0.177 0-0.354 0-0.532 0-2.349 0-4.875 0.016-7.349 0.016-1.235 0-2.463-0.003-3.644-0.016-0.019 3.995-0.112 7.026 2.549 8.208 0.88 0.396 2.281 0.364 3.667 0.42 0.328 0.013 0.664 0.016 1.008 0.016 0.685 0 1.401-0.016 2.101-0.016 0.875 0 1.76-0.036 2.612-0.036 1.219 0 2.341 0.078 3.185 0.453 1.422 0.638 2.838 2.341 2.414 4.826-0.055 0.313-0.164 0.698-0.325 1.020-0.237 0.466-0.74 1.169-1.115 1.529-1.089 1.050-3.166 1.174-5.255 1.174-0.651 0-1.31-0.013-1.935-0.013-0.956 0-1.872 0.013-2.732 0.013-1.401 0-2.687-0.036-3.901-0.247-4.073-0.692-6.75-2.781-8.583-5.331-0.932-1.297-1.76-2.904-2.177-4.781-0.406-1.812-0.375-4.268-0.375-6.588 0-2.198 0-4.555 0-6.956 0-2.367-0.146-4.818-0.044-6.908 0.086-1.826 1.18-3.463 2.644-4.13 0.63-0.289 1.286-0.42 1.932-0.42 1.875 0 3.612 1.128 4.143 2.784 0.544 1.677 0.138 3.927 0.325 6.078 0.425 0.003 0.854 0.005 1.292 0.005 2.443 0 5.057-0.068 7.604-0.068 0.599 0 1.188 0.005 1.771 0.013 0.146 0.003 0.289 0.005 0.432 0.005 0.325 0 0.656-0.005 0.981-0.005 0.706 0 1.388 0.019 1.972 0.14 1.349 0.281 2.498 1.263 2.969 2.32 1.252 2.758-0.34 5.662-2.684 6.261zM53.961 3.047c-6.435 3.804-14.185 8.481-22.916 13.789-0.036-0.152-0.039-0.305-0.086-0.456 8.19-4.82 16-9.448 22.375-13.333h0.628zM50.875 3.047c-6.092 3.692-13.148 7.875-20.422 12.156-0.193-0.352-0.42-0.681-0.669-0.994 6.437-3.947 12.732-7.776 18.404-11.163h2.688zM45.722 3.047c-5.044 3.026-10.703 6.47-16.846 10.235-0.092-0.078-0.185-0.154-0.278-0.228 5.885-3.471 11.596-6.857 16.849-10.006h0.276zM42.964 3.047c-4.981 2.98-10.258 6.106-15.56 9.235-0.362-0.185-0.74-0.345-1.13-0.473 4.86-2.987 9.685-5.945 14.31-8.762h2.38zM38.143 3.047c-4.356 2.659-8.972 5.488-13.745 8.425-0.167-0.012-0.328-0.039-0.498-0.039-0.734 0-1.443 0.14-2.132 0.34 5.005-2.984 9.927-5.928 14.578-8.725h1.797zM3.050 3.047h2.575c-0.854 0.524-1.711 1.048-2.575 1.578v-1.578zM3.050 6.111c1.63-0.996 3.297-2.015 5.010-3.064h1.383c-2.13 1.309-4.266 2.62-6.393 3.925v-0.861zM3.050 8.466c2.844-1.748 5.831-3.58 8.82-5.42h2.498c-0.513 0.314-0.987 0.604-1.529 0.935l-0.101 0.062c-3.182 1.945-6.437 3.931-9.687 5.913v-1.491zM3.050 11.446c2.977-1.814 6.352-3.872 10.451-6.381 1.093-0.669 2.198-1.344 3.3-2.019h1.443c-4.529 2.709-9.101 5.435-13.404 7.997l-0.052 0.023c-0.591 0.353-1.162 0.692-1.737 1.036v-0.656zM3.050 13.585c0.799-0.476 1.599-0.955 2.388-1.423 5.12-3.047 10.289-6.126 15.271-9.115h0.784c-2.802 1.716-5.732 3.512-8.935 5.479-3.003 1.843-6.244 3.832-9.508 5.831v-0.772zM3.050 15.841c3.495-2.138 6.997-4.285 10.188-6.244 3.549-2.177 7.132-4.375 10.687-6.549h2.308c-6.896 4.115-14.078 8.364-20.763 12.317-0.823 0.487-1.617 0.957-2.42 1.431v-0.955zM3.050 18.274c1.026-0.608 2.057-1.218 3.070-1.818 7.63-4.512 15.378-9.095 22.596-13.409h0.604c-5.138 3.121-10.899 6.636-17.58 10.724l-0.070 0.044c-2.846 1.74-5.734 3.505-8.62 5.268v-0.81zM3.050 20.572c2.992-1.826 6.089-3.715 9.354-5.715 6.492-3.972 13.089-8.006 19.359-11.81h2.12c-6.359 3.82-13.132 7.857-19.804 11.831-3.687 2.196-7.37 4.393-11.028 6.577v-0.884zM3.050 22.935c3.899-2.328 7.82-4.668 11.68-6.969 1.294-0.771 2.591-1.544 3.891-2.317-0.67 0.671-1.196 1.468-1.589 2.351-4.638 2.852-9.317 5.722-13.981 8.569v-1.634zM3.050 26.064c4.39-2.683 8.922-5.462 13.425-8.23-0.060 0.331-0.164 0.648-0.182 0.989-0.154 0.090-0.31 0.182-0.461 0.271-4.255 2.505-8.58 5.050-12.781 7.529v-0.559zM3.050 28.1c4.378-2.586 8.831-5.207 13.208-7.782-0.003 0.244-0.016 0.478-0.013 0.725-0.229 0.14-0.456 0.281-0.687 0.423-3.953 2.432-8.244 5.073-12.508 7.689v-1.055zM3.050 30.641c4.331-2.655 8.815-5.412 13.174-8.096 0.016-0.009 0.028-0.019 0.044-0.028 0.005 0.267 0.008 0.535 0.013 0.801 0.003 0.065 0.003 0.132 0.003 0.199-4.404 2.588-8.87 5.207-13.235 7.776v-0.652zM3.050 32.767c4.468-2.633 9-5.291 13.26-7.788 0.003 0.276 0.013 0.554 0.013 0.826-4.412 2.692-8.877 5.415-13.274 8.086v-1.124zM3.050 35.38c4.013-2.44 8.388-5.107 13.276-8.090v1.172c-4.476 2.636-8.943 5.267-13.276 7.835v-0.916zM3.050 37.773c4.417-2.62 8.901-5.265 13.276-7.838v1.336c-4.412 2.706-8.88 5.44-13.276 8.125v-1.623zM3.050 40.877c4.341-2.644 8.836-5.393 13.276-8.116v0.459c-4.456 2.604-8.911 5.213-13.276 7.779v-0.122zM3.050 42.484c4.406-2.594 8.844-5.198 13.278-7.792 0 0.398 0.011 0.792 0.019 1.188-0.732 0.448-1.456 0.888-2.204 1.344-3.664 2.235-7.386 4.502-11.093 6.76v-1.5zM3.050 45.471c3.724-2.266 7.617-4.637 11.768-7.169 0.526-0.32 1.060-0.646 1.591-0.969 0.026 0.437 0.057 0.872 0.107 1.294-0.308 0.182-0.617 0.364-0.922 0.547-4.292 2.549-8.476 5.036-12.544 7.459v-1.162zM3.050 48.117c4.3-2.565 8.638-5.146 12.914-7.685l0.317-0.188c0.151-0.092 0.305-0.18 0.456-0.271 0.011 0.057 0.016 0.123 0.028 0.18 0.057 0.247 0.138 0.487 0.205 0.732-4.625 2.834-9.308 5.698-13.922 8.508v-1.275zM3.050 50.877c4.698-2.86 9.547-5.82 14.323-8.742 0.081 0.216 0.167 0.432 0.255 0.646-0.162 0.093-0.325 0.19-0.484 0.284-4.453 2.612-9.302 5.453-14.093 8.268v-0.456zM3.050 52.812c4.849-2.849 9.753-5.726 14.58-8.557l0.26-0.156c0.093-0.055 0.188-0.109 0.284-0.167 0.073 0.14 0.14 0.284 0.216 0.422-2.831 1.722-5.711 3.474-8.734 5.315l-0.356 0.216c-2.089 1.271-4.172 2.539-6.25 3.804v-0.876zM3.050 55.174c2.323-1.412 4.724-2.872 7.268-4.425 2.831-1.724 5.771-3.513 8.734-5.315 0.132 0.204 0.252 0.412 0.396 0.61 0.099 0.138 0.224 0.24 0.325 0.375-5.684 3.388-11.367 6.776-16.724 9.995v-1.24zM3.050 57.901c5.644-3.396 11.599-6.95 17.571-10.508 0.276 0.31 0.526 0.656 0.818 0.94-6.135 3.742-12.422 7.563-18.388 11.151v-1.584zM3.086 60.953c5.614-3.378 12.052-7.289 19.393-11.768 0.117 0.096 0.24 0.188 0.359 0.281-6.661 3.966-13.229 7.891-19.162 11.487h-0.59zM6.13 60.953c5.7-3.448 11.804-7.096 17.784-10.656 0.347 0.219 0.732 0.378 1.096 0.571-5.417 3.276-11.188 6.765-16.716 10.086h-2.164zM10.75 60.953c4.997-3.005 10.331-6.227 15.617-9.422 0.336 0.138 0.675 0.263 1.020 0.38-5.164 3.138-10.201 6.216-14.753 9.042h-1.884zM15.060 60.953c4.461-2.758 9.252-5.683 14.031-8.588 0.305 0.070 0.583 0.185 0.896 0.24 0.276 0.047 0.549 0.055 0.826 0.089-4.622 2.81-9.255 5.622-13.636 8.26h-2.117zM19.633 60.953c3.961-2.393 8.412-5.092 13.344-8.093 0.482 0.016 0.966 0.034 1.429 0.034 0.065 0 0.132 0 0.198 0-4.432 2.719-8.88 5.451-13.099 8.060h-1.873zM23.93 60.953c4.39-2.714 8.901-5.482 13.13-8.076 0.026 0 0.052 0 0.078 0 0.3 0 0.607 0.003 0.919 0.008 0.336 0.003 0.672 0.005 1.016 0.005 0.078 0 0.162-0.003 0.242-0.003-0.683 0.417-1.336 0.815-2.044 1.247-3.578 2.188-7.393 4.516-11.182 6.818h-2.158zM60.948 60.953h-3.653c1.317-0.868 2.524-1.661 3.653-2.409v2.409zM60.948 57.023c-1.964 1.3-3.969 2.617-5.969 3.93h-1.526c2.508-1.516 5.042-3.039 7.495-4.51v0.58zM60.948 54.964c-2.872 1.719-6.19 3.716-9.956 5.989h-1.922c5.099-3.32 8.964-5.862 11.877-7.81v1.82zM60.948 51.614c-4.219 2.838-9.502 6.278-14.205 9.339h-2.317c5.838-3.557 11.86-7.204 16.524-9.919v0.58zM60.948 49.552c-4.255 2.468-10.409 6.185-18.966 11.401h-1.244c0.659-0.414 1.32-0.828 1.969-1.235l0.093-0.060c6.445-4.031 13.078-8.182 18.148-11.451v1.344zM60.948 46.698c-5.31 3.429-12.317 7.818-18.823 11.883-1.339 0.838-2.588 1.622-3.784 2.372h-1.508c0.756-0.461 1.516-0.924 2.339-1.427 7.555-4.612 15.722-9.594 21.776-13.148v0.32zM60.948 44.908c-4.916 2.872-12.104 7.227-22.448 13.541-1.359 0.831-2.732 1.667-4.101 2.502h-1.409c2.213-1.372 4.42-2.737 6.516-4.036 7.541-4.669 15.276-9.456 21.443-13.38v1.373zM60.948 42.023c-6.45 4.12-14.583 9.156-22.052 13.776l-0.057 0.039c-3.078 1.904-5.789 3.583-8.252 5.115h-2.057c2.896-1.763 5.997-3.653 9.404-5.734 1.333-0.815 2.69-1.644 4.052-2.474 1.646-0.205 3.237-0.703 4.459-1.875 0.429-0.414 0.87-1.011 1.255-1.607 4.711-2.865 9.286-5.628 13.25-7.98v0.74zM60.948 39.802c-3.286 1.945-7.323 4.378-12.313 7.409 0.052-0.216 0.109-0.44 0.13-0.575 0.060-0.349 0.070-0.68 0.086-1.011 4.448-2.742 8.56-5.297 12.096-7.537v1.714zM60.948 36.578c-3.565 2.263-7.734 4.86-12.151 7.588-0.036-0.276-0.093-0.539-0.159-0.799 4.487-2.706 8.7-5.221 12.31-7.339v0.549zM60.948 34.555c-3.354 1.956-7.565 4.468-12.74 7.588-0.169-0.367-0.362-0.714-0.58-1.039 4.945-3.016 9.518-5.818 13.32-8.208v1.659zM60.948 31.384c-4.055 2.556-8.958 5.572-14.13 8.725-0.188-0.196-0.38-0.383-0.586-0.555 5.502-3.292 10.563-6.292 14.716-8.694v0.524zM60.95 29.395c-3.966 2.28-9.18 5.366-15.877 9.379-0.156-0.086-0.313-0.185-0.474-0.258-0.185-0.084-0.38-0.132-0.571-0.198 6.274-3.75 12.078-7.242 16.922-10.222v1.3zM60.95 26.597c-5.352 3.303-11.916 7.252-18.7 11.306-0.386-0.047-0.768-0.076-1.143-0.089 7.196-4.383 14.172-8.596 19.844-11.936v0.719zM60.95 24.4c-3.872 2.274-8.573 5.095-14.020 8.395 0.463-0.518 0.883-1.082 1.196-1.732 0.019-0.039 0.023-0.084 0.042-0.123 3.588-2.164 6.953-4.205 9.93-6.039 1.028-0.634 1.958-1.212 2.854-1.768v1.267zM60.95 21.63c-3.521 2.198-7.68 4.74-12.227 7.485 0.096-0.534 0.14-1.072 0.123-1.616 4.516-2.669 8.62-5.055 12.104-7.020v1.15zM60.95 19.023c-3.401 1.901-7.505 4.278-12.25 7.082-0.011-0.047-0.034-0.092-0.047-0.138 2.763-1.651 5.425-3.249 7.82-4.707 1.651-1.005 3.101-1.901 4.476-2.756v0.518zM60.95 17.009c-3.656 2.271-7.966 4.884-12.706 7.717-0.031-0.076-0.042-0.155-0.076-0.229-0.13-0.286-0.328-0.543-0.5-0.81 4.93-2.964 9.443-5.641 13.281-7.86v1.181zM60.95 14.367c-3.862 2.219-8.573 5.008-14.065 8.313-0.143-0.152-0.289-0.3-0.445-0.442 3.42-2.061 6.675-4.036 9.604-5.835 1.815-1.116 3.404-2.104 4.907-3.044v1.008zM60.95 11.863c-4.409 2.758-9.745 6.014-15.62 9.557-0.482-0.296-0.987-0.532-1.521-0.709 6.437-3.865 12.325-7.35 17.14-10.109v1.261zM60.95 9.143c-4.989 2.84-11.352 6.604-18.948 11.172-0.347-0.030-0.685-0.048-1.023-0.055 6.429-3.78 12.354-7.289 17.333-10.302 0.943-0.572 1.804-1.098 2.638-1.607v0.793zM60.95 6.868c-6.028 3.692-13.908 8.362-22.448 13.376-0.412-0.004-0.82-0.009-1.237-0.009-0.151 0-0.302 0.004-0.456 0.004 9.092-5.53 17.633-10.664 24.14-14.404v1.033zM60.95 4.376c-6.539 3.729-15.568 9.155-26.612 15.883-0.331 0.004-0.669 0.005-0.995 0.009-0.211 0.003-0.409 0.005-0.614 0.008 9.702-5.717 19.057-11.265 26.338-15.734 0.656-0.403 1.278-0.787 1.883-1.162v0.996z"></path>
</svg>
