<?xml version="1.0" encoding="utf-8"?>
<!-- Generated by IcoMoon.io -->
<!DOCTYPE svg PUBLIC "-//W3C//DTD SVG 1.1//EN" "http://www.w3.org/Graphics/SVG/1.1/DTD/svg11.dtd">
<svg version="1.1" xmlns="http://www.w3.org/2000/svg" xmlns:xlink="http://www.w3.org/1999/xlink" width="64" height="64" viewBox="0 0 64 64">
<path opacity="0.8" fill="#000" d="M60.539 23.228c-1.076-2.131-2.425-4.42-4.835-6.204 0.149 0.028 0.3 0.055 0.422 0.068 1.893-4.392 4.876-12.537 4.249-17.133-2.873-0.13-8.689 0.054-8.689 0.054s2.371 7-1.035 14.791c-0.871-0.143-1.743-0.32-2.574-0.606-0.763-0.102-1.512-0.211-2.384-0.252-1.267-0.075-3.119 0.143-4.849 0.443-4.814 1.083-5.774 2.132-8.137 5.516-3.51 5.067 0.612 10.699-2.332 18.754-4.001 10.95-8.127 13.892-14.876 16.364-0.225 0.109-0.45 0.219-0.681 0.32-1.045 0.572-2.121 1.069-3.278 1.444-2.707 1.315-5.5 2.404-8.427 3.214-0.276 0.292-0.569 0.565-0.838 0.865 0.218 1.11 0.699 2.139 1.454 2.996 13.095 0.491 37.267-2.506 47.617-12.067 8.62-7.157 14.436-18.148 9.192-28.568zM52.054 24.591c1.58 0.082 2.724 0.906 4.549 0.593 0.272 2.458-4.222 0.817-4.346 2.281-2.315-0.409 1.417-1.321-0.204-2.874zM51.156 30.079c1.416 0.368 2.71 0.933 4.126 1.28-0.068 1.348-3.187 1.062-4.494 1.743-0.926-1.558 1.294-1.45 0.368-3.023zM52.231 38.006c0.776 2.384-2.887 1.26-3.487 0.9l-1.225-2.036c1.756 0.061 2.696 1.478 4.712 1.137zM13.269 62.188c0.739-1.348 3.197-1.15 4.188-2.294 1.771 1.492-2.199 2.424-4.188 2.294zM18.672 60.465c0.971-2.098 3.858-2.425 5.993-3.439-1.13 1.934-4.020 2.268-5.993 3.439zM25.275 57.019c0.402-1.103 1.583-1.512 2.989-1.709-0.541 0.988-1.1 1.962-2.989 1.709zM29.473 55.296c4.575-2.138 10.119-3.378 14.409-5.755-2.465 4.25-9.111 4.665-12.58 7.981-1.239-0.129-0.586-2.091-1.828-2.227zM40.47 54.847c0.565-1.308 3.098-3.004 4.937-4.284 2.888-2.002 5.394-3.562 8.595-4.699-3.188 3.684-8.294 6.374-13.532 8.982zM51.074 42.555c-4.508 2.084-7.3 5.040-11.537 7.28 1.703-4.304 9.466-5.768 10.283-9.289 1.757 0.034 2.71 1.436 4.725 1.056 0.819 2.37-2.872 1.301-3.471 0.953zM56.031 38.197c0.436-2.009-1.186-2.022-2.697-2.812 0.45-1.458 3.977-1.24 5.652-2.036-0.885 1.661-0.83 3.827-2.955 4.849zM57.87 29.535c-0.164-1.416 2.246-0.606 2.056 0.64-0.818 0-1.185-0.729-2.056-0.64z"></path>
</svg>
