<?xml version="1.0" encoding="utf-8"?>
<!-- Generated by IcoMoon.io -->
<!DOCTYPE svg PUBLIC "-//W3C//DTD SVG 1.1//EN" "http://www.w3.org/Graphics/SVG/1.1/DTD/svg11.dtd">
<svg version="1.1" xmlns="http://www.w3.org/2000/svg" xmlns:xlink="http://www.w3.org/1999/xlink" width="70" height="64" viewBox="0 0 70 64">
<path fill="#000" d="M34.188 63.719c-0.035-0.027-8.475-6.16-16.963-14.615v0c-8.449-8.502-17.128-19.145-17.226-29.088v0c0.018-12.137 8.827-19.998 18.1-20.016v0c6.683-0.035 13.413 4.149 16.954 12.994v0c3.535-8.845 10.274-13.029 16.948-12.994v0c9.273 0.018 18.082 7.879 18.1 20.016v0c-0.094 9.94-8.768 20.586-17.217 29.088v0c-8.487 8.455-16.927 14.588-16.963 14.615v0c-0.257 0.186-0.558 0.284-0.865 0.284v0c-0.307-0.003-0.611-0.094-0.868-0.283v0zM35.056 62.526v0z"></path>
</svg>
