<?xml version="1.0" encoding="utf-8"?>
<!-- Generated by IcoMoon.io -->
<!DOCTYPE svg PUBLIC "-//W3C//DTD SVG 1.1//EN" "http://www.w3.org/Graphics/SVG/1.1/DTD/svg11.dtd">
<svg version="1.1" xmlns="http://www.w3.org/2000/svg" xmlns:xlink="http://www.w3.org/1999/xlink" width="70" height="64" viewBox="0 0 70 64">
<path d="M34.188 63.719c-0.035-0.027-8.475-6.16-16.963-14.615v0c-8.452-8.502-17.128-19.145-17.226-29.088v0c0.018-12.137 8.827-19.998 18.1-20.016v0c6.68-0.035 13.413 4.149 16.954 12.994v0c3.535-8.845 10.271-13.029 16.948-12.994v0c9.273 0.018 18.082 7.879 18.1 20.016v0c-0.094 9.94-8.768 20.586-17.217 29.088v0c-8.487 8.455-16.927 14.588-16.963 14.615v0c-0.257 0.186-0.561 0.284-0.865 0.284v0c-0.307-0.003-0.611-0.097-0.868-0.283v0zM35.056 62.526v0zM2.953 20.016c-0.097 8.148 8.012 18.758 16.354 26.994v0c6.704 6.68 13.404 11.901 15.74 13.67v0c2.333-1.769 9.042-6.987 15.749-13.67v0c8.334-8.236 16.443-18.847 16.348-26.994v0c-0.021-10.658-7.56-17.048-15.147-17.066v0c-6.275 0.044-12.805 4.273-15.51 15.327v0c-0.165 0.662-0.753 1.131-1.435 1.131v0c-0.685 0.006-1.282-0.47-1.441-1.131v0c-2.711-11.053-9.24-15.285-15.516-15.327v0c-7.584 0.018-15.117 6.405-15.144 17.066v0z"></path>
</svg>
