<?xml version="1.0" encoding="utf-8"?>
<!-- Generated by IcoMoon.io -->
<!DOCTYPE svg PUBLIC "-//W3C//DTD SVG 1.1//EN" "http://www.w3.org/Graphics/SVG/1.1/DTD/svg11.dtd">
<svg version="1.1" xmlns="http://www.w3.org/2000/svg" xmlns:xlink="http://www.w3.org/1999/xlink" width="64" height="64" viewBox="0 0 64 64">
<path fill="#000" d="M31.999 64c-17.644 0-31.999-14.357-31.999-32.001s14.355-31.999 31.999-31.999c17.644 0 32.001 14.355 32.001 31.999s-14.357 32.001-32.001 32.001zM31.999 2.593c-16.214 0-29.406 13.193-29.406 29.406s13.193 29.406 29.406 29.406c16.216 0 29.406-13.193 29.406-29.406s-13.191-29.406-29.406-29.406z"></path>
<path fill="#000" d="M49.977 31.999c0 9.929-8.049 17.978-17.978 17.978s-17.978-8.049-17.978-17.978c0-9.929 8.049-17.978 17.978-17.978s17.978 8.049 17.978 17.978z"></path>
</svg>
