<?xml version="1.0" encoding="utf-8"?>
<!-- Generated by IcoMoon.io -->
<!DOCTYPE svg PUBLIC "-//W3C//DTD SVG 1.1//EN" "http://www.w3.org/Graphics/SVG/1.1/DTD/svg11.dtd">
<svg version="1.1" xmlns="http://www.w3.org/2000/svg" xmlns:xlink="http://www.w3.org/1999/xlink" width="64" height="64" viewBox="0 0 64 64">
<path fill="#000" d="M63.955 27.708l0.045-19.124-33.167 0.024c-7.544-0.015-17.268-0.033-17.268-0.033l-0.063 24.903-1.534-1.67-11.967 12.682c0 0 5.324 11.049 17.407 10.934 5.917-0.053 10.139-2.051 12.884-7.015l0.024 6.549c0 0 15.217-0.068 33.642-0.019l-0.024-19.371-1.579-0.003 0.021-7.861 1.58 0.003zM27.693 37.732c-0.016 7.448-3.915 12.403-11.74 12.374-3.934-0.013-6.975-1.988-9.078-5.231l5.31-5.558c1.029 1.409 2.476 3.007 3.694 3.012 2.852 0.007 2.861-3.221 2.866-5.187l0.059-23.291 8.872 0.032 0.018 23.849zM58.733 21.812l-13.322-0.035-0.015 6.032 11.033 0.020-0.022 7.958-11.029-0.016-0.016 6.122 13.25 0.033-0.021 7.863-22.064 0.017-0.053-35.912 22.205-0.084 0.055 8.003z"></path>
</svg>
