<?xml version="1.0" encoding="utf-8"?>
<!-- Generated by IcoMoon.io -->
<!DOCTYPE svg PUBLIC "-//W3C//DTD SVG 1.1//EN" "http://www.w3.org/Graphics/SVG/1.1/DTD/svg11.dtd">
<svg version="1.1" xmlns="http://www.w3.org/2000/svg" xmlns:xlink="http://www.w3.org/1999/xlink" width="45" height="64" viewBox="0 0 45 64">
<path d="M19.743 40.31c0.003-1.608 1.315-2.899 2.907-2.901v0c1.591 0.002 2.902 1.29 2.902 2.901v0c0 1.608-1.302 2.905-2.902 2.905v0c-1.604-0.002-2.905-1.299-2.907-2.905v0zM22.65 40.31v0z"></path>
<path d="M20.784 49.211v-7.861c0-1.031 0.834-1.866 1.865-1.866v0c1.031 0 1.866 0.835 1.866 1.866v0 7.861c0 1.033-0.836 1.868-1.866 1.868v0c-1.031 0-1.865-0.836-1.865-1.868v0z"></path>
<path d="M1.866 64c-0.493 0-0.97-0.199-1.319-0.545v0c-0.347-0.351-0.547-0.83-0.547-1.321v0-35.329c0-0.493 0.2-0.974 0.547-1.321v0c0.347-0.347 0.825-0.547 1.319-0.547v0h41.565c0.493 0 0.97 0.2 1.32 0.547v0c0.347 0.348 0.546 0.829 0.546 1.321v0 35.329c0 0.493-0.199 0.97-0.546 1.321v0c-0.347 0.346-0.827 0.545-1.32 0.545v0h-41.565zM3.733 60.265h37.83v-31.597h-37.83v31.597z"></path>
<path d="M35.33 26.804v-9.353c0.005-3.489-1.385-6.973-3.681-9.532v0c-2.304-2.564-5.43-4.187-8.999-4.187v0c-3.573 0-6.702 1.625-9.002 4.187v0c-2.296 2.558-3.687 6.042-3.681 9.532v0 9.353c0 1.030-0.836 1.865-1.866 1.865v0c-1.033 0-1.865-0.835-1.865-1.865v0l-0.003-9.353c0.012-8.88 6.877-17.39 16.416-17.451v0c9.534 0.062 16.404 8.571 16.411 17.451v0 9.353h0.002c0 1.030-0.836 1.865-1.868 1.865v0c-1.029 0-1.865-0.836-1.865-1.865v0z"></path>
</svg>
