<?xml version="1.0" encoding="utf-8"?>
<!-- Generated by IcoMoon.io -->
<!DOCTYPE svg PUBLIC "-//W3C//DTD SVG 1.1//EN" "http://www.w3.org/Graphics/SVG/1.1/DTD/svg11.dtd">
<svg version="1.1" xmlns="http://www.w3.org/2000/svg" xmlns:xlink="http://www.w3.org/1999/xlink" width="43" height="64" viewBox="0 0 43 64">
<path fill="#000" d="M21.339 0c-11.786 0-21.339 9.56-21.339 21.331 0 3.302 0.772 6.417 2.109 9.207h-0.012l0.077 0.133c0.459 0.943 0.971 1.853 1.559 2.712l17.606 30.617 17.443-30.413c2.442-3.469 3.888-7.688 3.888-12.255 0-11.772-9.566-21.331-21.331-21.331zM21.339 27.696c-4.243 0-7.65-3.439-7.65-7.652 0-4.229 3.405-7.652 7.65-7.652 4.227 0 7.638 3.423 7.638 7.652 0 4.215-3.413 7.652-7.638 7.652z"></path>
</svg>
