<?xml version="1.0" encoding="utf-8"?>
<!-- Generated by IcoMoon.io -->
<!DOCTYPE svg PUBLIC "-//W3C//DTD SVG 1.1//EN" "http://www.w3.org/Graphics/SVG/1.1/DTD/svg11.dtd">
<svg version="1.1" xmlns="http://www.w3.org/2000/svg" xmlns:xlink="http://www.w3.org/1999/xlink" width="52" height="64" viewBox="0 0 52 64">
<path fill="#000" d="M41.308 2.792c-0.218-1.526-2.031-2.792-4.537-2.792-0.012 0-0.023 0.001-0.035 0.001-0.005 0-0.010-0.001-0.015-0.001-0.007 0-0.014 0.001-0.022 0.001-2.458 0.014-3.774 0.717-4.465 2.79-1.317 3.953-2.941 6.238 1.819 6.825 0.706 0.959 1.651 1.55 2.668 1.55 0.991 0 1.893-0.561 2.579-1.476 4.897-0.421 2.627-2.556 2.008-6.899z"></path>
<path fill="#000" d="M51.398 46.514c-5.025-14.378-3.49-8.655-9.214-26.385-0.092-0.286-0.438-0.96 0-1.256 1.073-0.362 1.044 0.778 1.256 1.396 0.727 2.117 1.596 4.149 2.233 6.282 0.627 2.094 1.34 7.236 3.35 7.538 1.359 0.205 2.070-0.436 2.373-1.396 0.352-1.114-0.084-1.982-0.419-3.071-1.458-4.739-2.481-7.377-3.769-11.587-0.638-2.085-1.185-4-2.513-5.165-1.166-1.023-2.813-1.607-4.805-1.887-0.777 0.932-1.879 1.518-3.105 1.518-1.2 0-2.283-0.561-3.057-1.46-1.219 0.208-2.314 0.497-3.133 0.712-2.934 0.77-3.653 3.663-4.607 6.142-0.677 1.76-1.382 3.491-2.094 5.166-0.076-4.374 0.342-6.628-0.977-8.795-1.48-2.432-4.12-3.243-7.655-3.508-0.812 1.181-2.080 1.945-3.51 1.945-1.435 0-2.707-0.769-3.518-1.957-0.71 0.117-1.213 0.337-2.487 0.729-6.454 1.984-5.723 8.068-5.723 15.635 0 1.888-0.038 3.948 0 5.863 0.049 2.491 0.662 3.837 2.233 3.769 2.722-0.117 1.955-5.072 1.955-8.376 0-1.884-0.037-5.364 0-7.678 0.019-1.19-0.26-2.055 0.698-1.954 0.684 0.072 0.461 0.105 0.558 0.838 0.070 0.529-0.671 41.035 0.419 42.996 0.43 0.774 1.382 1.324 2.234 1.396 3.986 0.337 3.211-4.122 3.211-7.817 0-2.192-0.318-14.985 0-18.427 0.071-0.764-0.23-0.96 0.558-1.117 1.059-0.212 0.765 0.328 0.838 1.117 0.039 0.414-0.111 13.309-0.14 18.706-0.014 2.565-0.248 5.219 0.558 6.422 0.357 0.532 1.659 1.338 3.071 1.117 2.702-0.423 2.373-3.358 2.373-6.84 0-11.614-0.226-36.578 0-37.692 0.215-1.062 0.408-0.728 0.698-0.698 0.709 0.075 0.545 0.117 0.558 0.698 0.095 4.191 0 6.45 0 9.074 0 3.363-0.773 8.34 2.094 8.236 1.672-0.061 2.177-2.326 2.792-3.909 1.701-4.378 3.128-8.1 4.746-12.145 0.255-0.638 0.495-2.131 1.675-1.815-4.884 15.637-3.069 10.193-9.072 27.642h7.787c-0.097 4.206-0.549 13.826 0.436 15.596 0.43 0.774 1.382 1.324 2.234 1.396 3.986 0.337 3.211-4.122 3.211-7.818v-9.175h1.32c-0.021 2.526-0.043 5.677-0.064 9.454-0.014 2.565-0.248 5.219 0.558 6.422 0.357 0.532 1.659 1.338 3.071 1.117 2.702-0.423 2.373-3.358 2.373-6.84v-10.152h8.388z"></path>
<path fill="#000" d="M15.617 4.252c-0.242-4.188-1.879-4.191-3.858-4.191-2.017 0-3.587 0.001-3.855 4.412-0.304 0.107-0.535 0.633-0.535 1.271 0 0.708 0.284 1.282 0.637 1.294 0.455 2.421 1.986 4.19 3.753 4.19 1.816 0 3.34-1.873 3.767-4.401 0.024 0.006 0.048 0.015 0.073 0.015 0.357 0 0.644-0.58 0.644-1.294 0-0.706-0.277-1.276-0.626-1.295z"></path>
</svg>
