<?xml version="1.0" encoding="utf-8"?>
<!-- Generated by IcoMoon.io -->
<!DOCTYPE svg PUBLIC "-//W3C//DTD SVG 1.1//EN" "http://www.w3.org/Graphics/SVG/1.1/DTD/svg11.dtd">
<svg version="1.1" xmlns="http://www.w3.org/2000/svg" xmlns:xlink="http://www.w3.org/1999/xlink" width="64" height="64" viewBox="0 0 64 64">
<path fill="#000" d="M10.184 40.501l3.859 5.389v14.352c0 1.888 1.535 3.423 3.424 3.423h9.561c1.893 0 3.423-1.535 3.423-3.423l-3.911-14.352 2.202-3.432c-4.884-0.981-9.667-1.624-13.779-1.624-1.719 0-3.3-0.119-4.779-0.333z"></path>
<path fill="#000" d="M20.322 35.147c17.339 1.672 41.041 10.372 43.943 13.172v-48.631c-3.509 3.035-26.951 11.424-43.943 13.018v22.442z"></path>
<path fill="#000" d="M12.975 34.801v-21.749c-10.288 0.764-12.711 7.069-12.711 10.949 0 4.184 2.316 10.133 12.711 10.8z"></path>
</svg>
