<?xml version="1.0" encoding="utf-8"?>
<!-- Generated by IcoMoon.io -->
<!DOCTYPE svg PUBLIC "-//W3C//DTD SVG 1.1//EN" "http://www.w3.org/Graphics/SVG/1.1/DTD/svg11.dtd">
<svg version="1.1" xmlns="http://www.w3.org/2000/svg" xmlns:xlink="http://www.w3.org/1999/xlink" width="70" height="64" viewBox="0 0 70 64">
<path d="M34.337 11.128c3.067 0.009 5.563-2.477 5.57-5.551 0-0.11-0.008-0.215-0.020-0.336l1.871 0.003c-1.881-1.546-2.75-3.253-4.292-4.286v0c-0.122-0.080-0.252-0.16-0.382-0.238-0.079-0.044-0.167-0.083-0.249-0.125-0.045-0.021-0.088-0.047-0.138-0.067-0.714-0.332-1.498-0.521-2.337-0.527-3.071-0.008-5.564 2.478-5.572 5.554-0.014 3.072 2.473 5.564 5.549 5.574z"></path>
<path d="M58.531 45.625c-5.071-0.011-9.194 4.092-9.208 9.165-0.010 5.071 4.091 9.193 9.158 9.21 5.075 0.007 9.202-4.096 9.214-9.164 0.011-5.075-4.096-9.197-9.165-9.211z"></path>
<path d="M16.626 63.698c4.611 0.017 8.44-3.375 9.106-7.803l-18.176-0.042c0.648 4.433 4.458 7.842 9.070 7.846z"></path>
<path d="M30.107 35.243c0 0-9.094-4.685-11.469-6.104-0.139-0.082-0.297-0.175-0.543-0.422-1.215-1.218-1.020-2.462-0.303-3.651l8.334-13.82c0.903-1.488 2.852-1.868 4.348-0.97 0.681 0.409 0.794 0.616 1.361 1.646l5.242 9.182 6.402 0.016c0.969 0 1.759 0.79 1.751 1.755 0 0.974-0.785 1.755-1.755 1.752l-7.52-0.020c-0.486-0.033-1.040-0.417-1.191-0.629-0.164-0.215-0.357-0.493-0.515-0.754l-3.151-5.534-5.272 8.741 8.576 4.856c0 0 0 0.005 0.010 0v0.010l0.036 0.017-0.009 0.013c0.419 0.443 0.685 1.041 0.68 1.698l-0.018 13.651c-0.005 1.347-1.111 2.446-2.462 2.44-1.354 0-2.453-1.101-2.453-2.454l-0.077-11.421z"></path>
<path d="M69.222 42.996c-2.851-2.118-6.245-3.243-9.809-3.249-0.896 0-1.788 0.076-2.653 0.215l-0.526-3.739c4.014-0.844 2.435-6.674 2.435-6.674l-3.369-0.008c0 0-0.51-3.59-0.543-3.59l-11.652-0.068c-0.571-0.006-1.042 0.46-1.048 1.034-0.010 0.582 0.458 1.057 1.041 1.066l7.038 0.082 1.885 13.423c-4.018 2.001-7.153 5.597-8.474 10.047l-16.642-0.035 0.034-12.348v-0.090h-0.006c-0.058-0.619-0.664-4.83-6.549-4.848-6.347-0.018-18.675-0.044-18.675-0.044s-1.699 0.766-1.707 2.435c-0.008 1.668 1.7 2.47 1.7 2.47l3.27 0.006c-2.979 2.943-4.833 7.014-4.845 11.53-0.002 0.676 0.129 3.279 0.129 3.279l44.871 0.102c1.312-6.781 7.366-12.162 14.284-12.137 3.113 0 6.073 0.982 8.556 2.832 0.469 0.35 1.126 0.248 1.478-0.221 0.343-0.461 0.242-1.119-0.221-1.47z"></path>
</svg>
