<?xml version="1.0" encoding="utf-8"?>
<!-- Generated by IcoMoon.io -->
<!DOCTYPE svg PUBLIC "-//W3C//DTD SVG 1.1//EN" "http://www.w3.org/Graphics/SVG/1.1/DTD/svg11.dtd">
<svg version="1.1" xmlns="http://www.w3.org/2000/svg" xmlns:xlink="http://www.w3.org/1999/xlink" width="64" height="64" viewBox="0 0 64 64">
<path d="M62.525 7.976l-6.501-6.501c-0.965-0.964-2.204-1.475-3.584-1.475-1.863 0-3.931 0.957-5.532 2.558l-42.256 42.256c-0.139 0.139-0.237 0.313-0.285 0.504l-4.334 17.336c-0.092 0.37 0.016 0.76 0.285 1.028 0.206 0.205 0.482 0.317 0.766 0.317 0.088 0 0.175-0.011 0.263-0.032l17.336-4.334c0.191-0.048 0.364-0.146 0.503-0.285l42.256-42.256c2.534-2.534 3.721-6.48 1.084-9.117zM6.95 45.581l36.39-36.39 11.47 11.47-36.39 36.39-11.47-11.47zM44.872 7.658l1.718-1.718 11.47 11.47-1.718 1.718-11.47-11.47zM6.005 47.7l10.295 10.295-13.727 3.432 3.431-13.728zM59.91 15.56l-0.317 0.317-11.47-11.47 0.317-0.317c1.188-1.186 2.721-1.923 4-1.923 0.803 0 1.494 0.283 2.052 0.84l6.501 6.501c1.631 1.631 0.689 4.28-1.084 6.052z"></path>
</svg>
