<?xml version="1.0" encoding="utf-8"?>
<!-- Generated by IcoMoon.io -->
<!DOCTYPE svg PUBLIC "-//W3C//DTD SVG 1.1//EN" "http://www.w3.org/Graphics/SVG/1.1/DTD/svg11.dtd">
<svg version="1.1" xmlns="http://www.w3.org/2000/svg" xmlns:xlink="http://www.w3.org/1999/xlink" width="64" height="64" viewBox="0 0 64 64">
<path fill="#000" d="M63.934 53.242c0 0-0.038-3.892-8.016-7.439-3.865-1.716-9.601-6.143-18.092-7.664 2.172-2.324 3.816-5.959 5.507-10.266 0.98-2.495 0.812-4.623 0.812-7.652 0-2.238 0.422-5.828-0.133-7.802-1.873-6.669-6.607-8.509-12.152-8.509-5.55 0-10.288 1.849-12.157 8.529-0.551 1.969-0.129 5.552-0.129 7.782 0 3.036-0.165 5.171 0.818 7.671 1.704 4.328 3.324 7.958 5.487 10.273-8.425 1.548-14.116 5.941-17.957 7.653-7.947 3.543-7.986 7.424-7.986 7.424v6.591l28.279-0.004 1.525-7.256-3.125-4.196c0 0 3.277-3.508 5.297-3.508s5.265 3.498 5.265 3.498l-3.092 4.206 1.505 7.254 28.347-0.004v-6.583z"></path>
</svg>
