<?xml version="1.0" encoding="utf-8"?>
<!-- Generated by IcoMoon.io -->
<!DOCTYPE svg PUBLIC "-//W3C//DTD SVG 1.1//EN" "http://www.w3.org/Graphics/SVG/1.1/DTD/svg11.dtd">
<svg version="1.1" xmlns="http://www.w3.org/2000/svg" xmlns:xlink="http://www.w3.org/1999/xlink" width="59" height="64" viewBox="0 0 59 64">
<path d="M14.928 9.024c-2.223 4.839-1.745 10.374 0.222 14.244 3.241 6.378 12.521 10.904 20.694 7.559 2.056-0.837 4.397-2.681 5.788-4.224 5.324-5.947 4.789-16.009 0-21.361-3.107-3.469-7.624-5.813-13.797-5.119-7.012 0.782-11.107 4.99-12.908 8.901zM7.586 31.271c-2.794 1.907-5.055 5.928-6.23 10.91-1.334 5.657-2.023 11.568-0.45 15.578 2.333 5.923 7.545 6.23 16.028 6.23 7.86 0 17.313 0 24.923 0 4.537 0 8.733 0.22 11.571-1.109 1.982-0.939 4.023-3.34 4.674-4.894 1.946-4.74 0.568-13.059-0.892-17.801-1.155-3.76-2.843-7.262-6.452-9.353-1.37-0.782-3.914-1.798-6.011-1.553-1.271 0.154-2.646 1.276-3.785 2.001-4.817 3.099-11.725 5.201-18.693 2.454-2.36-0.936-5.698-4.531-8.675-4.452-0.189 0.011-0.412 0.22-0.442 0.225-2.237 0.14-4.136 0.796-5.566 1.765z"></path>
</svg>
