<?xml version="1.0" encoding="utf-8"?>
<!-- Generated by IcoMoon.io -->
<!DOCTYPE svg PUBLIC "-//W3C//DTD SVG 1.1//EN" "http://www.w3.org/Graphics/SVG/1.1/DTD/svg11.dtd">
<svg version="1.1" xmlns="http://www.w3.org/2000/svg" xmlns:xlink="http://www.w3.org/1999/xlink" width="67" height="64" viewBox="0 0 67 64">
<path d="M45.157 41.48c-3.136 4.311-7.312 6.942-11.898 6.942-4.553 0-8.707-2.591-11.832-6.849-11.986 3.527-20.656 12.166-21.426 22.426h66.903c-0.781-10.353-9.597-19.051-21.746-22.52z"></path>
<path d="M48.074 16.094c-0.93-16.080-7.211-16.094-14.816-16.094-7.741 0-13.768 0.001-14.801 16.934-1.164 0.413-2.050 2.446-2.050 4.899 0 2.713 1.086 4.917 2.435 4.971 1.746 9.298 7.63 16.092 14.417 16.092 6.974 0 12.837-7.18 14.48-16.88 0.087 0.018 0.174 0.028 0.263 0.028 1.377 0 2.492-2.228 2.492-4.977 0-2.702-1.077-4.897-2.42-4.975z"></path>
</svg>
