<?xml version="1.0" encoding="utf-8"?>
<!-- Generated by IcoMoon.io -->
<!DOCTYPE svg PUBLIC "-//W3C//DTD SVG 1.1//EN" "http://www.w3.org/Graphics/SVG/1.1/DTD/svg11.dtd">
<svg version="1.1" xmlns="http://www.w3.org/2000/svg" xmlns:xlink="http://www.w3.org/1999/xlink" width="64" height="64" viewBox="0 0 64 64">
<path d="M55.986 45.932c-3.866-1.717-9.601-6.143-18.092-7.664 2.171-2.324 3.815-5.959 5.506-10.267 0.98-2.495 0.812-4.622 0.812-7.652 0-2.237 0.422-5.828-0.133-7.802-1.873-6.669-6.606-8.509-12.152-8.509-5.549 0-10.288 1.849-12.157 8.53-0.551 1.968-0.129 5.551-0.129 7.782 0 3.036-0.165 5.171 0.818 7.67 1.703 4.329 3.323 7.959 5.487 10.274-8.425 1.548-14.117 5.942-17.957 7.653-7.948 3.543-7.987 7.423-7.987 7.423v6.59l64-0.008v-6.582c0 0-0.037-3.893-8.014-7.439z"></path>
</svg>
