<?xml version="1.0" encoding="utf-8"?>
<!-- Generated by IcoMoon.io -->
<!DOCTYPE svg PUBLIC "-//W3C//DTD SVG 1.1//EN" "http://www.w3.org/Graphics/SVG/1.1/DTD/svg11.dtd">
<svg version="1.1" xmlns="http://www.w3.org/2000/svg" xmlns:xlink="http://www.w3.org/1999/xlink" width="67" height="64" viewBox="0 0 67 64">
<path fill="#000" d="M44.989 41.567c-3.124 4.295-7.285 6.916-11.852 6.916-4.539 0-8.677-2.585-11.788-6.821-11.942 3.511-20.576 12.118-21.349 22.338h66.654c-0.775-10.312-9.558-18.978-21.665-22.433z"></path>
<path fill="#000" d="M50.693 10.682c-0.818-5.704-7.469-10.447-16.717-10.661-0.094-0.004-0.189-0.006-0.283-0.009-0.122-0.001-0.239-0.011-0.362-0.011-0.035 0-0.067 0.002-0.102 0.002-0.030 0-0.060-0.002-0.091-0.002-0.097 0-0.192 0.006-0.289 0.009-9.275 0.091-14.258 2.8-16.883 10.673-5.042 15.13-11.272 23.879 6.944 26.129 2.702 3.677 6.333 5.927 10.228 5.927 3.795 0 7.255-2.134 9.883-5.641 18.753-1.61 10.045-9.788 7.672-26.415z"></path>
</svg>
