<?xml version="1.0" encoding="utf-8"?>
<!-- Generated by IcoMoon.io -->
<!DOCTYPE svg PUBLIC "-//W3C//DTD SVG 1.1//EN" "http://www.w3.org/Graphics/SVG/1.1/DTD/svg11.dtd">
<svg version="1.1" xmlns="http://www.w3.org/2000/svg" xmlns:xlink="http://www.w3.org/1999/xlink" width="64" height="64" viewBox="0 0 64 64">
<path fill="#000" d="M35.004 15.126v4.19c5.161 0.726 9.76 2.884 13.267 5.972 0.985-0.985 1.97-1.97 2.954-2.955-0.031-0.030-0.063-0.061-0.096-0.091-4.284-3.805-9.894-6.357-16.124-7.116z"></path>
<path fill="#000" d="M62.948 33.532c0.004-7.097-3.252-13.51-8.399-18.076-5.151-4.575-12.213-7.365-19.973-7.369-1.3 0-2.578 0.083-3.829 0.235 0 0-10.612-6.047-15.132-8.321 0 2.167 0.188 14.451 0.188 14.451-3.534 2.8-6.301 6.396-7.94 10.5 0 0-3.293-0.309-6.806-0.68l-0.002 18.821c5.123-0.668 6.858-0.858 6.858-0.858 1.851 4.562 5.097 8.484 9.241 11.38 0 0-0.377 2.748-1.366 10.387h18.682c-0.584-4.582-0.667-5.033-0.667-5.033 0.255 0.007 0.514 0.012 0.774 0.012 0.446 0 0.891-0.010 1.329-0.029l-0.003 0.021h-0.055c-0.18 1.37-0.395 3.028-0.655 5.029h18.682c-0.564-4.426-0.66-4.996-0.666-5.029h-0.004l-0.694-5.715c6.318-4.62 10.439-11.723 10.439-19.724zM49.132 50.524l-1.076 0.714 1.047 8.589h-9.097l0.104-0.856h-0.004l0.574-4.718-2.654 0.332c-1.131 0.143-2.283 0.219-3.451 0.219-0.985 0-1.96-0.055-2.929-0.16l-2.609-0.277 0.664 5.46h-9.101l1.009-8.299-1.116-0.703c-4.421-2.792-7.691-6.828-9.191-11.467l-0.517-1.593-5.558 0.536v-9.412l5.532 0.531 0.508-1.604c1.332-4.198 4.1-7.908 7.868-10.657l0.871-0.636-0.146-9.565 10.061 5.691 0.707-0.102c1.286-0.186 2.604-0.285 3.947-0.285 6.757-0.002 12.838 2.436 17.203 6.315 4.364 3.889 6.994 9.156 6.996 14.957h0.002c-0.001 6.891-3.724 13.054-9.643 16.991z"></path>
<path fill="#000" d="M22.266 27.637c0 1.777-1.44 3.217-3.217 3.217s-3.217-1.44-3.217-3.217c0-1.777 1.44-3.217 3.217-3.217s3.217 1.44 3.217 3.217z"></path>
</svg>
