<?xml version="1.0" encoding="utf-8"?>
<!-- Generated by IcoMoon.io -->
<!DOCTYPE svg PUBLIC "-//W3C//DTD SVG 1.1//EN" "http://www.w3.org/Graphics/SVG/1.1/DTD/svg11.dtd">
<svg version="1.1" xmlns="http://www.w3.org/2000/svg" xmlns:xlink="http://www.w3.org/1999/xlink" width="55" height="64" viewBox="0 0 55 64">
<path fill="#000" d="M31.955 19.232h22.835c-0.944-6.539-0.473-11.731-4.807-14.422-2.934-1.821-7.006-0.678-10.816-1.803-2.124-0.627-4.416-3.107-6.009-3.004-2.438 4.372-0.661 12.96-1.202 19.229zM54.789 22.237h-42.063c-2.465-2.31-5.563-3.922-7.211-6.009-0.668-0.846-1.052-3.875-3.005-3.004-8.592 5.138 7.563 8.454 8.413 12.619 0.704 3.506 1.288 8.106 3.606 10.817 6.402 7.488 37.055 9.095 40.261-3.605 0.956-3.79-0.68-6.167-0-10.816zM21.739 44.17c-5.476 0-9.915 4.439-9.915 9.915s4.439 9.915 9.915 9.915c5.476 0 9.915-4.439 9.915-9.915s-4.44-9.915-9.915-9.915zM21.739 59.794c-3.153 0-5.708-2.556-5.708-5.708s2.555-5.709 5.708-5.709 5.709 2.556 5.709 5.709c0 3.152-2.556 5.708-5.709 5.708zM43.973 43.869c-5.476 0-9.915 4.439-9.915 9.915s4.439 9.915 9.915 9.915c5.476 0 9.915-4.439 9.915-9.915s-4.439-9.915-9.915-9.915zM43.973 59.493c-3.153 0-5.709-2.556-5.709-5.708s2.556-5.708 5.709-5.708 5.709 2.556 5.709 5.708c0 3.153-2.556 5.708-5.709 5.708z"></path>
</svg>
