<?xml version="1.0" encoding="utf-8"?>
<!-- Generated by IcoMoon.io -->
<!DOCTYPE svg PUBLIC "-//W3C//DTD SVG 1.1//EN" "http://www.w3.org/Graphics/SVG/1.1/DTD/svg11.dtd">
<svg version="1.1" xmlns="http://www.w3.org/2000/svg" xmlns:xlink="http://www.w3.org/1999/xlink" width="93" height="64" viewBox="0 0 93 64">
<path fill="#000" d="M21.078 33.184c-1.203-0.169-1.9-0.891-2.284-2.101-1.056-3.326-2.161-6.641-3.56-9.849-1.512-3.472-3.353-6.74-5.995-9.496-0.166-0.173-0.32-0.481-0.563-0.418-0.29 0.075-0.254 0.438-0.312 0.694-0.383 1.676-0.661 3.373-0.92 5.26-0.327-0.34-0.546-0.568-0.762-0.795-1.384-1.466-2.78-2.921-4.262-4.291-0.123-0.111-0.232-0.287-0.423-0.257-0.199 0.030-0.168 0.224-0.163 0.358 0.048 2.063-0.666 3.967-1.278 5.881-1.074 3.363-0.594 6.445 1.454 9.31 1.648 2.309 3.764 4.143 5.957 5.896 2.425 1.939 4.526 4.088 5.235 7.268z"></path>
<path fill="#000" d="M13.204 40.643c-0.71-3.18-2.81-5.33-5.235-7.268-2.193-1.754-4.309-3.588-5.957-5.896-2.048-2.866-2.528-5.947-1.454-9.31 0.611-1.914 1.326-3.817 1.278-5.881-0.007-0.136-0.038-0.33 0.161-0.358 0.191-0.030 0.3 0.146 0.423 0.259 1.484 1.369 2.878 2.825 4.262 4.291 0.216 0.227 0.435 0.453 0.762 0.795 0.257-1.887 0.534-3.585 0.919-5.262 0.058-0.256 0.022-0.619 0.312-0.694 0.242-0.063 0.397 0.244 0.563 0.418 2.644 2.755 4.483 6.023 5.995 9.496 1.399 3.208 2.505 6.523 3.56 9.849 0.383 1.21 1.081 1.932 2.284 2.101 0 0 0 6.335-7.874 7.459z"></path>
<path fill="#000" d="M48.419 64c-0.437 0-0.873-0.013-1.315-0.045-1.386-0.103-2.646-0.354-3.866-0.596l-1.764-0.337c-1.436-0.262-2.793-0.513-4.171-0.934-0.486-0.149-1.127-0.183-1.804-0.219-1.022-0.051-2.179-0.111-3.286-0.596-1.212-0.531-2.060-1.411-2.805-2.188-0.436-0.45-0.846-0.878-1.192-1.076-0.543-0.315-1.102-0.581-1.65-0.84-0.928-0.441-1.886-0.898-2.767-1.547-1.042-0.765-1.733-1.708-2.342-2.541-0.352-0.483-0.686-0.936-1.003-1.225-0.524-0.48-1.057-0.895-1.557-1.29-0.802-0.631-1.559-1.227-2.207-1.962-0.578-0.654-0.956-1.057-1.24-1.358-0.758-0.803-0.996-1.079-1.944-2.604-0.602-0.974-0.305-2.251 0.669-2.858 0.971-0.602 2.251-0.307 2.858 0.669 0.767 1.237 0.83 1.305 1.439 1.95 0.304 0.322 0.709 0.755 1.328 1.456 0.398 0.451 0.986 0.913 1.663 1.446 0.578 0.453 1.187 0.934 1.789 1.487 0.622 0.566 1.095 1.212 1.554 1.837 0.475 0.649 0.924 1.261 1.452 1.65 0.564 0.415 1.305 0.769 2.090 1.142 0.649 0.309 1.308 0.624 1.95 0.996 0.85 0.493 1.512 1.183 2.1 1.791 0.525 0.546 1.022 1.064 1.484 1.265 0.412 0.179 1.104 0.216 1.834 0.254 0.86 0.045 1.832 0.095 2.808 0.395 1.145 0.354 2.387 0.581 3.7 0.82l1.829 0.35c1.145 0.227 2.227 0.445 3.356 0.525 0.961 0.071 1.977 0.020 3.057-0.035 0.49-0.027 0.986-0.051 1.489-0.068 1.403-0.041 2.926-0.113 4.543-0.32 0.649-0.083 1.31-0.123 1.978-0.163 0.919-0.051 1.784-0.103 2.611-0.284 0.78-0.171 1.552-0.518 2.368-0.886 0.632-0.284 1.285-0.578 1.987-0.81 0.918-0.302 1.827-0.422 2.631-0.525 0.767-0.098 1.489-0.191 1.972-0.422 0.777-0.367 1.504-0.925 2.274-1.515 0.513-0.393 1.017-0.78 1.537-1.12l0.279-0.181c1.261-0.823 2.453-1.603 3.434-2.483 1.054-0.948 1.932-2.033 2.865-3.182l0.173-0.212c0.597-0.737 1.059-1.608 1.547-2.528 0.247-0.465 0.495-0.929 0.757-1.381 0.548-0.936 0.934-1.944 1.348-3.009 0.146-0.378 0.292-0.758 0.447-1.137 0.38-0.939 0.951-1.718 1.454-2.405 0.445-0.602 0.863-1.175 0.984-1.637 0.176-0.671 0.173-1.479 0.168-2.334-0.003-0.762-0.008-1.549 0.108-2.362 0.123-0.865 0.34-1.65 0.549-2.41 0.222-0.803 0.432-1.56 0.453-2.196 0.035-1.044-0.081-2.11-0.194-3.139-0.056-0.529-0.113-1.046-0.151-1.544-0.065-0.895-0.050-1.748-0.035-2.5 0.015-0.843 0.030-1.638-0.083-2.156-0.294-1.356-0.883-2.788-1.454-4.174l-0.169-0.408c-0.284-0.684-0.908-1.349-1.569-2.053-0.461-0.493-0.941-1.004-1.371-1.588-0.488-0.661-0.858-1.391-1.182-2.035-0.39-0.773-0.795-1.572-1.22-1.846-0.481-0.312-1.472-0.344-2.432-0.375-0.646-0.022-1.293-0.046-1.92-0.129-1.492-0.197-2.808-0.136-4.264 0.193l-0.632 0.141c-1.255 0.277-2.549 0.563-3.821 1.172-1.369 0.657-2.345 1.522-3.389 2.505-0.976 0.919-1.416 1.932-1.929 3.261-0.289 0.749-0.702 1.431-1.067 2.032-0.42 0.692-0.855 1.409-0.871 1.894-0.022 0.603 0.176 1.353 0.383 2.146 0.214 0.815 0.437 1.658 0.5 2.574 0.038 0.586 0.169 1.215 0.305 1.882 0.219 1.067 0.445 2.171 0.365 3.341-0.124 1.889-1.218 3.225-2.096 4.297-0.259 0.315-0.518 0.629-0.739 0.956-0.271 0.402-0.46 0.953-0.661 1.539-0.312 0.905-0.664 1.929-1.456 2.759-1.032 1.082-2.249 1.633-3.228 2.080-0.355 0.161-0.7 0.312-1.008 0.495-1.557 0.916-2.875 1.643-4.531 1.992-0.398 0.085-0.8 0.193-1.207 0.304-1.036 0.279-2.211 0.596-3.507 0.609-1.248 0.025-2.535-0.365-3.877-0.764-0.584-0.173-1.193-0.358-1.821-0.506-1.19-0.281-2.365-0.702-3.499-1.11-0.554-0.199-1.114-0.4-1.68-0.586-0.649-0.212-1.406-0.315-2.209-0.427-1.027-0.143-2.091-0.289-3.125-0.684-1.344-0.516-2.438-1.29-3.316-1.912-0.518-0.368-1.006-0.714-1.346-0.86-1.052-0.453-1.537-1.676-1.082-2.729 0.451-1.052 1.671-1.537 2.727-1.084 0.739 0.319 1.401 0.788 2.101 1.285 0.76 0.539 1.547 1.095 2.402 1.422 0.588 0.226 1.373 0.334 2.206 0.45 0.898 0.123 1.925 0.264 2.931 0.593 0.601 0.197 1.197 0.412 1.788 0.622 1.074 0.385 2.090 0.752 3.052 0.979 0.707 0.168 1.393 0.37 2.050 0.568 1.031 0.307 1.959 0.578 2.651 0.589 0.769-0.008 1.595-0.231 2.468-0.466 0.483-0.129 0.959-0.257 1.432-0.357 1.042-0.221 2.017-0.764 3.281-1.507 0.428-0.252 0.905-0.473 1.399-0.697 0.752-0.342 1.464-0.664 1.942-1.167 0.164-0.173 0.368-0.765 0.533-1.243 0.252-0.737 0.569-1.657 1.145-2.511 0.29-0.43 0.627-0.846 0.968-1.261 0.606-0.74 1.13-1.381 1.167-1.949 0.040-0.611-0.12-1.398-0.29-2.229-0.158-0.772-0.32-1.569-0.38-2.432-0.035-0.523-0.199-1.144-0.373-1.803-0.262-1.001-0.561-2.136-0.518-3.349 0.055-1.565 0.807-2.803 1.471-3.899 0.302-0.496 0.588-0.966 0.744-1.373 0.642-1.663 1.351-3.28 2.956-4.79 0.946-0.891 2.377-2.237 4.438-3.225 1.701-0.817 3.306-1.172 4.722-1.484l0.606-0.134c1.929-0.438 3.749-0.521 5.725-0.261 0.495 0.065 1.007 0.078 1.517 0.095 1.452 0.048 3.097 0.103 4.543 1.036 1.371 0.883 2.063 2.254 2.674 3.462 0.275 0.546 0.536 1.062 0.817 1.444 0.31 0.42 0.684 0.812 1.059 1.21 0.847 0.901 1.806 1.924 2.38 3.315l0.168 0.407c0.611 1.482 1.303 3.16 1.675 4.877 0.214 0.988 0.196 2.018 0.174 3.11-0.012 0.672-0.028 1.386 0.028 2.12 0.033 0.45 0.085 0.916 0.136 1.396 0.123 1.12 0.262 2.39 0.216 3.735-0.038 1.125-0.324 2.159-0.599 3.159-0.183 0.662-0.357 1.288-0.443 1.89-0.073 0.513-0.070 1.115-0.066 1.754 0.007 1.037 0.013 2.211-0.304 3.413-0.322 1.223-1.027 2.186-1.65 3.036-0.395 0.539-0.769 1.051-0.956 1.51-0.144 0.357-0.282 0.714-0.42 1.071-0.45 1.173-0.919 2.387-1.633 3.608-0.236 0.403-0.453 0.818-0.674 1.235-0.559 1.054-1.139 2.146-1.99 3.197l-0.171 0.211c-0.993 1.223-2.017 2.49-3.315 3.657-1.22 1.094-2.601 1.997-3.937 2.87l-0.275 0.179c-0.433 0.285-0.855 0.609-1.283 0.939-0.866 0.664-1.849 1.419-3.027 1.977-1.074 0.506-2.211 0.656-3.215 0.785-0.679 0.088-1.32 0.169-1.859 0.349-0.533 0.176-1.056 0.415-1.588 0.656-0.93 0.418-1.98 0.893-3.184 1.155-1.145 0.249-2.219 0.312-3.257 0.373-0.574 0.033-1.139 0.065-1.693 0.136-1.798 0.231-3.507 0.309-4.944 0.354-0.476 0.013-0.943 0.038-1.406 0.061-0.735 0.036-1.49 0.075-2.254 0.075z"></path>
</svg>
