<?xml version="1.0" encoding="utf-8"?>
<!-- Generated by IcoMoon.io -->
<!DOCTYPE svg PUBLIC "-//W3C//DTD SVG 1.1//EN" "http://www.w3.org/Graphics/SVG/1.1/DTD/svg11.dtd">
<svg version="1.1" xmlns="http://www.w3.org/2000/svg" xmlns:xlink="http://www.w3.org/1999/xlink" width="69" height="64" viewBox="0 0 69 64">
<path d="M53.51 47.557h9.057c1.693-0.009 3.098-1.405 3.104-3.106v0-20.378c-0.006-1.693-1.41-3.092-3.104-3.098v0h-56.614c-1.693 0.006-3.098 1.405-3.098 3.098v0 20.378c0 1.702 1.405 3.098 3.098 3.098v0l9.057 0.009v2.849h-9.057c-3.284-0.006-5.947-2.67-5.953-5.956v0-20.378c0.006-3.286 2.67-5.95 5.953-5.956v0h56.614c3.281 0.006 5.95 2.67 5.956 5.953v0 20.378c-0.006 3.286-2.675 5.956-5.956 5.956v0l-9.057 0.006v-2.852z"></path>
<path d="M52.082 15.013l-0.006-3.932-8.226-8.226h-27.41v12.158h-2.855v-15.016h31.453l9.893 9.89 0.006 5.125h-2.855z"></path>
<path d="M13.588 63.997v-25.503h41.344v25.503h-41.344zM16.44 61.142h35.636v-19.798h-35.636v19.798z"></path>
<path d="M21.811 48.142v-2.855h24.903v2.855h-24.903z"></path>
<path d="M21.808 52.679v-2.855h24.906v2.855h-24.906z"></path>
<path d="M21.811 57.207v-2.855h24.9v2.855h-24.9z"></path>
<path d="M43.023 11.912v-10.484h2.849v7.629h7.638v2.855h-10.487z"></path>
<path d="M4.528 27.473c0-2.672 2.159-4.825 4.825-4.825v0 2.855c-1.091 0-1.973 0.882-1.973 1.973v0c0 1.085 0.882 1.967 1.973 1.967v0c1.085 0 1.964-0.882 1.964-1.967v0c0-1.091-0.879-1.973-1.964-1.973v0-2.855c2.664 0 4.82 2.153 4.82 4.825v0c0 2.658-2.156 4.82-4.82 4.82v0c-2.664 0-4.825-2.161-4.825-4.82v0z"></path>
</svg>
