<?xml version="1.0" encoding="utf-8"?>
<!-- Generated by IcoMoon.io -->
<!DOCTYPE svg PUBLIC "-//W3C//DTD SVG 1.1//EN" "http://www.w3.org/Graphics/SVG/1.1/DTD/svg11.dtd">
<svg version="1.1" xmlns="http://www.w3.org/2000/svg" xmlns:xlink="http://www.w3.org/1999/xlink" width="64" height="64" viewBox="0 0 64 64">
<path fill="#000" d="M42.207 3.937h-35.848v52.854l6.195-0.002 4.734-5.616 7.411 8.88 0.084-0.104 0.095 0.113 7.123-8.821 7.127 8.821 0.093-0.113 0.084 0.104 7.41-8.88 4.732 5.616h6.196v-52.852h-15.436zM53.259 51.523l-6.466-7.42-0.096 0.116-0.074-0.089-7.348 8.785-7.244-8.875-0.030 0.036-0.025-0.036-7.249 8.875-7.347-8.785-0.071 0.089-0.098-0.116-6.558 7.42v-43.198h42.607v43.198z"></path>
</svg>
