<?xml version="1.0" encoding="utf-8"?>
<!-- Generated by IcoMoon.io -->
<!DOCTYPE svg PUBLIC "-//W3C//DTD SVG 1.1//EN" "http://www.w3.org/Graphics/SVG/1.1/DTD/svg11.dtd">
<svg version="1.1" xmlns="http://www.w3.org/2000/svg" xmlns:xlink="http://www.w3.org/1999/xlink" width="94" height="64" viewBox="0 0 94 64">
<path d="M0 39.971c0.112-0.024 0.201-0.049 0.288-0.053 0.181-0.007 0.366-0.003 0.547-0.003 30.235-0.004 60.469-0.010 90.707-0.009 0.404 0 0.827 0.016 1.212 0.124 1.088 0.307 1.717 1.304 1.609 2.467-0.099 1.063-0.972 1.932-2.063 2.035-0.248 0.027-0.498 0.013-0.752 0.013-8.385 0-16.769 0-25.154 0-0.274 0-0.543 0-0.743 0-0.714 1.693-1.321 3.361-2.103 4.946-2.977 6.017-7.385 10.732-13.16 14.154-0.369 0.218-0.849 0.344-1.276 0.344-10.549 0.019-21.1 0.019-31.649 0.003-0.389 0-0.829-0.089-1.155-0.285-8.867-5.338-14.293-13.094-16.276-23.252-0.031-0.155-0.021-0.313-0.031-0.485z"></path>
<path d="M25.321 29.26c0.891-2.128-0.217-3.73-1.683-5.291-2.314-2.461-3.79-5.443-4.943-8.571-1.619-4.398-0.507-8.306 2.503-11.72 1.063-1.203 2.346-2.214 3.553-3.286 0.17-0.153 0.478-0.146 0.721-0.215-0.053 0.273-0.046 0.575-0.17 0.81-0.938 1.781-2.053 3.486-2.817 5.34-1.38 3.33-0.544 6.335 1.84 8.947 0.991 1.088 2.107 2.070 3.031 3.21 1.627 2.004 2.632 4.271 2.438 6.933-0.15 2.063-1.681 4.007-3.578 4.578-0.572 0.178-0.889 0.041-0.895-0.734z"></path>
<path d="M40.575 0.118c-0.063 0.277-0.068 0.584-0.199 0.826-0.87 1.59-1.886 3.113-2.628 4.762-1.671 3.718-0.874 7.036 1.938 9.918 0.848 0.872 1.748 1.69 2.525 2.619 1.653 1.979 2.731 4.213 2.66 6.863-0.059 2.18-1.482 4.132-3.477 4.846-0.798 0.285-1.161 0.028-0.953-0.768 0.482-1.851 0.021-3.362-1.33-4.728-2.419-2.444-3.961-5.457-5.21-8.614-1.59-4.005-1.023-7.763 1.559-11.193 0.642-0.852 1.363-1.655 2.125-2.396 0.824-0.801 1.746-1.504 2.627-2.252 0.119 0.040 0.242 0.081 0.364 0.118z"></path>
</svg>
