<?xml version="1.0" encoding="utf-8"?>
<!-- Generated by IcoMoon.io -->
<!DOCTYPE svg PUBLIC "-//W3C//DTD SVG 1.1//EN" "http://www.w3.org/Graphics/SVG/1.1/DTD/svg11.dtd">
<svg version="1.1" xmlns="http://www.w3.org/2000/svg" xmlns:xlink="http://www.w3.org/1999/xlink" width="95" height="64" viewBox="0 0 95 64">
<path fill="#000" d="M0 39.902c0.112-0.022 0.201-0.049 0.288-0.053 0.182-0.007 0.367-0.003 0.549-0.003 30.319-0.004 60.639-0.010 90.961-0.009 0.405 0 0.83 0.016 1.216 0.124 1.091 0.308 1.721 1.307 1.613 2.474-0.099 1.066-0.975 1.937-2.069 2.041-0.248 0.027-0.501 0.013-0.754 0.013-8.409 0-16.816 0-25.225 0-0.274 0-0.544 0-0.745 0-0.716 1.698-1.325 3.37-2.109 4.959-2.984 6.034-7.406 10.763-13.197 14.194-0.37 0.219-0.85 0.345-1.279 0.345-10.578 0.019-21.159 0.019-31.738 0.003-0.39 0-0.831-0.087-1.158-0.285-8.894-5.35-14.333-13.128-16.323-23.316-0.030-0.154-0.019-0.312-0.030-0.487z"></path>
<path fill="#000" d="M32.786 29.163c0.893-2.135-0.217-3.741-1.687-5.306-2.32-2.468-3.801-5.46-4.957-8.595-1.624-4.41-0.509-8.329 2.51-11.752 1.066-1.207 2.353-2.22 3.563-3.295 0.172-0.152 0.481-0.145 0.725-0.214-0.053 0.272-0.046 0.577-0.17 0.812-0.941 1.786-2.059 3.496-2.825 5.355-1.384 3.339-0.546 6.353 1.846 8.972 0.994 1.091 2.113 2.076 3.039 3.219 1.631 2.010 2.64 4.283 2.445 6.952-0.151 2.070-1.686 4.018-3.588 4.592-0.575 0.176-0.893 0.038-0.899-0.739z"></path>
</svg>
