<?xml version="1.0" encoding="utf-8"?>
<!-- Generated by IcoMoon.io -->
<!DOCTYPE svg PUBLIC "-//W3C//DTD SVG 1.1//EN" "http://www.w3.org/Graphics/SVG/1.1/DTD/svg11.dtd">
<svg version="1.1" xmlns="http://www.w3.org/2000/svg" xmlns:xlink="http://www.w3.org/1999/xlink" width="78" height="64" viewBox="0 0 78 64">
<path d="M0 44.046c0.093-0.018 0.167-0.040 0.239-0.044 0.151-0.006 0.304-0.002 0.454-0.002 25.106-0.004 50.212-0.009 75.32-0.007 0.335 0 0.687 0.014 1.007 0.103 0.904 0.255 1.425 1.083 1.336 2.049-0.082 0.883-0.807 1.604-1.713 1.69-0.206 0.022-0.415 0.011-0.624 0.011-6.963 0-13.924 0-20.887 0-0.227 0-0.451 0-0.617 0-0.593 1.406-1.097 2.791-1.746 4.106-2.471 4.996-6.133 8.912-10.928 11.753-0.306 0.181-0.704 0.285-1.059 0.285-8.759 0.016-17.521 0.016-26.28 0.002-0.323 0-0.688-0.072-0.959-0.236-7.364-4.43-11.868-10.87-13.517-19.306-0.025-0.129-0.016-0.26-0.025-0.403z"></path>
<path d="M14.284 20.937c0-0.534 0-1.065 0-1.599 1.357-2.352 3.441-2.461 5.088-0.265 0.261 0.349 0.507 0.708 0.767 1.057 0.583 0.785 1.166 1.564 1.75 2.346 0.059-0.015 0.118-0.032 0.175-0.048 0-0.278 0-0.556 0-0.834 0-5.282 0-10.564 0.001-15.846 0-0.266-0.001-0.534 0.029-0.796 0.162-1.378 1.090-2.203 2.363-2.116 1.172 0.080 1.965 1.020 1.965 2.341 0.004 3.272 0 6.543 0.005 9.814 0 0.289-0.038 0.617 0.081 0.855 0.124 0.239 0.43 0.54 0.642 0.531 0.222-0.010 0.479-0.327 0.623-0.569 0.098-0.162 0.031-0.425 0.031-0.642 0-4.264-0.005-8.528 0.002-12.792 0.006-1.49 0.866-2.383 2.243-2.376 1.3 0.007 2.117 0.932 2.117 2.399 0 4.241 0 8.48 0 12.721 0 0.218-0.070 0.486 0.032 0.642 0.168 0.258 0.443 0.606 0.681 0.612 0.211 0.005 0.487-0.375 0.631-0.64 0.102-0.19 0.037-0.474 0.038-0.715 0.001-3.755-0.004-7.511 0.001-11.266 0.002-1.229 0.649-2.092 1.698-2.295 1.51-0.291 2.657 0.704 2.661 2.334 0.006 4.241 0.001 8.481 0.001 12.721 0 0.218-0.070 0.48 0.026 0.644 0.151 0.258 0.408 0.622 0.631 0.629 0.227 0.007 0.512-0.331 0.681-0.579 0.103-0.153 0.043-0.424 0.043-0.64 0.002-2.908-0.002-5.814 0.004-8.723 0.001-1.026 0.633-1.828 1.593-2.067 0.993-0.249 1.979 0.17 2.471 1.042 0.087 0.157 0.197 0.302 0.296 0.454 0 7.074 0 14.151 0 21.228-0.049 0.126-0.121 0.249-0.142 0.38-0.718 4.303-3.23 7.061-7.3 8.014-0.431 0.1-0.856 0.22-1.282 0.332-1.551 0-3.102 0-4.653 0-0.12-0.049-0.235-0.125-0.36-0.142-3.51-0.522-6.412-2.060-8.402-5.081-2.423-3.682-4.822-7.378-7.232-11.065z"></path>
</svg>
