<?xml version="1.0" encoding="utf-8"?>
<!-- Generated by IcoMoon.io -->
<!DOCTYPE svg PUBLIC "-//W3C//DTD SVG 1.1//EN" "http://www.w3.org/Graphics/SVG/1.1/DTD/svg11.dtd">
<svg version="1.1" xmlns="http://www.w3.org/2000/svg" xmlns:xlink="http://www.w3.org/1999/xlink" width="93" height="64" viewBox="0 0 93 64">
<path fill="#000" d="M80.527 38.323c0.184 1.076 0.285 2.145 0.285 3.203 0 9.601-7.547 11.036-12.042 11.036-2.856 0-6.057-0.43-9.76-0.93-4.407-0.592-9.408-1.264-14.613-1.264-5.093 0-9.978 0.641-14.317 1.228-0.742 1.966-1.17 3.943-1.17 5.855 0 11.497 14.295 4.353 31.927 4.353 17.635 0 31.927 7.144 31.927-4.353-0.002-6.646-4.797-14.051-12.237-19.128z"></path>
<path fill="#000" d="M68.34 25.527c0 0.025 0.004 0.051 0.004 0.076 0 9.601-7.55 11.035-12.046 11.035-2.856 0-6.055-0.428-9.76-0.928-4.409-0.592-9.406-1.264-14.615-1.264-5.205 0-10.201 0.672-14.611 1.264-1.399 0.188-2.708 0.358-3.97 0.507-0.552 1.688-0.872 3.374-0.872 5.014 0 11.497 14.293 4.355 31.927 4.355 17.635 0 31.927 7.142 31.927-4.355 0-5.272-3.029-11.015-7.984-15.703z"></path>
<path fill="#000" d="M63.852 25.306c0 11.497-14.292 4.353-31.927 4.353-17.632 0-31.925 7.142-31.925-4.353s14.293-25.306 31.925-25.306c17.635 0 31.927 13.81 31.927 25.306z"></path>
</svg>
