<?xml version="1.0" encoding="utf-8"?>
<!-- Generated by IcoMoon.io -->
<!DOCTYPE svg PUBLIC "-//W3C//DTD SVG 1.1//EN" "http://www.w3.org/Graphics/SVG/1.1/DTD/svg11.dtd">
<svg version="1.1" xmlns="http://www.w3.org/2000/svg" xmlns:xlink="http://www.w3.org/1999/xlink" width="64" height="64" viewBox="0 0 64 64">
<path fill="#000" d="M44.084 46.29l2.206-2.206 17.71 17.71-2.206 2.206-17.71-17.71z"></path>
<path fill="#000" d="M0 27.119c0-14.977 12.139-27.119 27.113-27.119v0 3.116c-13.251 0.028-23.979 10.746-23.997 24.003v0c0.019 13.251 10.743 23.975 23.994 23.994v0c13.251-0.019 23.979-10.743 24.003-23.994v0c-0.025-13.257-10.743-23.975-24-24.003v0-3.116c14.974 0 27.113 12.142 27.119 27.119v0c-0.006 14.974-12.139 27.11-27.119 27.116v0c-14.974-0.006-27.113-12.142-27.113-27.116v0z"></path>
</svg>
