<?xml version="1.0" encoding="utf-8"?>
<!-- Generated by IcoMoon.io -->
<!DOCTYPE svg PUBLIC "-//W3C//DTD SVG 1.1//EN" "http://www.w3.org/Graphics/SVG/1.1/DTD/svg11.dtd">
<svg version="1.1" xmlns="http://www.w3.org/2000/svg" xmlns:xlink="http://www.w3.org/1999/xlink" width="53" height="64" viewBox="0 0 53 64">
<path fill="#000" d="M5.583 63.994h-0.142v-0.017c-0.293-0.025-1.385-0.131-2.601-0.755v0c-1.355-0.658-2.88-2.297-2.841-4.8v0-23c0.059-3.027 2.548-5.514 5.572-5.572v0h41.811c3.033 0.059 5.517 2.542 5.581 5.572v0 23c-0.064 3.025-2.548 5.511-5.581 5.572v0h-41.685c-0.017 0.003-0.036 0.003-0.056 0.003v0c-0.019 0-0.039 0-0.059-0.003v0zM5.441 62.581v-0.067l-1.048-0.636c-0.167 0.29-0.173 0.452-0.195 0.56v0l1.243 0.142zM47.383 61.207c1.338-0.006 2.785-1.452 2.79-2.785v0-23c-0.006-1.335-1.452-2.782-2.79-2.788v0h-41.811c-1.335 0.006-2.782 1.452-2.788 2.788v0l0.006 23c0.033 1.444 0.602 1.89 1.341 2.33v0c0.742 0.404 1.514 0.454 1.519 0.449v0c0.025 0 0.047 0.003 0.072 0.006v0h41.66z"></path>
<path fill="#000" d="M1.698 33.738l1.703-2.208 23.081 17.81 23.078-17.81 1.703 2.208-24.782 19.126-24.784-19.126z"></path>
<path fill="#000" d="M25.085 24.966l0.053-22.995 2.785 0.006-0.047 22.997-2.79-0.008z"></path>
<path fill="#000" d="M13.999 12.483l12.53-12.483 12.438 12.488-1.974 1.968-10.47-10.509-10.557 10.515-1.968-1.979z"></path>
</svg>
