<?xml version="1.0" encoding="utf-8"?>
<!-- Generated by IcoMoon.io -->
<!DOCTYPE svg PUBLIC "-//W3C//DTD SVG 1.1//EN" "http://www.w3.org/Graphics/SVG/1.1/DTD/svg11.dtd">
<svg version="1.1" xmlns="http://www.w3.org/2000/svg" xmlns:xlink="http://www.w3.org/1999/xlink" width="74" height="64" viewBox="0 0 74 64">
<path d="M23.43 64c-0.178 0-0.356-0.035-0.529-0.104-0.529-0.215-0.873-0.729-0.873-1.298v-10.836h-20.627c-0.774 0-1.4-0.629-1.4-1.402v-48.959c0-0.774 0.627-1.4 1.4-1.4h70.99c0.776 0 1.402 0.627 1.402 1.4v48.959c0 0.776-0.627 1.402-1.402 1.402h-36.448l-11.508 11.814c-0.27 0.278-0.635 0.425-1.005 0.425zM2.801 48.957h20.629c0.774 0 1.4 0.627 1.4 1.402v8.792l9.516-9.769c0.262-0.272 0.625-0.425 1.003-0.425h35.637v-46.156h-68.185v46.156z"></path>
<path d="M25.151 24.658c0 1.626-1.318 2.944-2.944 2.944s-2.944-1.318-2.944-2.944c0-1.626 1.318-2.944 2.944-2.944s2.944 1.318 2.944 2.944z"></path>
<path d="M54.523 24.658c0 1.626-1.318 2.944-2.944 2.944s-2.944-1.318-2.944-2.944c0-1.626 1.318-2.944 2.944-2.944s2.944 1.318 2.944 2.944z"></path>
<path d="M39.838 24.658c0 1.626-1.318 2.944-2.944 2.944s-2.944-1.318-2.944-2.944c0-1.626 1.318-2.944 2.944-2.944s2.944 1.318 2.944 2.944z"></path>
</svg>
