<?xml version="1.0" encoding="utf-8"?>
<!-- Generated by IcoMoon.io -->
<!DOCTYPE svg PUBLIC "-//W3C//DTD SVG 1.1//EN" "http://www.w3.org/Graphics/SVG/1.1/DTD/svg11.dtd">
<svg version="1.1" xmlns="http://www.w3.org/2000/svg" xmlns:xlink="http://www.w3.org/1999/xlink" width="64" height="64" viewBox="0 0 64 64">
<path d="M32.106 64c-1.921 0-3.845-0.169-5.714-0.505l0.379-2.105c4.105 0.738 8.446 0.605 12.5-0.389l0.509 2.077c-2.497 0.61-5.077 0.922-7.674 0.922zM18.009 60.744c-4.016-1.964-7.661-4.824-10.541-8.267l1.641-1.371c2.689 3.213 6.093 5.881 9.841 7.715l-0.941 1.923zM47.978 59.809l-1.057-1.859c3.628-2.069 6.859-4.944 9.341-8.316l1.722 1.267c-2.657 3.611-6.117 6.69-10.006 8.908zM2.788 44.998c-1.851-4.131-2.788-8.54-2.788-13.104l0.006-0.64 2.139 0.045-0.006 0.599c0 4.255 0.875 8.371 2.602 12.225l-1.953 0.875zM62.19 43.141l-2.007-0.749c1.256-3.352 1.891-6.885 1.891-10.498 0-0.627-0.021-1.252-0.058-1.87l2.135-0.133c0.043 0.663 0.062 1.331 0.062 2.003 0 3.868-0.68 7.655-2.024 11.247zM3.432 23.165l-2.047-0.623c1.318-4.337 3.504-8.279 6.497-11.72l1.613 1.403c-2.794 3.211-4.833 6.891-6.063 10.939zM60.389 21.954c-1.403-3.994-3.601-7.582-6.527-10.669l1.555-1.472c3.134 3.305 5.485 7.152 6.992 11.431l-2.020 0.71zM15.699 6.812l-1.172-1.789c3.806-2.497 8.012-4.123 12.496-4.837l0.336 2.112c-4.185 0.667-8.106 2.186-11.66 4.514zM47.435 6.136c-3.643-2.174-7.627-3.521-11.842-4.011l0.246-2.124c4.516 0.524 8.784 1.97 12.691 4.3l-1.095 1.836z"></path>
</svg>
