<?xml version="1.0" encoding="utf-8"?>
<!-- Generated by IcoMoon.io -->
<!DOCTYPE svg PUBLIC "-//W3C//DTD SVG 1.1//EN" "http://www.w3.org/Graphics/SVG/1.1/DTD/svg11.dtd">
<svg version="1.1" xmlns="http://www.w3.org/2000/svg" xmlns:xlink="http://www.w3.org/1999/xlink" width="64" height="64" viewBox="0 0 64 64">
<path d="M19.394 18.579h25.208v26.843h-25.208v-26.843z"></path>
<path d="M44.602 14.204c0-2.039-1.667-3.708-3.706-3.708h-17.793c-2.043 0-3.71 1.669-3.71 3.708v3.041h25.208v-3.041zM37.188 15.614h-10.381c-0.369 0-0.666-0.299-0.666-0.666s0.299-0.666 0.666-0.666h10.381c0.369 0 0.666 0.299 0.666 0.666s-0.297 0.666-0.666 0.666z"></path>
<path d="M32.816 49.796c0 0.451-0.366 0.817-0.817 0.817s-0.817-0.366-0.817-0.817c0-0.451 0.366-0.817 0.817-0.817s0.817 0.366 0.817 0.817z"></path>
<path d="M19.394 49.794c0 2.039 1.667 3.708 3.71 3.708h17.793c2.039 0 3.706-1.669 3.706-3.708v-3.037h-25.208v3.037zM31.999 47.646c1.184 0 2.15 0.964 2.15 2.148s-0.966 2.152-2.15 2.152-2.15-0.968-2.15-2.152 0.966-2.148 2.15-2.148z"></path>
<path d="M0 0v64h64v-64h-64zM47.272 49.794c0 3.516-2.862 6.378-6.376 6.378h-17.793c-3.518 0-6.38-2.862-6.38-6.378v-35.589c0-3.516 2.862-6.378 6.38-6.378h17.793c3.514 0 6.376 2.862 6.376 6.378v35.589z"></path>
</svg>
