<?xml version="1.0" encoding="utf-8"?>
<!-- Generated by IcoMoon.io -->
<!DOCTYPE svg PUBLIC "-//W3C//DTD SVG 1.1//EN" "http://www.w3.org/Graphics/SVG/1.1/DTD/svg11.dtd">
<svg version="1.1" xmlns="http://www.w3.org/2000/svg" xmlns:xlink="http://www.w3.org/1999/xlink" width="64" height="64" viewBox="0 0 64 64">
<path d="M33.063 34.53c-0.114 0.089-0.248 0.132-0.384 0.132-0.128 0-0.256-0.039-0.365-0.12l-18.227-13.372 0.303-0.415c-0.534 0.59-0.844 1.395-0.844 2.358v17.763c0 1.904 1.368 3.417 3.301 3.417h30.18c1.902 0 3.417-1.512 3.417-3.417v-17.763c0-0.757-0.19-1.42-0.528-1.956l-16.853 13.372z"></path>
<path d="M49.753 20.943l0.157 0.198c-0.045-0.072-0.105-0.13-0.157-0.198z"></path>
<path d="M32.666 33.275l16.389-13.001c-0.551-0.367-1.236-0.576-2.026-0.576h-30.063c-0.79 0-1.475 0.206-2.022 0.574l17.722 13.003z"></path>
<path d="M0 0v64h63.998v-64h-63.998zM52.908 40.878c0 3.239-2.637 5.878-5.878 5.878h-30.18c-3.229 0-5.761-2.581-5.761-5.878v-17.763c0-3.404 2.472-5.876 5.878-5.876h30.063c3.404 0 5.878 2.47 5.878 5.876v17.763z"></path>
</svg>
