<?xml version="1.0" encoding="utf-8"?>
<!-- Generated by IcoMoon.io -->
<!DOCTYPE svg PUBLIC "-//W3C//DTD SVG 1.1//EN" "http://www.w3.org/Graphics/SVG/1.1/DTD/svg11.dtd">
<svg version="1.1" xmlns="http://www.w3.org/2000/svg" xmlns:xlink="http://www.w3.org/1999/xlink" width="62" height="64" viewBox="0 0 62 64">
<path d="M48.787 35.488c3.188 2.24 9.918 1.258 12.672-0.634-0.123-8.747-4.614-13.126-10.771-15.84-0.2-2.545-1.145-4.346-3.168-5.069-3.020 2.311-1.545 10.11-0.634 11.405-0.739-0.95-1.83-1.549-1.901-3.168-2.758-0.23-4.666 2.888-7.603 3.802-2.467 0.767-5.188 0.152-7.603 0.634-10.461 2.086-15.222 9.164-17.107 20.909-0.359-13.242 5.484-20.282 15.84-22.809 2.999-6.862 3.138-13.817-0.634-19.008-7.388-10.169-27.904-5.953-27.878 6.336 1.527-5.099 12.823-7.419 15.84-1.901-1.671-1.948-8.638-3.082-10.771-0.634 7.787-0.993 11.787 6.786 9.504 11.405-3.291 6.66-8.821 7.383-10.771 12.672-2.992 8.114 0.379 19.249 4.435 23.443 8.84 9.141 21.461 5.932 38.649 6.97-0.647-3.788-7.359-1.511-10.138-3.168 0.115-2.842 2.225-3.689 3.168-5.702 1.73-9.811-3.748-16.042-12.038-17.741 7.285 0.318 11.546 3.66 13.305 9.504 8.925 2.902 13.252-5.325 20.909-3.802 2.075-9.921-13.365-1.808-13.306-7.603zM53.855 25.351c-1.314 1.305 0.003 3.214 1.901 3.168 0.743-0.102 0.535-1.155 0.634-1.901 0.86 0.196 0.526 1.587 0.634 2.534h-3.168c-0.2-0.868-2.866-3.821 0-3.802z"></path>
</svg>
