<?xml version="1.0" encoding="utf-8"?>
<!-- Generated by IcoMoon.io -->
<!DOCTYPE svg PUBLIC "-//W3C//DTD SVG 1.1//EN" "http://www.w3.org/Graphics/SVG/1.1/DTD/svg11.dtd">
<svg version="1.1" xmlns="http://www.w3.org/2000/svg" xmlns:xlink="http://www.w3.org/1999/xlink" width="55" height="64" viewBox="0 0 55 64">
<path d="M18.311 16.14v0c0.001 0 0.001 0 0 0v0 0 0 0 0 0 0c0 0.001 0 0.001 0 0 0 0.001 0.001 0.001 0 0zM18.31 16.141v0 0 0zM18.311 16.141v0 0 0c0-0.001 0-0.001 0-0.001v0 0.001zM18.311 16.141v0 0 0 0zM18.311 16.14v0 0 0 0z"></path>
<path d="M27.629 0l9.318 16.14 18.311 0.005-9.153 15.853 9.153 15.857-18.309 0.003-9.32 16.143-9.32-16.143-18.308-0.003 9.155-15.857-9.155-15.853 18.311-0.005 9.318-16.141zM15.686 31.998l5.905 10.239h12.055l5.925-10.239-5.923-10.265h-12.038l-5.924 10.265zM40.177 42.253h5.319l-2.657-4.602-2.662 4.602zM9.757 42.235h5.318l-2.659-4.603-2.659 4.603zM24.986 16h5.319l-2.66-4.604-2.659 4.604zM42.838 26.339l2.658-4.604h-5.318l2.66 4.604zM12.416 26.357l2.659-4.603h-5.318l2.659 4.603zM27.645 52.592l2.659-4.603h-5.318l2.659 4.603z"></path>
</svg>
