<?xml version="1.0" encoding="utf-8"?>
<!-- Generated by IcoMoon.io -->
<!DOCTYPE svg PUBLIC "-//W3C//DTD SVG 1.1//EN" "http://www.w3.org/Graphics/SVG/1.1/DTD/svg11.dtd">
<svg version="1.1" xmlns="http://www.w3.org/2000/svg" xmlns:xlink="http://www.w3.org/1999/xlink" width="64" height="64" viewBox="0 0 64 64">
<path d="M50.533 50.912l4.559 10.048c-1.604 0.873-3.456 1.583-5.551 2.132s-4.131 0.823-6.1 0.823c-2.533 0-5.91-0.599-10.132-1.794-4.222-1.196-7.347-1.796-9.372-1.796-3.435 0-6.939 1.224-10.512 3.674l-4.516-10.217c3.18-2.279 5.467-4.707 6.86-7.282s2.091-5.030 2.091-7.367c0-0.759-0.057-1.562-0.169-2.406h-8.78v-9.329h6.628c-1.155-3.32-1.731-6.684-1.731-10.091 0-3.066 0.838-5.995 2.512-8.78s4.047-4.904 7.113-6.354c3.065-1.449 6.415-2.173 10.045-2.173 5.545 0 9.964 1.4 13.256 4.201s5.304 6.818 6.037 12.053l-11.441 1.688c-0.534-3.012-1.505-5.178-2.913-6.501-1.408-1.322-3.166-1.983-5.277-1.983-2.252 0-4.123 0.754-5.614 2.258-1.493 1.507-2.238 3.398-2.238 5.679 0 1.181 0.205 2.744 0.612 4.685s0.908 3.716 1.5 5.319h13.172v9.329h-11.229c0.084 0.62 0.127 1.24 0.127 1.858 0 2.224-0.422 4.279-1.267 6.164-0.844 1.887-2.575 4.364-5.193 7.43 1.547-0.787 3.489-1.182 5.826-1.182 0.986 0 1.873 0.057 2.66 0.169 0.395 0.057 1.547 0.324 3.462 0.802 3.404 0.872 5.726 1.308 6.966 1.308 2.195 0 5.065-0.787 8.612-2.364z"></path>
</svg>
