<?xml version="1.0" encoding="utf-8"?>
<!-- Generated by IcoMoon.io -->
<!DOCTYPE svg PUBLIC "-//W3C//DTD SVG 1.1//EN" "http://www.w3.org/Graphics/SVG/1.1/DTD/svg11.dtd">
<svg version="1.1" xmlns="http://www.w3.org/2000/svg" xmlns:xlink="http://www.w3.org/1999/xlink" width="76" height="64" viewBox="0 0 76 64">
<path d="M30.767 6.386c4.96-7.886 21.782-8.397 28.264-1.631 0.716 0.744 1.445 1.737 1.813 2.536 1.928 4.183 0.058 10.517 0.726 16.489 6.898 1.247 13.917 3.368 14.674 10.327 0.304 2.772 0 6.501 0 9.964 0 5.524 0.677 10.337-1.267 13.41-5.072 8.009-23.516 8.905-29.35 0.179-3.013 3.752-8.691 6.34-14.86 6.34-6.114 0-13.121-2.874-15.22-7.428-1.922-4.17-0.061-10.52-0.723-16.489-6.627-1.027-13.93-3.489-14.677-10.324-0.331-3.046 0-6.685 0-9.968 0-4.96-0.574-10.495 1.27-13.407 5.412-8.545 24.168-8.482 29.35 0.002zM7.214 4.755c-1.801 1.008-4.349 3.151-4.349 5.796 0 4.748 6.583 7.567 11.236 7.973 1.321 0.117 2.825 0.151 4.346 0 4.554-0.443 11.074-3.277 11.053-7.973-0.012-2.887-2.689-4.927-4.711-5.978-2.739-1.424-6.534-1.874-9.058-1.813-3.642 0.090-6.002 0.586-8.517 1.995zM34.937 5.84c-0.88 0.723-2.764 2.797-2.718 4.893 0.119 5.505 8.827 8.45 15.582 7.791 4.438-0.431 11.135-3.22 11.053-7.973-0.031-1.859-1.416-3.642-2.718-4.711-2.56-2.096-7.417-3.171-11.050-3.080-4.094 0.099-7.705 1.076-10.148 3.080zM32.219 23.958c6.196 0.388 10.474 2.692 13.41 6.343 2.597-3.925 7.202-5.839 13.225-6.343 0-2.415 0-4.829 0-7.244-2.426 1.942-6.412 4.183-11.233 4.528-6.346 0.458-12.324-1.43-15.402-4.712 0 2.477 0 4.955 0 7.428zM2.865 17.257c0.359 5.819-0.969 12.377 1.267 15.401 2.050 2.766 6.326 4.11 10.692 4.53-0.362-9.661 6.424-12.177 14.675-13.228 0-2.354 0-4.711 0-7.066-0.915 0.157-1.378 0.934-2.175 1.451-2.391 1.559-5.756 2.677-9.058 2.899-7.001 0.468-12.029-1.662-15.402-4.528 0.002 0.176 0.002 0.362 0.002 0.541zM21.348 29.033c-1.798 1.095-3.851 2.991-3.803 5.616 0.046 2.724 2.499 4.748 4.349 5.797 4.273 2.432 12.964 2.815 17.936 0 2.059-1.162 4.316-3.387 4.349-5.797 0.037-2.582-2.278-4.912-4.711-6.157-2.976-1.531-7.196-2.026-10.871-1.633-2.796 0.301-5.098 0.863-7.248 2.175zM46.893 34.83c0.087 2.483 2.318 4.554 4.714 5.8 5.416 2.819 12.147 2.366 17.028-0.184 2.068-1.079 4.881-2.824 4.896-5.797 0.009-2.275-2.047-4.459-3.986-5.616-3.202-1.908-7.554-2.661-11.777-2.175-5.329 0.614-11.028 3.378-10.875 7.972zM30.767 45.341c-5.292-0.015-10.093-1.983-13.045-4.531-0.009-0.191-0.231-0.142-0.179 0.182 0.362 4.539-0.498 9.611 0 12.863 0.264 1.728 1.694 3.408 2.898 4.349 5.252 4.103 16.166 3.646 20.839 0 0.935-0.729 2.418-2.435 2.715-3.442 1.178-3.949-0.498-8.931 0.179-13.951-2.916 2.271-7.782 4.545-13.407 4.53zM71.715 41.899c-6.439 4.632-19.388 4.456-24.64-1.088-0.012-0.191-0.231-0.142-0.182 0.182 0 2.094 0 4.355 0 6.701 0 4.355-0.27 7.302 1.451 9.243 5.486 6.187 22.164 5.628 24.825-2.177 1.27-3.74-0.197-8.891 0.362-13.951-0.72 0.021-1.23 0.669-1.816 1.090z"></path>
<path d="M15.008 6.747c2.692-0.249 9.212 0.55 9.238 3.803 0.024 2.882-4.951 4.11-7.791 4.168-2.767 0.056-8.247-1.252-8.335-3.986-0.076-2.4 4.007-3.72 6.888-3.986z"></path>
<path d="M44.357 6.747c2.701-0.252 9.152 0.654 9.24 3.803 0.079 2.791-5.339 4.183-8.153 4.168-2.542-0.015-7.855-1.236-7.973-3.986-0.108-2.6 4.251-3.74 6.885-3.986z"></path>
<path d="M5.766 24.867c-1.124-2.816 2.597-2.88 2.536-0.909-0.031 1.038-1.3 1.777-2.536 0.909z"></path>
<path d="M10.477 25.412c0.95-0.374 1.656-0.009 1.813 0.903 0.581 3.473-5.266 0.446-1.813-0.903z"></path>
<path d="M5.584 29.939c-0.525-2.634 2.481-2.461 2.719-0.906 0.215 1.408-1.691 2.263-2.719 0.906z"></path>
<path d="M30.767 30.664c2.062-0.031 7.997 0.747 8.155 3.805 0.133 2.558-4.264 3.967-6.887 4.168-3.254 0.252-9.154-0.972-9.241-3.986-0.068-2.471 4.333-3.925 7.972-3.987z"></path>
<path d="M60.121 30.664c0.961-0.015 3.554 0.125 5.255 0.906 0.987 0.458 2.864 1.752 2.898 2.899 0.101 3.142-5.895 4.347-9.058 4.168-2.357-0.132-6.913-1.352-7.067-3.805-0.185-2.973 4.884-4.113 7.973-4.168z"></path>
<path d="M22.253 46.608c1.221 0.956 0.602 2.758-0.723 2.718-1.662-0.052-2.090-3.225 0.723-2.718z"></path>
<path d="M51.968 46.97c0.529 1.261-0.049 2.232-0.906 2.357-2.36 0.339-1.894-4.104 0.906-2.357z"></path>
<path d="M24.79 51.86c-2.163-2.502 2.229-3.649 2.174-1.266-0.024 0.944-0.677 1.439-2.175 1.266z"></path>
<path d="M56.135 49.87c0 0.482 0 0.966 0 1.451-0.379 0.465-1.027 0.663-1.992 0.541-1.902-1.337 0.701-3.845 1.992-1.992z"></path>
<path d="M20.621 54.399c-1.459-1.92 1.224-3.452 2.175-1.994 0.7 1.078-0.421 2.813-2.175 1.994z"></path>
<path d="M52.148 52.588c0.076 0.799-0.049 1.402-0.362 1.813-3.581 1.484-2.33-4.579 0.362-1.813z"></path>
</svg>
