<?xml version="1.0" encoding="utf-8"?>
<!-- Generated by IcoMoon.io -->
<!DOCTYPE svg PUBLIC "-//W3C//DTD SVG 1.1//EN" "http://www.w3.org/Graphics/SVG/1.1/DTD/svg11.dtd">
<svg version="1.1" xmlns="http://www.w3.org/2000/svg" xmlns:xlink="http://www.w3.org/1999/xlink" width="50" height="64" viewBox="0 0 50 64">
<path d="M36.645 0c3.206-0.002 6.414 0.028 9.615 0.234 1.078 0.070 2.151 0.203 3.229 0.281 0.476 0.034 0.456 0.223 0.246 0.547-0.741 1.136-1.468 2.281-2.208 3.414-8.013 12.269-16.119 24.475-24.294 36.636-4.757 7.077-9.507 14.161-14.487 21.084-0.371 0.516-0.754 1.021-1.139 1.527-0.091 0.117-0.17 0.308-0.341 0.271-0.173-0.036-0.162-0.244-0.186-0.387-0.317-1.858-0.652-3.714-0.94-5.576-0.688-4.454-1.374-8.909-2.020-13.369-0.559-3.848-1.076-7.704-1.59-11.56-0.449-3.362-0.892-6.726-1.291-10.094-0.325-2.722-0.58-5.454-0.873-8.179-0.185-1.723-0.274-3.451-0.358-5.179-0.057-1.158 0.271-2.151 1.091-2.992 1.454-1.493 3.28-2.347 5.19-3.050 3.072-1.13 6.265-1.766 9.492-2.257 4.002-0.609 8.028-0.955 12.070-1.155 2.349-0.116 4.695-0.201 7.047-0.196 0.583 0.001 1.167 0 1.748 0zM19.305 14.85c2.408 0.021 4.794-0.198 7.157-0.639 4.541-0.849 8.792-2.411 12.545-5.168 1.673-1.226 3.126-2.671 4.35-4.35 0.234-0.321 0.173-0.439-0.198-0.468-0.103-0.007-0.205-0.024-0.306-0.033-1.609-0.114-3.215-0.211-4.821-0.343-3.452-0.285-6.913-0.405-10.374-0.468-3.566-0.065-7.131 0.072-10.678 0.485-3.045 0.355-6.024 0.973-8.853 2.188-1.373 0.591-2.718 1.247-3.778 2.347-1.125 1.167-1.032 2.302 0.254 3.272 0.79 0.596 1.681 0.994 2.612 1.304 3.924 1.313 7.967 1.857 12.091 1.871z"></path>
<path d="M18.568 11.468c-1.863-0.033-3.808-0.117-5.71-0.605-0.476-0.123-0.938-0.288-1.36-0.545-0.825-0.502-0.902-1.234-0.194-1.89 0.561-0.519 1.262-0.786 1.971-1.024 1.398-0.471 2.845-0.727 4.302-0.911 2.124-0.267 4.257-0.397 6.397-0.335 1.546 0.045 3.090 0.145 4.601 0.524 0.456 0.114 0.898 0.265 1.303 0.507 0.631 0.377 0.756 0.908 0.36 1.529-0.278 0.437-0.693 0.719-1.14 0.958-1.251 0.673-2.62 0.988-4.001 1.239-2.127 0.386-4.281 0.532-6.53 0.553z"></path>
</svg>
