<?xml version="1.0" encoding="utf-8"?>
<!-- Generated by IcoMoon.io -->
<!DOCTYPE svg PUBLIC "-//W3C//DTD SVG 1.1//EN" "http://www.w3.org/Graphics/SVG/1.1/DTD/svg11.dtd">
<svg version="1.1" xmlns="http://www.w3.org/2000/svg" xmlns:xlink="http://www.w3.org/1999/xlink" width="67" height="64" viewBox="0 0 67 64">
<path d="M3.333 24.729c2.055-0.423 5.301 0.125 7.793 0.248 2.307 0.112 5.719-0.049 6.705 1.116 0.814 0.961 0.453 4.46 0.314 7.297-0.273 5.64-0.483 9.973-0.761 15.726-0.12 2.39-0.061 6.177-1.011 7.104-1.38 1.341-5.568 0.519-7.963 0.406-2.398-0.116-6.791 0.117-7.892-1.175-0.833-0.986-0.436-4.637-0.329-6.902 0.301-6.166 0.619-12.704 0.918-18.894 0.128-2.7-0.064-4.457 2.226-4.926zM8.268 51.321c1.057-0.051 2.589-0.844 2.517-2.79-0.059-1.632-1.337-2.62-3.053-2.4-3.375 0.436-2.668 5.324 0.537 5.191z"></path>
<path d="M48.439 21.35c4.56 1.068 9.921-0.31 13.722 1.060 4.118 1.491 6.354 6.357 4.64 10.958-0.428 1.111-1.207 1.982-2.006 3.081 1.106 2.952 0.091 6.961-1.619 8.795 0.919 3.434-0.794 6.931-2.667 8.609 0.158 6.247-3.513 9.985-9.491 10.135-5.557 0.134-11.64-0.807-16.704-2.532-3.281-1.114-6.666-2.766-10.406-3.812-1.855-0.52-3.309-0.535-3.884-1.777-0.611-1.314-0.021-5.129 0.083-7.283 0.272-5.563 0.44-9.028 0.732-15.062 0.154-3.237-0.274-6.988 1.973-7.85 0.371-0.144 0.947-0.039 1.605-0.319 1.139-0.487 2.379-1.784 3.444-2.879 2.169-2.203 3.675-4.328 5.889-6.734 1.093-1.194 2.454-2.204 3.066-3.161 2.196-3.402 1.848-10.982 5.901-12.423 1.789-0.643 5.976 0.863 7.18 1.932 3.039 2.672 3.203 10.124 1.158 14.491-0.86 1.844-2.161 3.086-2.614 4.772z"></path>
</svg>
