<?xml version="1.0" encoding="utf-8"?>
<!-- Generated by IcoMoon.io -->
<!DOCTYPE svg PUBLIC "-//W3C//DTD SVG 1.1//EN" "http://www.w3.org/Graphics/SVG/1.1/DTD/svg11.dtd">
<svg version="1.1" xmlns="http://www.w3.org/2000/svg" xmlns:xlink="http://www.w3.org/1999/xlink" width="64" height="64" viewBox="0 0 64 64">
<path d="M10.184 64c-0.492 0-0.977-0.201-1.325-0.549v0c-0.347-0.35-0.549-0.832-0.549-1.327v0-51.941c0-0.495 0.199-0.977 0.549-1.327v0c0.347-0.349 0.83-0.549 1.325-0.549v0h43.634c0.492 0 0.976 0.201 1.326 0.549v0c0.347 0.35 0.547 0.832 0.547 1.327v0 51.94c0 0.495-0.2 0.977-0.547 1.327v0c-0.349 0.347-0.834 0.549-1.326 0.549v0l-43.634 0.001zM53.818 62.124v0zM12.060 60.249h39.88l-0.001-48.193h-39.879v48.193z"></path>
<path d="M20.573 12.057c-0.495 0-0.977-0.2-1.325-0.547v0c-0.35-0.35-0.551-0.834-0.551-1.327v0-8.307c0-0.496 0.201-0.977 0.551-1.327v0c0.347-0.349 0.83-0.547 1.325-0.547v0h22.856c0.492 0 0.975 0.201 1.326 0.547v0c0.349 0.35 0.547 0.834 0.547 1.327v0 8.306c0 0.495-0.197 0.977-0.547 1.327v0c-0.35 0.347-0.834 0.547-1.326 0.547v0l-22.856 0.001zM43.429 10.182v0zM22.447 8.306h19.105v-4.558h-19.105v4.558z"></path>
<path d="M1.873 12.058c-1.036 0-1.873-0.84-1.873-1.876v0c0-1.034 0.837-1.873 1.873-1.873v0h60.252c1.036 0 1.876 0.84 1.876 1.873v0c0 1.036-0.84 1.876-1.876 1.876v0h-60.252z"></path>
<path d="M18.697 50.695v-29.085c0-1.035 0.84-1.875 1.875-1.875v0c1.035 0 1.876 0.839 1.876 1.875v0 29.085c0 1.035-0.841 1.876-1.876 1.876v0c-1.035 0-1.875-0.841-1.875-1.876v0z"></path>
<path d="M30.125 50.695v-29.085c0-1.035 0.84-1.875 1.875-1.875v0c1.035 0 1.873 0.839 1.873 1.875v0 29.085c0 1.035-0.839 1.876-1.873 1.876v0c-1.035 0-1.875-0.841-1.875-1.876v0z"></path>
<path d="M41.554 50.695v-29.085c0-1.035 0.839-1.875 1.873-1.875v0c1.035 0 1.875 0.839 1.875 1.875v0 29.085c0 1.035-0.84 1.876-1.875 1.876v0c-1.035 0-1.873-0.841-1.873-1.876v0z"></path>
</svg>
