<?xml version="1.0" encoding="utf-8"?>
<!-- Generated by IcoMoon.io -->
<!DOCTYPE svg PUBLIC "-//W3C//DTD SVG 1.1//EN" "http://www.w3.org/Graphics/SVG/1.1/DTD/svg11.dtd">
<svg version="1.1" xmlns="http://www.w3.org/2000/svg" xmlns:xlink="http://www.w3.org/1999/xlink" width="38" height="64" viewBox="0 0 38 64">
<path fill="#000" d="M36.653 30.495l-7.447-5.304-5.884-12.153c-0.414-0.846-1.271-1.439-3.13-1.541-1.072-0.055-1.942 0.481-2.421 0.874l-12.772 10.481-1.369 10.352c-0.145 1.091 0.62 2.087 1.708 2.233 0.087 0.009 0.177 0.017 0.263 0.017 0.985 0 1.838-0.723 1.971-1.725l1.162-8.799 6.266-5.142-3.234 14.521-3.26 13.773-7.979 11.367c-0.92 1.305-0.603 3.112 0.7 4.024 0.506 0.353 1.083 0.529 1.66 0.529 0.91 0 1.804-0.429 2.365-1.231l8.639-12.297 2.533-11.174 8.825 9.63 1.595 12.378c0.194 1.453 1.441 2.513 2.87 2.513 0.121 0 0.247-0.006 0.37-0.024 1.587-0.199 2.704-1.65 2.498-3.235l-1.828-14.184-10.285-11.223 2.875-12.946 2.728 5.631 8.277 5.897c0.347 0.249 0.75 0.371 1.152 0.371 0.62 0 1.23-0.292 1.616-0.839 0.64-0.891 0.428-2.137-0.461-2.771z"></path>
<path fill="#000" d="M21.571 10.363c2.861 0.008 5.188-2.307 5.191-5.166 0.009-2.864-2.299-5.192-5.166-5.197-2.861-0.009-5.186 2.308-5.195 5.176-0.009 2.858 2.313 5.177 5.171 5.188z"></path>
</svg>
