<?xml version="1.0" encoding="utf-8"?>
<!-- Generator: Adobe Illustrator 15.1.0, SVG Export Plug-In . SVG Version: 6.00 Build 0)  -->
<!DOCTYPE svg PUBLIC "-//W3C//DTD SVG 1.1//EN" "http://www.w3.org/Graphics/SVG/1.1/DTD/svg11.dtd">
<svg version="1.1" id="Layer_1" xmlns="http://www.w3.org/2000/svg" xmlns:xlink="http://www.w3.org/1999/xlink" x="0px" y="0px"
	 width="72px" height="72px" viewBox="0 0 72 72" enable-background="new 0 0 72 72" xml:space="preserve">
<g>
	<path d="M10.433,0v4.627H7.981c-2.414,0-3.855,1.524-3.855,4.074c0,2.549,1.441,4.072,3.855,4.072h2.452v2.762H7.981
		c-2.414,0-3.855,1.521-3.855,4.072c0,2.552,1.441,4.074,3.855,4.074h2.452v2.761H7.981c-2.414,0-3.855,1.522-3.855,4.072
		s1.441,4.074,3.855,4.074h2.452v0.979v0.865v0.979H7.981c-2.414,0-3.855,1.523-3.855,4.074c0,2.55,1.441,4.073,3.855,4.073h2.452
		v2.761H7.981c-2.414,0-3.855,1.521-3.855,4.072c0,2.553,1.441,4.074,3.855,4.074h2.452v2.761H7.981
		c-2.414,0-3.855,1.523-3.855,4.072c0,2.551,1.441,4.073,3.855,4.073h2.452V72h57.441V36.433v-0.865V0H10.433z M14.537,65.192H7.981
		c-1.191,0-1.673-0.547-1.673-1.893c0-1.347,0.482-1.892,1.673-1.892h6.556c1.191,0,1.674,0.545,1.674,1.892
		C16.211,64.646,15.728,65.192,14.537,65.192z M14.537,54.286H7.981c-1.191,0-1.673-0.547-1.673-1.894S6.79,50.5,7.981,50.5h6.556
		c1.191,0,1.674,0.546,1.674,1.893S15.728,54.286,14.537,54.286z M14.537,43.378H7.981c-1.191,0-1.673-0.546-1.673-1.892
		c0-1.348,0.482-1.893,1.673-1.893h6.556c1.191,0,1.674,0.545,1.674,1.893C16.211,42.832,15.728,43.378,14.537,43.378z
		 M14.537,32.407H7.981c-1.191,0-1.673-0.545-1.673-1.893c0-1.346,0.482-1.893,1.673-1.893h6.556c1.191,0,1.674,0.547,1.674,1.893
		C16.211,31.862,15.728,32.407,14.537,32.407z M14.537,21.501H7.981c-1.191,0-1.673-0.546-1.673-1.894
		c0-1.346,0.482-1.892,1.673-1.892h6.556c1.191,0,1.674,0.546,1.674,1.892C16.211,20.955,15.728,21.501,14.537,21.501z
		 M14.537,10.593H7.981c-1.191,0-1.673-0.545-1.673-1.892c0-1.345,0.482-1.894,1.673-1.894h6.556c1.191,0,1.674,0.549,1.674,1.894
		C16.211,10.048,15.728,10.593,14.537,10.593z M57.606,51.305l-34.468,0.004V47.76c0,0,0.022-2.09,4.302-3.997
		c2.068-0.924,5.133-3.289,9.672-4.123c-1.167-1.247-2.039-3.202-2.956-5.533c-0.529-1.347-0.441-2.495-0.441-4.131
		c0-1.202-0.227-3.131,0.069-4.19c1.007-3.598,3.558-4.594,6.547-4.594c2.986,0,5.536,0.991,6.545,4.583
		c0.299,1.062,0.072,2.996,0.072,4.201c0,1.633,0.09,2.777-0.438,4.121c-0.909,2.319-1.796,4.277-2.965,5.529
		c4.574,0.819,7.662,3.203,9.744,4.128c4.297,1.909,4.316,4.006,4.316,4.006V51.305z"/>
</g>
</svg>
