<?xml version="1.0" encoding="utf-8"?>
<!-- Generator: Adobe Illustrator 13.0.2, SVG Export Plug-In . SVG Version: 6.00 Build 14948)  -->
<!DOCTYPE svg PUBLIC "-//W3C//DTD SVG 1.1//EN" "http://www.w3.org/Graphics/SVG/1.1/DTD/svg11.dtd">
<svg version="1.1" id="Layer_1" xmlns="http://www.w3.org/2000/svg" xmlns:xlink="http://www.w3.org/1999/xlink" x="0px" y="0px"
	 width="149.251px" height="211.833px" viewBox="0 0 149.251 211.833" enable-background="new 0 0 149.251 211.833"
	 xml:space="preserve">
<path d="M47.151,42.702c0.477,0,0.927-0.139,1.359-0.338c4.393,11.288,14.271,19.17,25.814,19.17
	c11.961,0,21.893-8.495,26.093-20.465c0.554,0.343,1.158,0.539,1.794,0.539c2.595,0,4.676-5.195,4.676-9.133
	c0-3.758-1.882-4.797-4.294-5.098C102.531,4.02,89.477,0,74.325,0C58.911,0,46.31,6.93,46.092,28.626
	c-2.091,0.728-3.649,1.545-3.649,4.932C42.443,37.502,44.546,42.702,47.151,42.702z M105.915,134.065l-23.823,23.824l17.565,17.443
	l-17.926,17.934c-10.611,10.561,3.975,25.682,14.913,14.803l28.28-29.482c6.128-6.236,7.807-17.695,1.331-24.186
	C126.189,154.354,105.915,134.065,105.915,134.065z M49.242,175.333l17.443-17.443L42.86,134.065c0,0-20.221,20.289-20.221,20.336
	c-6.539,6.49-4.861,17.949,1.202,24.186l28.401,29.482c10.883,10.879,25.466-4.242,14.928-14.803L49.242,175.333z M145.748,110.112
	l-40.554-40.673c-3.332-3.262-7.141-5.254-12.756-5.299h-2.024c-4.628,2.687-9.866,4.23-15.434,4.23
	c-5.568,0-10.807-1.544-15.434-4.23h-3.092c-5.684,0.045-9.243,2.098-12.518,5.299L3.866,109.633
	c-10.992,11.004,3.842,25.037,14.804,14.078L42.86,99.28v22.99h31.77v-0.002h31.405V99.161l24.911,24.908
	C140.942,134.668,156.181,120.5,145.748,110.112z"/>
</svg>
