<?xml version="1.0" encoding="utf-8"?>
<!-- Generator: Adobe Illustrator 16.0.0, SVG Export Plug-In . SVG Version: 6.00 Build 0)  -->
<!DOCTYPE svg PUBLIC "-//W3C//DTD SVG 1.1//EN" "http://www.w3.org/Graphics/SVG/1.1/DTD/svg11.dtd">
<svg version="1.1" id="Layer_1" xmlns="http://www.w3.org/2000/svg" xmlns:xlink="http://www.w3.org/1999/xlink" x="0px" y="0px"
	 width="68.038px" height="82.503px" viewBox="0 0 68.038 82.503" enable-background="new 0 0 68.038 82.503" xml:space="preserve">
<g>
	<g>
		<polygon points="7.7,16.727 0,16.727 0,82.503 68.038,82.503 68.038,16.727 57.358,16.727 57.358,27.118 57.358,30.118 
			54.358,30.118 49.051,30.118 45.881,30.118 45.779,27.224 45.682,16.727 19.051,16.727 19.051,27.118 19.051,30.118 
			16.051,30.118 10.7,30.118 7.7,30.118 7.7,27.118 		"/>
		<rect x="10.7" y="16.727" width="5.351" height="10.392"/>
		<polygon points="54.358,27.118 54.358,16.727 48.684,16.727 49.051,27.118 		"/>
	</g>
	<polygon points="16.551,0 10.7,5.5 10.7,27.118 16.051,27.118 16.051,6.5 48.612,6.26 48.777,27.118 54.358,27.118 54.358,5 
		49.051,0 	"/>
</g>
</svg>
