<?xml version="1.0" encoding="utf-8"?>
<!-- Generator: Adobe Illustrator 16.0.0, SVG Export Plug-In . SVG Version: 6.00 Build 0)  -->
<!DOCTYPE svg PUBLIC "-//W3C//DTD SVG 1.1//EN" "http://www.w3.org/Graphics/SVG/1.1/DTD/svg11.dtd">
<svg version="1.1" id="Layer_1" xmlns="http://www.w3.org/2000/svg" xmlns:xlink="http://www.w3.org/1999/xlink" x="0px" y="0px"
	 width="36.437px" height="31.662px" viewBox="0 0 36.437 31.662" enable-background="new 0 0 36.437 31.662" xml:space="preserve">
<g>
	<g>
		<g>
			<path d="M30.758,31.662H5.681c-0.688,0-1.288-0.469-1.455-1.136L0.045,13.808c-0.201-0.804,0.288-1.618,1.091-1.819
				c0.805-0.202,1.618,0.288,1.819,1.091l3.896,15.582h22.735l3.895-15.582c0.2-0.804,1.014-1.292,1.818-1.091
				c0.804,0.201,1.293,1.015,1.092,1.819l-4.179,16.717C32.046,31.193,31.446,31.662,30.758,31.662z"/>
		</g>
	</g>
	<g>
		<path d="M21.896,14.523c0,0,1.599-14.523-12.709-14.523c8.585,4.578,5.901,14.523,5.901,14.523h-4.54l7.93,9.531l7.957-9.531
			H21.896z"/>
	</g>
</g>
</svg>
