<?xml version="1.0" encoding="utf-8"?>
<!-- Generator: Adobe Illustrator 16.0.0, SVG Export Plug-In . SVG Version: 6.00 Build 0)  -->
<!DOCTYPE svg PUBLIC "-//W3C//DTD SVG 1.1//EN" "http://www.w3.org/Graphics/SVG/1.1/DTD/svg11.dtd">
<svg version="1.1" id="Layer_1" xmlns="http://www.w3.org/2000/svg" xmlns:xlink="http://www.w3.org/1999/xlink" x="0px" y="0px"
	 width="36.438px" height="27.646px" viewBox="0 0 36.438 27.646" enable-background="new 0 0 36.438 27.646" xml:space="preserve">
<g>
	<g>
		<g>
			<path d="M30.758,27.646H5.681c-0.688,0-1.288-0.469-1.455-1.136L0.045,9.792c-0.201-0.804,0.288-1.618,1.091-1.819
				C1.941,7.77,2.754,8.261,2.955,9.065l3.896,15.582h22.735l3.896-15.582c0.2-0.804,1.009-1.293,1.819-1.091
				c0.804,0.201,1.292,1.015,1.091,1.819l-4.18,16.718C32.046,27.178,31.446,27.646,30.758,27.646z"/>
		</g>
	</g>
	<g>
		<path d="M19.197,17.237c-0.282,0-0.567-0.079-0.821-0.246l-7.98-5.237C9.703,11.299,9.51,10.37,9.965,9.677
			c0.455-0.692,1.385-0.885,2.077-0.431l6.752,4.431c1.679-2.385,5.722-7.846,11.114-13.238c0.586-0.586,1.535-0.586,2.121,0
			c0.586,0.585,0.586,1.536,0,2.121c-6.802,6.802-11.531,13.932-11.578,14.002C20.163,17,19.686,17.237,19.197,17.237z"/>
	</g>
</g>
</svg>
