<?xml version="1.0" encoding="utf-8"?>
<!-- Generator: Adobe Illustrator 15.1.0, SVG Export Plug-In . SVG Version: 6.00 Build 0)  -->
<!DOCTYPE svg PUBLIC "-//W3C//DTD SVG 1.1//EN" "http://www.w3.org/Graphics/SVG/1.1/DTD/svg11.dtd">
<svg version="1.1" id="Layer_1" xmlns="http://www.w3.org/2000/svg" xmlns:xlink="http://www.w3.org/1999/xlink" x="0px" y="0px"
	 width="72px" height="72px" viewBox="0 0 72 72" enable-background="new 0 0 72 72" xml:space="preserve">
<g>
	<path fill="none" d="M33.245,26.34l-1.727-4.508c-0.326-0.896-3.468-8.768-13.268-8.768c-8.512,0-12.021,5.936-13.016,8.09v28.812
		c3.342-2.23,7.638-3.898,13.016-3.898c6.517,0,11.435,2.451,14.994,5.387V26.34z"/>
	<path fill="none" d="M54.224,13.064c-9.605,0-13.19,8.58-13.338,8.945l-1.64,4.127v25.102c3.519-2.844,8.404-5.17,14.978-5.17
		c5.425,0,9.702,1.582,13.012,3.73V21.508C66.137,19.312,62.302,13.064,54.224,13.064z"/>
	<path d="M54.224,8.062c-13.315,0-17.988,12.109-17.988,12.109S32.099,8.062,18.251,8.062S0.235,20.172,0.235,20.172V63.23
		c0,0,5.232-12.162,18.016-12.162s17.984,12.178,17.984,12.178s4.673-12.178,17.988-12.178S72.235,63.23,72.235,63.23V20.439
		C72.235,20.439,67.539,8.062,54.224,8.062z M18.251,46.068c-5.378,0-9.674,1.668-13.016,3.898V21.154
		c0.994-2.154,4.504-8.09,13.016-8.09c9.8,0,12.941,7.871,13.268,8.768l1.727,4.508v25.115
		C29.686,48.52,24.768,46.068,18.251,46.068z M67.235,49.799c-3.31-2.148-7.587-3.73-13.012-3.73c-6.573,0-11.459,2.326-14.978,5.17
		V26.137l1.64-4.127c0.147-0.365,3.732-8.945,13.338-8.945c8.078,0,11.913,6.248,13.012,8.443V49.799z"/>
</g>
</svg>
