<?xml version="1.0" encoding="utf-8"?>
<!-- Generator: Adobe Illustrator 16.0.0, SVG Export Plug-In . SVG Version: 6.00 Build 0)  -->
<!DOCTYPE svg PUBLIC "-//W3C//DTD SVG 1.1//EN" "http://www.w3.org/Graphics/SVG/1.1/DTD/svg11.dtd">
<svg version="1.1" id="Layer_1" xmlns="http://www.w3.org/2000/svg" xmlns:xlink="http://www.w3.org/1999/xlink" x="0px" y="0px"
	 width="58.497px" height="42.236px" viewBox="0 0 58.497 42.236" enable-background="new 0 0 58.497 42.236" xml:space="preserve">
<g>
	<g id="dD4qi1.tif">
		<g>
			<path fill="#1D1D1B" d="M30.019,4.537c-5.202,0.018-9.591,3.157-10.366,6.939c-0.113,0.554-0.625,1.423-0.007,1.695
				c0.69,0.304,0.806-0.72,1.177-1.153c0.246-0.286,0.423-0.633,0.624-0.956c3.844-6.211,12.181-5.911,15.787-0.102
				c0.297,0.479,0.547,1.433,1.234,1.115c0.762-0.352,0.434-1.251,0.201-1.925c-0.123-0.354-0.324-0.688-0.537-1
				C36.001,6.028,32.952,4.66,30.019,4.537z M37.296,0c-2.326-0.003-5.529,1.033-6.941,2.247c-0.244,0.211-0.617,0.396-0.422,0.792
				c0.141,0.29,0.5,0.264,0.766,0.213c1.07-0.205,2.143-0.411,3.199-0.676c4.818-1.209,8.803,0.098,11.975,3.912
				c0.453,0.547,0.896,1.109,1.398,1.611c0.32,0.319,0.736,0.841,1.197,0.54c0.494-0.322,0.09-0.865-0.076-1.286
				C46.704,3.036,42.128,0.007,37.296,0z M29.263,7.699c-2.791,0.011-5.307,1.757-6.105,4.296c-0.16,0.509-0.582,1.215-0.029,1.579
				c0.608,0.401,0.966-0.366,1.358-0.725c0.312-0.285,0.548-0.654,0.826-0.979c2.251-2.636,5.594-2.683,7.924-0.101
				c0.445,0.493,0.822,1.047,1.27,1.538c0.277,0.306,0.611,0.731,1.074,0.498c0.498-0.251,0.24-0.771,0.168-1.16
				C35.229,9.818,32.421,7.688,29.263,7.699z M45.729,11.863c0.984,0.015,1.832,0.437,2.652,0.923
				c0.613,0.362,1.205,0.758,1.816,1.12c0.242,0.145,0.531,0.279,0.779,0.032c0.25-0.247,0.113-0.543-0.016-0.787
				c-1.025-1.941-2.646-3.192-4.809-3.339c-2.059-0.14-3.953,0.522-5.125,2.432c-0.25,0.407-0.736,0.937-0.229,1.397
				c0.426,0.39,0.879-0.096,1.281-0.298C43.257,12.751,44.315,11.878,45.729,11.863z M37.585,3.443
				c-0.375,0.063-0.887,0.147-1.398,0.24c-0.33,0.06-0.73,0.121-0.793,0.491c-0.08,0.474,0.367,0.621,0.703,0.766
				c2.615,1.119,5.232,2.229,7.855,3.331c0.332,0.14,0.744,0.404,1.018-0.018c0.209-0.326-0.121-0.617-0.309-0.878
				C42.954,5.004,40.663,3.662,37.585,3.443z M17.557,8.296c-2.633,0.022-4.771,1.495-5.491,3.784
				c-0.128,0.406-0.354,0.874,0.016,1.206c0.417,0.375,0.798-0.032,1.131-0.265c1.599-1.119,3.188-2.25,4.771-3.391
				c0.33-0.238,0.866-0.442,0.7-0.947C18.522,8.19,17.973,8.324,17.557,8.296z M29.363,13.579c0.855,0,1.71,0.009,2.566-0.005
				c0.281-0.004,0.596-0.023,0.709-0.354c0.115-0.327-0.115-0.518-0.33-0.714c-1.592-1.445-4.149-1.511-5.78-0.148
				c-0.26,0.218-0.552,0.436-0.424,0.818c0.128,0.386,0.502,0.396,0.835,0.4C27.747,13.588,28.555,13.581,29.363,13.579z"/>
			<path fill-rule="evenodd" clip-rule="evenodd" fill="#1D1D1B" d="M7.671,12.349c1.46-5.868,6.809-8.283,10.567-8.098
				c1.017,0.05,1.971,0.288,2.878,0.729c0.294,0.143,0.658,0.274,0.649,0.676c-0.008,0.39-0.349,0.552-0.656,0.674
				c-1.022,0.41-2.083,0.657-3.192,0.638c-3.598-0.063-6.056,1.591-7.432,4.902c-0.516,1.241-1.339,2.065-2.814,1.908
				C7.671,13.302,7.671,12.824,7.671,12.349z"/>
			<path fill-rule="evenodd" clip-rule="evenodd" fill="#1D1D1B" d="M30.019,4.537c2.934,0.123,5.982,1.491,8.113,4.614
				c0.213,0.312,0.414,0.646,0.537,1c0.232,0.674,0.561,1.573-0.201,1.925c-0.688,0.317-0.938-0.636-1.234-1.115
				c-3.605-5.81-11.943-6.109-15.787,0.102c-0.201,0.323-0.378,0.67-0.624,0.956c-0.371,0.434-0.486,1.457-1.177,1.153
				c-0.618-0.272-0.106-1.142,0.007-1.695C20.427,7.694,24.817,4.555,30.019,4.537z"/>
			<path fill-rule="evenodd" clip-rule="evenodd" fill="#1D1D1B" d="M37.296,0c4.832,0.007,9.408,3.036,11.096,7.354
				c0.166,0.421,0.57,0.964,0.076,1.286c-0.461,0.301-0.877-0.221-1.197-0.54c-0.502-0.502-0.945-1.064-1.398-1.611
				C42.7,2.674,38.716,1.367,33.897,2.576c-1.057,0.265-2.129,0.471-3.199,0.676c-0.266,0.051-0.625,0.077-0.766-0.213
				c-0.195-0.396,0.178-0.581,0.422-0.792C31.767,1.033,34.97-0.003,37.296,0z"/>
			<path fill-rule="evenodd" clip-rule="evenodd" fill="#1D1D1B" d="M29.263,7.699c3.158-0.011,5.966,2.119,6.486,4.947
				c0.072,0.389,0.33,0.909-0.168,1.16c-0.463,0.233-0.797-0.192-1.074-0.498c-0.447-0.491-0.824-1.045-1.27-1.538
				c-2.33-2.582-5.673-2.535-7.924,0.101c-0.278,0.324-0.514,0.693-0.826,0.979c-0.393,0.358-0.75,1.126-1.358,0.725
				c-0.553-0.364-0.131-1.07,0.029-1.579C23.957,9.456,26.472,7.71,29.263,7.699z"/>
			<path fill-rule="evenodd" clip-rule="evenodd" fill="#1D1D1B" d="M45.728,11.863c-1.412,0.015-2.471,0.888-3.646,1.48
				c-0.402,0.202-0.855,0.688-1.281,0.298c-0.508-0.461-0.021-0.99,0.229-1.397c1.172-1.909,3.066-2.571,5.125-2.432
				c2.162,0.146,3.783,1.397,4.809,3.339c0.129,0.244,0.266,0.54,0.016,0.787c-0.248,0.247-0.537,0.112-0.779-0.032
				c-0.611-0.362-1.203-0.758-1.816-1.12C47.562,12.3,46.714,11.878,45.728,11.863z"/>
			<path fill-rule="evenodd" clip-rule="evenodd" fill="#1D1D1B" d="M37.585,3.443c3.078,0.219,5.369,1.561,7.076,3.933
				c0.188,0.261,0.518,0.552,0.309,0.878c-0.273,0.422-0.686,0.157-1.018,0.018c-2.623-1.103-5.24-2.212-7.855-3.331
				c-0.336-0.145-0.783-0.292-0.703-0.766c0.062-0.37,0.463-0.432,0.793-0.491C36.698,3.591,37.21,3.507,37.585,3.443z"/>
			<path fill-rule="evenodd" clip-rule="evenodd" fill="#1D1D1B" d="M17.558,8.295c0.415,0.029,0.964-0.104,1.126,0.389
				c0.166,0.505-0.37,0.709-0.7,0.947c-1.583,1.141-3.173,2.271-4.771,3.391c-0.333,0.232-0.714,0.64-1.131,0.265
				c-0.369-0.332-0.144-0.8-0.016-1.206C12.787,9.791,14.924,8.318,17.558,8.295z"/>
			<path fill-rule="evenodd" clip-rule="evenodd" fill="#1D1D1B" d="M29.363,13.58c-0.808,0.001-1.616,0.008-2.424-0.003
				c-0.333-0.004-0.707-0.015-0.835-0.4c-0.128-0.383,0.164-0.601,0.424-0.818c1.631-1.362,4.188-1.297,5.78,0.148
				c0.215,0.196,0.445,0.387,0.33,0.714c-0.113,0.33-0.428,0.35-0.709,0.354C31.073,13.588,30.218,13.579,29.363,13.58z"/>
		</g>
	</g>
	<g>
		<path fill-rule="evenodd" clip-rule="evenodd" fill="#1D1D1B" d="M51.118,7.038l1.697,3.688c1.059,0.354,2.084,0.732,3.031,1.153
			c-1.195,2.872-5.396,3.306-8.836,3.976c-12.604,2.457-34.546,2.199-43.742-3.094c0.655-0.802,1.587-1.473,2.708-2.037l1.694-3.686
			c-4.384,1.257-6.439,2.767-7.054,3.958c-1.733,3.369,0.514,10.118,2.651,14.578c2.098,4.383,5.049,8.379,8.395,11.049
			c10.839,8.637,29.501,6.727,38-1.77c5.238-5.24,8.506-11.399,8.834-23.857C57.183,9.968,54.954,8.295,51.118,7.038z"/>
	</g>
</g>
</svg>
