<?xml version="1.0" encoding="utf-8"?>
<!-- Generator: Adobe Illustrator 16.0.0, SVG Export Plug-In . SVG Version: 6.00 Build 0)  -->
<!DOCTYPE svg PUBLIC "-//W3C//DTD SVG 1.1//EN" "http://www.w3.org/Graphics/SVG/1.1/DTD/svg11.dtd">
<svg version="1.1" id="Layer_1" xmlns="http://www.w3.org/2000/svg" xmlns:xlink="http://www.w3.org/1999/xlink" x="0px" y="0px"
	 width="58.498px" height="49.29px" viewBox="0 0 58.498 49.29" enable-background="new 0 0 58.498 49.29" xml:space="preserve">
<g>
	<path fill-rule="evenodd" clip-rule="evenodd" fill="#1D1D1B" d="M53.952,15.419l-1.136,2.361c1.059,0.354,2.083,0.732,3.031,1.153
		c-1.195,2.872-5.397,3.306-8.836,3.976c-12.604,2.457-34.547,2.199-43.742-3.094c0.655-0.802,1.587-1.473,2.708-2.037l-1.144-2.686
		c-2.073,0.793-3.602,1.767-4.216,2.958c-1.733,3.369,0.514,10.118,2.651,14.577c2.098,4.383,5.049,8.38,8.395,11.049
		c10.839,8.637,29.502,6.727,38-1.77c5.238-5.24,8.505-11.398,8.834-23.856C57.183,17.022,55.65,16.157,53.952,15.419z"/>
	<path fill-rule="evenodd" clip-rule="evenodd" fill="#1D1D1B" d="M32.158,14.271c-0.258-0.082-0.531-0.129-0.801-0.152
		c-1.568-0.137-3.166,1.031-2.583,2.951c0.371,1.223,1.319,1.969,2.411,2.541c0.135,0.071,0.286,0.069,0.438,0.023
		c0.321-0.096,0.518-0.311,0.573-0.629c0.062-0.363-0.114-0.635-0.415-0.822c-0.582-0.365-1.143-0.754-1.448-1.4
		c-0.287-0.604-0.011-1.053,0.658-1.1c0.541-0.038,1.015,0.159,1.477,0.404c0.783,0.416,1.283,0.156,1.397-0.724
		c0.072-0.548,0.213-1.071,0.532-1.53c0.412-0.595,1.047-0.695,1.636-0.27c0.658,0.477,0.887,1.258,0.603,2.158
		c-0.115,0.365-0.15,0.696,0.138,0.988c0.292,0.294,0.634,0.242,0.991,0.133c0.626-0.191,1.256-0.369,1.921-0.368
		c0.218,0.013,0.439,0.006,0.652,0.041c0.417,0.069,0.53,0.297,0.338,0.669c-0.152,0.293-0.367,0.539-0.616,0.756
		c-0.383,0.334-0.816,0.59-1.249,0.851c-0.387,0.233-0.498,0.661-0.306,1.026c0.183,0.348,0.615,0.532,0.975,0.356
		c1.058-0.517,1.989-1.196,2.573-2.253c0.688-1.245,0.182-2.455-1.176-2.87c-0.74-0.227-1.485-0.181-2.226-0.038
		c-0.293,0.057-0.349-0.041-0.363-0.303c-0.052-0.92-0.457-1.674-1.147-2.27c-1.143-0.986-2.663-0.938-3.688,0.1
		c-0.423,0.427-0.695,0.94-0.878,1.504C32.502,14.268,32.403,14.349,32.158,14.271z"/>
	<path fill-rule="evenodd" clip-rule="evenodd" fill="#1D1D1B" d="M45.304,13.472c0.555-0.317,1.05-0.742,1.612-1.041
		c0.904-0.477,1.264-1.191,1.117-2.149c0.012-0.568-0.025-1.097-0.167-1.614c-0.374-1.362-1.724-2.318-3.011-2.103
		c-0.886,0.15-1.595,0.639-2.131,1.341c-0.631,0.83-1.028,1.79-1.368,2.771c-0.089,0.259-0.107,0.534-0.067,0.808
		C41.576,13.428,43.605,14.44,45.304,13.472z"/>
	<path fill-rule="evenodd" clip-rule="evenodd" fill="#1D1D1B" d="M8.46,15.715c0.381-0.134,0.603-0.509,0.51-0.911
		c-0.062-0.265-0.162-0.52-0.242-0.781c-0.168-0.543-0.202-1.099-0.121-1.657c0.024-0.186,0.085-0.397,0.288-0.464
		c0.213-0.069,0.356,0.097,0.487,0.232c0.29,0.301,0.465,0.672,0.618,1.053c0.128,0.322,0.306,0.576,0.686,0.616
		c0.389,0.04,0.648-0.149,0.848-0.459c0.2-0.312,0.442-0.59,0.73-0.823c0.509-0.416,0.909-0.332,1.135,0.289
		c0.289,0.799,0.231,1.588-0.298,2.289c-0.816,1.081-0.768,1.268,0.498,1.827c0.562,0.249,1.124,0.511,1.479,1.05
		c0.261,0.395,0.179,0.688-0.244,0.898c-0.389,0.195-0.81,0.227-1.308,0.196c-0.079,0-0.229-0.004-0.379,0.002
		c-0.449,0.015-0.735,0.272-0.768,0.685c-0.035,0.444,0.208,0.754,0.659,0.838c0.843,0.154,1.66,0.063,2.438-0.292
		c1.328-0.609,1.713-2.056,0.873-3.249c-0.335-0.475-0.76-0.871-1.279-1.123c-0.393-0.189-0.4-0.382-0.245-0.75
		c0.44-1.043,0.432-2.105-0.05-3.135c-0.639-1.367-2.042-1.744-3.271-0.904c-0.549,0.377-0.549,0.377-1.026-0.107
		c-1.254-1.271-2.897-0.855-3.362,0.861c-0.325,1.207-0.035,2.354,0.438,3.462C7.7,15.7,8.123,15.833,8.46,15.715z"/>
	<path fill-rule="evenodd" clip-rule="evenodd" fill="#1D1D1B" d="M21.288,5.044c1.042,0.123,2.081,0.18,3.133,0.087
		c1.704-0.151,2.578-1.037,2.492-2.592c-0.067-1.225-0.947-2.278-2.045-2.436c-0.484-0.069-0.971-0.13-1.51-0.091
		c-0.199,0-0.444-0.014-0.688,0.002c-1.073,0.067-1.796,0.527-2.007,1.316c-0.257,0.955-0.317,1.931-0.192,2.912
		C20.536,4.76,20.777,4.983,21.288,5.044z"/>
	<path fill-rule="evenodd" clip-rule="evenodd" fill="#1D1D1B" d="M22.628,13.101c-0.905-0.012-1.584,0.04-1.954,0.614
		c-0.514,0.796-1.175,1.468-1.723,2.229c-0.662,0.921-0.407,1.778,0.65,2.184c1.006,0.388,2.04,0.675,3.117,0.806
		c1.532,0.184,2.736-0.449,3.426-1.828c0.313-0.627,0.487-1.301,0.66-1.973c0.1-0.387-0.059-0.723-0.416-0.891
		C25.113,13.642,23.795,13.176,22.628,13.101z"/>
	<path fill-rule="evenodd" clip-rule="evenodd" fill="#1D1D1B" d="M18.36,12.418c0.305,0.163,0.645,0.206,0.993,0.171
		c0.835-0.08,1.519-0.496,2.176-0.969c0.724-0.52,1.168-1.182,1.055-2.02c-0.006-1.446-0.714-2.57-1.933-3.17
		c-0.393-0.193-0.81-0.272-1.232-0.158c-1.529,0.414-2.566,1.449-3.321,2.777c-0.31,0.545-0.18,1.157,0.202,1.658
		C16.849,11.435,17.557,11.991,18.36,12.418z"/>
	<path fill-rule="evenodd" clip-rule="evenodd" fill="#1D1D1B" d="M25.622,8.327c-0.221,0.757-0.024,1.404,0.647,1.812
		c1.486,0.9,3.049,1.047,4.647,0.314c0.695-0.318,1.216-0.832,1.373-1.623c0.33-1.651-1.07-3.347-2.748-3.338
		C27.408,5.503,26.189,6.385,25.622,8.327z"/>
	<path fill-rule="evenodd" clip-rule="evenodd" fill="#1D1D1B" d="M46.622,17.669c-0.377,0.412-0.729,0.852-0.92,1.389
		c-0.175,0.491-0.016,0.787,0.489,0.922c0.155,0.042,0.322,0.045,0.483,0.064c0.377,0.006,0.732-0.084,1.076-0.227
		c1.134-0.47,2.116-1.184,3.019-1.999c0.563-0.51,0.935-1.167,1.106-1.921c0.1-0.438,0.166-0.891-0.22-1.216
		c-0.406-0.343-0.835-0.112-1.224,0.078C48.971,15.477,47.714,16.468,46.622,17.669z"/>
	<path fill-rule="evenodd" clip-rule="evenodd" fill="#1D1D1B" d="M35.375,7.902c0.845-0.687,1.535-1.505,2.05-2.466
		c0.3-0.557,0.51-1.145,0.539-1.652c0.009-0.653-0.247-0.985-0.688-1.031c-0.424-0.043-0.768,0.256-0.84,0.76
		c-0.096,0.68-0.378,1.274-0.772,1.824c-0.377,0.523-0.841,0.965-1.312,1.399c-0.408,0.378-0.454,0.794-0.144,1.15
		C34.509,8.229,34.954,8.245,35.375,7.902z"/>
	<path fill-rule="evenodd" clip-rule="evenodd" fill="#1D1D1B" d="M36.418,17.767c-0.302-0.079-0.614-0.11-0.797-0.143
		c-1.276-0.028-2.255,0.521-2.611,1.391c-0.176,0.43-0.059,0.817,0.311,1.026c0.369,0.21,0.801,0.13,1.027-0.267
		c0.271-0.477,0.672-0.604,1.167-0.57c0.201,0.014,0.403,0.055,0.605,0.072c0.45,0.041,0.785-0.197,0.873-0.617
		C37.08,18.251,36.856,17.882,36.418,17.767z"/>
	<path fill-rule="evenodd" clip-rule="evenodd" fill="#1D1D1B" d="M10.319,15.637C9.707,15.634,9.322,15.79,9,16.089
		c-0.3,0.279-0.344,0.682-0.129,1.002c0.207,0.309,0.596,0.464,0.932,0.277c0.426-0.236,0.692-0.06,0.96,0.232
		c0.102,0.111,0.193,0.23,0.304,0.33c0.288,0.262,0.677,0.28,0.975,0.059c0.298-0.223,0.432-0.628,0.234-0.947
		C11.789,16.254,11.118,15.714,10.319,15.637z"/>
</g>
</svg>
