<?xml version="1.0" encoding="utf-8"?>
<!-- Generator: Adobe Illustrator 16.0.0, SVG Export Plug-In . SVG Version: 6.00 Build 0)  -->
<!DOCTYPE svg PUBLIC "-//W3C//DTD SVG 1.1//EN" "http://www.w3.org/Graphics/SVG/1.1/DTD/svg11.dtd">
<svg version="1.1" id="Layer_1" xmlns="http://www.w3.org/2000/svg" xmlns:xlink="http://www.w3.org/1999/xlink" x="0px" y="0px"
	 width="52.295px" height="58.037px" viewBox="0 0 52.295 58.037" enable-background="new 0 0 52.295 58.037" xml:space="preserve">
<g>
	<g>
		<g>
			<g>
				<path fill-rule="evenodd" clip-rule="evenodd" fill="#1D1D1B" d="M52.295,30.11C52,41.249,49.081,46.752,44.397,51.438
					c-7.596,7.594-24.28,9.302-33.97,1.58c-2.99-2.385-5.629-5.959-7.505-9.877c-1.91-3.986-3.92-10.02-2.369-13.031
					c2.232-4.336,17.972-5.458,25.28-5.531C36.885,24.472,46.69,25.73,52.295,30.11z M16.746,27.344
					c-5.237,0.487-11.487,1.486-13.824,4.344c8.221,4.73,27.836,4.962,39.104,2.766c3.074-0.6,6.832-0.986,7.9-3.555
					C41.338,27.09,27.254,26.366,16.746,27.344z"/>
			</g>
		</g>
	</g>
	<g>
		<path fill="#1D1D1B" d="M8.265,17.999L4.232,8.918C3.894,8.156,4.237,7.262,4.999,6.924l0,0c0.763-0.338,1.658,0.004,1.999,0.765
			l0,0l4.032,9.082c0.339,0.766-0.004,1.658-0.767,1.997l0,0c-0.2,0.088-0.409,0.131-0.614,0.131l0,0
			C9.07,18.898,8.517,18.563,8.265,17.999L8.265,17.999z"/>
	</g>
	<g>
		<path fill="#1D1D1B" d="M24.769,14.12V1.51c0-0.834,0.68-1.51,1.516-1.51l0,0c0.836,0,1.511,0.675,1.511,1.51l0,0v12.61
			c0,0.839-0.675,1.516-1.511,1.516l0,0C25.448,15.635,24.769,14.958,24.769,14.12L24.769,14.12z"/>
	</g>
	<g>
		<path fill="#1D1D1B" d="M40.2,18.767c-0.766-0.341-1.107-1.234-0.768-2l0,0l4.033-9.079c0.34-0.762,1.234-1.106,1.998-0.767l0,0
			c0.764,0.34,1.107,1.233,0.768,1.996l0,0l-4.033,9.079c-0.252,0.566-0.807,0.901-1.385,0.901l0,0
			C40.606,18.898,40.399,18.855,40.2,18.767L40.2,18.767z"/>
	</g>
</g>
</svg>
