<?xml version="1.0" encoding="utf-8"?>
<!-- Generator: Adobe Illustrator 16.0.0, SVG Export Plug-In . SVG Version: 6.00 Build 0)  -->
<!DOCTYPE svg PUBLIC "-//W3C//DTD SVG 1.1//EN" "http://www.w3.org/Graphics/SVG/1.1/DTD/svg11.dtd">
<svg version="1.1" id="Layer_1" xmlns="http://www.w3.org/2000/svg" xmlns:xlink="http://www.w3.org/1999/xlink" x="0px" y="0px"
	 width="58.498px" height="44.994px" viewBox="0 0 58.498 44.994" enable-background="new 0 0 58.498 44.994" xml:space="preserve">
<g>
	<path fill="#1D1D1B" d="M47.37,9.331c-0.305-0.107-0.555-0.282-0.771-0.51c-0.984-1.039-2.19-1.689-3.572-2.021
		c-0.286-0.069-0.536-0.171-0.712-0.417c-0.495-0.691-1.178-1.14-1.946-1.461c-0.361-0.151-0.593-0.393-0.786-0.728
		c-1.341-2.332-4.025-3.205-6.516-2.114c-0.343,0.15-0.628,0.18-0.959-0.005c-0.865-0.483-1.804-0.65-2.786-0.603
		c-0.347,0.017-0.688-0.004-0.938-0.292C27.928,0.651,27.305,0.362,26.733,0c-1.021,0-2.043,0-3.064,0
		c-1.228,0.508-2.359,1.152-2.936,2.425c-0.251,0.552-0.62,0.812-1.196,0.935c-1.389,0.296-2.63,0.885-3.545,2.02
		c-0.216,0.267-0.501,0.339-0.803,0.425c-1.658,0.469-2.87,1.448-3.443,3.109c-0.153,0.446-0.407,0.69-0.859,0.833
		c-0.761,0.239-1.458,0.609-2.039,1.181c-1.08,1.063-1.466,2.353-1.529,3.743c0.663,0.245,1.362,0.479,2.097,0.702
		c-0.012-0.288-0.013-0.577,0.013-0.868c0.157-1.804,1.361-2.954,3.146-2.874c0.706,0.031,0.936-0.139,0.947-0.855
		c0.021-1.286,0.524-2.41,1.845-2.759c1.094-0.289,2.058-0.606,2.629-1.665c0.097-0.178,0.349-0.284,0.546-0.393
		c0.807-0.445,1.69-0.666,2.59-0.785c0.627-0.083,1.021-0.261,1.166-0.971c0.277-1.358,1.228-2.059,2.562-2.25
		c1.3-0.186,2.09,0.517,2.611,1.604c0.227,0.473,0.481,0.541,0.925,0.257c0.55-0.351,1.147-0.361,1.798-0.221
		c1.162,0.252,1.852,1,2.258,2.046c0.369-0.165,0.418-0.44,0.553-0.644c0.951-1.428,2.276-1.725,3.751-0.848
		c0.769,0.458,1.128,1.169,1.31,2c0.068,0.312,0.081,0.639,0.54,0.595c0.996-0.094,1.686,0.437,2.204,1.189
		c0.335,0.486,0.735,0.726,1.309,0.817c1.306,0.208,2.414,0.811,3.253,1.846c0.284,0.351,0.618,0.548,1.045,0.668
		c1.415,0.398,2.147,1.295,2.227,2.749c0.037,0.678,0.042,1.364-0.017,2.039c-0.007,0.074,0.001,0.132,0.003,0.196
		c0.871-0.199,1.709-0.412,2.509-0.638c-0.257-0.402-0.356-0.841-0.378-1.389C50.666,11.901,49.674,10.142,47.37,9.331z"/>
	<g>
		<path fill-rule="evenodd" clip-rule="evenodd" fill="#1D1D1B" d="M51.118,9.796l1.698,3.688c1.059,0.354,2.083,0.732,3.031,1.153
			c-1.195,2.872-5.397,3.306-8.836,3.976c-12.604,2.457-34.547,2.199-43.742-3.094c0.655-0.802,1.587-1.473,2.708-2.037l1.694-3.686
			c-4.384,1.257-6.439,2.767-7.054,3.958c-1.733,3.369,0.514,10.118,2.651,14.578c2.098,4.383,5.049,8.379,8.395,11.049
			c10.839,8.637,29.502,6.727,38-1.77c5.238-5.24,8.505-11.398,8.834-23.857C57.183,12.726,54.954,11.053,51.118,9.796z"/>
	</g>
</g>
</svg>
