<?xml version="1.0" encoding="utf-8"?>
<!-- Generator: Adobe Illustrator 16.0.0, SVG Export Plug-In . SVG Version: 6.00 Build 0)  -->
<!DOCTYPE svg PUBLIC "-//W3C//DTD SVG 1.1//EN" "http://www.w3.org/Graphics/SVG/1.1/DTD/svg11.dtd">
<svg version="1.1" id="Layer_1" xmlns="http://www.w3.org/2000/svg" xmlns:xlink="http://www.w3.org/1999/xlink" x="0px" y="0px"
	 width="94.758px" height="63.359px" viewBox="0 0 94.758 63.359" enable-background="new 0 0 94.758 63.359" xml:space="preserve">
<g>
	<g>
		<g>
			<path fill-rule="evenodd" clip-rule="evenodd" d="M2.555,0.355c2.692-0.693,8.431-0.158,11.817-0.158c23.229,0,45.182,0,69.008,0
				c3.821,0,9.228-0.481,10.562,0.943c1.051,1.135,0.785,4.616,0.785,7.092c0,16.039,0,30.955,0,47.267
				c0,2.795,0.222,5.85-0.949,6.933c-1.518,1.417-7.603,0.79-11.028,0.79c-23.8,0-46.713,0-70.897,0
				c-3.532,0-9.525,0.501-10.873-0.946c-1.557-1.67-0.791-11.83-0.791-15.125c0-6.179,0-9.881,0-15.284c0-9.132,0-14.95,0-23.161
				C0.188,4.426-0.519,1.146,2.555,0.355z M19.099,6.971c-0.848,7.4-4.928,11.566-12.607,12.136c0,8.401,0,16.804,0,25.206
				c7.805,0.602,12.004,4.803,12.607,12.608c18.904,0,37.81,0,56.719,0c0.593-7.815,4.817-11.997,12.604-12.608
				c0-8.402,0-16.805,0-25.206c-7.776-0.626-11.99-4.817-12.604-12.608c-18.852,0-37.707,0-56.56,0
				C19.069,6.527,19.083,6.749,19.099,6.971z"/>
			<path fill-rule="evenodd" clip-rule="evenodd" d="M45.88,11.385c5.193-0.599,9.867,2.074,12.296,5.038
				c4.29,5.254,6.518,14.873,3.622,23.321c-0.928,2.704-2.104,5.388-3.622,7.246c-4.062,4.969-11.423,6.891-17.335,3.47
				c-4.909-2.843-8.696-10.026-9.139-17.175c-0.406-6.543,1.985-13.117,5.04-16.862C38.563,14.205,41.872,11.847,45.88,11.385z
				 M45.095,17.53c-2.5,2.12-4.803,4.438-7.246,6.615c1.149,1.427,2.251,2.896,3.783,3.941c0.978-0.651,1.927-2.164,2.678-2.524
				c0,4.678,0,9.351,0,14.023c-2.105,0-4.205,0-6.307,0c0,1.576,0,3.151,0,4.727c6.307,0,12.604,0,18.905,0c0-1.575,0-3.15,0-4.727
				c-2.048-0.105-4.514,0.21-6.301-0.159c0-7.298,0-14.597,0-21.896C48.771,17.53,46.933,17.53,45.095,17.53z"/>
		</g>
	</g>
</g>
</svg>
