<?xml version="1.0" encoding="utf-8"?>
<!-- Generator: Adobe Illustrator 16.0.0, SVG Export Plug-In . SVG Version: 6.00 Build 0)  -->
<!DOCTYPE svg PUBLIC "-//W3C//DTD SVG 1.1//EN" "http://www.w3.org/Graphics/SVG/1.1/DTD/svg11.dtd">
<svg version="1.1" id="Layer_1" xmlns="http://www.w3.org/2000/svg" xmlns:xlink="http://www.w3.org/1999/xlink" x="0px" y="0px"
	 width="98.774px" height="86.159px" viewBox="0 0 98.774 86.159" enable-background="new 0 0 98.774 86.159" xml:space="preserve">
<g>
	<path fill-rule="evenodd" clip-rule="evenodd" d="M68.812,15.039c1.451-0.654,2.77-1.3,4.127-1.852
		c5.656-2.299,11.321-2.129,16.812,0.395c5.426,2.492,8.32,6.98,8.895,12.86c0.676,6.907-1.25,12.866-6.998,17.175
		c-3.056,2.289-6.604,3.25-10.381,3.389c-1.43,0.054-2.863,0.01-4.455,0.01c-0.283,6.639-0.564,13.221-0.852,19.973
		c-2.08,0.148-4.127,0.295-6.336,0.453c0-0.509,0-0.912,0-1.314c0-2.568,0.006-5.135-0.004-7.703
		c-0.002-0.527,0.051-1.096-0.125-1.57c-0.168-0.445-0.553-1.033-0.936-1.112c-0.367-0.076-0.951,0.333-1.264,0.687
		c-0.332,0.377-0.488,0.924-0.666,1.418c-1.073,2.979-2.15,5.956-3.176,8.951c-0.23,0.669-0.543,0.967-1.27,0.96
		c-3.164-0.028-6.328-0.013-9.617-0.013c-0.516-2.924-1.039-5.961-1.594-8.993c-0.141-0.772-0.289-1.569-0.61-2.276
		c-0.169-0.368-0.72-0.775-1.098-0.774c-0.379,0-0.837,0.426-1.109,0.781c-0.235,0.304-0.295,0.765-0.367,1.167
		c-0.61,3.377-1.205,6.756-1.82,10.225c-0.336,0.021-0.663,0.064-0.991,0.062c-2.718-0.023-5.437-0.094-8.154-0.064
		c-0.878,0.009-1.233-0.316-1.504-1.115c-1.014-3-2.092-5.977-3.178-8.951c-0.34-0.932-0.599-2.275-1.85-2.081
		c-1.357,0.212-1.104,1.614-1.118,2.63c-0.039,2.643-0.014,5.287-0.014,7.929c0,0.37,0,0.739,0,1.276
		c-2.128-0.137-4.139-0.267-6.321-0.406c-0.288-6.712-0.572-13.362-0.87-20.304c-2.141,0-4.226,0.196-6.263-0.032
		C6.438,45.77,0.146,38.699,0.003,29.359c-0.076-4.961,1.187-9.419,4.86-12.949c3.229-3.104,7.232-4.385,11.601-4.719
		c3.814-0.292,7.432,0.418,10.855,2.134c0.838,0.42,1.703,0.782,2.667,1.222c0.521-1.15,0.991-2.246,1.506-3.32
		C35.104,4.176,41.097,0.01,49.461,0c7.829-0.01,13.637,3.818,17.35,10.727C67.54,12.08,68.112,13.52,68.812,15.039z"/>
	<path fill-rule="evenodd" clip-rule="evenodd" d="M23.583,84.996c-0.183-4.383-0.353-8.442-0.526-12.632
		c17.596,1.038,35.066,1.011,52.687-0.185c-0.168,4.077-0.334,8.057-0.504,12.211C58.032,86.723,40.868,86.562,23.583,84.996z"/>
</g>
</svg>
