<?xml version="1.0" encoding="utf-8"?>
<!-- Generator: Adobe Illustrator 15.1.0, SVG Export Plug-In . SVG Version: 6.00 Build 0)  -->
<!DOCTYPE svg PUBLIC "-//W3C//DTD SVG 1.1//EN" "http://www.w3.org/Graphics/SVG/1.1/DTD/svg11.dtd">
<svg version="1.1" id="Layer_1" xmlns="http://www.w3.org/2000/svg" xmlns:xlink="http://www.w3.org/1999/xlink" x="0px" y="0px"
	 width="72px" height="72px" viewBox="0 0 72 72" enable-background="new 0 0 72 72" xml:space="preserve">
<g>
	<path d="M71.35,19.9c0-8.311-6.736-14.033-15.049-14.033c-1.818,0-3.553,0.339-5.168,0.93c-3.76-4.191-9.203-6.846-15.277-6.846
		c-6.078,0-11.521,2.655-15.281,6.85c-1.617-0.594-3.357-0.934-5.18-0.934c-8.312,0-15.049,5.723-15.049,14.033
		c0,7.893,6.078,14.354,13.811,14.986v9.374v8.203c0,4.768,9.691,8.635,21.645,8.635c11.955,0,21.648-3.867,21.648-8.635V44.26
		v-9.37C65.223,34.302,71.35,27.824,71.35,19.9z M33.916,52.463V39.645c0.623,0.027,1.25,0.043,1.885,0.043
		c0.697,0,1.383-0.018,2.062-0.049v12.824v2.494h-3.947V52.463z M46.842,52.463V38.398c1.43-0.422,2.752-0.537,3.945-1.104v15.168
		v0.205c-1.043,0.654-2.377,1.273-3.945,1.809V52.463z M21.186,52.887v-0.424V37.469c1.199,0.545,2.525,0.635,3.947,1.035v13.959
		V54.6C23.58,54.098,22.256,53.512,21.186,52.887z"/>
	<path d="M14.156,59.6v2.484c0,0.283,0.012,0.535,0.031,0.773c-0.021,0.148-0.031,0.301-0.031,0.459
		c0,4.77,9.691,8.635,21.645,8.635c11.955,0,21.648-3.865,21.648-8.635c0-0.158-0.012-0.311-0.033-0.459
		c0.02-0.238,0.033-0.49,0.033-0.773V59.6c-4.854,3.703-13.457,5.443-21.648,5.443S19.008,63.303,14.156,59.6z"/>
</g>
</svg>
