<?xml version="1.0" encoding="utf-8"?>
<!-- Generator: Adobe Illustrator 16.0.0, SVG Export Plug-In . SVG Version: 6.00 Build 0)  -->
<!DOCTYPE svg PUBLIC "-//W3C//DTD SVG 1.1//EN" "http://www.w3.org/Graphics/SVG/1.1/DTD/svg11.dtd">
<svg version="1.1" id="Layer_1" xmlns="http://www.w3.org/2000/svg" xmlns:xlink="http://www.w3.org/1999/xlink" x="0px" y="0px"
	 width="47.111px" height="58.741px" viewBox="0 0 47.111 58.741" enable-background="new 0 0 47.111 58.741" xml:space="preserve">
<g>
	<path fill-rule="evenodd" clip-rule="evenodd" fill="#1D1D1B" d="M29.109,58.741c-3.52-3.023-7.562-0.758-11.762-0.383
		c-4.762,0.426-9.199-1.578-11.151-6.66c-0.468-1.219-0.5-2.789,0.826-3.58c1.577-0.939,1.213,1.084,1.929,1.576
		c2.637,1.814,5.406,2.125,7.903,0.198c4.632-3.575,8.937-3.477,13.544,0.052c2.517,1.928,5.282,1.514,7.896-0.317
		c0.662-0.464,0.193-2.602,1.879-1.437c1.109,0.767,1.287,2.091,0.862,3.307C39.158,56.856,34.586,57.97,29.109,58.741z"/>
	<path fill-rule="evenodd" clip-rule="evenodd" fill="#1D1D1B" d="M30.19,40.383c1.065,0.281,1.885,0.901,1.793,2.061
		c-0.089,1.125-0.886,1.846-2.053,1.734c-1.093-0.104-1.942-0.755-1.816-1.969C28.231,41.083,29.052,40.504,30.19,40.383z"/>
	<path fill-rule="evenodd" clip-rule="evenodd" fill="#1D1D1B" d="M17.173,40.417c1.14,0.223,1.812,0.865,1.73,2.066
		c-0.083,1.236-0.884,1.799-2.036,1.695c-1.04-0.094-1.608-0.846-1.606-1.861C15.263,41.115,16.022,40.538,17.173,40.417z"/>
	<path fill-rule="evenodd" clip-rule="evenodd" fill="#1D1D1B" d="M45.868,10.887c-1.684-3.228-4.575-4.809-8.24-4.576
		c-1.637,0.104-2.67-0.156-3.762-1.642C29.312-1.528,17.96-1.558,13.364,4.588c-1.053,1.408-1.969,1.849-3.705,1.722
		c-3.758-0.274-6.695,1.362-8.467,4.743c-1.838,3.509-1.622,7.208,1.146,9.847c3.935,3.751,4.083,8.356,4.124,13.088
		c0.021,2.231,0.733,3.456,2.998,3.674c4.924,0.475,9.845,0.974,14.55,1.442c4.693-0.494,9.11-0.989,13.534-1.412
		c2.401-0.23,3.213-1.475,3.176-3.844c-0.073-4.774,0.299-9.289,4.194-13.049C47.669,18.14,47.651,14.305,45.868,10.887z
		 M43.712,16.303c-0.604,2.913-2.488,4.774-5.355,5.607c-0.995,0.289-2.797,0.448-2.853,0.855c-0.205,1.494,1.745,0.598,2.169,1.354
		c1.632,2.918-0.473,5.835-0.197,8.797c0.147,1.584-1.134,1.952-2.436,2.073c-3.418,0.32-6.836,0.639-10.255,0.957
		c-0.004-0.092-0.009-0.183-0.012-0.274c-2.121,0-4.246,0.082-6.363-0.015c-8.642-0.393-9.26-1.027-9.647-9.617
		c-0.021-0.484-0.035-1.07,0.203-1.448c1.211-1.934,1.158-1.763-1.328-3.117c-3.573-1.945-5.798-4.96-3.621-8.953
		c2.125-3.899,5.562-4.397,9.139-1.539c1.4,1.12,1.364,0.18,1.53-0.827c0.824-4.987,4.252-7.023,8.828-6.996
		c4.642,0.028,8.315,1.841,8.856,7.193c0.141,1.397,0.604,1.589,1.648,0.596c2.33-2.217,4.963-2.172,7.488-0.53
		C43.566,11.76,44.196,13.965,43.712,16.303z"/>
</g>
</svg>
