<?xml version="1.0" encoding="utf-8"?>
<!-- Generator: Adobe Illustrator 16.0.0, SVG Export Plug-In . SVG Version: 6.00 Build 0)  -->
<!DOCTYPE svg PUBLIC "-//W3C//DTD SVG 1.1//EN" "http://www.w3.org/Graphics/SVG/1.1/DTD/svg11.dtd">
<svg version="1.1" id="Layer_1" xmlns="http://www.w3.org/2000/svg" xmlns:xlink="http://www.w3.org/1999/xlink" x="0px" y="0px"
	 width="71.791px" height="86.544px" viewBox="0 0 71.791 86.544" enable-background="new 0 0 71.791 86.544" xml:space="preserve">
<g>
	<g>
		<g>
			<path fill-rule="evenodd" clip-rule="evenodd" d="M56.911,2.09c-1.824,1.9-4.16,3.159-6.32,4.646
				C35.896,16.851,20.719,27.485,5.958,37.789c-0.074-1.36,1.239-2.116,2.045-2.975c5.942-6.308,13.553-11.258,20.83-16.731
				c4.012-3.024,8.169-6.095,12.271-9.117c2.051-1.509,4.23-2.937,6.324-4.462c2.141-1.562,3.963-3.25,6.322-4.274
				C55.243-0.42,56.657,0.347,56.911,2.09z"/>
			<path fill-rule="evenodd" clip-rule="evenodd" d="M12.095,38.908c1.564-1.875,3.936-2.956,6.137-4.094
				c6.641-3.43,13.744-6.398,21.2-9.484c9.758-4.031,20.051-8.214,29.754-10.972c1.078-0.301,2.561,0.148,2.604,1.676
				c0.068,2.417-4.512,3.195-6.51,3.906C47.731,26.149,29.694,32.853,12.095,38.908z"/>
			<path fill-rule="evenodd" clip-rule="evenodd" d="M0.194,50.253c23.369,0,46.739,0,70.108,0
				c-0.533,9.065-2.182,16.532-6.137,22.684c-2.389,3.713-6.038,7.112-9.67,10.415c-1.193,1.085-2.674,2.723-3.721,2.974
				c-2.047,0.492-5.08,0-7.623,0c-5.357,0-9.901,0-15.249,0c-2.497,0-5.172,0.433-7.438,0c-1.445-0.271-2.847-1.694-4.277-2.789
				C7.073,76.545,0.74,65.903,0.008,50.806C-0.008,50.546-0.023,50.282,0.194,50.253z"/>
			<path fill-rule="evenodd" clip-rule="evenodd" d="M24.554,46.717c-0.312-0.438,0.654-1.992,0-2.789
				c-2.964-2.269-6.889,1.262-7.81,3.719c-2.417-0.034-5.185,0.989-7.81,1.114c-0.618,0.031-1.827,0.529-1.86-0.557
				c0.088-0.977,1.312-0.768,1.86-0.93c1.951-0.59,4.705-0.97,6.509-1.859c1.844-0.912,2.996-2.902,4.649-3.531
				c1.86-0.709,3.667-0.013,6.137-0.563c1.607-0.354,2.608-2.113,4.462-2.789c4.168-1.513,8.141,0.579,10.601,2.789
				c2.322-0.72,4.604-1.035,6.51-0.182c1.838,0.82,2.859,2.854,4.275,3.717c4.158,0.057,7.139,1.292,9.855,2.791
				c-0.897,1.127-2.607,0.578-4.09,0.371c-2.215-0.306-4.611-0.882-6.695-0.187c-1.398-1.232-1.551-2.604-2.977-3.717
				c-3.221-2.521-7.858-0.191-10.971,1.301c0.125-0.979,1.761-2.077,1.115-3.531c-0.545-1.228-3.625-1.669-5.392-1.49
				C28.908,40.799,27.195,45.98,24.554,46.717z"/>
		</g>
	</g>
</g>
</svg>
