<?xml version="1.0" encoding="utf-8"?>
<!-- Generator: Adobe Illustrator 16.0.0, SVG Export Plug-In . SVG Version: 6.00 Build 0)  -->
<!DOCTYPE svg PUBLIC "-//W3C//DTD SVG 1.1//EN" "http://www.w3.org/Graphics/SVG/1.1/DTD/svg11.dtd">
<svg version="1.1" id="Layer_1" xmlns="http://www.w3.org/2000/svg" xmlns:xlink="http://www.w3.org/1999/xlink" x="0px" y="0px"
	 width="65.009px" height="65.009px" viewBox="0 0 65.009 65.009" enable-background="new 0 0 65.009 65.009" xml:space="preserve">
<g>
	<g>
		<path fill="#1D1D1B" d="M32.504,65.009C14.581,65.009,0,50.428,0,32.505S14.581,0,32.504,0s32.505,14.582,32.505,32.505
			S50.427,65.009,32.504,65.009z M32.504,1.064c-17.336,0-31.439,14.104-31.439,31.44s14.104,31.44,31.439,31.44
			s31.44-14.104,31.44-31.44S49.84,1.064,32.504,1.064z"/>
	</g>
	<g>
		<g>
			<g>
				<g>
					<path fill-rule="evenodd" clip-rule="evenodd" fill="#1D1D1B" d="M45.317,40.195c-1.205-0.664-2.283-1.164-3.48-1.938
						c-0.566-0.365-1.259-0.92-1.801-0.9c-0.878,0.037-1.6,1.229-2.061,1.807c-0.438,0.547-1.289,1.762-2.061,1.801
						c-0.578,0.029-1.254-0.516-1.803-0.836c-1.697-1.002-3.421-2.203-4.639-3.414c-1.261-1.262-2.385-2.945-3.408-4.637
						c-0.339-0.559-0.898-1.215-0.836-1.865c0.078-0.844,1.172-1.434,1.867-1.996c0.479-0.391,1.721-1.186,1.734-2.125
						c0.014-0.494-0.547-1.189-0.895-1.736c-0.799-1.236-1.299-2.32-1.936-3.479c-0.319-0.582-0.629-1.191-1.155-1.545
						c-1.226,0.068-2.409,0.174-3.285,0.643c-0.877,0.467-1.508,1.494-1.998,2.385c-0.821,1.484-1.314,3.215-0.906,5.342
						c0.239,1.213,0.765,2.52,1.228,3.736c1.41,3.695,3.459,6.223,6.052,8.82c2.633,2.633,5.19,4.666,8.822,6.051
						c1.226,0.467,2.542,0.986,3.801,1.223c2.181,0.406,3.68-0.072,5.216-0.898c0.885-0.482,1.854-1.033,2.377-1.998
						c0.411-0.756,0.703-1.994,0.705-3.283C46.487,40.798,45.864,40.496,45.317,40.195z"/>
				</g>
			</g>
		</g>
	</g>
</g>
</svg>
