<?xml version="1.0" encoding="utf-8"?>
<!-- Generator: Adobe Illustrator 13.0.2, SVG Export Plug-In . SVG Version: 6.00 Build 14948)  -->
<!DOCTYPE svg PUBLIC "-//W3C//DTD SVG 1.1//EN" "http://www.w3.org/Graphics/SVG/1.1/DTD/svg11.dtd">
<svg version="1.1" id="Layer_1" xmlns="http://www.w3.org/2000/svg" xmlns:xlink="http://www.w3.org/1999/xlink" x="0px" y="0px"
	 width="41px" height="41px" viewBox="0 0 41 41" enable-background="new 0 0 41 41" xml:space="preserve">
<g>
	<path d="M0,20.5C0,9.177,9.179,0,20.5,0l0,0C31.82,0,41,9.177,41,20.5l0,0c0,11.32-9.18,20.498-20.5,20.5l0,0
		C9.179,40.998,0,31.82,0,20.5L0,20.5z M1.001,20.5C1.02,31.269,9.731,39.98,20.5,39.999l0,0C31.269,39.98,39.981,31.269,40,20.5
		l0,0C39.981,9.73,31.269,1.021,20.5,1l0,0C9.731,1.021,1.02,9.73,1.001,20.5L1.001,20.5z"/>
</g>
<g>
	<g>
		<g>
			<path d="M20.644,9.873c1.693,0,2.966,0.725,3.876,1.738c1.591,1.778,1.771,5.121,0,7.096c-0.462,0.514-1.239,1.125-1.921,1.404
				c-0.634,0.259-1.287,0.375-1.93,0.375c-2.114,0-4.118-1.262-4.942-2.886c-0.653-1.286-0.813-3.125-0.075-4.73
				c0.596-1.299,1.959-2.696,4.287-2.957C20.181,9.886,20.416,9.873,20.644,9.873 M25.777,19.581c0.647,0,1.367,0.296,1.772,0.53
				c1.199,0.693,1.76,1.858,2.145,3.104c0.484,1.576,0.94,4.34,0.293,5.912c-0.212,0.516-0.893,1.316-1.551,1.627
				c-0.713,0.333-1.686,0.373-2.771,0.373c-0.348,0-0.707-0.004-1.072-0.004c-2.526,0-5.665,0-8.276,0
				c-2.817,0-4.548-0.102-5.319-2.072c-0.523-1.328-0.297-3.293,0.145-5.172c0.392-1.652,1.143-2.988,2.072-3.621
				c0.473-0.323,1.105-0.542,1.846-0.591c0.011,0,0.086-0.073,0.148-0.074c0.011,0,0.021,0,0.032,0c0.982,0,2.073,1.172,2.85,1.478
				c0.754,0.298,1.506,0.425,2.232,0.425c1.503,0,2.896-0.543,3.976-1.237c0.377-0.243,0.834-0.613,1.256-0.665
				C25.627,19.584,25.701,19.581,25.777,19.581 M20.644,10.873c-0.192,0-0.392,0.011-0.594,0.034c-2.282,0.256-3.2,1.75-3.489,2.38
				c-0.55,1.194-0.527,2.709,0.058,3.86c0.688,1.356,2.392,2.339,4.051,2.339c0.54,0,1.062-0.101,1.552-0.301
				c0.473-0.194,1.142-0.687,1.555-1.147c1.476-1.646,1.217-4.399-0.001-5.761C22.938,11.346,21.884,10.873,20.644,10.873
				L20.644,10.873z M25.777,20.581c-0.036,0-0.071,0.001-0.106,0.006c-0.108,0.022-0.412,0.23-0.576,0.341
				c-0.088,0.06-0.174,0.118-0.256,0.172c-0.991,0.637-2.579,1.396-4.517,1.396c-0.894,0-1.769-0.167-2.6-0.495
				c-0.398-0.156-0.777-0.423-1.179-0.704c-0.331-0.232-0.801-0.563-1.125-0.669l-0.293,0.039c-0.524,0.035-1.003,0.183-1.348,0.418
				c-0.707,0.481-1.328,1.612-1.663,3.025c-0.614,2.615-0.441,3.932-0.188,4.575c0.49,1.25,1.425,1.438,4.389,1.438h8.276
				l0.556,0.002l0.517,0.002c0.847,0,1.797-0.021,2.349-0.279c0.42-0.198,0.927-0.805,1.049-1.101
				c0.479-1.162,0.19-3.565-0.324-5.238c-0.409-1.327-0.915-2.085-1.689-2.532C26.72,20.786,26.181,20.581,25.777,20.581
				L25.777,20.581z"/>
		</g>
	</g>
</g>
</svg>
