<?xml version="1.0" encoding="utf-8"?>
<!-- Generator: Adobe Illustrator 16.0.0, SVG Export Plug-In . SVG Version: 6.00 Build 0)  -->
<!DOCTYPE svg PUBLIC "-//W3C//DTD SVG 1.1//EN" "http://www.w3.org/Graphics/SVG/1.1/DTD/svg11.dtd">
<svg version="1.1" id="Layer_1" xmlns="http://www.w3.org/2000/svg" xmlns:xlink="http://www.w3.org/1999/xlink" x="0px" y="0px"
	 width="65.009px" height="65.009px" viewBox="0 0 65.009 65.009" enable-background="new 0 0 65.009 65.009" xml:space="preserve">
<g>
	<g>
		<path fill="#1D1D1B" d="M32.504,65.009C14.581,65.009,0,50.428,0,32.505S14.581,0,32.504,0s32.505,14.582,32.505,32.505
			S50.427,65.009,32.504,65.009z M32.504,1.064c-17.336,0-31.439,14.104-31.439,31.44s14.104,31.44,31.439,31.44
			s31.44-14.104,31.44-31.44S49.84,1.064,32.504,1.064z"/>
	</g>
</g>
<g>
	<path fill="#1D1D1B" d="M32.504,16.911c2.114,0,3.854,1.699,3.854,3.854c0,2.155-1.74,3.854-3.854,3.854
		c-2.114,0-3.854-1.699-3.854-3.854C28.65,18.61,30.39,16.911,32.504,16.911z M29.271,29.882c0-1.865,1.326-3.357,3.233-3.357
		c1.907,0,3.233,1.492,3.233,3.357v15.831c0,1.865-1.326,3.357-3.233,3.357c-1.907,0-3.233-1.492-3.233-3.357V29.882z"/>
</g>
</svg>
