<?xml version="1.0" encoding="utf-8"?>
<!-- Generator: Adobe Illustrator 15.1.0, SVG Export Plug-In . SVG Version: 6.00 Build 0)  -->
<!DOCTYPE svg PUBLIC "-//W3C//DTD SVG 1.1//EN" "http://www.w3.org/Graphics/SVG/1.1/DTD/svg11.dtd">
<svg version="1.1" id="Layer_1" xmlns="http://www.w3.org/2000/svg" xmlns:xlink="http://www.w3.org/1999/xlink" x="0px" y="0px"
	 width="72.001px" height="72px" viewBox="385 261.775 72.001 72" enable-background="new 385 261.775 72.001 72"
	 xml:space="preserve">
<g>
	<path fill="#231F20" d="M446.459,272.314c-7.026-7.026-15.517-10.536-25.459-10.536c-9.943,0-18.432,3.51-25.458,10.536
		C388.514,279.346,385,287.831,385,297.775s3.517,18.43,10.542,25.455c7.029,7.026,15.515,10.542,25.458,10.542
		c9.942,0,18.427-3.516,25.459-10.542c7.025-7.025,10.542-15.511,10.542-25.455S453.491,279.346,446.459,272.314z M442.216,318.988
		c-5.912,5.906-12.856,8.783-21.216,8.783c-8.361,0-15.303-2.877-21.215-8.783c-5.91-5.913-8.784-12.851-8.784-21.213
		c0-8.365,2.874-15.306,8.784-21.219c5.906-5.906,12.848-8.777,21.215-8.777c8.371,0,15.31,2.871,21.216,8.777
		c5.907,5.913,8.784,12.854,8.784,21.219C451,306.138,448.124,313.075,442.216,318.988z"/>
	<rect x="402.838" y="291.775" fill="#231F20" width="36.319" height="12"/>
</g>
</svg>
