<?xml version="1.0" encoding="utf-8"?>
<!-- Generator: Adobe Illustrator 16.0.0, SVG Export Plug-In . SVG Version: 6.00 Build 0)  -->
<!DOCTYPE svg PUBLIC "-//W3C//DTD SVG 1.1//EN" "http://www.w3.org/Graphics/SVG/1.1/DTD/svg11.dtd">
<svg version="1.1" id="Layer_1" xmlns="http://www.w3.org/2000/svg" xmlns:xlink="http://www.w3.org/1999/xlink" x="0px" y="0px"
	 width="65.009px" height="65.009px" viewBox="0 0 65.009 65.009" enable-background="new 0 0 65.009 65.009" xml:space="preserve">
<g>
	<g>
		<path fill="#1D1D1B" d="M32.504,65.009C14.581,65.009,0,50.428,0,32.505S14.581,0,32.504,0s32.505,14.582,32.505,32.505
			S50.427,65.009,32.504,65.009z M32.504,1.064c-17.336,0-31.439,14.104-31.439,31.44s14.104,31.44,31.439,31.44
			s31.44-14.104,31.44-31.44S49.84,1.064,32.504,1.064z"/>
	</g>
	<g>
		<g>
			<path fill="#1D1D1B" d="M32.41,18.331c-5.85,0-10.592,4.746-10.592,10.588c0,1.64,0.383,3.185,1.047,4.57h-0.006l0.039,0.066
				c0.228,0.467,0.481,0.919,0.772,1.344l8.74,15.199l8.656-15.094c1.214-1.723,1.933-3.817,1.933-6.085
				C42.999,23.077,38.25,18.331,32.41,18.331z M32.41,32.079c-2.105,0-3.797-1.707-3.797-3.799c0-2.1,1.691-3.8,3.797-3.8
				c2.099,0,3.791,1.7,3.791,3.8C36.201,30.372,34.509,32.079,32.41,32.079z"/>
		</g>
	</g>
</g>
</svg>
