<?xml version="1.0" encoding="utf-8"?>
<!-- Generator: Adobe Illustrator 16.0.0, SVG Export Plug-In . SVG Version: 6.00 Build 0)  -->
<!DOCTYPE svg PUBLIC "-//W3C//DTD SVG 1.1//EN" "http://www.w3.org/Graphics/SVG/1.1/DTD/svg11.dtd">
<svg version="1.1" id="Layer_1" xmlns="http://www.w3.org/2000/svg" xmlns:xlink="http://www.w3.org/1999/xlink" x="0px" y="0px"
	 width="65.008px" height="65.008px" viewBox="0 0 65.008 65.008" enable-background="new 0 0 65.008 65.008" xml:space="preserve">
<g>
	<g>
		<path fill="#1D1D1B" d="M32.504,65.008C14.581,65.008,0,50.428,0,32.505C0,14.582,14.581,0,32.504,0
			c17.923,0,32.504,14.582,32.504,32.505C65.008,50.428,50.427,65.008,32.504,65.008z M32.504,1.064
			c-17.336,0-31.439,14.104-31.439,31.44c0,17.336,14.104,31.44,31.439,31.44c17.334,0,31.44-14.104,31.44-31.44
			C63.944,15.168,49.84,1.064,32.504,1.064z"/>
	</g>
</g>
<g>
	<g>
		<path d="M46.28,52.072H20.366c-0.615,0-1.112-0.499-1.112-1.111V15.174c0-0.613,0.497-1.111,1.112-1.111h17.277
			c0.293,0,0.576,0.118,0.784,0.325l8.637,8.638c0.211,0.208,0.327,0.491,0.327,0.787v27.146
			C47.391,51.573,46.895,52.072,46.28,52.072z M21.477,49.848h23.691V24.272l-7.986-7.988H21.477V49.848z"/>
	</g>
	<g>
		<path d="M46.28,24.923h-8.637c-0.619,0-1.112-0.498-1.112-1.11v-8.639h2.221v7.527h7.528V24.923z"/>
	</g>
	<g>
		<path d="M33.672,27.392H26.67c-0.615,0-1.112-0.498-1.112-1.112s0.497-1.111,1.112-1.111h7.002c0.616,0,1.111,0.497,1.111,1.111
			C34.784,26.895,34.286,27.392,33.672,27.392z"/>
	</g>
	<g>
		<path d="M40.672,32.329H26.67c-0.615,0-1.112-0.498-1.112-1.112s0.497-1.111,1.112-1.111h14.002c0.615,0,1.111,0.497,1.111,1.111
			S41.288,32.329,40.672,32.329z"/>
	</g>
	<g>
		<path d="M40.672,37.263H26.67c-0.615,0-1.112-0.495-1.112-1.11c0-0.616,0.497-1.112,1.112-1.112h14.002
			c0.615,0,1.111,0.499,1.111,1.112C41.784,36.768,41.288,37.263,40.672,37.263z"/>
	</g>
	<g>
		<path d="M40.672,42.201H26.67c-0.615,0-1.112-0.499-1.112-1.111c0-0.615,0.497-1.112,1.112-1.112h14.002
			c0.615,0,1.111,0.497,1.111,1.112C41.784,41.702,41.288,42.201,40.672,42.201z"/>
	</g>
</g>
</svg>
