<?xml version="1.0" encoding="utf-8"?>
<!-- Generator: Adobe Illustrator 16.0.0, SVG Export Plug-In . SVG Version: 6.00 Build 0)  -->
<!DOCTYPE svg PUBLIC "-//W3C//DTD SVG 1.1//EN" "http://www.w3.org/Graphics/SVG/1.1/DTD/svg11.dtd">
<svg version="1.1" id="Layer_1" xmlns="http://www.w3.org/2000/svg" xmlns:xlink="http://www.w3.org/1999/xlink" x="0px" y="0px"
	 width="34.016px" height="34.016px" viewBox="0 0 34.016 34.016" enable-background="new 0 0 34.016 34.016" xml:space="preserve">
<g>
	<path fill-rule="evenodd" clip-rule="evenodd" d="M34.016,17.03c-0.046,8.068-5.669,15.056-13.65,16.614
		c-6.378,1.246-11.833-0.656-16.16-5.465c-2.897-3.221-4.245-7.076-4.204-11.377c0.075-8,5.688-14.877,13.606-16.431
		c6.35-1.245,11.769,0.659,16.112,5.409c2.324,2.542,3.642,5.578,4.107,8.97C33.932,15.504,33.954,16.269,34.016,17.03z
		 M16.983,31.468c7.965,0.003,14.422-6.467,14.431-14.457c0.009-7.98-6.457-14.451-14.433-14.443
		C9.004,2.576,2.531,9.048,2.536,17.014C2.541,24.978,9.026,31.466,16.983,31.468z"/>
	<path fill-rule="evenodd" clip-rule="evenodd" d="M18.262,10.99c0,1.76-0.007,3.52,0.009,5.279c0.003,0.242,0.071,0.513,0.19,0.724
		c1.256,2.206,2.53,4.401,3.792,6.604c0.114,0.199,0.218,0.423,0.248,0.646c0.089,0.637-0.26,1.188-0.821,1.369
		c-0.591,0.191-1.226-0.059-1.558-0.633c-1.246-2.154-2.465-4.325-3.743-6.461c-0.48-0.804-0.691-1.611-0.681-2.546
		c0.038-3.407,0.015-6.816,0.018-10.225c0-0.183-0.003-0.374,0.045-0.548c0.158-0.596,0.772-1.025,1.338-0.959
		c0.641,0.074,1.158,0.631,1.159,1.285C18.267,7.348,18.262,9.169,18.262,10.99z"/>
	<path fill-rule="evenodd" clip-rule="evenodd" d="M6.339,18.279c-0.298,0-0.596,0.009-0.894-0.002
		c-0.688-0.025-1.259-0.594-1.269-1.25c-0.01-0.67,0.573-1.273,1.267-1.289c0.597-0.014,1.192-0.015,1.787,0.001
		c0.708,0.019,1.269,0.602,1.261,1.286c-0.008,0.665-0.568,1.228-1.259,1.252C6.935,18.288,6.637,18.279,6.339,18.279z"/>
	<path fill-rule="evenodd" clip-rule="evenodd" d="M27.581,18.279c-0.298,0-0.597,0.009-0.894-0.002
		c-0.692-0.023-1.266-0.59-1.269-1.244c-0.004-0.695,0.578-1.285,1.297-1.297c0.571-0.01,1.142-0.01,1.713,0.001
		c0.729,0.014,1.319,0.602,1.309,1.284c-0.01,0.674-0.59,1.237-1.301,1.257C28.151,18.286,27.866,18.279,27.581,18.279z"/>
	<path fill-rule="evenodd" clip-rule="evenodd" d="M18.262,27.644c0,0.283,0.007,0.565-0.002,0.848
		c-0.021,0.699-0.609,1.289-1.276,1.287c-0.669-0.004-1.255-0.594-1.268-1.296c-0.01-0.577-0.011-1.155,0.001-1.733
		c0.014-0.684,0.592-1.252,1.256-1.257c0.682-0.005,1.269,0.568,1.287,1.267C18.269,27.054,18.262,27.349,18.262,27.644z"/>
</g>
</svg>
