<?xml version="1.0" encoding="utf-8"?>
<!-- Generator: Adobe Illustrator 16.0.0, SVG Export Plug-In . SVG Version: 6.00 Build 0)  -->
<!DOCTYPE svg PUBLIC "-//W3C//DTD SVG 1.1//EN" "http://www.w3.org/Graphics/SVG/1.1/DTD/svg11.dtd">
<svg version="1.1" id="Layer_1" xmlns="http://www.w3.org/2000/svg" xmlns:xlink="http://www.w3.org/1999/xlink" x="0px" y="0px"
	 width="55.852px" height="51.787px" viewBox="0 0 55.852 51.787" enable-background="new 0 0 55.852 51.787" xml:space="preserve">
<g>
	<path d="M26.893,4.18C26.398,1.709,24.225,0,21.798,0c-0.339,0-0.683,0.033-1.027,0.103c-2.816,0.563-4.643,3.306-4.079,6.123
		c0.496,2.471,2.668,4.18,5.096,4.18c0.339,0,0.683-0.033,1.028-0.103C25.631,9.738,27.458,6.997,26.893,4.18z"/>
	<g>
		<path d="M23.756,33.703c-1.398,0.28-1.915,1.758-1.657,3.045c0.271,1.355,1.341,2.459,2.717,2.183
			c1.398-0.28,1.902-1.768,1.645-3.057C26.188,34.521,25.1,33.434,23.756,33.703z"/>
		<path d="M55.741,36.57l-2.445-12.197c-0.539-2.685-2.92-4.555-5.563-4.555c-0.366,0-0.737,0.036-1.109,0.11L4.555,28.362
			c-3.057,0.612-5.057,3.615-4.444,6.673l2.445,12.197c0.538,2.686,2.92,4.555,5.564,4.555c0.366,0,0.737-0.036,1.109-0.11
			l42.068-8.434C54.354,42.631,56.354,39.628,55.741,36.57z M12.144,42.879c-2.168,0.435-4.099-1.309-4.496-3.291
			c-0.382-1.904,0.596-4.173,2.963-4.647c1.388-0.278,2.594,0.201,3.281,1.116l-1.006,1.039c-0.539-0.809-1.39-0.936-2.051-0.803
			c-1.441,0.289-1.897,1.789-1.648,3.033c0.278,1.387,1.434,2.462,2.732,2.201c0.672-0.135,1.407-0.638,1.59-1.556l1.387,0.465
			C14.657,41.701,13.366,42.634,12.144,42.879z M15.954,42.047l-1.566-7.818l1.52-0.305l1.3,6.486l3.985-0.799l0.268,1.332
			L15.954,42.047z M25.062,40.278c-2.213,0.443-4.093-1.218-4.494-3.224c-0.417-2.08,0.791-4.281,2.938-4.712
			c2.213-0.443,4.092,1.276,4.487,3.248C28.409,37.661,27.221,39.846,25.062,40.278z M32.317,38.858
			c-1.168,0.234-2.454,0.103-3.484-0.354l0.408-1.446c0.317,0.212,1.635,0.67,2.824,0.431c0.826-0.165,1.197-0.537,1.094-1.055
			c-0.139-0.694-0.982-0.731-2.271-0.816c-1.567-0.109-2.396-0.471-2.638-1.671c-0.319-1.596,0.774-2.71,2.36-3.027
			c1.09-0.219,2.13-0.003,2.905,0.322l-0.425,1.368c-0.242-0.18-1.321-0.536-2.258-0.349c-0.826,0.165-1.18,0.568-1.067,1.13
			c0.128,0.639,0.767,0.684,2.007,0.755c1.621,0.087,2.688,0.378,2.974,1.809C35.085,37.64,33.858,38.55,32.317,38.858z
			 M36.023,38.024l-1.567-7.818l5.33-1.068l0.267,1.333l-3.81,0.764l0.377,1.882l3.293-0.66l0.247,1.233l-3.293,0.66l0.409,2.038
			l3.908-0.784l0.268,1.332L36.023,38.024z M45.187,36.188l-2.841,0.569l-1.567-7.818l2.841-0.569
			c2.555-0.513,4.203,0.968,4.636,3.126C48.729,33.862,47.532,35.717,45.187,36.188z"/>
		<path d="M43.887,29.702l-1.321,0.265l1.033,5.153l1.32-0.265c1.498-0.301,2.102-1.578,1.806-3.054
			C46.422,30.293,45.362,29.406,43.887,29.702z"/>
	</g>
	<g>
		<path d="M28.32,8.229c-0.155,0.332-0.327,0.656-0.534,0.966c-0.372,0.558-0.815,1.049-1.31,1.474l8.515,9.552l3.409-0.684
			L28.32,8.229z"/>
	</g>
	<g>
		<path d="M15.401,24.148l4.177-12.1c-0.986-0.321-1.885-0.85-2.642-1.542l-4.945,14.325L15.401,24.148z"/>
	</g>
</g>
</svg>
