<?xml version="1.0" encoding="utf-8"?>
<!-- Generator: Adobe Illustrator 16.0.0, SVG Export Plug-In . SVG Version: 6.00 Build 0)  -->
<!DOCTYPE svg PUBLIC "-//W3C//DTD SVG 1.1//EN" "http://www.w3.org/Graphics/SVG/1.1/DTD/svg11.dtd">
<svg version="1.1" id="Layer_1" xmlns="http://www.w3.org/2000/svg" xmlns:xlink="http://www.w3.org/1999/xlink" x="0px" y="0px"
	 width="82.377px" height="65.949px" viewBox="0 0 82.377 65.949" enable-background="new 0 0 82.377 65.949" xml:space="preserve">
<g>
	<g>
		<g>
			<path fill-rule="evenodd" clip-rule="evenodd" d="M5.803,0.202c0.049-0.01,0.135-0.138,0.275-0.138c20.643,0,41.959,0,63.333,0
				c3.067,0,6.812-0.305,8.638,0.413c1.521,0.598,3.344,2.286,3.976,4.383c0.577,1.933,0.272,4.158,0.272,6.856
				c0,13.934,0,28.65,0,42.771c0,2.346,0.256,5.088-0.272,6.716c-0.588,1.802-2.414,3.638-3.976,4.249
				c-1.918,0.752-5.838,0.41-8.912,0.41c-18.992,0-37.006,0-55.93,0c-3.01,0-6.938,0.365-8.912-0.41
				c-1.301-0.511-3.184-2.211-3.834-3.834c-0.641-1.595-0.416-4.191-0.416-6.855c0-14.228,0-28.729,0-42.772
				c0-2.229-0.211-4.967,0.275-6.855C1.067,2.25,3.328,0.575,5.803,0.202z M76.811,11.033c0-1.489,0.4-4.27-0.409-5.073
				c-0.929-0.93-6.026-0.41-8.224-0.41c-20.846,0-41.881-0.115-61.966,0.135c-1.065,1.06-0.685,3.166-0.685,5.074
				c0,1.96,0,4.032,0,5.757c23.762,0,47.523,0,71.283,0C76.811,15.286,76.811,13.215,76.811,11.033z M5.528,33.377
				c0,6.654,0,13.157,0,20.15c0,1.881-0.365,5.664,0.41,6.443c0.849,0.848,6.023,0.408,8.503,0.408c18.081,0,35.493,0,53.462,0
				c2.41,0,7.564,0.526,8.499-0.408c0.819-0.814,0.409-4.533,0.409-6.443c0-7.581,0-13.193,0-20.564c-23.713,0-47.426,0-71.147,0
				C5.509,32.986,5.518,33.182,5.528,33.377z"/>
			<path fill-rule="evenodd" clip-rule="evenodd" d="M21.981,49.416c0,1.826,0,3.654,0,5.482c-3.656,0-7.312,0-10.965,0
				c0-1.828,0-3.656,0-5.482C14.668,49.416,18.325,49.416,21.981,49.416z"/>
			<path fill-rule="evenodd" clip-rule="evenodd" d="M43.917,49.416c0,1.826,0,3.654,0,5.482c-5.487,0-10.971,0-16.453,0
				c0.092-1.783-0.184-3.93,0.141-5.482C33.038,49.416,38.476,49.416,43.917,49.416z"/>
		</g>
	</g>
</g>
</svg>
