<?xml version="1.0" encoding="utf-8"?>
<!-- Generator: Adobe Illustrator 13.0.2, SVG Export Plug-In . SVG Version: 6.00 Build 14948)  -->
<!DOCTYPE svg PUBLIC "-//W3C//DTD SVG 1.1//EN" "http://www.w3.org/Graphics/SVG/1.1/DTD/svg11.dtd">
<svg version="1.1" id="Layer_1" xmlns="http://www.w3.org/2000/svg" xmlns:xlink="http://www.w3.org/1999/xlink" x="0px" y="0px"
	 width="212.689px" height="170.276px" viewBox="0 0 212.689 170.276" enable-background="new 0 0 212.689 170.276"
	 xml:space="preserve">
<g>
	<g>
		<g>
			<path fill-rule="evenodd" clip-rule="evenodd" d="M14.987,0.525c0.121-0.024,0.344-0.36,0.703-0.36c53.301,0,108.336,0,163.52,0
				c7.926,0,17.59-0.783,22.305,1.069c3.93,1.543,8.633,5.902,10.262,11.319c1.492,4.988,0.707,10.735,0.707,17.701
				c0,35.973,0,73.973,0,110.431c0,6.058,0.66,13.136-0.707,17.34c-1.52,4.651-6.234,9.391-10.262,10.971
				c-4.953,1.94-15.07,1.058-23.012,1.058c-49.035,0-95.543,0-144.402,0c-7.773,0-17.91,0.945-23.012-1.058
				c-3.359-1.318-8.223-5.709-9.902-9.901c-1.652-4.117-1.066-10.821-1.066-17.7c0-36.731,0-74.172,0-110.431
				c0-5.76-0.551-12.825,0.707-17.701C2.757,5.812,8.597,1.49,14.987,0.525z"/>
		</g>
	</g>
</g>
<path fill="#FFFFFF" d="M92.937,63.816v-3.857H78.165v18.478h14.783v-3.882l-10.301-0.012l0.051-3.519l0.578-0.049h9.434
	l-0.014-1.471V67.13l-9.948-0.024v-3.279L92.937,63.816z M120.935,59.959l-4.623,0.023l0.027,18.453h4.596V59.959z M74.937,59.959
	h-7.324l-1.32,3.102l-4.057,9.432l-1.657-3.642l-4.084-8.894h-7.247l-0.012,17.409l-0.352-0.806l-5.451-12.687l-1.646-3.918H35.19
	l-7.913,18.478h4.812l0.188-0.402l1.521-3.668h9.244l1.596,4.07h8.98V63.988l4.057,9.02l2.451,5.427h3.881l3.667-8.315l2.7-5.777
	v14.093h4.573L74.937,59.959L74.937,59.959z M35.419,70.421l0.265-0.652l2.688-6.419l1.772,4.069l1.18,3.002H35.419L35.419,70.421z
	 M128.749,65.234c0.602-0.766,1.608-1.03,2.512-1.23c1.722-0.086,5.188-0.051,5.188-0.051v-3.993c0,0-1.949,0-2.927,0
	c-1.896-0.014-3.843,0-5.65,0.641c-0.567,0.263-1.169,0.453-1.661,0.843c-1.131,0.867-2.033,2.06-2.486,3.428
	c-0.416,1.095-0.514,2.273-0.691,3.429c-0.076,0.729-0.049,1.471-0.026,2.198c0.163,1.293,0.29,2.651,0.931,3.82
	c0.641,1.518,1.873,2.812,3.443,3.353c1.066,0.466,2.223,0.68,3.378,0.767c2.084-0.037,6.267,0,6.267,0l1.57-4.058h9.27l1.645,4.058
	h9.008l0.037-13.705l8.393,13.741l6.242-0.036l0.012-18.478h-4.619l-0.016,12.598l-2.975-4.849l-0.881-1.506l-3.027-5.024
	l-0.629-1.218h-6.934v11.933l-0.049,5.263l-7.373-17.195h-6.621l-5.1,11.882c0,0-0.792,1.772-1.117,2.676
	c-1.356,0.063-2.713,0.014-4.033-0.338c-1.08-0.326-1.619-1.444-1.958-2.425c-0.376-1.633-0.366-3.354,0.036-4.974
	c0.176-0.567,0.516-1.07,0.842-1.548H128.749z M140.957,68.915l1.546-3.755l0.805-1.81l1.57,3.705l0.752,1.822l0.566,1.496h-5.779
	L140.957,68.915L140.957,68.915z M113.624,66.653c0.302-1.392,0.291-2.938-0.414-4.218c-0.49-0.918-1.408-1.507-2.336-1.923
	c-1.105-0.415-2.299-0.566-3.481-0.553c-3.806,0.013-11.405,0.013-11.405,0.013v18.465h4.471l-0.013-5.916l0.013-0.778
	c0,0,3.152-0.012,4.673,0.014c1.054,0.025,2.186,0.087,3.089,0.704c0.291,0.252,0.559,0.476,0.678,0.954
	c0.126,0.497,0.207,0.959,0.226,1.507c0.04,1.186,0.026,3.517,0.026,3.517h4.497c0,0,0.101-3.78-0.149-5.663
	c-0.164-0.843-0.705-1.583-1.371-2.112c-0.389-0.288-0.827-0.489-1.217-0.791C112.142,69.153,113.222,68.047,113.624,66.653
	L113.624,66.653z M108.062,67.533c-0.818,0.453-1.772,0.377-2.68,0.363c-1.431,0-4.281,0-4.281,0h-0.642v-4.08h0.905
	c0,0,3.439-0.038,5.163,0.035c0.54,0.037,1.104,0.151,1.595,0.402C109.228,64.983,109.114,66.816,108.062,67.533L108.062,67.533z
	 M149.952,95.632v-3.868h-14.797l0.011,18.54h14.786v-3.87l-10.289-0.011v-3.643H149.7v-3.857h-10.037v-3.291H149.952z
	 M161.671,106.297c-3.054,0.026-9.158,0.026-9.158,0.026v3.981c0,0,5.93,0.003,8.894,0.014c1.856,0.005,2.175-0.139,3.203-0.44
	c1.08-0.34,1.985-1.066,2.688-1.946c0.667-0.992,0.792-2.211,0.881-3.368c0.036-1.343-0.253-2.738-1.093-3.805
	c-0.617-0.617-1.406-1.033-2.237-1.282c-2.212-0.641-4.547-0.401-6.821-0.59c-0.352-0.113-0.764-0.215-0.965-0.554
	c-0.541-0.626-0.34-1.632,0.25-2.147c0.691-0.451,1.545-0.427,2.336-0.439h7.637c0,0,0.013-2.852,0.013-3.981h-9.534
	c-1.694-0.025-3.441,0.777-4.534,2.111c-1.482,1.883-1.505,4.62-0.39,6.695c0.602,0.929,1.582,1.558,2.637,1.859
	c1.322,0.362,2.676,0.639,4.047,0.602c0.917-0.013,1.834,0.062,2.75,0.15c0.502,0.176,1.08,0.527,1.143,1.116
	c0.036,0.428,0.075,0.93-0.226,1.282C162.876,106.094,162.248,106.296,161.671,106.297L161.671,106.297z M184.469,100.958
	c-0.89-1.129-2.335-1.58-3.706-1.782c-0.84-0.063-1.68-0.202-2.523-0.151c-0.929,0.051-1.834-0.112-2.764-0.125
	c-0.565-0.102-1.255-0.378-1.368-1.03c-0.177-0.49-0.149-1.094,0.251-1.485c0.467-0.425,1.104-0.65,1.746-0.65
	c4.474-0.001,8.391,0,8.391,0v-3.969h-9.27c-1.156,0.012-2.35,0.301-3.34,0.903c-1.094,0.603-1.924,1.659-2.299,2.853
	c-0.402,1.192-0.313,2.488-0.076,3.707c0.377,1.179,1.117,2.335,2.286,2.851c1.157,0.564,2.462,0.714,3.73,0.917
	c1.08,0.101,2.162-0.026,3.242,0.126c0.353,0.05,0.741,0,1.069,0.201c0.764,0.325,1.155,1.393,0.664,2.098
	c-0.29,0.552-0.879,0.904-1.496,0.891c-3.053,0.014-9.17,0.014-9.17,0.014v3.981c0,0,6.106,0.006,9.157,0
	c1.019-0.002,1.96-0.201,2.902-0.478c1.13-0.352,2.237-1.03,2.75-2.135c0.616-1.018,0.817-2.225,0.755-3.393
	C185.462,103.12,185.149,101.926,184.469,100.958L184.469,100.958z M107.996,92.002c-1.015-0.214-2.067-0.238-3.114-0.238
	c-4.473-0.003-13.416,0-13.416,0l-5.727,5.989l-5.478-5.989H62.476v18.54H79.96l2.889-3.039l2.764-2.927l5.451,5.967h8.655v-6.118
	c0,0,4.46,0,6.67-0.049c1.208-0.1,2.413-0.34,3.519-0.829c0.717-0.34,1.293-0.877,1.82-1.444c0.666-0.842,1.018-1.896,1.094-2.951
	c0.264-1.57-0.088-3.203-0.841-4.598C111.048,93.032,109.528,92.278,107.996,92.002L107.996,92.002z M79.509,104.54l-1.771,1.87
	l-10.804,0.015v-3.667h9.647v-3.832h-9.647v-3.265h10.94l4.887,5.39l-3.254,3.489H79.509z M95.159,104.801v3.731l-0.955-1.093
	l-5.628-6.281l2.323-2.562l4.258-4.586v10.79H95.159z M107.734,99.239c-0.239,0.514-0.806,0.777-1.333,0.94
	c-0.865,0.214-1.77,0.1-2.65,0.126c-1.331-0.025-4.032-0.038-4.032-0.038v-4.622c0,0,3.278,0,4.913-0.013
	c0.552-0.026,1.093,0,1.633,0.051c0.779,0.025,1.533,0.729,1.731,1.469C108.085,97.856,108.138,98.625,107.734,99.239
	L107.734,99.239z M132.68,97.792c0.175-1.218,0.112-2.562-0.579-3.629c-1.042-1.458-3.089-2.339-4.859-2.389
	c-0.63-0.036-1.633-0.012-1.633-0.012h-10.666c-0.025,6.18,0,18.54,0,18.54h4.521v-6.708c0,0,2.174-0.075,3.254-0.051
	c1.27,0.026,2.586-0.1,3.793,0.327c0.932,0.302,1.395,1.281,1.471,2.186c0.075,1.418,0.035,4.245,0.035,4.245h4.487
	c0,0,0.024-3.001,0-4.51c-0.089-0.929-0.177-1.947-0.806-2.688c-0.516-0.652-1.318-0.931-1.947-1.433
	C131.233,100.92,132.466,99.489,132.68,97.792L132.68,97.792z M127.466,98.861c-0.377,0.59-1.094,0.806-1.746,0.854
	c-2.084,0.113-6.254,0.011-6.254,0.011v-4.081h-0.026c0,0,3.19-0.013,4.798-0.013c0.641,0.051,1.3,0.089,1.935,0.189
	c0.685,0.107,1.444,0.479,1.558,1.206C127.795,97.644,127.843,98.333,127.466,98.861L127.466,98.861z"/>
</svg>
