<?xml version="1.0" encoding="utf-8"?>
<!-- Generator: Adobe Illustrator 13.0.2, SVG Export Plug-In . SVG Version: 6.00 Build 14948)  -->
<!DOCTYPE svg PUBLIC "-//W3C//DTD SVG 1.1//EN" "http://www.w3.org/Graphics/SVG/1.1/DTD/svg11.dtd">
<svg version="1.1" id="Layer_1" xmlns="http://www.w3.org/2000/svg" xmlns:xlink="http://www.w3.org/1999/xlink" x="0px" y="0px"
	 width="212.689px" height="170.276px" viewBox="0 0 212.689 170.276" enable-background="new 0 0 212.689 170.276"
	 xml:space="preserve">
<g>
	<g>
		<g>
			<path fill-rule="evenodd" clip-rule="evenodd" d="M14.987,0.525c0.121-0.024,0.344-0.36,0.703-0.36c53.301,0,108.336,0,163.52,0
				c7.926,0,17.59-0.783,22.305,1.069c3.93,1.543,8.633,5.902,10.262,11.319c1.492,4.988,0.707,10.735,0.707,17.701
				c0,35.973,0,73.973,0,110.431c0,6.058,0.66,13.136-0.707,17.34c-1.52,4.651-6.234,9.391-10.262,10.971
				c-4.953,1.94-15.07,1.058-23.012,1.058c-49.035,0-95.543,0-144.402,0c-7.773,0-17.91,0.945-23.012-1.058
				c-3.359-1.318-8.223-5.709-9.902-9.901c-1.652-4.117-1.066-10.821-1.066-17.7c0-36.731,0-74.172,0-110.431
				c0-5.76-0.551-12.825,0.707-17.701C2.757,5.812,8.597,1.49,14.987,0.525z"/>
		</g>
	</g>
</g>
<path fill="#FFFFFF" d="M163.567,93.432c0-0.651,0.475-1.125,1.066-1.125c0.652,0,1.125,0.474,1.125,1.125
	c0,0.593-0.474,1.126-1.125,1.126C164.042,94.558,163.567,94.023,163.567,93.432L163.567,93.432z M164.634,94.261
	c0.475,0,0.889-0.356,0.889-0.829c0-0.474-0.416-0.83-0.889-0.83c-0.416,0-0.83,0.356-0.83,0.83
	C163.804,93.905,164.22,94.261,164.634,94.261L164.634,94.261z M164.515,93.905h-0.236v-0.947h0.414c0.061,0,0.178,0,0.238,0
	c0.118,0.06,0.118,0.179,0.118,0.297c0,0.059-0.058,0.178-0.179,0.237l0.238,0.414h-0.296l-0.12-0.356h-0.178V93.905v-0.533h0.119
	c0.059,0,0.119,0,0.119-0.06c0.06,0,0.06-0.059,0.06-0.118c0,0,0-0.06-0.06-0.06c0-0.06-0.061,0-0.119,0h-0.119V93.905
	L164.515,93.905z M77.538,64.303L66.962,92.832l-1.134-5.797c-2.558-6.923-7.536-13.239-14.962-17.473l9.67,36.537l11.436-0.001
	l17.01-41.795H77.538L77.538,64.303z M86.599,106.117l6.758-41.849h10.813l-6.763,41.849H86.599z M136.604,65.299
	c-2.139-0.848-5.508-1.764-9.682-1.764c-10.692,0-18.205,5.678-18.27,13.802c-0.068,6.03,5.371,9.379,9.465,11.387
	c4.212,2.05,5.622,3.363,5.605,5.195c-0.034,2.793-3.372,4.068-6.476,4.068c-4.315,0-6.617-0.621-10.155-2.194l-1.404-0.654
	l-1.508,9.358c2.523,1.183,7.188,2.181,12.043,2.242c11.347,0,18.722-5.619,18.811-14.304c0.047-4.768-2.84-8.387-9.082-11.374
	c-3.766-1.936-6.104-3.219-6.066-5.187c0.008-1.738,1.957-3.595,6.2-3.595c3.534-0.073,6.075,0.744,8.085,1.606l0.961,0.485
	L136.604,65.299L136.604,65.299z M164.308,64.306h-8.344c-2.591,0-4.527,0.754-5.672,3.473l-16.041,38.344h11.356
	c0,0,1.854-5.152,2.271-6.287c1.243,0,12.26,0.021,13.831,0.021c0.333,1.466,1.321,6.266,1.321,6.266h10.033L164.308,64.306
	L164.308,64.306z M150.985,91.277c0.904-2.398,4.309-11.694,4.309-11.694c-0.068,0.113,0.879-2.428,1.438-3.994l0.72,3.617
	c0,0,2.076,9.982,2.504,12.071C158.276,91.277,153.097,91.277,150.985,91.277L150.985,91.277z M57.152,63.591H39.724l-0.098,0.718
	c13.545,3.46,22.484,11.984,26.201,22.036l-3.779-19.225C61.398,64.459,59.5,63.688,57.152,63.591z"/>
</svg>
