<?xml version="1.0" encoding="utf-8"?>
<!-- Generator: Adobe Illustrator 13.0.2, SVG Export Plug-In . SVG Version: 6.00 Build 14948)  -->
<!DOCTYPE svg PUBLIC "-//W3C//DTD SVG 1.1//EN" "http://www.w3.org/Graphics/SVG/1.1/DTD/svg11.dtd">
<svg version="1.1" id="Layer_1" xmlns="http://www.w3.org/2000/svg" xmlns:xlink="http://www.w3.org/1999/xlink" x="0px" y="0px"
	 width="212.689px" height="170.276px" viewBox="0 0 212.689 170.276" enable-background="new 0 0 212.689 170.276"
	 xml:space="preserve">
<g>
	<g>
		<g>
			<path fill-rule="evenodd" clip-rule="evenodd" d="M14.987,0.525c0.121-0.024,0.344-0.36,0.703-0.36c53.301,0,108.336,0,163.52,0
				c7.926,0,17.59-0.783,22.305,1.069c3.93,1.543,8.633,5.902,10.262,11.319c1.492,4.988,0.707,10.735,0.707,17.701
				c0,35.973,0,73.973,0,110.431c0,6.058,0.66,13.136-0.707,17.34c-1.52,4.651-6.234,9.391-10.262,10.971
				c-4.953,1.94-15.07,1.058-23.012,1.058c-49.035,0-95.543,0-144.402,0c-7.773,0-17.91,0.945-23.012-1.058
				c-3.359-1.318-8.223-5.709-9.902-9.901c-1.652-4.117-1.066-10.821-1.066-17.7c0-36.731,0-74.172,0-110.431
				c0-5.76-0.551-12.825,0.707-17.701C2.757,5.812,8.597,1.49,14.987,0.525z"/>
		</g>
	</g>
</g>
<path fill="#FFFFFF" d="M133.743,40.1c1.783,0,3.566,0,5.35,0c0.117,0.031,0.232,0.078,0.352,0.091
	c1.156,0.125,2.32,0.195,3.467,0.37c9.414,1.437,17.656,5.368,24.418,12.062c11.127,11.021,15.512,24.432,13.186,39.889
	c-1.496,9.954-6.064,18.473-13.426,25.346c-10.488,9.793-22.959,13.715-37.168,11.815c-8.186-1.093-15.459-4.428-21.832-9.692
	c-0.57-0.473-1.127-0.959-1.699-1.445c-0.096,0.071-0.172,0.122-0.238,0.18c-6.846,6.085-14.783,9.807-23.871,11.046
	c-5.037,0.686-10.053,0.527-15.021-0.531c-9.838-2.096-18.084-6.955-24.678-14.541c-6.031-6.939-9.586-15.012-10.701-24.148
	c-0.107-0.875-0.207-1.752-0.311-2.627c0-1.82,0-3.639,0-5.459c0.033-0.154,0.078-0.307,0.1-0.464
	c0.236-1.819,0.365-3.658,0.719-5.454c2.012-10.175,6.924-18.711,14.746-25.52c6.848-5.961,14.812-9.49,23.836-10.604
	c0.875-0.108,1.752-0.209,2.627-0.312c1.818,0,3.639,0,5.457,0c0.098,0.031,0.193,0.079,0.293,0.091
	c1.047,0.113,2.102,0.187,3.143,0.334c8.629,1.221,16.23,4.726,22.881,10.331c0.342,0.288,0.68,0.581,1.018,0.872
	c0.443-0.386,0.836-0.737,1.238-1.076c6.793-5.736,14.598-9.159,23.426-10.24C131.95,40.301,132.847,40.203,133.743,40.1
	L133.743,40.1z M39.69,74.17c-1.262,7.592-2.512,15.119-3.766,22.674c1.502,0,2.965,0,4.447,0c0.963-5.687,1.92-11.341,2.877-16.996
	c0.029,0.005,0.059,0.01,0.088,0.015c0.127,5.662,0.254,11.324,0.383,17.019c0.982,0,1.891-0.023,2.799,0.011
	c0.402,0.016,0.553-0.137,0.682-0.498c1.658-4.69,3.334-9.375,5.008-14.061c0.324-0.913,0.658-1.822,0.986-2.733
	c0.023,0.009,0.045,0.017,0.068,0.024c-0.91,5.732-1.818,11.465-2.73,17.233c1.619,0,3.158,0,4.758,0
	c1.256-7.562,2.51-15.111,3.768-22.681c-0.133-0.018-0.203-0.035-0.273-0.035c-2.293-0.002-4.586,0.008-6.877-0.013
	c-0.371-0.003-0.455,0.188-0.545,0.464c-0.99,3.038-1.986,6.075-2.98,9.112c-0.479,1.458-0.957,2.914-1.436,4.372
	c-0.029-0.006-0.057-0.012-0.086-0.018c-0.078-4.623-0.158-9.246-0.238-13.89C44.294,74.17,42.011,74.17,39.69,74.17L39.69,74.17z
	 M170.87,80.536c-0.084-0.027-0.107-0.028-0.117-0.039c-0.072-0.082-0.141-0.166-0.213-0.249c-1.066-1.251-2.338-2.114-4.047-2.175
	c-2.01-0.07-3.625,0.796-4.873,2.263c-3.051,3.59-3.982,7.774-2.828,12.29c1.191,4.663,6.01,5.984,9.588,2.775
	c0.076-0.069,0.162-0.127,0.305-0.237c-0.068,0.609-0.131,1.14-0.191,1.68c1.535,0,3.016,0,4.518,0
	c1.232-7.57,2.457-15.106,3.689-22.68c-1.629,0-3.168,0-4.756,0c-0.182,1.064-0.359,2.117-0.535,3.17
	c-0.18,1.055-0.355,2.11-0.537,3.202H170.87z M70.796,96.863c0.229-1.639,0.441-3.219,0.672-4.797
	c0.391-2.677,0.883-5.342,1.162-8.03c0.359-3.44-1.512-5.595-4.932-5.965c-2.092-0.226-4.123,0.079-6.154,0.539
	c-0.768,0.173-1.18,0.454-1.244,1.304c-0.078,1.021-0.314,2.031-0.5,3.152c0.35-0.091,0.605-0.148,0.855-0.223
	c1.873-0.56,3.791-0.686,5.719-0.461c1.555,0.182,2.135,1.341,1.504,2.691c-1.104,0-2.174-0.042-3.238,0.011
	c-1.277,0.062-2.51,0.368-3.666,0.941c-3.006,1.489-3.928,4.567-3.453,7.391c0.301,1.781,1.225,3.177,3.049,3.604
	c2.193,0.512,4.225,0.053,5.887-1.58c0.123-0.121,0.199-0.29,0.297-0.438c0.039,0.036,0.078,0.07,0.117,0.104
	c0,0.583,0,1.164,0,1.756C68.194,96.862,69.481,96.862,70.796,96.863L70.796,96.863z M147.274,96.865
	c0.195-1.395,0.377-2.745,0.578-4.092c0.201-1.365,0.445-2.725,0.625-4.094c0.238-1.799,0.551-3.599,0.611-5.405
	c0.096-2.767-1.449-4.55-4.178-5.081c-2.338-0.456-4.623-0.093-6.908,0.434c-0.723,0.167-1.113,0.437-1.178,1.242
	c-0.082,1.04-0.316,2.068-0.492,3.137c0.139,0,0.211,0.012,0.275-0.003c0.141-0.032,0.279-0.075,0.418-0.118
	c1.939-0.623,3.932-0.733,5.932-0.484c1.541,0.192,2.049,1.335,1.363,2.677c-1.086,0-2.139-0.042-3.186,0.011
	c-1.26,0.063-2.473,0.374-3.619,0.926c-3.766,1.817-4.166,6.241-3.098,8.685c0.514,1.178,1.381,2.053,2.648,2.325
	c2.229,0.479,4.26,0.047,5.936-1.606c0.115-0.113,0.227-0.229,0.387-0.393c0,0.685,0,1.258,0,1.841c1.309,0,2.578,0,3.883,0H147.274
	z M108.37,89.24c0.42-1.621,0.639-3.211,0.617-4.839c-0.059-4.445-3.365-7.101-7.834-6.358c-2.617,0.434-4.381,2.107-5.59,4.377
	c-1.402,2.637-1.809,5.48-1.395,8.412c0.529,3.748,2.566,5.785,6.221,6.324c2.041,0.303,4.055,0.067,6.055-0.407
	c0.604-0.143,0.914-0.393,0.912-1.03c0-0.304,0.104-0.608,0.154-0.912c0.152-0.936,0.303-1.871,0.465-2.872
	c-0.215,0.098-0.346,0.162-0.479,0.217c-2.08,0.878-4.23,1.191-6.447,0.666c-1.529-0.361-2.328-1.467-2.336-3.006
	c-0.004-0.459,0.15-0.584,0.6-0.582c2.818,0.019,5.639,0.01,8.457,0.01C107.966,89.241,108.163,89.241,108.37,89.24L108.37,89.24z
	 M135.128,79.703c0.27-1.559,0.541-3.072,0.779-4.592c0.02-0.12-0.156-0.354-0.289-0.4c-0.65-0.232-1.307-0.446-1.973-0.617
	c-4.418-1.133-8.213-0.092-10.969,3.593c-3.012,4.029-3.623,8.66-2.486,13.479c0.734,3.118,2.701,5.222,5.916,5.973
	c2.062,0.481,4.082,0.123,6.08-0.421c0.121-0.032,0.246-0.245,0.273-0.391c0.191-1.055,0.359-2.113,0.533-3.171
	c0.08-0.502,0.158-1.005,0.236-1.503c-1.016,0.32-1.932,0.688-2.883,0.893c-2.85,0.616-5.037-0.853-5.561-3.704
	c-0.375-2.047-0.172-4.061,0.557-6.003c1.455-3.879,4.605-5.253,8.445-3.711C134.222,79.303,134.649,79.497,135.128,79.703
	L135.128,79.703z M85.253,78.455c-0.061-0.052-0.086-0.09-0.115-0.094c-2.18-0.336-4.365-0.587-6.557-0.137
	c-4.008,0.821-6.064,4.999-4.211,8.53c0.676,1.288,1.828,2.035,3.08,2.665c0.52,0.261,1.041,0.517,1.549,0.799
	c0.568,0.314,0.811,0.801,0.721,1.458c-0.086,0.631-0.445,1.041-1.035,1.202c-0.486,0.134-1.004,0.274-1.496,0.238
	c-1.512-0.113-3.02-0.309-4.59-0.479c-0.191,1.161-0.42,2.465-0.607,3.773c-0.014,0.101,0.232,0.32,0.383,0.353
	c2.205,0.46,4.432,0.584,6.666,0.306c1.521-0.189,2.967-0.627,4.027-1.833c2.582-2.933,1.533-7.688-2.049-9.37
	c-0.572-0.271-1.174-0.513-1.686-0.875c-0.287-0.203-0.541-0.606-0.596-0.954c-0.133-0.854,0.338-1.435,1.287-1.554
	c0.822-0.104,1.666-0.076,2.498-0.062c0.682,0.013,1.361,0.094,2.059,0.146C84.813,81.147,85.034,79.791,85.253,78.455
	L85.253,78.455z M92.968,92.734c-0.334,0-0.604,0.001-0.871,0c-0.271-0.002-0.545,0.007-0.816-0.012
	c-0.818-0.055-1.186-0.43-1.211-1.238c-0.006-0.235,0-0.476,0.041-0.706c0.42-2.488,0.855-4.975,1.27-7.465
	c0.055-0.327,0.186-0.417,0.496-0.408c0.67,0.019,1.34,0.005,2.049,0.005c0.207-1.515,0.404-2.982,0.613-4.523
	c-0.84,0-1.627,0-2.463,0c0.18-0.961,0.346-1.847,0.523-2.787c-1.537,0-3.025-0.011-4.512,0.02
	c-0.107,0.002-0.273,0.286-0.305,0.457c-0.764,4.567-1.523,9.135-2.256,13.708c-0.199,1.251-0.439,2.521-0.424,3.778
	c0.033,2.441,1.447,3.74,3.879,3.707c0.738-0.01,1.475-0.18,2.213-0.256c0.871-0.088,1.34-0.462,1.377-1.424
	c0.033-0.949,0.254-1.892,0.395-2.855H92.968z M108.96,96.88c1.551,0,3.055,0.01,4.562-0.017c0.113-0.002,0.303-0.229,0.326-0.374
	c0.314-1.825,0.555-3.665,0.918-5.48c0.373-1.866,0.814-3.723,1.318-5.557c0.328-1.194,1.129-1.934,2.473-1.875
	c0.027,0.001,0.059-0.034,0.068-0.04c0.262-0.905,0.484-1.805,0.787-2.678c0.297-0.866,0.676-1.705,1.035-2.598
	c-2.295-0.311-3.365,1.263-4.525,2.767c0.129-0.86,0.258-1.722,0.389-2.583c-1.506,0-2.932,0-4.357,0
	C110.954,84.602,109.962,90.712,108.96,96.88L108.96,96.88z M158.483,83.608c0.627-1.819,1.234-3.587,1.846-5.359
	c-2.223-0.298-3.281,1.282-4.445,2.758c0.131-0.853,0.258-1.705,0.396-2.603c-0.213-0.017-0.371-0.039-0.529-0.04
	c-1.109-0.003-2.219,0.013-3.328-0.009c-0.389-0.008-0.52,0.113-0.58,0.508c-0.771,4.952-1.566,9.901-2.352,14.853
	c-0.166,1.035-0.32,2.07-0.488,3.164c1.543,0,3.033,0.01,4.52-0.019c0.104-0.002,0.268-0.255,0.295-0.409
	c0.346-2.023,0.623-4.059,1.02-6.071c0.33-1.671,0.738-3.332,1.223-4.964C156.401,84.267,157.155,83.481,158.483,83.608
	L158.483,83.608z M169.745,86.509c-0.064,1.247-0.215,2.476-0.754,3.606c-0.27,0.564-0.617,1.12-1.039,1.577
	c-0.777,0.838-1.777,1.118-2.885,0.781c-1.039-0.315-1.447-1.18-1.607-2.146c-0.297-1.811-0.148-3.598,0.639-5.27
	c0.287-0.608,0.713-1.19,1.195-1.659c1.193-1.156,3.762-1.174,4.248,1.384C169.651,85.352,169.681,85.935,169.745,86.509
	L169.745,86.509z M67.282,88.655c-0.061,1.524-0.387,2.902-1.564,3.94c-0.65,0.572-1.432,0.771-2.279,0.662
	c-0.586-0.075-0.994-0.404-1.207-0.966c-0.438-1.15,0.061-2.572,1.145-3.152C64.597,88.486,65.903,88.465,67.282,88.655
	L67.282,88.655z M143.804,88.657c-0.057,1.458-0.389,2.763-1.436,3.792c-0.627,0.617-1.395,0.891-2.277,0.824
	c-0.805-0.062-1.387-0.588-1.529-1.38c-0.213-1.191,0.342-2.337,1.434-2.843C141.2,88.491,142.472,88.467,143.804,88.657
	L143.804,88.657z M99.175,85.456c0.305-2.34,1.846-3.619,3.598-3.279c1.01,0.196,1.609,0.812,1.723,1.838
	c0.051,0.463,0.008,0.937,0.008,1.441C102.718,85.456,100.948,85.456,99.175,85.456z"/>
</svg>
