<svg xmlns="http://www.w3.org/2000/svg" xmlns:xlink="http://www.w3.org/1999/xlink" version="1.0" id="Layer_1" x="0px" y="0px" width="70.339px" height="100px" viewBox="0 0 70.339 100" enable-background="new 0 0 70.339 100" xml:space="preserve">
<path d="M45.154,35.351c4.024,0,5.842-2.908,5.842-6.811c0-3.905-1.816-7.326-5.842-7.326c-4.023,0-6.064,3.164-6.064,7.067  C39.089,32.186,41.13,35.351,45.154,35.351 M29.721,38.919c1.099-1.361,2.806-2.239,5.227-2.353v-0.043c0-2.323,0-4.756,0-7.996  c0-8.734,5.201-11.446,10.329-11.355c4.988,0.086,9.904,2.732,9.904,11.355v7.996c-0.01,0-0.02,0-0.031,0v0.033  c4.834,0.181,6.891,3.339,6.891,7.387V68c0,0,0,3.174-3.564,3.174l-1.784,0.03v26.72H32.923V47.953c0,0-2.289,2.291-3.359,3.359  c-2.712,2.711-5.619,3.037-8.363,0.295c-3.867-3.868-6.153-6.154-7.175-7.177c-1.963-1.963-2.018-4.363-0.267-6.116  c1.755-1.753,4.043-2.077,6.252,0.133c0.87,0.872,0.967,0.948,5.095,5.078l4.608-4.606H29.721z"/>
<g>
	<path d="M18.325,97.92V2.875c2.484-0.843,12.561-1.782,15.351-1.782c13.794,0,25.903,3.408,30.828,11.504   c-12.034-5.775-32.729-5.284-40.944-2.35v87.674L18.325,97.92z"/>
</g>
</svg>