<?xml version="1.0" encoding="utf-8"?>
<!-- Generator: Adobe Illustrator 15.1.0, SVG Export Plug-In . SVG Version: 6.00 Build 0)  -->
<!DOCTYPE svg PUBLIC "-//W3C//DTD SVG 1.1//EN" "http://www.w3.org/Graphics/SVG/1.1/DTD/svg11.dtd">
<svg version="1.1" id="Layer_1" xmlns="http://www.w3.org/2000/svg" xmlns:xlink="http://www.w3.org/1999/xlink" x="0px" y="0px"
	 width="72px" height="72px" viewBox="0 0 72 72" enable-background="new 0 0 72 72" xml:space="preserve">
<g>
	<polygon points="48.764,66.001 8.577,66.001 8.577,21.085 23.65,21.085 23.65,5.998 48.764,5.998 48.764,12.287 54.323,6.728 
		54.763,6.289 54.763,0 17.651,0 17.651,0.046 2.578,15.086 2.578,72 54.763,72 54.763,45.108 48.764,51.107 	"/>
	<path d="M29.339,40.139l-0.001,0.004l-0.001,0.004h0.001l-5.237,16.115l16.116-5.238h0.002l0.004-0.002V51.02l29.198-29.197
		L58.542,10.943L29.344,40.139H29.339z M38.876,48.836l-10.882,3.533l3.535-10.882L38.876,48.836z"/>
</g>
</svg>
