<?xml version="1.0" encoding="utf-8"?>
<!-- Generator: Adobe Illustrator 16.0.0, SVG Export Plug-In . SVG Version: 6.00 Build 0)  -->
<!DOCTYPE svg PUBLIC "-//W3C//DTD SVG 1.1//EN" "http://www.w3.org/Graphics/SVG/1.1/DTD/svg11.dtd">
<svg version="1.1" id="Layer_1" xmlns="http://www.w3.org/2000/svg" xmlns:xlink="http://www.w3.org/1999/xlink" x="0px" y="0px"
	 width="121.506px" height="97.815px" viewBox="0 0 121.506 97.815" enable-background="new 0 0 121.506 97.815"
	 xml:space="preserve">
<g id="rkQGSr_1_">
	<g>
		<path fill="none" d="M58.459,97.815c2.352-0.062,4.702-0.047,7.058-0.15c5.834-0.262,11.634-0.805,17.384-1.807
			c6.765-1.182,13.33-3.016,19.447-6.225c8.419-4.416,14.489-10.879,17.336-20.094c2.087-6.752,2.241-13.65,1.169-20.576
			c-2.199-14.213-9.062-25.822-20.161-34.841C86.046,2.22,69.186-1.975,50.658,0.845c-14.849,2.26-27.444,9.012-37.198,20.546
			C2.735,34.072-1.829,48.702,0.667,65.25c1.344,8.916,5.588,16.273,12.868,21.738c5.676,4.262,12.162,6.711,19.006,8.305
			C41.066,97.28,49.739,97.805,58.459,97.815z"/>
		<path fill-rule="evenodd" clip-rule="evenodd" d="M58.459,97.815c-8.721-0.01-17.394-0.535-25.919-2.521
			c-6.844-1.594-13.33-4.043-19.006-8.305C6.254,81.524,2.01,74.167,0.667,65.25c-2.495-16.549,2.068-31.178,12.793-43.86
			C23.213,9.856,35.809,3.104,50.658,0.845c18.528-2.819,35.389,1.375,50.034,13.277c11.099,9.02,17.962,20.628,20.161,34.841
			c1.072,6.926,0.918,13.824-1.169,20.576c-2.847,9.215-8.917,15.678-17.336,20.094c-6.117,3.209-12.683,5.043-19.447,6.225
			c-5.75,1.002-11.55,1.545-17.384,1.807C63.162,97.768,60.811,97.752,58.459,97.815z M116.367,56.979
			c0.025-1.906-0.142-3.799-0.364-5.689c-1.29-10.975-5.708-20.552-13.378-28.455C89.516,9.33,73.391,3.791,54.734,5.481
			c-8.071,0.731-15.664,3.126-22.692,7.172c-9.949,5.728-17.509,13.719-22.428,24.133c-3.928,8.316-5.25,17.076-4.196,26.187
			c0.563,4.869,2.06,9.436,4.892,13.502c3.629,5.211,8.669,8.578,14.436,10.959c8.468,3.496,17.41,4.604,26.458,5.012
			c5.376,0.242,10.759,0.186,16.141-0.115c4.96-0.277,9.893-0.758,14.782-1.623c6.152-1.086,12.146-2.717,17.722-5.619
			c5.592-2.91,10.184-6.885,13.116-12.584C115.473,67.627,116.325,62.393,116.367,56.979z"/>
		<path fill-rule="evenodd" clip-rule="evenodd" fill="none" d="M48.291,62.885c-0.326,0.373-0.688,0.432-1.008,0.561
			c-2.987,1.201-5.981,2.387-8.966,3.596c-0.874,0.354-1.129,0.986-0.78,1.77c0.312,0.701,0.933,0.926,1.677,0.623
			c2.477-1.002,4.955-2,7.434-2.996c1.822-0.732,3.646-1.459,5.471-2.189c0.541-0.217,0.973-0.561,1.013-1.174
			c0.043-0.65-0.353-1.076-0.891-1.379c-0.168-0.096-0.344-0.178-0.518-0.262c-3.826-1.852-7.652-3.703-11.479-5.551
			c-0.318-0.152-0.643-0.305-0.979-0.406c-0.717-0.217-1.308,0.014-1.601,0.695c-0.283,0.656-0.121,1.275,0.509,1.691
			c0.294,0.193,0.622,0.338,0.939,0.494C42.14,59.854,45.171,61.348,48.291,62.885z M82.67,69.618
			c0.69-0.096,1.226-0.344,1.423-0.953c0.212-0.656-0.147-1.113-0.72-1.41c-0.229-0.119-0.465-0.223-0.703-0.318
			c-2.781-1.113-5.565-2.217-8.343-3.338c-0.307-0.125-0.823-0.111-0.831-0.52c-0.006-0.316,0.47-0.381,0.749-0.52
			c2.912-1.451,5.831-2.887,8.741-4.344c0.923-0.461,1.271-1.24,0.921-1.938c-0.351-0.699-1.194-0.906-2.099-0.471
			c-4.092,1.971-8.177,3.955-12.268,5.926c-0.582,0.281-1.106,0.629-1.08,1.34c0.028,0.77,0.558,1.166,1.242,1.436
			c4.075,1.605,8.143,3.23,12.214,4.846C82.184,69.459,82.459,69.543,82.67,69.618z M60.876,83.866
			c0.474,0.049,1.075-0.072,1.68-0.176c3.362-0.572,6.263-3.381,6.966-6.734c0.172-0.818-0.129-1.402-0.884-1.711
			c-0.659-0.268-1.386,0.137-1.685,0.904c-0.139,0.359-0.212,0.742-0.331,1.109c-0.911,2.793-3.032,4.133-6.308,3.99
			c-2.791-0.123-4.795-1.799-5.416-4.523c-0.064-0.281-0.139-0.568-0.263-0.826c-0.226-0.467-0.604-0.785-1.141-0.754
			c-0.584,0.031-1.052,0.324-1.284,0.883c-0.182,0.436-0.085,0.885,0.021,1.33C53.181,81.342,56.476,83.868,60.876,83.866z"/>
		<path fill-rule="evenodd" clip-rule="evenodd" d="M48.291,62.885c-3.119-1.537-6.15-3.031-9.18-4.527
			c-0.317-0.156-0.646-0.301-0.939-0.494c-0.63-0.416-0.792-1.035-0.509-1.691c0.293-0.682,0.884-0.912,1.601-0.695
			c0.337,0.102,0.661,0.254,0.979,0.406c3.827,1.848,7.653,3.699,11.479,5.551c0.174,0.084,0.35,0.166,0.518,0.262
			c0.538,0.303,0.934,0.729,0.891,1.379c-0.04,0.613-0.472,0.957-1.013,1.174c-1.824,0.73-3.648,1.457-5.471,2.189
			c-2.479,0.996-4.957,1.994-7.434,2.996c-0.744,0.303-1.365,0.078-1.677-0.623c-0.349-0.783-0.094-1.416,0.78-1.77
			c2.984-1.209,5.979-2.395,8.966-3.596C47.602,63.317,47.964,63.258,48.291,62.885z"/>
		<path fill-rule="evenodd" clip-rule="evenodd" d="M82.67,69.618c-0.211-0.074-0.486-0.158-0.753-0.264
			c-4.071-1.615-8.139-3.24-12.214-4.846c-0.685-0.27-1.214-0.666-1.242-1.436c-0.026-0.711,0.498-1.059,1.08-1.34
			c4.091-1.971,8.176-3.955,12.268-5.926c0.904-0.436,1.748-0.229,2.099,0.471c0.351,0.697,0.002,1.477-0.921,1.938
			c-2.91,1.457-5.829,2.893-8.741,4.344c-0.279,0.139-0.755,0.203-0.749,0.52c0.008,0.408,0.524,0.395,0.831,0.52
			c2.777,1.121,5.562,2.225,8.343,3.338c0.238,0.096,0.475,0.199,0.703,0.318c0.572,0.297,0.932,0.754,0.72,1.41
			C83.896,69.274,83.361,69.522,82.67,69.618z"/>
		<path fill-rule="evenodd" clip-rule="evenodd" d="M60.876,83.866c-4.4,0.002-7.695-2.523-8.644-6.508
			c-0.106-0.445-0.203-0.895-0.021-1.33c0.232-0.559,0.7-0.852,1.284-0.883c0.536-0.031,0.915,0.287,1.141,0.754
			c0.124,0.258,0.198,0.545,0.263,0.826c0.621,2.725,2.625,4.4,5.416,4.523c3.275,0.143,5.396-1.197,6.308-3.99
			c0.119-0.367,0.192-0.75,0.331-1.109c0.299-0.768,1.025-1.172,1.685-0.904c0.755,0.309,1.056,0.893,0.884,1.711
			c-0.703,3.354-3.604,6.162-6.966,6.734C61.952,83.793,61.35,83.915,60.876,83.866z"/>
	</g>
</g>
</svg>
