<?xml version="1.0" encoding="utf-8"?>
<!-- Generator: Adobe Illustrator 16.0.0, SVG Export Plug-In . SVG Version: 6.00 Build 0)  -->
<!DOCTYPE svg PUBLIC "-//W3C//DTD SVG 1.1//EN" "http://www.w3.org/Graphics/SVG/1.1/DTD/svg11.dtd">
<svg version="1.1" id="Layer_1" xmlns="http://www.w3.org/2000/svg" xmlns:xlink="http://www.w3.org/1999/xlink" x="0px" y="0px"
	 width="46.461px" height="31.527px" viewBox="0 0 46.461 31.527" enable-background="new 0 0 46.461 31.527" xml:space="preserve">
<g>
	<g>
		<path d="M41.482,31.529H4.834C2.078,31.529,0,29.388,0,26.55V4.979c0-2.931,2.047-4.978,4.978-4.978h36.505
			c2.931,0,4.978,2.047,4.978,4.978V26.55c0,1.338-0.515,2.59-1.45,3.526C44.073,31.013,42.821,31.529,41.482,31.529z M4.977,1.66
			c-2.016,0-3.318,1.303-3.318,3.319V26.55c0,1.923,1.335,3.318,3.175,3.318h36.648c1.861,0,3.318-1.457,3.318-3.318L44.8,4.979
			c0-2.016-1.302-3.319-3.317-3.319H4.977z"/>
	</g>
	<g>
		<path d="M24.061,19.083c-0.172,0-0.344-0.054-0.491-0.161L1.436,2.685l0.981-1.338L24.041,17.21L44.018,1.366l1.031,1.3
			L24.576,18.904C24.426,19.023,24.243,19.083,24.061,19.083z"/>
	</g>
</g>
</svg>
