<?xml version="1.0" encoding="utf-8"?>
<!-- Generator: Adobe Illustrator 15.1.0, SVG Export Plug-In . SVG Version: 6.00 Build 0)  -->
<!DOCTYPE svg PUBLIC "-//W3C//DTD SVG 1.1//EN" "http://www.w3.org/Graphics/SVG/1.1/DTD/svg11.dtd">
<svg version="1.1" id="Layer_1" xmlns="http://www.w3.org/2000/svg" xmlns:xlink="http://www.w3.org/1999/xlink" x="0px" y="0px"
	 width="72px" height="72px" viewBox="0 0 72 72" enable-background="new 0 0 72 72" xml:space="preserve">
<g>
	<path d="M72.15,56.952c0.147-0.435,0.245-0.891,0.245-1.374V15.602c0-0.458-0.092-0.891-0.225-1.306L48.685,34.403L72.15,56.952z"
		/>
	<path d="M36.395,39.254l6.187-5.034l3.131-2.546l23.584-20.188c-0.387-0.115-0.789-0.197-1.212-0.197H4.708
		c-0.424,0-0.827,0.082-1.215,0.197l23.599,20.2l3.131,2.548L36.395,39.254z"/>
	<path d="M68.084,59.891c0.406,0,0.791-0.074,1.164-0.182l-23.694-22.76l-9.159,7.454l-9.145-7.442L3.546,59.711
		c0.372,0.105,0.757,0.18,1.163,0.18H68.084z"/>
	<path d="M0.622,14.295c-0.134,0.415-0.226,0.848-0.226,1.306v39.977c0,0.483,0.098,0.941,0.247,1.374l23.476-22.539L0.622,14.295z"
		/>
</g>
</svg>
