<?xml version="1.0" encoding="utf-8"?>
<!-- Generator: Adobe Illustrator 15.1.0, SVG Export Plug-In . SVG Version: 6.00 Build 0)  -->
<!DOCTYPE svg PUBLIC "-//W3C//DTD SVG 1.1//EN" "http://www.w3.org/Graphics/SVG/1.1/DTD/svg11.dtd">
<svg version="1.1" id="Layer_1" xmlns="http://www.w3.org/2000/svg" xmlns:xlink="http://www.w3.org/1999/xlink" x="0px" y="0px"
	 width="72px" height="72px" viewBox="0 0 72 72" enable-background="new 0 0 72 72" xml:space="preserve">
<g>
	<g>
		<path fill="#333333" d="M22.056,37.354l2.995,2.99l6.099-6.103l-2.999-2.991c1.16-4.68-0.982-10.936-5.888-15.841
			C15.776,8.921,6.92,7.261,2.487,11.695c-4.438,4.438-2.778,13.29,3.711,19.779C11.109,36.387,17.374,38.524,22.056,37.354z"/>
	</g>
	<g>
		<path fill="#333333" d="M71.098,19.226c-1.203-1.204-3.153-1.204-4.356,0L52.953,33.013c-0.837,0.577-1.814,0.322-2.905-0.771
			c-0.216-0.217-0.477-0.347-0.733-0.486l14.978-14.979c1.203-1.204,1.203-3.154,0-4.357c-1.204-1.203-3.152-1.203-4.355,0
			L45.298,27.058c-0.207-0.012-0.414-0.01-0.621,0.007c-0.12-0.189-0.207-0.396-0.375-0.565c-1.088-1.088-1.349-2.065-0.769-2.905
			L57.322,9.806c1.203-1.204,1.203-3.154,0-4.357s-3.153-1.203-4.356,0L38.881,19.543c-1.868,2.159-3.113,6.826,0.823,11.024
			L11.456,58.815c-1.685,1.686-1.685,4.417,0,6.1c0.842,0.843,1.945,1.267,3.049,1.267c1.105,0,2.208-0.424,3.05-1.267L45.79,36.681
			c2.041,2.003,4.21,2.754,6.169,2.754c2.113,0,3.986-0.857,5.207-1.921l13.933-13.932C72.302,22.381,72.302,20.429,71.098,19.226z"
			/>
	</g>
	<g>
		<path fill="#333333" d="M42.015,45.125l-6.1,6.102L50.883,66.19c0.842,0.843,1.947,1.264,3.052,1.264
			c1.103,0,2.207-0.421,3.047-1.264c1.686-1.685,1.686-4.414,0-6.099L42.015,45.125z"/>
	</g>
</g>
</svg>
