<?xml version="1.0" encoding="utf-8"?>
<!-- Generator: Adobe Illustrator 16.0.0, SVG Export Plug-In . SVG Version: 6.00 Build 0)  -->
<!DOCTYPE svg PUBLIC "-//W3C//DTD SVG 1.1//EN" "http://www.w3.org/Graphics/SVG/1.1/DTD/svg11.dtd">
<svg version="1.1" id="Layer_1" xmlns="http://www.w3.org/2000/svg" xmlns:xlink="http://www.w3.org/1999/xlink" x="0px" y="0px"
	 width="60px" height="60px" viewBox="0 0 60 60" enable-background="new 0 0 60 60" xml:space="preserve">
<g>
	<g>
		<path fill="#010202" d="M30,60C13.458,60,0,46.542,0,30S13.458,0,30,0s30,13.458,30,30S46.542,60,30,60z M30,2
			C14.561,2,2,14.561,2,30s12.561,28,28,28s28-12.561,28-28S45.439,2,30,2z"/>
	</g>
	<g>
		<path fill="#010202" d="M27.479,51.174c-2.17,0-4.783-5.878-4.783-7.304c0-0.866,0.391-1.648,0.736-2.339
			c0.271-0.54,0.525-1.05,0.525-1.444c-0.013-0.455-1.075-1.921-2.229-3.075c-0.188-0.188-0.293-0.441-0.293-0.707
			c0-1.157-0.222-1.953-0.66-2.367c-0.713-0.673-2.271-0.583-3.92-0.49c-0.649,0.037-1.318,0.075-1.986,0.075
			c-3.782,0-4.781-3.954-4.781-6.044c0-0.394,0.081-9.662,7.106-11.067c3.168-0.635,5.388-0.451,6.6,0.542
			c0.486,0.398,0.71,0.839,0.814,1.176c1.413,1.123,3.899,0.546,6.105,0.033c0.77-0.179,1.511-0.351,2.183-0.442
			c0.292-2.506,0.271-4.913-0.053-5.675c-1.579,0.734-3.127,0.769-4.317,0.108c-1.168-0.649-1.894-1.89-2.043-3.495
			c-0.428-4.6,9.751-6.952,11.796-7.377c0.537-0.115,1.069,0.234,1.182,0.775c0.113,0.541-0.234,1.07-0.774,1.183
			c-4.233,0.881-10.406,3.154-10.212,5.233c0.061,0.656,0.289,1.523,1.023,1.932c0.646,0.359,1.587,0.282,2.577-0.212
			c0.901-0.45,1.556-0.141,1.866,0.083c1.616,1.166,1.216,5.837,0.833,8.518c-0.07,0.493-0.492,0.859-0.99,0.859
			c-0.648,0-1.605,0.222-2.618,0.458c-2.684,0.624-6.026,1.4-8.177-0.75c-0.188-0.188-0.293-0.442-0.293-0.707
			c-0.052-0.204-1.089-1.084-5.108-0.28c-5.436,1.087-5.499,9.026-5.499,9.106c0.001,0.163,0.051,4.044,2.781,4.044
			c0.63,0,1.26-0.036,1.872-0.071c2.091-0.12,4.068-0.233,5.408,1.032c0.796,0.752,1.216,1.868,1.278,3.406
			c0.847,0.887,2.53,2.824,2.53,4.197c0,0.866-0.391,1.648-0.736,2.339c-0.271,0.54-0.525,1.05-0.525,1.444
			c0.011,0.933,2.028,4.812,2.879,5.304c4.292-0.026,6.468-1.811,6.468-5.304c0-0.431,0.275-0.812,0.684-0.948
			c0.014-0.005,1.71-0.599,3.393-2.281c0.286-0.286,0.312-0.427,0.312-0.428c-0.034-0.127-0.42-0.463-0.628-0.644
			c-0.551-0.479-1.236-1.076-1.236-2.003c0-0.76,0.586-1.399,2.03-2.902c2.147-2.232,4.16-4.509,3.642-5.957
			c-1.062,0.358-2.889,0.709-4.119-0.521c-0.128-0.128-0.219-0.289-0.263-0.465c-0.484-1.934-1.265-3.882-1.712-4.294
			c-0.42-0.046-0.761-0.277-0.931-0.636c-0.117-0.248-0.242-0.753,0.242-1.344c0.908-1.106,5.151-3.493,9.535-2.59
			c4.291-2.399,5.449-8.504,5.461-8.567c0.1-0.543,0.623-0.901,1.163-0.805c0.543,0.099,0.903,0.62,0.804,1.163
			c-0.055,0.303-1.413,7.446-6.841,10.16c-0.214,0.106-0.461,0.133-0.689,0.076c-2.939-0.735-5.878,0.453-7.206,1.292
			c0.751,0.85,1.43,2.43,2.028,4.727c0.647,0.349,1.895-0.045,2.454-0.319c0.383-0.19,0.849-0.115,1.151,0.188
			c2.878,2.878-0.976,6.885-3.277,9.279c-0.531,0.553-1.175,1.222-1.42,1.569c0.108,0.103,0.344,0.308,0.497,0.44
			c0.54,0.47,1.279,1.113,1.312,2.089c0.022,0.647-0.278,1.288-0.896,1.905c-1.36,1.361-2.729,2.125-3.513,2.49
			C35.728,48.769,32.651,51.174,27.479,51.174z"/>
	</g>
</g>
</svg>
