<svg xmlns="http://www.w3.org/2000/svg" xmlns:xlink="http://www.w3.org/1999/xlink" version="1.1" id="Layer_1" x="0px" y="0px" width="100px" height="100px" viewBox="0 0 100 100" enable-background="new 0 0 100 100" xml:space="preserve">
<g id="Your_Icon">
	<path d="M71.957,20.768c-0.135-0.653-3.463-15.964-21.75-15.964c-18.282,0-21.61,15.312-21.745,15.964l-0.134,0.667l-8.626,0.002   V100h60.596V21.438h-8.207L71.957,20.768z M76.563,51.613H23.438v-25h53.125V51.613z M85.52,16.422V100h-3.553V19.765h-8.545   c-0.908-3.188-5.779-16.634-23.214-16.634c-17.432,0-22.302,13.446-23.214,16.634h-8.96V100h-3.552V16.422h8.773   C23.254,16.422,26.388,0,50,0c23.611,0,27.16,16.422,27.16,16.422H85.52z"/>
</g>
</svg>