<?xml version="1.0" encoding="utf-8"?>
<!-- Generator: Adobe Illustrator 16.0.0, SVG Export Plug-In . SVG Version: 6.00 Build 0)  -->
<!DOCTYPE svg PUBLIC "-//W3C//DTD SVG 1.1//EN" "http://www.w3.org/Graphics/SVG/1.1/DTD/svg11.dtd">
<svg version="1.1" id="Layer_1" xmlns="http://www.w3.org/2000/svg" xmlns:xlink="http://www.w3.org/1999/xlink" x="0px" y="0px"
	 width="52.521px" height="41.39px" viewBox="0 0 52.521 41.39" enable-background="new 0 0 52.521 41.39" xml:space="preserve">
<g id="_x31_DY4fG.tif">
	<g>
		<path fill="#1D1D1B" d="M51.959,15.269c0.145-0.201,0.291-0.402,0.438-0.603c0.08-0.109,0.124-0.242,0.124-0.377v-2.877
			c0-0.105-0.026-0.209-0.076-0.302c-1.249-2.319-2.525-3.266-4.406-3.266c-0.548,0-1.157,0.084-1.859,0.259
			c-0.874,0.214-1.459,0.311-1.898,0.311c-0.854,0-1.309-0.25-2.058-2.646c-0.741-2.374-2.312-3.734-4.308-3.734
			c-1.017,0-2.064,0.356-3.112,1.058c-1.052,0.704-1.865,1.173-2.418,1.173c-0.55,0-1.099-0.496-2.177-1.962
			C29.117,0.816,27.731,0,26.303,0c-1.405,0-2.769,0.794-3.84,2.237c-1.128,1.52-1.666,2.009-2.212,2.009
			c-0.551,0-1.371-0.467-2.518-1.219c-0.986-0.647-2.025-0.989-3.004-0.989c-1.942,0-3.533,1.314-4.255,3.518
			c-0.06,0.186-0.117,0.373-0.174,0.561c-0.098,0.324-0.19,0.63-0.303,0.927C9.56,8.195,8.781,8.611,7.541,8.387
			C7.271,8.338,6.998,8.26,6.708,8.177C6.377,8.082,6.036,7.984,5.675,7.925C5.37,7.875,5.065,7.849,4.768,7.849
			c-2.4,0-4.287,1.637-4.694,4.07c-0.27,1.615,0.201,3.078,1.482,4.605c1.914,2.282,2.021,5.131,0.273,7.259
			c-1.913,2.329-2.065,4.76-0.484,7.652c2.366,4.326,6.521,6.205,9.875,7.357c5.011,1.723,10.098,2.597,15.12,2.597
			c0.001,0,0.001,0,0.002,0c5.017,0,10.075-0.872,15.033-2.593c4.397-1.525,9.637-4.11,11.129-10.623
			c0.012-0.047,0.017-0.096,0.017-0.143v-0.639c0-0.053-0.006-0.104-0.019-0.152c-0.293-1.197-0.83-2.289-1.642-3.338
			c-1.718-2.22-1.675-5.018,0.112-7.303C51.315,16.162,51.643,15.708,51.959,15.269z M14.671,4.628c0.451,0,0.975,0.185,1.555,0.546
			c0.213,0.133,0.42,0.275,0.628,0.417c0.271,0.187,0.555,0.38,0.852,0.556c2.063,1.223,4.05,0.923,5.676-0.845l0.104-0.109
			c0.172-0.181,0.366-0.385,0.501-0.656c0.557-1.118,1.348-1.735,2.229-1.735c0.896,0,1.8,0.629,2.482,1.725
			c1.009,1.621,2.183,2.409,3.59,2.409c0.984,0,2.062-0.398,3.298-1.219c0.104-0.07,0.209-0.142,0.314-0.213
			c0.248-0.168,0.479-0.328,0.722-0.468c0.459-0.268,0.893-0.404,1.288-0.404c0.96,0,1.456,0.824,1.702,1.514
			c0.097,0.267,0.177,0.542,0.261,0.833c0.128,0.437,0.26,0.889,0.452,1.329c0.772,1.764,2.201,2.736,4.023,2.736
			c0.301,0,0.616-0.028,0.934-0.082c0.391-0.067,0.776-0.151,1.15-0.233c0.247-0.055,0.494-0.109,0.742-0.158
			c1.101-0.218,1.947,0.135,2.472,1.043c0.534,0.921,0.466,1.841-0.197,2.736c-3.278,4.416-3.334,7.27-0.231,11.749
			c0.562,0.81,0.687,1.547,0.417,2.461c-1.147,3.889-4.312,5.726-7.562,7.132c-4.989,2.159-10.14,2.926-13.032,2.926l-0.161-0.001
			c-9.743-0.04-15.601-1.223-20.896-4.215c-2.688-1.521-4.27-3.35-4.974-5.754c-0.289-0.988-0.158-1.766,0.436-2.602
			c3.088-4.35,3-7.423-0.332-11.75c-0.683-0.887-0.765-1.673-0.264-2.55c0.47-0.823,1.139-1.224,2.042-1.224
			c0.091,0,0.184,0.004,0.278,0.012c0.131,0.011,0.275,0.041,0.428,0.071l0.133,0.025c1.24,0.239,2.065,0.34,2.759,0.34
			c2.519,0,3.416-1.434,4.475-4.65C13.332,5.198,13.907,4.628,14.671,4.628z"/>
		<path fill="#1D1D1B" d="M10.749,11.536c1.339,3.819,0.457,7.263-0.477,10.909C10.141,22.961,10.009,23.479,9.88,24
			c-0.067,0.279,0.06,0.57,0.309,0.71c0.099,0.055,0.206,0.081,0.313,0.081c0.165,0,0.329-0.064,0.452-0.188
			c1.844-1.847,2.971-4.9,2.94-7.969c-0.024-2.442-0.77-4.492-2.098-5.771c-0.214-0.205-0.54-0.236-0.789-0.078
			C10.759,10.947,10.652,11.257,10.749,11.536z"/>
		<path fill="#1D1D1B" d="M42.763,24.493c0.11,0.077,0.238,0.115,0.366,0.115c0.001,0,0.005,0,0.006,0c0.354,0,0.64-0.286,0.64-0.64
			c0-0.094-0.021-0.184-0.057-0.266l-0.048-0.155c-1.18-3.981-2.294-7.741-0.84-11.945c0.096-0.277-0.009-0.584-0.255-0.744
			c-0.247-0.16-0.57-0.131-0.785,0.068c-1.494,1.394-2.264,3.978-2.057,6.911C39.939,20.782,41.101,23.332,42.763,24.493z"/>
		<path fill="#1D1D1B" d="M19.784,19.927c0.093,0,0.187-0.021,0.274-0.062c1.9-0.903,3.183-3.802,3.611-6.274
			c0.473-2.722,0.037-4.992-1.196-6.229c-0.189-0.191-0.479-0.242-0.725-0.128c-0.244,0.115-0.39,0.371-0.364,0.639
			c0.342,3.589-0.331,7.03-2.185,11.153c-0.108,0.244-0.055,0.531,0.138,0.719C19.459,19.865,19.62,19.927,19.784,19.927z"/>
		<path fill="#1D1D1B" d="M33.212,19.565c0.11,0.077,0.239,0.115,0.366,0.115c0.001-0.001,0.005-0.001,0.006,0
			c0.354,0,0.641-0.286,0.641-0.639c0-0.123-0.035-0.238-0.096-0.335c-1.597-3.631-2.218-7.148-1.956-11.059
			c0.02-0.289-0.158-0.554-0.432-0.647c-0.273-0.093-0.576,0.009-0.737,0.25C28.661,10.747,29.817,17.193,33.212,19.565z"/>
	</g>
</g>
</svg>
