<?xml version="1.0" encoding="utf-8"?>
<!-- Generator: Adobe Illustrator 16.0.0, SVG Export Plug-In . SVG Version: 6.00 Build 0)  -->
<!DOCTYPE svg PUBLIC "-//W3C//DTD SVG 1.1//EN" "http://www.w3.org/Graphics/SVG/1.1/DTD/svg11.dtd">
<svg version="1.1" id="Layer_1" xmlns="http://www.w3.org/2000/svg" xmlns:xlink="http://www.w3.org/1999/xlink" x="0px" y="0px"
	 width="72px" height="72px" viewBox="0 0 72 72" enable-background="new 0 0 72 72" xml:space="preserve">
<path d="M70.474-0.456H1.98c-0.992,0-1.801,0.81-1.801,1.801v68.496c0,0.991,0.81,1.801,1.801,1.801h68.494
	c0.991,0,1.802-0.81,1.802-1.801V1.345C72.275,0.354,71.465-0.456,70.474-0.456z M63.738,3.149h0.839
	c-3.13,1.838-6.562,3.877-10.265,6.093l0.076-0.428c2.678-1.606,5.271-3.168,7.63-4.609C62.617,3.839,63.169,3.499,63.738,3.149z
	 M60.857,3.149c-2.664,1.622-5.565,3.369-8.561,5.163l-1.432-0.255c-0.202-0.037-0.593-0.091-1.089-0.154
	c2.743-1.653,5.419-3.259,7.938-4.754H60.857z M41.119,60.45c-3.18,0-6.35,0-9.521,0c0-8.613,0-17.232,0-25.846
	c-3.209-0.032-3.347-0.032-5.157-0.053c0-0.725,0.041-4.943,0.041-7.331c0.458,0,0.851,0,1.203,0c1.209,0,2.001-0.006,3.867-0.044
	c0.029-1.737,0.047-7.105,0.047-8.232c0.241-1.312-0.373-7.742,9.164-8.094c4.523,0.121,8.66,0.613,9.476,0.754
	c-0.229,1.297-0.862,5.178-1.203,7.563c-1.537-0.275-2.881-0.589-4.042-0.589c-1.649,0-2.922,0.627-3.873,2.86
	c-0.07,1.845-0.041,3.784-0.047,5.694c0.81,0.044,1.655,0.05,2.506,0.05c1.05,0,2.112-0.015,3.162-0.015
	c0.856,0,1.701,0.012,2.518,0.053c-0.341,4.67-0.399,5.325-0.581,7.208c-3.021,0.05-4.266,0.032-7.558,0.044
	C41.049,43.018,41.154,51.78,41.119,60.45z M26.415,23.618l-2.365-0.006c1.307-0.804,2.621-1.612,3.934-2.419
	c-0.001,0.477-0.003,0.979-0.004,1.506C27.455,23.007,26.938,23.31,26.415,23.618z M51.041,23.191
	c-0.258,0.155-0.525,0.313-0.786,0.471l-0.815-0.041c-0.117-0.006-0.258-0.009-0.382-0.015c0.335-0.195,0.678-0.397,1.007-0.591
	L51.041,23.191z M47.8,22.604c-0.543,0.32-1.08,0.637-1.629,0.959c-0.346,0.003-0.692,0.006-1.038,0.007
	c-0.152,0.003-0.3,0.003-0.452,0.003c0-0.129,0.003-0.252,0.006-0.381c0.487-0.296,0.975-0.593,1.461-0.886
	c0.396,0.064,0.827,0.144,1.273,0.229C47.544,22.559,47.673,22.581,47.8,22.604z M44.704,38.321c0.146-0.085,0.288-0.17,0.435-0.256
	c0.114,0,0.231,0,0.349,0c-0.255,0.153-0.524,0.314-0.783,0.47C44.704,38.465,44.704,38.392,44.704,38.321z M48.465,38.036
	c0.098,0,0.177,0,0.276-0.003l2.942-0.047c-2.279,1.37-4.608,2.77-6.974,4.184c-0.003-0.631-0.003-1.253-0.003-1.88
	C45.975,39.526,47.228,38.778,48.465,38.036z M54.778,3.149c-2.35,1.402-4.863,2.919-7.463,4.488
	c-0.1-0.009-0.214-0.018-0.317-0.026c2.553-1.524,5.049-3.019,7.449-4.462H54.778z M51.511,3.149
	c-2.317,1.392-4.703,2.818-7.123,4.26c-0.792-0.05-1.637-0.091-2.503-0.124c2.298-1.405,4.568-2.788,6.786-4.136H51.511z
	 M45.784,3.149c-2.285,1.394-4.659,2.844-7.073,4.321c-1.32,0.167-2.541,0.437-3.626,0.845c2.937-1.76,5.829-3.497,8.602-5.166
	H45.784z M3.784,3.149H7.3c-1.158,0.71-2.334,1.43-3.516,2.153V3.149z M3.784,7.063c1.708-1.044,3.413-2.086,5.207-3.186
	c0.397-0.244,0.792-0.484,1.19-0.728H11.8c-2.664,1.64-5.332,3.283-8.016,4.93V7.063z M3.784,9.841
	c3.563-2.186,7.218-4.434,10.884-6.691h2.978c-1.364,0.833-2.797,1.71-4.321,2.643l-0.12,0.07c-3.097,1.894-6.26,3.824-9.42,5.753
	V9.841z M3.784,13.379c3.02-1.841,6.372-3.89,10.321-6.307c2.126-1.3,4.275-2.613,6.42-3.922h1.753
	c-6.181,3.707-12.509,7.475-18.42,10.992l-0.059,0.035c-0.004,0.003-0.01,0.006-0.015,0.009V13.379z M3.784,15.934
	c0.261-0.155,0.525-0.312,0.783-0.466c6.941-4.127,13.979-8.32,20.635-12.318h0.872c-4.015,2.456-8.343,5.11-13.082,8.018
	c-2.919,1.791-6.047,3.709-9.208,5.647V15.934z M3.784,18.575c3.444-2.109,6.865-4.206,10.019-6.14
	c5.044-3.098,10.137-6.22,15.154-9.285h2.783C22.811,8.49,13.355,14.083,4.608,19.255c-0.28,0.166-0.548,0.324-0.824,0.487V18.575z
	 M3.784,21.491c0.531-0.314,1.065-0.631,1.59-0.942c9.944-5.879,20.056-11.861,29.3-17.399h0.678
	c-6.671,4.044-14.325,8.716-23.324,14.222l-0.085,0.05C9.25,19.07,6.515,20.74,3.784,22.409V21.491z M3.784,24.169
	c2.912-1.778,5.891-3.597,9.027-5.515C21.379,13.411,30.089,8.088,38.25,3.149h2.518c-8.247,4.964-17.175,10.284-25.979,15.528
	c-3.676,2.191-7.346,4.381-11.004,6.564V24.169z M3.784,26.991c3.936-2.35,7.886-4.707,11.782-7.026
	c5.349-3.186,10.727-6.391,15.966-9.524c-0.469,0.425-0.949,0.842-1.331,1.351c-0.351,0.466-0.597,0.938-0.839,1.408
	c-2.595,1.593-5.216,3.204-7.883,4.843C15.636,21.64,9.698,25.282,3.784,28.898V26.991z M3.784,30.661
	c6.101-3.729,12.387-7.586,18.508-11.353c2.052-1.262,4.112-2.529,6.168-3.793c-0.136,0.549-0.227,1.05-0.284,1.498
	c-3.817,2.249-7.619,4.489-11.311,6.661c-4.352,2.561-8.752,5.148-13.081,7.701V30.661z M3.784,33.12
	c4.607-2.719,9.257-5.458,13.841-8.156c3.45-2.028,6.915-4.067,10.365-6.101v0.09c0,0.104,0,0.302-0.001,0.481
	c-3.717,2.282-7.513,4.618-11.446,7.038c-4.045,2.491-8.395,5.167-12.758,7.844V33.12z M3.784,36.074
	c4.487-2.751,9.063-5.565,13.544-8.326c1.828-1.125,3.688-2.271,5.551-3.416v1.358c-1.477,0.867-2.978,1.749-4.433,2.601
	l-0.138,0.082c-4.821,2.825-9.71,5.694-14.524,8.525V36.074z M3.784,38.644c5.25-3.092,10.536-6.191,15.437-9.065
	c1.217-0.713,2.436-1.43,3.657-2.146c0,0.271,0,0.559-0.001,0.863c-1.325,0.808-2.631,1.604-3.99,2.433
	c-4.999,3.048-10.079,6.146-15.103,9.2V38.644z M3.784,41.686c4.81-2.922,10.01-6.09,15.892-9.678
	c1.046-0.64,2.123-1.294,3.189-1.943c-0.004,0.51-0.007,1.013-0.012,1.502c-6.371,3.749-12.81,7.544-19.069,11.246V41.686z
	 M3.784,44.561c6.425-3.805,12.94-7.645,19.056-11.243c-0.004,0.569-0.007,1.044-0.007,1.233v0.222
	c-1.265,0.774-2.523,1.544-3.834,2.348l-0.073,0.053c-5.015,3.071-10.108,6.188-15.141,9.262V44.561z M3.784,48.193
	c5.273-3.216,10.696-6.537,16.003-9.79c1.005-0.616,2.027-1.241,3.045-1.866v0.689c-6.344,3.711-12.754,7.467-19.048,11.163V48.193z
	 M3.784,50.135c6.816-4.01,13.705-8.041,20.476-11.998l2.034,0.021c-3.68,2.238-7.456,4.538-11.423,6.958
	c-3.66,2.232-7.377,4.494-11.086,6.754V50.135z M3.784,53.626c3.794-2.309,7.711-4.693,11.881-7.24
	c4.047-2.467,8.187-4.99,12.324-7.507v2.288c-0.04-0.152-0.107-0.285-0.138-0.443c-3.783,2.25-7.563,4.497-11.269,6.697
	c-4.367,2.594-8.624,5.126-12.799,7.61V53.626z M3.784,56.782c4.418-2.628,8.856-5.271,13.234-7.876l0.378-0.224
	c3.527-2.098,7.068-4.201,10.593-6.299v1.086c-2.434,1.487-4.904,2.995-7.466,4.564l-0.329,0.2
	c-5.429,3.323-10.954,6.703-16.411,10.03V56.782z M3.784,60.019c5.79-3.523,11.734-7.158,17.523-10.702
	c2.194-1.341,4.444-2.72,6.683-4.087v1.183c-3.209,1.884-6.426,3.767-9.57,5.609c-4.639,2.717-9.641,5.65-14.636,8.584V60.019z
	 M3.784,62.351c5.069-2.978,10.186-5.976,15.211-8.924l0.305-0.179c2.891-1.693,5.794-3.395,8.689-5.094v0.473
	c-5.795,3.515-11.924,7.243-18.429,11.207l-0.419,0.255c-1.79,1.092-3.573,2.177-5.357,3.263V62.351z M3.784,65.105
	c2.114-1.285,4.267-2.597,6.557-3.99c5.671-3.452,11.655-7.096,17.649-10.73v1.757c-0.415,0.246-0.834,0.496-1.247,0.742
	c-7.735,4.603-15.559,9.268-22.959,13.712V65.105z M4.292,68.036c7.515-4.509,15.441-9.229,23.22-13.861l0.091-0.053
	c0.129-0.076,0.258-0.152,0.387-0.232v1.617c-6.708,4.098-13.743,8.393-20.581,12.529H4.292z M10.3,68.036
	c5.363-3.25,11.24-6.832,17.69-10.767v0.634c-5.757,3.427-11.481,6.842-16.967,10.133H10.3z M13.94,68.036
	c4.663-2.796,9.395-5.618,14.049-8.391v0.805v0.639c-3.729,2.26-7.605,4.601-11.493,6.947H13.94z M19.393,68.036
	c2.849-1.719,5.725-3.456,8.597-5.192v1.197c-2.197,1.337-4.419,2.689-6.549,3.995H19.393z M24.317,68.036
	c2.159-1.32,4.349-2.652,6.532-3.98h0.75h1.921c-2.188,1.328-4.38,2.663-6.554,3.98H24.317z M29.854,68.036
	c2.098-1.273,4.286-2.603,6.554-3.98h1.995c-2.163,1.328-4.328,2.657-6.479,3.98H29.854z M34.789,68.036
	c2.196-1.353,4.36-2.679,6.484-3.98h2.689c-0.581,0.354-1.138,0.695-1.733,1.059c-1.552,0.947-3.175,1.937-4.785,2.922H34.789z
	 M68.673,68.036h-4.627c1.702-1.117,3.248-2.139,4.627-3.054V68.036z M68.673,63.181c-2.307,1.537-4.803,3.184-7.355,4.855h-2.153
	c3.383-2.042,6.616-3.978,9.509-5.677V63.181z M68.673,60.611c-3.271,1.915-7.373,4.374-12.407,7.425h-1.733
	c5.063-3.171,9.951-6.249,14.141-8.93V60.611z M68.673,57.316c-5.017,3.219-11.008,6.988-16.969,10.72h-1.558
	c6.557-3.998,13.119-7.977,18.526-11.171V57.316z M68.673,55.116c-5.111,3.01-12.093,7.237-21.416,12.92h-1.793
	c8.104-5.014,16.355-10.124,23.209-14.466V55.116z M68.673,51.783c-7.364,4.677-16.271,10.192-24.526,15.303l-0.07,0.044
	c-0.504,0.313-0.974,0.604-1.464,0.906h-2.291c0.889-0.543,1.758-1.07,2.682-1.637c8.66-5.287,17.995-10.983,25.67-15.555V51.783z
	 M68.673,49.094c-5.892,3.503-13.686,8.234-23.966,14.507l0.009-1.66c8.857-5.431,17.174-10.544,23.957-14.815V49.094z
	 M68.673,45.342c-6.944,4.383-15.602,9.71-23.951,14.832c0.003-0.387,0-0.78,0.003-1.17c8.476-5.149,17.036-10.327,23.948-14.396
	V45.342z M68.673,42.871c-5.862,3.441-13.697,8.158-23.945,14.378c0-0.543,0-1.082,0-1.625c8.907-5.404,17.25-10.477,23.945-14.651
	V42.871z M68.673,39.192c-6.865,4.301-15.534,9.575-23.945,14.677c0-0.381-0.003-0.754-0.003-1.132
	c8.802-5.305,17.253-10.356,23.948-14.249V39.192z M68.673,36.75c-5.809,3.366-13.636,8.028-23.954,14.241
	c-0.003-0.434-0.003-0.871-0.003-1.302c8.866-5.281,17.121-10.225,23.957-14.415V36.75z M68.673,33.5
	c-6.956,4.273-15.399,9.342-23.963,14.447c0-0.29,0-0.59,0-0.883c8.575-5.225,16.992-10.322,23.963-14.442V33.5z M68.673,30.864
	c-6.363,3.756-14.41,8.619-23.963,14.439c0-0.46,0-0.918,0-1.381c8.159-4.876,15.877-9.521,22.149-13.384
	c0.646-0.397,1.209-0.75,1.813-1.122V30.864z M68.673,27.643c-4.823,2.992-10.559,6.473-16.693,10.165l0.188-1.976
	c6.107-3.633,11.746-6.937,16.505-9.645V27.643z M68.673,24.461c-4.533,2.558-10.01,5.757-16.332,9.513
	c0.006-0.063,0.012-0.126,0.018-0.188c4.518-2.687,8.783-5.246,12.576-7.554c1.341-0.815,2.559-1.563,3.738-2.291V24.461z
	 M68.673,22.171c-4.691,2.896-10.195,6.215-16.159,9.769c0.041-0.474,0.082-1.02,0.132-1.71c5.87-3.537,11.333-6.79,16.027-9.522
	V22.171z M68.673,18.977c-4.457,2.579-9.784,5.743-15.889,9.418c0.021-0.285,0.041-0.552,0.064-0.873
	c4.124-2.488,8.044-4.864,11.582-7.035c1.531-0.942,2.91-1.797,4.242-2.624V18.977z M68.673,16.094
	c-4.58,2.849-9.916,6.104-15.689,9.591l0.135-1.88l-0.182-0.009c5.779-3.456,11.118-6.611,15.736-9.273V16.094z M68.673,12.8
	c-4.601,2.642-10.121,5.898-16.47,9.694l0.114-0.809c5.395-3.186,10.417-6.172,14.8-8.823c0.552-0.334,1.036-0.631,1.556-0.946V12.8
	z M68.673,10.155c-4.662,2.838-10.14,6.106-16.083,9.624l0.012-0.101c0.064-0.427,0.135-0.905,0.209-1.396
	c5.823-3.504,11.221-6.708,15.862-9.394V10.155z M68.673,7.154c-4.38,2.52-9.591,5.605-15.563,9.196
	c0.053-0.342,0.108-0.679,0.161-1.009c5.352-3.193,10.38-6.215,14.739-8.891c0.229-0.139,0.439-0.27,0.663-0.406V7.154z
	 M68.673,4.27c-4.489,2.767-9.611,5.86-15.088,9.132c0.079-0.487,0.149-0.899,0.196-1.167l0.185-1.034
	c4.896-2.932,9.479-5.65,13.592-8.051h1.115V4.27z"/>
</svg>
