<?xml version="1.0" encoding="utf-8"?>
<!-- Generator: Adobe Illustrator 16.0.0, SVG Export Plug-In . SVG Version: 6.00 Build 0)  -->
<!DOCTYPE svg PUBLIC "-//W3C//DTD SVG 1.1//EN" "http://www.w3.org/Graphics/SVG/1.1/DTD/svg11.dtd">
<svg version="1.1" id="Layer_1" xmlns="http://www.w3.org/2000/svg" xmlns:xlink="http://www.w3.org/1999/xlink" x="0px" y="0px"
	 width="72px" height="72px" viewBox="0 0 72 72" enable-background="new 0 0 72 72" xml:space="preserve">
<path d="M68.572-0.002H3.431C1.541-0.002,0,1.539,0,3.426v65.148c0,1.887,1.541,3.428,3.431,3.428h65.142
	c1.898,0,3.428-1.541,3.428-3.428V3.426C72,1.539,70.471-0.002,68.572-0.002z M65.943,3.426c-7.148,4.368-15.681,9.449-24.47,14.644
	c-0.451-0.308-0.853-0.655-1.312-0.954c8.115-4.928,15.941-9.643,22.791-13.69H65.943z M28.957,52.891
	c0.24-0.138,0.467-0.278,0.669-0.416c0.473,0.911,0.857,1.854,1.167,2.827c-0.117,0.073-0.229,0.138-0.347,0.211
	c-0.5,0.302-1.025,0.621-1.531,0.926c0.028-0.155,0.088-0.316,0.107-0.472C29.149,54.897,29.124,53.878,28.957,52.891z
	 M28.614,51.528c-0.176-0.548-0.39-1.09-0.664-1.62c-0.145-0.278-0.315-0.533-0.48-0.791c0.542,0.674,1.02,1.427,1.484,2.197
	C28.84,51.382,28.727,51.452,28.614,51.528z M27.901,59.351c0.151-0.284,0.243-0.565,0.366-0.847
	c0.981-0.592,1.961-1.187,2.94-1.775c0.076,0.328,0.13,0.668,0.19,1.005c-1.383,0.841-2.767,1.682-4.125,2.512
	C27.479,59.942,27.727,59.679,27.901,59.351z M27.646,44.312C23.843,40.89,19,38.552,12.305,38.37
	c0.035-3.094-0.076-6.357,0.056-9.399c1.02,0,2.552,0.038,3.63,0.173c4.131,0.492,7.72,1.688,10.881,3.282
	c3.167,1.6,5.839,3.554,8.231,5.944c4.043,4.043,7.331,9.309,8.766,16.023c0.152,0.715,0.352,1.436,0.428,2.229
	c0.141,1.368,0.334,3.12,0.346,4.601c-1.541,0.026-3.135,0.038-4.729,0.038s-3.188-0.012-4.729-0.038
	c-0.059-4.475-1.182-8.028-2.826-10.97C31.044,47.904,29.474,45.956,27.646,44.312z M24.904,51.484
	c0.589,1.14,0.908,2.417,0.712,4.084c-0.091,0.768-0.407,1.547-0.744,2.171c-0.947,1.781-2.798,3.288-5.224,3.511
	c-0.229,0.023-0.445,0.032-0.656,0.032c-1.995,0-3.557-0.861-4.571-1.8c-1.16-1.066-1.989-2.596-2.115-4.544
	c-0.146-2.139,0.809-3.87,1.857-4.942c1.031-1.055,2.4-1.957,4.454-2.057c0.126-0.006,0.246-0.006,0.375-0.006
	C21.862,47.934,23.89,49.524,24.904,51.484z M19.057,44.506c0.12-0.07,0.242-0.144,0.362-0.214l0.354-0.217
	c0.224-0.135,0.45-0.268,0.674-0.402c0.362,0.167,0.721,0.346,1.072,0.537c-0.249,0.152-0.501,0.308-0.75,0.46
	C20.211,44.573,19.643,44.512,19.057,44.506z M22.665,45.183c0.086-0.053,0.174-0.105,0.259-0.158
	c0.316,0.211,0.615,0.469,0.923,0.7C23.466,45.52,23.074,45.338,22.665,45.183z M39.698,33.454
	c-2.748-2.678-5.929-5.107-9.626-6.941c-1.846-0.917-3.75-1.805-5.854-2.429c-1.061-0.314-2.119-0.651-3.229-0.915
	c-1.392-0.331-2.924-0.601-4.485-0.712c-0.246-0.018-0.495-0.1-0.742-0.117c-1.107-0.073-2.25-0.117-3.428-0.144
	c-0.05-3.141-0.05-6.484,0-9.627c0-0.05,0.021-0.073,0.056-0.085c1.969,0.047,3.923,0.149,5.801,0.346
	c0.146,0.015,0.316,0.094,0.457,0.111c0.035,0.006,0.073,0.006,0.097,0.006c0.1,0,0.19-0.012,0.281-0.012
	c0.041,0,0.07,0.003,0.105,0.006c0.129,0.018,0.24,0.1,0.369,0.114c4.893,0.683,9.255,2.06,13.146,3.888
	c1.954,0.917,3.811,1.857,5.539,2.971c6.867,4.418,12.545,10.114,16.601,17.4c1.022,1.831,1.998,3.727,2.742,5.736
	c0.264,0.577,0.516,1.158,0.686,1.829c0.492,1.187,0.867,2.481,1.195,3.829c1.002,3.656,1.688,7.854,1.629,12.54
	c-0.504,0-1.014,0-1.518,0c-1.447,0-2.897,0.009-4.339,0.009c-1.28,0-2.546-0.009-3.798-0.035
	c-0.062-7.448-1.975-13.287-4.603-18.283C44.86,39.275,42.394,36.105,39.698,33.454z M60.16,3.426
	c-6.22,3.69-13.369,7.997-21.388,12.868c-0.152-0.088-0.302-0.174-0.451-0.261C45.988,11.517,53.24,7.209,59.48,3.426H60.16z
	 M56.703,3.426c-6.051,3.65-12.804,7.66-19.812,11.788c-0.507-0.265-0.968-0.48-1.454-0.716c6.346-3.889,12.528-7.65,18.242-11.072
	H56.703z M50.907,3.426C45.733,6.539,40.05,9.999,33.915,13.758c-0.142-0.066-0.29-0.119-0.434-0.185
	c5.939-3.501,11.705-6.919,17.104-10.147H50.907z M47.781,3.426c-5.153,3.075-10.532,6.263-15.94,9.452
	c-0.422-0.173-0.839-0.359-1.267-0.52c4.94-3.037,9.827-6.034,14.576-8.932H47.781z M42.417,3.426
	c-4.351,2.66-8.898,5.45-13.595,8.335c-0.513-0.17-1.018-0.36-1.537-0.514c4.469-2.666,8.85-5.286,13.069-7.821H42.417z
	 M37.571,3.426c-3.991,2.395-8.081,4.84-12.229,7.316c-0.498-0.126-0.989-0.275-1.493-0.385c3.844-2.349,7.646-4.665,11.378-6.931
	H37.571z M32.473,3.426c-3.323,2.02-6.888,4.195-10.734,6.544c-0.252-0.044-0.502-0.098-0.756-0.138
	c3.661-2.171,7.254-4.309,10.767-6.406H32.473z M28.957,3.426c-3.372,2.01-6.764,4.022-10.158,6.036
	c-0.085-0.015-0.161-0.034-0.256-0.044c-0.538-0.056-1.116-0.091-1.677-0.135c3.176-1.949,6.371-3.907,9.556-5.857H28.957z
	 M23.685,3.426C21.114,5,18.461,6.626,15.581,8.395c-0.385,0.237-0.813,0.498-1.206,0.74c-0.365-0.016-0.728-0.034-1.107-0.045
	c3.195-1.903,6.358-3.792,9.488-5.664H23.685z M3.431,3.426h2.395C5.03,3.912,4.233,4.4,3.431,4.891V3.426z M3.431,6.563
	c1.671-1.021,3.382-2.067,5.132-3.138h1.567C8.056,4.7,5.978,5.978,3.914,7.243L3.431,7.541V6.563z M3.431,9.214l1.228-0.754
	c2.646-1.624,5.416-3.323,8.199-5.034h2.804c-4.018,2.458-8.127,4.965-12.23,7.464V9.214z M3.431,12.567
	c3.696-2.25,7.909-4.823,13.214-8.069c0.582-0.356,1.169-0.715,1.753-1.072h1.572c-4.43,2.648-8.866,5.294-13.073,7.799
	l-0.056,0.029c-1.16,0.691-2.281,1.358-3.41,2.03V12.567z M3.431,14.949c1.386-0.825,2.776-1.652,4.14-2.467
	c0.494-0.294,0.989-0.589,1.484-0.883c-0.082,0.286-0.136,0.582-0.144,0.888c-1.805,1.107-3.645,2.232-5.48,3.356V14.949z
	 M3.431,17.519c1.822-1.113,3.65-2.233,5.46-3.342c-0.004,0.385-0.006,0.771-0.009,1.159c-0.42,0.249-0.852,0.504-1.268,0.75
	c-1.422,0.841-2.798,1.654-4.184,2.473V17.519z M3.431,20.221c1.642-0.973,3.289-1.947,4.908-2.905
	c0.177-0.104,0.356-0.209,0.532-0.315c0,0.281,0,0.554,0,0.833c-1.812,1.107-3.625,2.215-5.439,3.321V20.221z M3.431,22.832
	c1.774-1.083,3.587-2.188,5.451-3.327c0.003,0.573,0.006,1.147,0.012,1.712c-1.82,1.112-3.641,2.224-5.463,3.336V22.832z
	 M3.431,26.228c1.783-1.087,3.606-2.199,5.48-3.343l0.018,1.09c-1.839,1.124-3.671,2.243-5.498,3.356V26.228z M3.431,29.008
	c1.852-1.131,3.741-2.287,5.639-3.447h0.006l-0.032,0.743c-1.884,1.11-3.765,2.219-5.612,3.311V29.008z M3.431,31.278
	c1.833-1.084,3.688-2.178,5.541-3.27l-0.035,0.813c-0.004,0.097,0,0.196-0.003,0.294c-1.832,1.124-3.666,2.249-5.502,3.373V31.278z
	 M3.431,34.166c1.809-1.107,3.628-2.221,5.483-3.361c-0.004,0.28-0.006,0.558-0.009,0.839c-1.837,1.08-3.667,2.155-5.475,3.22
	V34.166z M3.431,36.529c1.811-1.068,3.631-2.141,5.457-3.213c0,0.396-0.015,0.792-0.013,1.185c-1.823,1.109-3.642,2.215-5.444,3.309
	V36.529z M3.431,39.486c1.752-1.063,3.567-2.168,5.441-3.308c0.001,0.369,0.001,0.734,0,1.102c-1.83,1.081-3.651,2.159-5.441,3.223
	V39.486z M3.431,42.167c1.797-1.066,3.614-2.142,5.434-3.22l-0.022,1.761c-1.812,1.104-3.62,2.209-5.412,3.303V42.167z
	 M3.431,45.675c2.114-1.286,4.282-2.608,6.46-3.938l0.42,0.012c-2.311,1.354-4.61,2.705-6.881,4.041V45.675z M3.431,47.453
	c3.146-1.854,6.314-3.716,9.496-5.582c0.732,0.038,1.438,0.117,2.13,0.217c-3.858,2.356-7.75,4.724-11.625,7.079V47.453z
	 M3.431,50.846c4.308-2.622,8.86-5.394,13.688-8.342c0.574,0.144,1.15,0.287,1.698,0.478c-1.847,1.1-3.655,2.175-5.472,3.253
	c-0.051,0.035-0.107,0.059-0.158,0.094c-3.315,1.972-6.576,3.911-9.756,5.807V50.846z M3.431,53.805
	c2.222-1.327,4.452-2.654,6.689-3.987c-0.322,0.589-0.583,1.201-0.779,1.837c-1.979,1.21-3.954,2.414-5.91,3.604V53.805z
	 M3.431,56.925c1.813-1.104,3.664-2.229,5.519-3.36c-0.021,0.208-0.019,0.416-0.026,0.624c-1.833,1.075-3.666,2.15-5.492,3.226
	V56.925z M3.431,59.072c1.841-1.084,3.696-2.174,5.554-3.264c0.035,0.275,0.075,0.551,0.13,0.82
	c-1.899,1.154-3.796,2.309-5.684,3.46V59.072z M3.431,61.763c1.964-1.195,3.998-2.433,6.099-3.713
	c0.142,0.393,0.287,0.782,0.476,1.151c-2.236,1.337-4.427,2.652-6.575,3.947V61.763z M3.431,64.818
	c2.386-1.438,4.82-2.897,7.304-4.386c0.296,0.416,0.64,0.794,0.999,1.163c-2.82,1.708-5.595,3.384-8.303,5.013V64.818z
	 M3.431,68.574v-0.302c2.933-1.761,6.066-3.65,9.425-5.689c0.101,0.079,0.199,0.158,0.302,0.231
	c-3.315,1.992-6.496,3.914-9.526,5.76H3.431z M6.385,68.574c2.652-1.608,5.374-3.252,8.174-4.934
	c0.476,0.234,0.962,0.428,1.467,0.583c-2.454,1.477-4.858,2.924-7.241,4.351H6.385z M11.56,68.574
	c2.133-1.28,4.315-2.593,6.56-3.946c0.292,0.026,0.577,0.082,0.872,0.082c0.322,0,0.647-0.015,0.976-0.041
	c0.05-0.006,0.095-0.026,0.145-0.032c-2.209,1.359-4.317,2.669-6.352,3.938H11.56z M16.464,68.574
	c4.765-2.956,9.932-6.12,15.16-9.303c0.05,0.483,0.083,0.979,0.103,1.48c-4.434,2.692-8.807,5.341-12.935,7.822H16.464z
	 M21.562,68.574c3.11-1.875,6.535-3.949,10.213-6.182l0.015,1.201c-2.763,1.699-5.446,3.36-8.059,4.98H21.562z M26.445,68.574
	c2.117-1.312,4.248-2.628,6.406-3.955l2.288,0.035c0.047,0,0.094,0,0.141,0c-2.152,1.312-4.3,2.616-6.449,3.92H26.445z
	 M31.582,68.574c2.025-1.23,4.154-2.525,6.411-3.899c0.645,0.006,1.271,0.015,1.922,0.015c0.097,0,0.188-0.003,0.281-0.003
	c-2.262,1.403-4.343,2.698-6.255,3.888H31.582z M36.646,68.574c2.127-1.321,4.219-2.619,6.302-3.908
	c0.554-0.003,1.128-0.003,1.673-0.012c-2.139,1.307-4.283,2.613-6.434,3.92H36.646z M40.94,68.574
	c1.43-0.87,2.941-1.793,4.594-2.801c0.624-0.384,1.269-0.776,1.901-1.163l0.659-0.009v-0.015l0.923,0.018
	c-0.056,0.035-0.111,0.07-0.167,0.105c-2.244,1.406-4.271,2.678-6.164,3.864H40.94z M45.376,68.574
	c1.377-0.864,2.763-1.731,4.125-2.584l0.108-0.07c0.671-0.419,1.342-0.841,2.013-1.263c0.481,0.009,0.968,0.018,1.501,0.021
	c-1.99,1.21-4.12,2.508-6.394,3.896H45.376z M52.215,68.574h-2.737c2.124-1.298,4.237-2.581,6.388-3.888
	c0.501-0.003,1.002-0.003,1.497-0.003c0.272,0,0.548,0,0.823-0.003c-1.488,0.973-2.959,1.931-4.38,2.856
	C53.243,67.903,52.736,68.234,52.215,68.574z M56.844,68.574h-2.016c2.174-1.415,4.148-2.704,5.965-3.891c0.076,0,0.149,0,0.223,0
	l2.25,0.015c-1.658,0.999-3.381,2.039-5.227,3.155C57.644,68.091,57.239,68.334,56.844,68.574z M68.569,68.574h-0.381
	c0.132-0.088,0.252-0.167,0.381-0.252V68.574z M68.569,66.614c-1,0.659-1.987,1.31-2.978,1.96h-1.503
	c1.614-1.061,3.105-2.042,4.48-2.95V66.614z M68.569,63.919c-2.365,1.559-4.738,3.12-7.076,4.655h-1.89
	c2.947-1.778,5.985-3.612,8.966-5.399V63.919z M68.569,61.508c-1.302,0.782-2.685,1.611-4.135,2.487l0.023-1.717
	c1.515-0.996,2.874-1.896,4.111-2.72V61.508z M68.569,57.839c-1.319,0.882-2.685,1.79-4.114,2.731
	c-0.003-0.349-0.018-0.698-0.029-1.05c1.453-0.864,2.83-1.682,4.144-2.452V57.839z M68.569,55.398
	c-1.27,0.741-2.649,1.556-4.185,2.476c-0.023-0.39-0.076-0.779-0.111-1.172c1.506-0.952,2.933-1.86,4.296-2.736V55.398z
	 M68.569,52.267c-1.41,0.905-2.89,1.849-4.445,2.836c-0.023-0.193-0.032-0.387-0.059-0.58c1.579-0.946,3.079-1.837,4.504-2.681
	V52.267z M68.569,50.178c-1.425,0.841-3.007,1.778-4.753,2.827c-0.064-0.396-0.12-0.791-0.193-1.184
	c1.72-1.078,3.366-2.118,4.946-3.12V50.178z M68.569,47.002c-1.683,1.069-3.429,2.174-5.254,3.319
	c-0.067-0.308-0.144-0.615-0.22-0.926c1.904-1.146,3.727-2.238,5.474-3.278V47.002z M68.569,44.447
	c-1.753,1.043-3.692,2.209-5.816,3.486c-0.009-0.026-0.012-0.056-0.021-0.082c-0.123-0.504-0.252-0.938-0.381-1.392
	c2.188-1.359,4.271-2.661,6.218-3.889V44.447z M68.569,40.878c-2.075,1.31-4.313,2.71-6.657,4.167
	c-0.085-0.255-0.173-0.507-0.264-0.75c2.438-1.46,4.767-2.846,6.921-4.114V40.878z M68.569,38.531
	c-2.163,1.271-4.642,2.745-7.39,4.392c-0.158-0.425-0.322-0.826-0.486-1.178c-0.015-0.044-0.035-0.079-0.053-0.123
	c2.833-1.734,5.502-3.384,7.929-4.899V38.531z M68.569,35.029c-2.603,1.629-5.477,3.406-8.503,5.266
	c-0.108-0.246-0.211-0.492-0.322-0.732c3.173-1.887,6.149-3.643,8.825-5.2V35.029z M68.569,32.711
	c-2.67,1.547-5.808,3.394-9.417,5.539c-0.164-0.331-0.325-0.618-0.492-0.935c3.542-2.131,6.876-4.15,9.909-6.012V32.711z
	 M68.569,29.619c-3.235,1.989-6.81,4.156-10.577,6.427c-0.07-0.125-0.146-0.278-0.211-0.4c-0.059-0.103-0.135-0.192-0.19-0.293
	c3.914-2.363,7.62-4.584,10.979-6.572V29.619z M68.569,27.108c-3.414,2.017-7.346,4.374-11.755,7.039
	c-0.182-0.305-0.387-0.596-0.574-0.895c3.809-2.299,7.403-4.479,10.576-6.434c0.612-0.378,1.184-0.732,1.753-1.085V27.108z
	 M68.569,24.042c-3.856,2.392-8.31,5.105-13.108,8.001c-0.278-0.415-0.519-0.856-0.809-1.262c5.139-3.048,9.855-5.804,13.917-8.119
	V24.042z M68.572,21.021c-4.141,2.339-9.086,5.226-14.79,8.611c-0.032-0.041-0.067-0.078-0.1-0.119
	c4.052-2.414,7.89-4.717,11.306-6.797c1.286-0.782,2.458-1.501,3.584-2.194V21.021z M68.572,18.84
	c-4.583,2.827-9.959,6.071-15.824,9.563c-0.281-0.346-0.568-0.687-0.862-1.025c6.159-3.715,11.837-7.104,16.687-9.923V18.84z
	 M68.572,15.801c-4.841,2.801-10.732,6.31-17.615,10.467c-0.155-0.17-0.284-0.359-0.442-0.529c5.034-3.025,9.786-5.902,13.993-8.485
	c1.477-0.907,2.795-1.726,4.064-2.517V15.801z M68.572,13.055c-5.436,3.383-11.975,7.358-19.101,11.642
	c-0.381-0.384-0.803-0.736-1.195-1.109c7.562-4.55,14.526-8.687,20.296-12.015V13.055z M68.572,9.926
	c-5.734,3.29-12.912,7.55-21.383,12.654c-0.173-0.155-0.331-0.319-0.507-0.473c7.565-4.443,14.562-8.584,20.374-12.103
	c0.533-0.322,1.018-0.618,1.516-0.921V9.926z M68.572,7.41c-6.376,3.882-14.348,8.608-22.982,13.684
	c-0.275-0.229-0.583-0.432-0.861-0.655c8.881-5.396,17.184-10.375,23.844-14.229V7.41z M68.572,4.561
	c-6.508,3.743-14.954,8.806-25.095,14.969c-0.243-0.183-0.498-0.362-0.744-0.543c9.294-5.491,18.106-10.738,25.173-15.08
	c0.232-0.142,0.446-0.274,0.666-0.41V4.561z"/>
</svg>
