<?xml version="1.0" encoding="utf-8"?>
<!-- Generator: Adobe Illustrator 16.0.0, SVG Export Plug-In . SVG Version: 6.00 Build 0)  -->
<!DOCTYPE svg PUBLIC "-//W3C//DTD SVG 1.1//EN" "http://www.w3.org/Graphics/SVG/1.1/DTD/svg11.dtd">
<svg version="1.1" id="Layer_1" xmlns="http://www.w3.org/2000/svg" xmlns:xlink="http://www.w3.org/1999/xlink" x="0px" y="0px"
	 width="72px" height="72px" viewBox="0 0 72 72" enable-background="new 0 0 72 72" xml:space="preserve">
<path opacity="0.8" fill-rule="evenodd" clip-rule="evenodd" d="M64.177,18.318c4.041-2.895,2.896-3.039,7.203-3.826
	c-1.482-2.864,1.955-6.301,0-8.249c-2.551,0.092-5.591-0.58-9.517,0.107c-4.904,0.573-11.22,1.344-13.344,5.247
	c-0.168,3.017-2.604,6.103-3.688,8.554c-1.191,2.658-1.153,7.172-3.468,8.952c-0.55,4.231-2.017,9.233-3.452,13.84
	c-0.733,2.299,0.656,1.42-1.466,3.276c-1.619-6.508-4.857-11.006-6.599-19.057c-1.475-6.866-3.621-15.153-8.318-18.965
	C17.748,5.136,4.855,6.174,0.616,6.014c-1.947,1.955,1.49,5.4,0,8.256c3.2,1.948,4.881,2.948,9.448,3.91
	c6.24,12.381,10.15,24.159,15.321,36.922c0.489,0.42,0.955,0.855,1.421,1.306c0.786,3.063,3.398,5.484,3.972,8.058
	c1.085,0.733,2.353,1.215,3.704,1.566c2.039-0.481,6.3-0.291,8.333-0.757c1.932-5.499,3.834-7.645,6.041-12.885
	c0.939-0.442,1.734-3.482,2.437-4.132c1.207-5.98,5.209-11.953,6.859-17.536c2.749-2.888,2.101-6.546,4.116-10.104
	c0.191-0.345,1.261-1.314,1.505-1.696C63.91,18.716,64.032,18.502,64.177,18.318z M10.996,9.062
	c-0.152,0.565-0.824,0.68-0.932,1.298C8.88,10.192,10.034,8.68,10.996,9.062z M4.855,13.407c0.405-1.084,1.298-1.718,1.428-3.047
	c2.04,0.306-0.206,3.101,0.939,3.475C6.413,15.363,6.458,12.59,4.855,13.407z M11.469,16.012c-1.451,0.329-0.901-1.191-2.353-0.862
	c0.58-0.925,1.299-1.704,1.879-2.612C12.065,12.857,11.194,14.966,11.469,16.012z M13.364,10.36c1.16,0.955,2.917,1.367,3.299,3.047
	c-1.527-0.718-1.879,0.413-2.825,1.299C12.752,14.103,13.654,11.689,13.364,10.36z M13.837,19.052
	c0.412-1.207,1.741-1.573,1.886-3.04c2.086-0.053,0.42,2.261,0,2.604c0.688,3.56,2.444,6.148,3.308,9.562
	C15.953,26.063,16.48,20.365,13.837,19.052z M23.27,28.606c-0.933-0.68-1.742-2.795-2.36-4.354
	c-0.978-2.421-1.673-4.491-1.879-6.942C21.276,20.305,22.315,24.413,23.27,28.606z M26.577,40.331
	c-0.13,0.886-1.765,0.412-1.887,1.306c-1.756-3.314-2.757-7.316-4.72-10.426C23.506,33.021,23.812,37.811,26.577,40.331z
	 M24.69,42.5c0.817,0.397,1.643,0.81,1.413,2.177C25.171,44.363,24.843,43.516,24.69,42.5z M26.103,45.112
	c1.611,0.832,1.879,2.917,2.842,4.33C27.204,48.74,26.944,46.654,26.103,45.112z M30.35,53.361c-1.131-0.551-0.939-2.322-1.879-3.04
	C29.716,49.061,30.472,51.917,30.35,53.361z M33.191,52.047c0.703,0.375,1.009,1.101,0.932,2.185
	C33.428,53.857,33.115,53.132,33.191,52.047z M36.017,56.836c-1.13-0.168,0.268,1.971-1.421,1.299v-2.162
	c1.521,0.649,1.673,0.13,3.315,0C37.85,57.569,37.224,57.058,36.017,56.836z M63.131,9.894c0.092,0.764-0.42,1.26-1.054,1.711
	c-0.084-0.588-0.199-1.222-0.573-2.108c0.573,0.03,1.123,0.038,1.329-0.275C62.978,9.405,63.101,9.627,63.131,9.894z M45.457,41.209
	c-1.222-0.749,0.924-2.031,0.474-3.482C47.214,38.521,45.671,40.346,45.457,41.209z M45.931,33.815
	c-0.107-2.856,2.933-6.568,4.246-9.562C50.398,27.225,47.122,30.715,45.931,33.815z M51.124,33.388
	c-1.039-2.131,1.695-4.514,2.353-6.522C54.088,28.592,51.308,30.937,51.124,33.388z M54.432,22.52
	c-0.413,0.084,1.642-4.759,2.353-6.508C58.594,17.409,55.348,20.831,54.432,22.52z M54.432,13.835
	c0.695-0.634,1.367-1.283,2.085-1.894c0.008,0.008,0.016,0.023,0.016,0.039c0.214-0.153,0.442-0.291,0.672-0.436
	c0.366-0.291,0.748-0.573,1.123-0.863c0.45-0.244,0.939-0.466,1.474-0.642c0.13-0.152,0.229-0.206,0.29-0.106
	c-0.106,0.022-0.184,0.076-0.29,0.106C59.075,10.948,57.272,15.401,54.432,13.835z"/>
</svg>
