<?xml version="1.0" encoding="utf-8"?>
<!-- Generator: Adobe Illustrator 16.0.0, SVG Export Plug-In . SVG Version: 6.00 Build 0)  -->
<!DOCTYPE svg PUBLIC "-//W3C//DTD SVG 1.1//EN" "http://www.w3.org/Graphics/SVG/1.1/DTD/svg11.dtd">
<svg version="1.1" id="Layer_1" xmlns="http://www.w3.org/2000/svg" xmlns:xlink="http://www.w3.org/1999/xlink" x="0px" y="0px"
	 width="72px" height="72px" viewBox="0 0 72 72" enable-background="new 0 0 72 72" xml:space="preserve">
<path d="M68.569,0H3.431C1.541,0,0,1.541,0,3.428v65.145C0,70.459,1.541,72,3.431,72h65.139C70.459,72,72,70.459,72,68.572V3.428
	C72,1.541,70.459,0,68.569,0z M66.448,3.428c-8.754,5.377-19.939,12.016-31.16,18.633c-0.006-0.542-0.018-1.084-0.073-1.627
	C45.334,14.276,55.271,8.273,63.51,3.428H66.448z M40.245,39.721c1.017-0.006,2.007-0.009,2.991-0.009
	c-1.576,0.94-3.158,1.887-4.746,2.833c-0.132-0.003-0.264-0.009-0.393-0.012c-0.697-0.018-1.746-0.05-2.098-0.158
	c-0.023-0.012-0.038-0.044-0.059-0.059C37.383,41.446,38.821,40.579,40.245,39.721z M35.358,41.004
	c-0.062-0.366-0.108-0.776-0.132-1.274c0.205,0,0.419,0,0.633,0c0.536,0,1.075-0.003,1.614-0.003
	C36.771,40.151,36.073,40.57,35.358,41.004z M46.09,39.671c0.891-0.029,1.778-0.105,2.634-0.305
	c-1.685,1.022-3.425,2.08-5.218,3.173c-0.416,0.009-0.838,0.021-1.254,0.021c-0.337,0-0.674,0.003-1.008,0.006
	C42.876,41.593,44.493,40.626,46.09,39.671z M48.044,36.021c-0.958,0.243-2.15,0.261-3.319,0.261c-0.199,0-0.398,0-0.598,0
	c-2.643,0-5.484,0.018-8.268,0.018c-1.389,0-2.771-0.003-4.099-0.018c-0.021,4.494-0.126,7.904,2.868,9.234
	c0.99,0.445,2.566,0.41,4.125,0.472c0.369,0.015,0.747,0.018,1.134,0.018c0.771,0,1.576-0.018,2.364-0.018
	c0.984,0,1.98-0.041,2.938-0.041c1.371,0,2.634,0.088,3.583,0.51c1.6,0.718,3.193,2.634,2.716,5.429
	c-0.062,0.352-0.185,0.785-0.366,1.148c-0.267,0.524-0.832,1.315-1.254,1.72c-1.225,1.181-3.562,1.321-5.912,1.321
	c-0.732,0-1.474-0.015-2.177-0.015c-1.075,0-2.106,0.015-3.073,0.015c-1.576,0-3.023-0.041-4.389-0.278
	c-4.582-0.779-7.594-3.129-9.656-5.997c-1.049-1.459-1.98-3.267-2.449-5.379c-0.457-2.039-0.422-4.802-0.422-7.412
	c0-2.473,0-5.124,0-7.825c0-2.663-0.164-5.42-0.05-7.772c0.097-2.054,1.327-3.896,2.974-4.646c0.709-0.325,1.447-0.472,2.174-0.472
	c2.109,0,4.063,1.269,4.661,3.132c0.612,1.887,0.155,4.418,0.366,6.838c0.478,0.003,0.961,0.006,1.453,0.006
	c2.748,0,5.689-0.076,8.555-0.076c0.674,0,1.336,0.006,1.992,0.015c0.164,0.003,0.325,0.006,0.486,0.006
	c0.366,0,0.738-0.006,1.104-0.006c0.794,0,1.562,0.021,2.218,0.158c1.518,0.316,2.81,1.421,3.34,2.61
	C52.471,32.08,50.681,35.347,48.044,36.021z M60.706,3.428c-7.239,4.279-15.958,9.541-25.781,15.513
	c-0.041-0.171-0.044-0.343-0.097-0.513c9.214-5.423,18-10.629,25.172-15H60.706z M57.234,3.428
	c-6.853,4.153-14.792,8.859-22.975,13.676c-0.217-0.396-0.472-0.766-0.753-1.118c7.242-4.44,14.323-8.748,20.704-12.558H57.234z
	 M51.437,3.428c-5.675,3.404-12.041,7.279-18.952,11.514c-0.103-0.088-0.208-0.173-0.313-0.256
	c6.621-3.905,13.046-7.714,18.955-11.257H51.437z M48.334,3.428c-5.604,3.353-11.54,6.869-17.505,10.389
	c-0.407-0.208-0.832-0.388-1.271-0.532c5.467-3.36,10.896-6.688,16.099-9.857H48.334z M42.911,3.428
	c-4.901,2.991-10.093,6.174-15.463,9.478c-0.188-0.013-0.369-0.044-0.56-0.044c-0.826,0-1.623,0.157-2.399,0.382
	c5.631-3.357,11.168-6.669,16.4-9.816H42.911z M3.431,3.428h2.897C5.367,4.017,4.403,4.607,3.431,5.203V3.428z M3.431,6.875
	C5.265,5.755,7.14,4.608,9.067,3.428h1.556C8.227,4.901,5.824,6.376,3.431,7.844V6.875z M3.431,9.524
	c3.199-1.966,6.56-4.028,9.923-6.097h2.81c-0.577,0.353-1.11,0.68-1.72,1.052l-0.114,0.07c-3.58,2.188-7.242,4.422-10.898,6.652
	V9.524z M3.431,12.877c3.349-2.041,7.146-4.356,11.757-7.179c1.23-0.753,2.473-1.512,3.712-2.271h1.623
	c-5.095,3.048-10.239,6.114-15.079,8.997l-0.059,0.026c-0.665,0.397-1.307,0.779-1.954,1.165V12.877z M3.431,15.283
	c0.899-0.536,1.799-1.074,2.687-1.601c5.76-3.428,11.575-6.892,17.18-10.254h0.882c-3.152,1.931-6.448,3.951-10.052,6.164
	c-3.378,2.073-7.025,4.311-10.696,6.56V15.283z M3.431,17.821c3.932-2.405,7.872-4.821,11.461-7.025
	c3.993-2.449,8.024-4.922,12.023-7.368h2.596c-7.758,4.629-15.838,9.41-23.358,13.857c-0.926,0.548-1.819,1.077-2.722,1.61V17.821z
	 M3.431,20.558c1.154-0.684,2.314-1.37,3.454-2.045c8.584-5.076,17.3-10.232,25.421-15.085h0.68
	c-5.78,3.511-12.261,7.466-19.778,12.064l-0.079,0.05c-3.202,1.957-6.451,3.943-9.697,5.927V20.558z M3.431,23.143
	c3.366-2.054,6.85-4.179,10.523-6.429c7.304-4.469,14.725-9.007,21.779-13.286h2.385c-7.154,4.298-14.774,8.839-22.28,13.31
	c-4.148,2.47-8.291,4.942-12.407,7.399V23.143z M3.431,25.802c4.386-2.619,8.798-5.251,13.14-7.84
	c1.456-0.867,2.915-1.737,4.377-2.607C20.194,16.11,19.603,17.007,19.16,18c-5.218,3.208-10.482,6.437-15.729,9.64V25.802z
	 M3.431,29.322c4.939-3.018,10.037-6.145,15.103-9.259c-0.067,0.372-0.185,0.729-0.205,1.113c-0.173,0.101-0.349,0.205-0.519,0.305
	c-4.787,2.818-9.653,5.681-14.379,8.47V29.322z M3.431,31.613c4.925-2.909,9.935-5.858,14.859-8.755
	c-0.003,0.275-0.018,0.538-0.015,0.816c-0.258,0.158-0.513,0.316-0.773,0.476c-4.447,2.736-9.275,5.707-14.071,8.65V31.613z
	 M3.431,34.471c4.872-2.987,9.917-6.088,14.821-9.108c0.018-0.01,0.032-0.021,0.05-0.031c0.006,0.3,0.009,0.602,0.015,0.901
	c0.003,0.073,0.003,0.149,0.003,0.224c-4.954,2.911-9.979,5.858-14.889,8.748V34.471z M3.431,36.863
	c5.027-2.962,10.125-5.952,14.918-8.762c0.003,0.311,0.015,0.623,0.015,0.929c-4.963,3.028-9.987,6.092-14.933,9.097V36.863z
	 M3.431,39.803c4.515-2.745,9.437-5.745,14.936-9.101v1.318c-5.036,2.965-10.061,5.925-14.936,8.814V39.803z M3.431,42.495
	c4.969-2.947,10.014-5.923,14.936-8.818v1.503c-4.963,3.044-9.99,6.12-14.936,9.141V42.495z M3.431,45.987
	c4.884-2.974,9.94-6.067,14.936-9.13v0.15v0.366c-5.013,2.93-10.025,5.865-14.936,8.751V45.987z M3.431,47.795
	c4.957-2.918,9.949-5.848,14.938-8.766c0,0.448,0.012,0.891,0.021,1.336c-0.823,0.504-1.638,0.999-2.479,1.512
	c-4.122,2.514-8.309,5.065-12.48,7.605V47.795z M3.431,51.155C7.62,48.606,12,45.938,16.67,43.09c0.592-0.36,1.192-0.727,1.79-1.09
	c0.029,0.492,0.064,0.981,0.12,1.456c-0.346,0.205-0.694,0.41-1.037,0.615c-4.828,2.868-9.536,5.666-14.112,8.391V51.155z
	 M3.431,54.132c4.837-2.886,9.718-5.789,14.528-8.646l0.357-0.211c0.17-0.103,0.343-0.202,0.513-0.305
	c0.012,0.064,0.018,0.138,0.032,0.202c0.064,0.278,0.155,0.548,0.231,0.823c-5.203,3.188-10.471,6.41-15.662,9.571V54.132z
	 M3.431,57.237c5.285-3.217,10.74-6.548,16.113-9.835c0.091,0.243,0.188,0.486,0.287,0.727c-0.182,0.105-0.366,0.214-0.545,0.319
	c-5.01,2.938-10.465,6.135-15.855,9.302V57.237z M3.431,59.414c5.455-3.205,10.972-6.442,16.403-9.627l0.293-0.176
	c0.105-0.062,0.211-0.123,0.319-0.188c0.082,0.158,0.158,0.319,0.243,0.475c-3.185,1.937-6.425,3.908-9.826,5.979l-0.401,0.243
	c-2.35,1.43-4.693,2.856-7.031,4.28V59.414z M3.431,62.071c2.613-1.588,5.314-3.231,8.177-4.978
	c3.185-1.939,6.492-3.952,9.826-5.979c0.149,0.229,0.284,0.463,0.445,0.686c0.111,0.155,0.252,0.27,0.366,0.422
	C15.85,56.033,9.457,59.845,3.431,63.466V62.071z M3.431,65.139c6.349-3.82,13.049-7.819,19.767-11.821
	c0.311,0.349,0.592,0.738,0.92,1.058c-6.902,4.21-13.975,8.508-20.687,12.545V65.139z M3.472,68.572
	c6.316-3.8,13.559-8.2,21.817-13.239c0.132,0.108,0.27,0.211,0.404,0.316c-7.494,4.462-14.883,8.877-21.557,12.923H3.472z
	 M6.896,68.572c6.413-3.879,13.28-7.983,20.007-11.988c0.39,0.246,0.823,0.425,1.233,0.642c-6.094,3.686-12.586,7.611-18.806,11.347
	H6.896z M12.094,68.572c5.622-3.381,11.622-7.005,17.569-10.6c0.378,0.155,0.759,0.296,1.148,0.428
	c-5.81,3.53-11.476,6.993-16.597,10.172H12.094z M16.942,68.572c5.019-3.103,10.409-6.393,15.785-9.662
	c0.343,0.079,0.656,0.208,1.008,0.27c0.311,0.053,0.618,0.062,0.929,0.1c-5.2,3.161-10.412,6.325-15.34,9.293H16.942z
	 M22.087,68.572c4.456-2.692,9.463-5.728,15.012-9.105c0.542,0.018,1.087,0.038,1.608,0.038c0.073,0,0.149,0,0.223,0
	c-4.986,3.059-9.99,6.132-14.736,9.067H22.087z M26.921,68.572c4.939-3.053,10.014-6.167,14.771-9.085c0.029,0,0.059,0,0.088,0
	c0.337,0,0.683,0.003,1.034,0.009c0.378,0.003,0.756,0.006,1.143,0.006c0.088,0,0.182-0.003,0.272-0.003
	c-0.768,0.469-1.503,0.917-2.3,1.403c-4.025,2.461-8.317,5.08-12.58,7.67H26.921z M68.566,68.572h-4.11
	c1.482-0.976,2.839-1.869,4.11-2.71V68.572z M68.566,64.151c-2.209,1.462-4.465,2.944-6.715,4.421h-1.717
	c2.821-1.705,5.672-3.419,8.432-5.074V64.151z M68.566,61.834c-3.231,1.934-6.964,4.181-11.2,6.738h-2.162
	c5.736-3.735,10.084-6.595,13.362-8.786V61.834z M68.566,58.066c-4.746,3.193-10.69,7.063-15.981,10.506h-2.607
	c6.568-4.002,13.342-8.104,18.589-11.159V58.066z M68.566,55.746c-4.787,2.777-11.71,6.958-21.337,12.826h-1.4
	c0.741-0.466,1.485-0.932,2.215-1.389l0.105-0.067c7.251-4.535,14.713-9.205,20.417-12.882V55.746z M68.566,52.535
	c-5.974,3.858-13.857,8.795-21.176,13.368c-1.506,0.943-2.912,1.825-4.257,2.669h-1.696c0.85-0.519,1.705-1.04,2.631-1.605
	c8.499-5.188,17.687-10.793,24.498-14.792V52.535z M68.566,50.522c-5.531,3.231-13.617,8.13-25.254,15.234
	c-1.529,0.935-3.073,1.875-4.614,2.815h-1.585c2.49-1.544,4.972-3.079,7.33-4.541c8.484-5.253,17.186-10.638,24.123-15.053V50.522z
	 M68.566,47.276C61.31,51.911,52.16,57.577,43.758,62.774l-0.064,0.044c-3.463,2.142-6.513,4.031-9.284,5.754h-2.314
	c3.258-1.983,6.747-4.11,10.579-6.451c1.5-0.917,3.026-1.849,4.559-2.783c1.852-0.231,3.642-0.791,5.016-2.109
	c0.483-0.466,0.979-1.137,1.412-1.808c5.3-3.223,10.447-6.331,14.906-8.977V47.276z M68.566,44.777
	c-3.697,2.188-8.238,4.925-13.852,8.335c0.059-0.243,0.123-0.495,0.146-0.647c0.067-0.393,0.079-0.765,0.097-1.137
	c5.004-3.085,9.63-5.959,13.608-8.479V44.777z M68.566,41.15c-4.011,2.546-8.701,5.467-13.67,8.537
	c-0.041-0.311-0.105-0.606-0.179-0.899c5.048-3.044,9.788-5.874,13.849-8.256V41.15z M68.566,38.874
	c-3.773,2.2-8.511,5.027-14.332,8.537c-0.19-0.413-0.407-0.803-0.653-1.169c5.563-3.393,10.708-6.545,14.985-9.234V38.874z
	 M68.566,35.307c-4.562,2.875-10.078,6.268-15.896,9.816c-0.211-0.22-0.428-0.431-0.659-0.624c6.19-3.703,11.883-7.078,16.556-9.781
	V35.307z M68.569,33.069c-4.462,2.565-10.327,6.037-17.862,10.551c-0.176-0.097-0.352-0.208-0.533-0.29
	c-0.208-0.094-0.428-0.149-0.642-0.223c7.058-4.219,13.588-8.147,19.037-11.5V33.069z M68.569,29.922
	c-6.021,3.716-13.406,8.158-21.038,12.719c-0.434-0.053-0.864-0.085-1.286-0.1c8.095-4.931,15.943-9.671,22.324-13.428V29.922z
	 M68.569,27.45c-4.356,2.558-9.645,5.732-15.773,9.444c0.521-0.583,0.993-1.217,1.345-1.948c0.021-0.044,0.026-0.094,0.047-0.138
	c4.037-2.435,7.822-4.731,11.171-6.794c1.157-0.713,2.203-1.364,3.211-1.989V27.45z M68.569,24.334
	c-3.961,2.473-8.64,5.332-13.755,8.421c0.108-0.601,0.158-1.206,0.138-1.818c5.08-3.003,9.697-5.687,13.617-7.897V24.334z
	 M68.569,21.401c-3.826,2.139-8.443,4.813-13.781,7.967c-0.012-0.053-0.038-0.103-0.053-0.155c3.108-1.857,6.103-3.655,8.798-5.295
	c1.857-1.131,3.489-2.139,5.036-3.1V21.401z M68.569,19.135c-4.113,2.555-8.962,5.495-14.294,8.682
	c-0.035-0.085-0.047-0.174-0.085-0.258c-0.146-0.322-0.369-0.611-0.562-0.911c5.546-3.334,10.623-6.346,14.941-8.842V19.135z
	 M68.569,16.163c-4.345,2.496-9.645,5.634-15.823,9.352c-0.161-0.171-0.325-0.338-0.501-0.497c3.847-2.319,7.509-4.54,10.805-6.564
	c2.042-1.255,3.829-2.367,5.52-3.425V16.163z M68.569,13.346c-4.96,3.103-10.963,6.766-17.572,10.752
	c-0.542-0.333-1.11-0.598-1.711-0.798c7.242-4.348,13.866-8.269,19.283-11.373V13.346z M68.569,10.286
	c-5.613,3.195-12.771,7.43-21.316,12.568c-0.39-0.034-0.771-0.054-1.151-0.062c7.233-4.252,13.898-8.2,19.5-11.59
	c1.061-0.643,2.03-1.235,2.968-1.808V10.286z M68.569,7.726c-6.782,4.154-15.647,9.407-25.254,15.048
	c-0.463-0.004-0.923-0.01-1.392-0.01c-0.17,0-0.34,0.004-0.513,0.004c10.228-6.221,19.837-11.997,27.158-16.204V7.726z
	 M68.569,4.923c-7.356,4.195-17.514,10.299-29.938,17.868c-0.372,0.004-0.753,0.006-1.119,0.01c-0.237,0.003-0.46,0.006-0.691,0.009
	C47.736,16.378,58.26,10.137,66.451,5.109c0.738-0.453,1.438-0.885,2.118-1.307V4.923z"/>
</svg>
