<?xml version="1.0" encoding="utf-8"?>
<!-- Generator: Adobe Illustrator 16.0.0, SVG Export Plug-In . SVG Version: 6.00 Build 0)  -->
<!DOCTYPE svg PUBLIC "-//W3C//DTD SVG 1.1//EN" "http://www.w3.org/Graphics/SVG/1.1/DTD/svg11.dtd">
<svg version="1.1" id="Layer_1" xmlns="http://www.w3.org/2000/svg" xmlns:xlink="http://www.w3.org/1999/xlink" x="0px" y="0px"
	 width="72px" height="72px" viewBox="0 0 72 72" enable-background="new 0 0 72 72" xml:space="preserve">
<path opacity="0.8" d="M68.106,26.132c-1.211-2.397-2.728-4.972-5.439-6.979c0.168,0.031,0.337,0.062,0.475,0.077
	c2.13-4.941,5.485-14.104,4.78-19.275c-3.232-0.146-9.775,0.061-9.775,0.061s2.667,7.875-1.164,16.64
	c-0.98-0.161-1.961-0.36-2.896-0.682c-0.858-0.115-1.701-0.237-2.682-0.283c-1.425-0.084-3.509,0.161-5.455,0.498
	c-5.416,1.218-6.496,2.398-9.154,6.206c-3.949,5.7,0.689,12.036-2.624,21.098c-4.501,12.319-9.143,15.629-16.735,18.409
	c-0.253,0.123-0.506,0.246-0.766,0.36c-1.176,0.644-2.386,1.203-3.688,1.624c-3.045,1.479-6.187,2.705-9.48,3.616
	c-0.311,0.329-0.64,0.636-0.943,0.973c0.245,1.249,0.786,2.406,1.636,3.371c14.732,0.552,41.925-2.819,53.569-13.575
	C67.463,50.219,74.005,37.854,68.106,26.132z M58.561,27.665c1.777,0.092,3.064,1.019,5.118,0.667
	c0.306,2.765-4.75,0.919-4.889,2.566C56.186,30.438,60.384,29.412,58.561,27.665z M57.55,33.839c1.593,0.414,3.049,1.05,4.642,1.44
	c-0.076,1.517-3.585,1.195-5.056,1.961C56.094,35.487,58.592,35.609,57.55,33.839z M58.76,42.757
	c0.873,2.682-3.248,1.418-3.923,1.012l-1.378-2.291C55.435,41.547,56.492,43.141,58.76,42.757z M14.928,69.961
	c0.831-1.517,3.597-1.294,4.711-2.581C21.631,69.058,17.165,70.107,14.928,69.961z M21.006,68.023
	c1.092-2.36,4.34-2.728,6.742-3.869C26.477,66.33,23.225,66.705,21.006,68.023z M28.434,64.146c0.452-1.241,1.781-1.701,3.363-1.923
	C31.188,63.335,30.56,64.43,28.434,64.146z M33.157,62.208c5.147-2.405,11.384-3.8,16.21-6.474
	c-2.773,4.781-10.25,5.248-14.153,8.979C33.82,64.568,34.555,62.361,33.157,62.208z M45.529,61.703
	c0.636-1.472,3.485-3.379,5.554-4.819c3.249-2.252,6.068-4.007,9.669-5.286C57.166,55.742,51.421,58.769,45.529,61.703z
	 M57.458,47.874c-5.072,2.345-8.213,5.67-12.979,8.19c1.916-4.842,10.649-6.489,11.568-10.45c1.977,0.038,3.049,1.616,5.316,1.188
	C62.284,49.468,58.132,48.266,57.458,47.874z M63.035,42.972c0.49-2.26-1.334-2.275-3.034-3.164c0.506-1.64,4.474-1.395,6.358-2.291
	C65.363,39.386,65.425,41.822,63.035,42.972z M65.104,33.227c-0.185-1.593,2.527-0.682,2.313,0.72
	C66.497,33.947,66.084,33.127,65.104,33.227z"/>
</svg>
