<?xml version="1.0" encoding="utf-8"?>
<!-- Generator: Adobe Illustrator 13.0.2, SVG Export Plug-In . SVG Version: 6.00 Build 14948)  -->
<!DOCTYPE svg PUBLIC "-//W3C//DTD SVG 1.1//EN" "http://www.w3.org/Graphics/SVG/1.1/DTD/svg11.dtd">
<svg version="1.1" id="Layer_1" xmlns="http://www.w3.org/2000/svg" xmlns:xlink="http://www.w3.org/1999/xlink" x="0px" y="0px"
	 width="23.738px" height="21.672px" viewBox="0 0 23.738 21.672" enable-background="new 0 0 23.738 21.672" xml:space="preserve">
<g>
	<path fill="#231F20" d="M11.577,21.577c-0.012-0.009-2.87-2.086-5.744-4.949l0,0c-2.861-2.879-5.8-6.483-5.833-9.85l0,0
		C0.006,2.668,2.989,0.006,6.129,0l0,0c2.263-0.012,4.542,1.405,5.741,4.4l0,0c1.197-2.995,3.479-4.412,5.739-4.4l0,0
		c3.14,0.006,6.123,2.668,6.129,6.778l0,0c-0.032,3.366-2.969,6.971-5.83,9.85l0,0c-2.874,2.863-5.732,4.94-5.744,4.949l0,0
		c-0.087,0.063-0.189,0.096-0.293,0.096l0,0C11.767,21.672,11.664,21.641,11.577,21.577L11.577,21.577z M11.871,21.173l0.292-0.405
		L11.871,21.173L11.871,21.173z"/>
</g>
</svg>
