<?xml version="1.0" encoding="utf-8"?>
<!-- Generator: Adobe Illustrator 15.1.0, SVG Export Plug-In . SVG Version: 6.00 Build 0)  -->
<!DOCTYPE svg PUBLIC "-//W3C//DTD SVG 1.1//EN" "http://www.w3.org/Graphics/SVG/1.1/DTD/svg11.dtd">
<svg version="1.1" id="Layer_1" xmlns="http://www.w3.org/2000/svg" xmlns:xlink="http://www.w3.org/1999/xlink" x="0px" y="0px"
	 width="72px" height="72px" viewBox="0 0 72 72" enable-background="new 0 0 72 72" xml:space="preserve">
<path d="M71.949,31.171L72,9.657L34.688,9.682l-0.001,0.002C26.2,9.667,15.26,9.647,15.26,9.647l-0.071,28.016l-1.726-1.879
	L0,50.051c0,0,5.989,12.43,19.583,12.301c6.657-0.06,11.406-2.307,14.494-7.892l0.027,7.368c0,0,17.119-0.076,37.847-0.021
	l-0.027-21.792l-1.776-0.003l0.024-8.844L71.949,31.171z M31.155,42.448c-0.018,8.379-4.404,13.953-13.208,13.921
	c-4.426-0.015-7.847-2.237-10.213-5.885l5.974-6.253c1.158,1.585,2.785,3.383,4.156,3.388c3.208,0.008,3.219-3.624,3.224-5.835
	l0.066-26.202l9.981,0.036L31.155,42.448z M66.075,24.539L51.088,24.5l-0.017,6.786l12.412,0.022l-0.025,8.953L51.05,40.243
	l-0.018,6.887l14.906,0.037l-0.024,8.846l-24.822,0.019l-0.06-40.401l24.981-0.095L66.075,24.539z"/>
</svg>
