<?xml version="1.0" encoding="utf-8"?>
<!-- Generator: Adobe Illustrator 13.0.2, SVG Export Plug-In . SVG Version: 6.00 Build 14948)  -->
<!DOCTYPE svg PUBLIC "-//W3C//DTD SVG 1.1//EN" "http://www.w3.org/Graphics/SVG/1.1/DTD/svg11.dtd">
<svg version="1.1" id="Layer_1" xmlns="http://www.w3.org/2000/svg" xmlns:xlink="http://www.w3.org/1999/xlink" x="0px" y="0px"
	 width="36.412px" height="51.446px" viewBox="0 0 36.412 51.446" enable-background="new 0 0 36.412 51.446" xml:space="preserve">
<g>
	<g>
		<path fill="#231F20" d="M15.87,32.403c0.002-1.293,1.057-2.33,2.337-2.332l0,0c1.279,0.002,2.333,1.037,2.333,2.332l0,0
			c0,1.293-1.047,2.335-2.333,2.335l0,0C16.918,34.736,15.872,33.694,15.87,32.403L15.87,32.403z M18.207,32.403v-0.664V32.403
			L18.207,32.403z"/>
	</g>
	<g>
		<path fill="#231F20" d="M16.707,39.558v-6.319c0-0.829,0.67-1.5,1.499-1.5l0,0c0.829,0,1.5,0.671,1.5,1.5l0,0v6.319
			c0,0.83-0.672,1.502-1.5,1.502l0,0C17.377,41.06,16.707,40.388,16.707,39.558L16.707,39.558z"/>
	</g>
	<g>
		<path fill="#231F20" d="M1.5,51.446c-0.396,0-0.78-0.16-1.06-0.438l0,0C0.161,50.726,0,50.341,0,49.946l0,0V21.547
			c0-0.396,0.161-0.783,0.44-1.062l0,0c0.279-0.279,0.663-0.44,1.06-0.44l0,0h33.412v1.502v-1.502c0.396,0,0.78,0.161,1.061,0.44
			l0,0c0.279,0.28,0.439,0.666,0.439,1.062l0,0v28.399c0,0.396-0.16,0.78-0.439,1.062l0,0c-0.279,0.278-0.665,0.438-1.061,0.438l0,0
			H1.5L1.5,51.446z M3.001,48.444H33.41V23.045H3.001V48.444L3.001,48.444z"/>
	</g>
	<g>
		<path fill="#231F20" d="M28.4,21.546v-7.518c0.004-2.805-1.113-5.605-2.959-7.662l0,0C23.589,4.305,21.076,3,18.207,3l0,0
			c-2.872,0-5.387,1.306-7.236,3.366l0,0c-1.846,2.056-2.964,4.857-2.959,7.662l0,0v7.518c0,0.828-0.672,1.499-1.5,1.499l0,0
			c-0.83,0-1.499-0.671-1.499-1.499l0,0l-0.002-7.518C5.021,6.89,10.539,0.049,18.207,0l0,0c7.664,0.05,13.186,6.89,13.192,14.028
			l0,0v7.518h0.002c0,0.828-0.672,1.499-1.502,1.499l0,0C29.072,23.045,28.4,22.373,28.4,21.546L28.4,21.546z"/>
	</g>
</g>
</svg>
