<?xml version="1.0" encoding="utf-8"?>
<!-- Generator: Adobe Illustrator 16.0.0, SVG Export Plug-In . SVG Version: 6.00 Build 0)  -->
<!DOCTYPE svg PUBLIC "-//W3C//DTD SVG 1.1//EN" "http://www.w3.org/Graphics/SVG/1.1/DTD/svg11.dtd">
<svg version="1.1" id="Layer_1" xmlns="http://www.w3.org/2000/svg" xmlns:xlink="http://www.w3.org/1999/xlink" x="0px" y="0px"
	 width="21.18px" height="31.767px" viewBox="0 0 21.18 31.767" enable-background="new 0 0 21.18 31.767" xml:space="preserve">
<g>
	<g>
		<path d="M10.592,0C4.742,0,0,4.745,0,10.588c0,1.639,0.383,3.185,1.047,4.57H1.041l0.038,0.066
			c0.228,0.468,0.482,0.92,0.774,1.346l8.739,15.197l8.658-15.096c1.212-1.722,1.93-3.816,1.93-6.083C21.18,4.745,16.432,0,10.592,0
			z M10.592,13.747c-2.106,0-3.797-1.707-3.797-3.798c0-2.099,1.69-3.798,3.797-3.798c2.098,0,3.791,1.699,3.791,3.798
			C14.383,12.041,12.689,13.747,10.592,13.747z"/>
	</g>
</g>
</svg>
