<?xml version="1.0" encoding="utf-8"?>
<!-- Generator: Adobe Illustrator 13.0.2, SVG Export Plug-In . SVG Version: 6.00 Build 14948)  -->
<!DOCTYPE svg PUBLIC "-//W3C//DTD SVG 1.1//EN" "http://www.w3.org/Graphics/SVG/1.1/DTD/svg11.dtd">
<svg version="1.1" id="Layer_1" xmlns="http://www.w3.org/2000/svg" xmlns:xlink="http://www.w3.org/1999/xlink" x="0px" y="0px"
	 width="184.566px" height="229.241px" viewBox="0 0 184.566 229.241" enable-background="new 0 0 184.566 229.241"
	 xml:space="preserve">
<path d="M147.96,9.999C147.178,4.534,140.685,0,131.71,0c-0.043,0-0.083,0.002-0.126,0.002c-0.019,0-0.036-0.002-0.055-0.002
	c-0.026,0-0.051,0.004-0.077,0.005c-8.805,0.049-13.518,2.569-15.995,9.994c-4.718,14.159-10.533,22.343,6.517,24.448
	c2.527,3.436,5.912,5.553,9.556,5.553c3.55,0,6.78-2.009,9.239-5.288C158.308,33.204,150.18,25.558,147.96,9.999z"/>
<path fill-rule="evenodd" clip-rule="evenodd" d="M184.101,166.608c-18-51.5-12.5-31-33.004-94.509c-0.331-1.025-1.57-3.44,0-4.5
	c3.844-1.296,3.74,2.787,4.5,5c2.604,7.582,5.715,14.862,8,22.501c2.245,7.501,4.798,25.917,12.001,27.001
	c4.867,0.733,7.413-1.563,8.501-5.001c1.262-3.99-0.3-7.098-1.5-11c-5.224-16.975-8.888-26.424-13.501-41.502
	c-2.285-7.468-4.243-14.329-9.001-18.501c-4.177-3.663-10.074-5.758-17.21-6.76c-2.784,3.339-6.729,5.437-11.12,5.437
	c-4.3,0-8.178-2.008-10.951-5.228c-4.365,0.745-8.287,1.78-11.221,2.55c-10.51,2.758-13.086,13.12-16.501,22.001
	C90.67,70.401,88.143,76.6,85.593,82.6c-0.274-15.668,1.225-23.739-3.5-31.502c-5.303-8.713-14.759-11.615-27.42-12.566
	c-2.908,4.23-7.451,6.966-12.572,6.966c-5.139,0-9.695-2.754-12.602-7.01c-2.543,0.418-4.343,1.206-8.909,2.61
	C-2.527,48.206,0.089,69.995,0.089,97.1c0,6.761-0.136,14.141,0,21.001c0.177,8.921,2.37,13.743,8,13.501
	c9.75-0.42,7.001-18.169,7.001-30.002c0-6.748-0.133-19.213,0-27.501c0.067-4.261-0.93-7.362,2.5-7c2.451,0.259,1.652,0.376,2,3
	c0.251,1.893-2.404,146.984,1.5,154.008c1.541,2.771,4.951,4.743,8.001,5c14.276,1.207,11.5-14.766,11.5-28.001
	c0-7.852-1.14-53.675,0-66.003c0.253-2.738-0.825-3.437,2-4c3.794-0.758,2.739,1.174,3,4c0.138,1.484-0.396,47.672-0.5,67.003
	c-0.049,9.186-0.888,18.694,2,23.001c1.278,1.906,5.942,4.793,11.001,4c9.679-1.516,8.501-12.029,8.501-24.5
	c0-41.6-0.811-131.019,0-135.008c0.771-3.803,1.461-2.609,2.5-2.5c2.541,0.268,1.953,0.418,2,2.5c0.341,15.011,0,23.102,0,32.502
	c0,12.044-2.769,29.873,7.5,29.502c5.99-0.217,7.799-8.333,10.001-14.002c6.091-15.681,11.203-29.012,17.001-43.501
	c0.914-2.285,1.774-7.634,6-6.5c-17.494,56.01-10.994,36.51-32.494,99.01h27.892c-0.348,15.066-1.965,49.523,1.561,55.865
	c1.541,2.771,4.951,4.742,8.001,5c14.276,1.207,11.5-14.766,11.5-28.002v-32.863h4.728c-0.074,9.047-0.154,20.333-0.228,33.863
	c-0.049,9.186-0.888,18.695,2,23.002c1.278,1.906,5.942,4.793,11.001,4c9.679-1.517,8.501-12.029,8.501-24.501v-36.364H184.101z"/>
<path d="M55.938,15.231c-0.867-15-6.729-15.013-13.818-15.013c-7.223,0-12.847,0.002-13.809,15.805
	c-1.089,0.383-1.915,2.267-1.915,4.551c0,2.536,1.016,4.591,2.28,4.636c1.629,8.673,7.112,15.008,13.443,15.008
	c6.505,0,11.964-6.708,13.492-15.765c0.087,0.02,0.172,0.053,0.262,0.053c1.279,0,2.306-2.076,2.306-4.635
	C58.18,17.342,57.187,15.301,55.938,15.231z"/>
</svg>
