<?xml version="1.0" encoding="utf-8"?>
<!-- Generator: Adobe Illustrator 15.1.0, SVG Export Plug-In . SVG Version: 6.00 Build 0)  -->
<!DOCTYPE svg PUBLIC "-//W3C//DTD SVG 1.1//EN" "http://www.w3.org/Graphics/SVG/1.1/DTD/svg11.dtd">
<svg version="1.1" id="Layer_1" xmlns="http://www.w3.org/2000/svg" xmlns:xlink="http://www.w3.org/1999/xlink" x="0px" y="0px"
	 width="72px" height="72px" viewBox="0 0 72 72" enable-background="new 0 0 72 72" xml:space="preserve">
<g>
	<path d="M11.457,45.564l4.341,6.063v16.146c0,2.124,1.727,3.851,3.852,3.851h10.756c2.13,0,3.851-1.727,3.851-3.851l-4.4-16.146
		l2.477-3.861c-5.495-1.104-10.875-1.827-15.501-1.827C14.899,45.939,13.12,45.805,11.457,45.564z"/>
	<path d="M22.862,39.54c19.506,1.881,46.171,11.669,49.436,14.818v-54.71C68.35,3.062,41.978,12.5,22.862,14.293V39.54z"/>
	<path d="M14.597,39.151V14.683C3.023,15.543,0.297,22.636,0.297,27.001C0.297,31.708,2.903,38.401,14.597,39.151z"/>
</g>
</svg>
