<?xml version="1.0" encoding="utf-8"?>
<!-- Generator: Adobe Illustrator 16.0.0, SVG Export Plug-In . SVG Version: 6.00 Build 0)  -->
<!DOCTYPE svg PUBLIC "-//W3C//DTD SVG 1.1//EN" "http://www.w3.org/Graphics/SVG/1.1/DTD/svg11.dtd">
<svg version="1.1" id="Layer_1" xmlns="http://www.w3.org/2000/svg" xmlns:xlink="http://www.w3.org/1999/xlink" x="0px" y="0px"
	 width="87.796px" height="80.678px" viewBox="0 0 87.796 80.678" enable-background="new 0 0 87.796 80.678" xml:space="preserve">
<g>
	<path d="M43.285,14.028c3.866,0.012,7.013-3.123,7.022-6.998c0-0.139-0.01-0.271-0.025-0.424L52.64,6.61
		c-2.371-1.949-3.467-4.101-5.41-5.403l0,0c-0.154-0.101-0.317-0.202-0.482-0.3c-0.1-0.055-0.211-0.105-0.314-0.158
		c-0.057-0.027-0.111-0.059-0.174-0.084c-0.9-0.418-1.888-0.657-2.946-0.665c-3.871-0.01-7.014,3.124-7.024,7.001
		C36.273,10.873,39.408,14.015,43.285,14.028"/>
	<path d="M73.784,57.515c-6.393-0.014-11.59,5.158-11.607,11.553c-0.012,6.393,5.157,11.589,11.545,11.61
		c6.397,0.009,11.6-5.163,11.615-11.552C85.351,62.728,80.173,57.532,73.784,57.515"/>
	<path d="M20.959,80.297c5.813,0.021,10.64-4.255,11.479-9.837L9.526,70.407C10.343,75.995,15.146,80.292,20.959,80.297"/>
	<path d="M37.953,44.427c0,0-11.464-5.906-14.458-7.694c-0.175-0.104-0.375-0.221-0.685-0.532c-1.531-1.535-1.286-3.104-0.382-4.602
		l10.506-17.422c1.138-1.876,3.595-2.355,5.481-1.223c0.858,0.516,1.001,0.777,1.715,2.075l6.608,11.575l8.07,0.02
		c1.222,0,2.217,0.996,2.207,2.212c0,1.228-0.99,2.212-2.213,2.208l-9.48-0.025c-0.612-0.042-1.311-0.526-1.501-0.793
		c-0.207-0.271-0.45-0.621-0.649-0.95L39.2,22.3l-6.646,11.019l10.811,6.122c0,0,0,0.006,0.012,0v0.013l0.045,0.022l-0.011,0.016
		c0.528,0.559,0.863,1.312,0.857,2.141l-0.023,17.209c-0.006,1.698-1.4,3.084-3.103,3.076c-1.707,0-3.092-1.388-3.092-3.094
		L37.953,44.427"/>
	<path d="M87.261,54.2c-3.594-2.67-7.873-4.088-12.365-4.096c-1.13,0-2.254,0.096-3.344,0.271l-0.663-4.713
		c5.06-1.064,3.069-8.413,3.069-8.413l-4.247-0.01c0,0-0.643-4.526-0.685-4.526l-14.668-0.086h-0.021
		c-0.72-0.008-1.314,0.58-1.321,1.303c-0.013,0.734,0.577,1.332,1.312,1.344l8.872,0.103l2.376,16.921
		c-5.065,2.523-9.017,7.056-10.682,12.665l-20.979-0.044l0.043-15.566l0,0v-0.029v-0.084h-0.008
		c-0.073-0.78-0.837-6.088-8.256-6.111c-8.001-0.023-23.542-0.055-23.542-0.055S0.01,44.04,0,46.144
		c-0.01,2.103,2.143,3.113,2.143,3.113l4.122,0.008c-3.755,3.71-6.092,8.842-6.107,14.535c-0.002,0.852,0.163,4.133,0.163,4.133
		l56.564,0.128c1.654-8.548,9.285-15.331,18.006-15.3c3.924,0,7.656,1.238,10.786,3.57c0.591,0.441,1.42,0.312,1.863-0.278
		C87.972,55.472,87.845,54.642,87.261,54.2"/>
</g>
</svg>
