<?xml version="1.0" encoding="utf-8"?>
<!-- Generator: Adobe Illustrator 16.0.0, SVG Export Plug-In . SVG Version: 6.00 Build 0)  -->
<!DOCTYPE svg PUBLIC "-//W3C//DTD SVG 1.1//EN" "http://www.w3.org/Graphics/SVG/1.1/DTD/svg11.dtd">
<svg version="1.1" id="Layer_1" xmlns="http://www.w3.org/2000/svg" xmlns:xlink="http://www.w3.org/1999/xlink" x="0px" y="0px"
	 width="59.08px" height="59.068px" viewBox="0 0 59.08 59.068" enable-background="new 0 0 59.08 59.068" xml:space="preserve">
<path fill="#221E20" d="M57.707,7.361l-6-6C50.816,0.471,49.673,0,48.399,0c-1.719,0-3.628,0.883-5.106,2.361l-39,39
	c-0.128,0.128-0.219,0.289-0.263,0.465l-4,16c-0.085,0.341,0.015,0.701,0.263,0.949c0.19,0.189,0.445,0.293,0.707,0.293
	c0.081,0,0.162-0.01,0.243-0.03l16-4c0.176-0.044,0.336-0.135,0.464-0.263l39-39C59.046,13.436,60.141,9.794,57.707,7.361z
	 M6.414,42.068L40,8.482l10.586,10.586L17,52.654L6.414,42.068z M41.414,7.068L43,5.482l10.586,10.586L52,17.654L41.414,7.068z
	 M5.542,44.024l9.502,9.502L2.375,56.694L5.542,44.024z M55.293,14.361L55,14.654L44.414,4.068l0.293-0.293
	C45.803,2.68,47.218,2,48.399,2c0.741,0,1.379,0.261,1.894,0.775l6,6C57.798,10.28,56.929,12.725,55.293,14.361z"/>
</svg>
