<?xml version="1.0" encoding="utf-8"?>
<!-- Generator: Adobe Illustrator 16.0.0, SVG Export Plug-In . SVG Version: 6.00 Build 0)  -->
<!DOCTYPE svg PUBLIC "-//W3C//DTD SVG 1.1//EN" "http://www.w3.org/Graphics/SVG/1.1/DTD/svg11.dtd">
<svg version="1.1" id="Layer_1" xmlns="http://www.w3.org/2000/svg" xmlns:xlink="http://www.w3.org/1999/xlink" x="0px" y="0px"
	 width="21.52px" height="23.319px" viewBox="0 0 21.52 23.319" enable-background="new 0 0 21.52 23.319" xml:space="preserve">
<g>
	<g>
		<g>
			<g>
				<path fill-rule="evenodd" clip-rule="evenodd" d="M5.439,3.288c-0.81,1.763-0.636,3.78,0.081,5.19
					c1.181,2.324,4.562,3.973,7.54,2.754c0.749-0.305,1.602-0.977,2.109-1.539c1.94-2.167,1.745-5.833,0-7.783
					c-1.132-1.264-2.778-2.118-5.027-1.865C7.587,0.33,6.095,1.863,5.439,3.288z M2.764,11.394c-1.018,0.695-1.842,2.16-2.27,3.975
					c-0.486,2.061-0.737,4.215-0.164,5.676c0.85,2.158,2.749,2.27,5.84,2.27c2.864,0,6.308,0,9.081,0
					c1.653,0,3.182,0.08,4.216-0.404c0.722-0.342,1.466-1.217,1.703-1.783c0.709-1.727,0.207-4.758-0.325-6.486
					c-0.421-1.37-1.036-2.646-2.351-3.408c-0.499-0.285-1.426-0.655-2.19-0.566c-0.463,0.056-0.964,0.465-1.379,0.729
					c-1.755,1.129-4.272,1.895-6.811,0.894c-0.86-0.341-2.076-1.651-3.161-1.622c-0.069,0.004-0.15,0.08-0.161,0.082
					C3.977,10.802,3.285,11.041,2.764,11.394z"/>
			</g>
		</g>
	</g>
</g>
</svg>
