<?xml version="1.0" encoding="utf-8"?>
<!-- Generator: Adobe Illustrator 13.0.2, SVG Export Plug-In . SVG Version: 6.00 Build 14948)  -->
<!DOCTYPE svg PUBLIC "-//W3C//DTD SVG 1.1//EN" "http://www.w3.org/Graphics/SVG/1.1/DTD/svg11.dtd">
<svg version="1.1" id="Layer_1" xmlns="http://www.w3.org/2000/svg" xmlns:xlink="http://www.w3.org/1999/xlink" x="0px" y="0px"
	 width="104.147px" height="99.628px" viewBox="0 0 104.147 99.628" enable-background="new 0 0 104.147 99.628"
	 xml:space="preserve">
<g>
	<path d="M70.295,64.572c-4.882,6.711-11.383,10.806-18.522,10.806c-7.088,0-13.554-4.034-18.419-10.661
		C14.695,70.207,1.199,83.655,0,99.628h104.147C102.932,83.511,89.207,69.971,70.295,64.572z"/>
	<g>
		<g>
			<path d="M74.836,25.053C73.388,0.021,63.61,0,51.772,0c-12.05,0-21.432,0.002-23.041,26.361
				c-1.812,0.643-3.191,3.808-3.191,7.627c0,4.224,1.691,7.654,3.79,7.739c2.718,14.474,11.878,25.05,22.443,25.05
				c10.856,0,19.984-11.177,22.541-26.277c0.135,0.028,0.271,0.044,0.409,0.044c2.144,0,3.88-3.469,3.88-7.747
				C78.603,28.591,76.927,25.174,74.836,25.053z"/>
		</g>
	</g>
</g>
</svg>
