<?xml version="1.0" encoding="utf-8"?>
<!-- Generator: Adobe Illustrator 15.1.0, SVG Export Plug-In . SVG Version: 6.00 Build 0)  -->
<!DOCTYPE svg PUBLIC "-//W3C//DTD SVG 1.1//EN" "http://www.w3.org/Graphics/SVG/1.1/DTD/svg11.dtd">
<svg version="1.1" id="Layer_1" xmlns="http://www.w3.org/2000/svg" xmlns:xlink="http://www.w3.org/1999/xlink" x="0px" y="0px"
	 width="72px" height="72px" viewBox="0 0 72 72" enable-background="new 0 0 72 72" xml:space="preserve">
<path d="M62.984,51.674c-4.349-1.932-10.801-6.911-20.354-8.622c2.442-2.614,4.292-6.704,6.194-11.55
	c1.103-2.807,0.913-5.2,0.913-8.608c0-2.517,0.475-6.557-0.15-8.777c-2.107-7.503-7.432-9.573-13.671-9.573
	c-6.243,0-11.574,2.08-13.677,9.596c-0.62,2.214-0.145,6.245-0.145,8.755c0,3.416-0.186,5.817,0.92,8.629
	c1.916,4.87,3.738,8.954,6.173,11.558c-9.478,1.742-15.882,6.685-20.202,8.61C0.044,55.678,0,60.043,0,60.043v7.414l72-0.009v-7.405
	C72,60.043,71.958,55.663,62.984,51.674z"/>
</svg>
