<?xml version="1.0" encoding="utf-8"?>
<!-- Generator: Adobe Illustrator 15.1.0, SVG Export Plug-In . SVG Version: 6.00 Build 0)  -->
<!DOCTYPE svg PUBLIC "-//W3C//DTD SVG 1.1//EN" "http://www.w3.org/Graphics/SVG/1.1/DTD/svg11.dtd">
<svg version="1.1" id="Layer_1" xmlns="http://www.w3.org/2000/svg" xmlns:xlink="http://www.w3.org/1999/xlink" x="0px" y="0px"
	 width="72px" height="72px" viewBox="0 0 72 72" enable-background="new 0 0 72 72" xml:space="preserve">
<g>
	<path d="M71.926,59.897c0,0-0.043-4.379-9.018-8.369c-4.348-1.931-10.801-6.911-20.354-8.622c2.443-2.614,4.293-6.704,6.195-11.549
		c1.103-2.807,0.913-5.201,0.913-8.608c0-2.518,0.475-6.556-0.15-8.777c-2.107-7.503-7.433-9.573-13.671-9.573
		c-6.244,0-11.574,2.08-13.677,9.595c-0.62,2.215-0.145,6.246-0.145,8.755c0,3.416-0.186,5.817,0.92,8.63
		c1.917,4.869,3.739,8.953,6.173,11.557c-9.478,1.742-15.881,6.684-20.202,8.61c-8.94,3.986-8.984,8.352-8.984,8.352v7.415
		l31.814-0.004l1.716-8.163l-3.516-4.721c0,0,3.687-3.946,5.959-3.946c2.273,0,5.923,3.935,5.923,3.935l-3.479,4.732l1.693,8.161
		l31.89-0.004V59.897z"/>
</g>
</svg>
