<?xml version="1.0" encoding="utf-8"?>
<!-- Generator: Adobe Illustrator 13.0.2, SVG Export Plug-In . SVG Version: 6.00 Build 14948)  -->
<!DOCTYPE svg PUBLIC "-//W3C//DTD SVG 1.1//EN" "http://www.w3.org/Graphics/SVG/1.1/DTD/svg11.dtd">
<svg version="1.1" id="Layer_1" xmlns="http://www.w3.org/2000/svg" xmlns:xlink="http://www.w3.org/1999/xlink" x="0px" y="0px"
	 width="104.147px" height="100px" viewBox="0 0 104.147 100" enable-background="new 0 0 104.147 100" xml:space="preserve">
<g>
	<path d="M70.295,64.948c-4.882,6.711-11.383,10.807-18.519,10.807c-7.092,0-13.558-4.039-18.418-10.658
		C14.699,70.583,1.208,84.032,0,100h104.147C102.936,83.888,89.212,70.347,70.295,64.948z"/>
	<g>
		<g>
			<path d="M79.207,16.69C77.929,7.777,67.536,0.367,53.087,0.032c-0.147-0.006-0.296-0.009-0.443-0.014
				C52.453,0.016,52.27,0,52.078,0c-0.055,0-0.105,0.003-0.16,0.003C51.871,0.003,51.824,0,51.776,0c-0.151,0-0.3,0.01-0.451,0.014
				C36.833,0.156,29.047,4.389,24.945,16.69C17.067,40.33,7.333,54.001,35.795,57.517c4.222,5.745,9.895,9.261,15.981,9.261
				c5.929,0,11.336-3.335,15.443-8.814C96.52,55.448,82.914,42.67,79.207,16.69z"/>
		</g>
	</g>
</g>
</svg>
