<?xml version="1.0" encoding="utf-8"?>
<!-- Generator: Adobe Illustrator 13.0.2, SVG Export Plug-In . SVG Version: 6.00 Build 14948)  -->
<!DOCTYPE svg PUBLIC "-//W3C//DTD SVG 1.1//EN" "http://www.w3.org/Graphics/SVG/1.1/DTD/svg11.dtd">
<svg version="1.1" id="Layer_1" xmlns="http://www.w3.org/2000/svg" xmlns:xlink="http://www.w3.org/1999/xlink" x="0px" y="0px"
	 width="182.085px" height="211.505px" viewBox="0 0 182.085 211.505" enable-background="new 0 0 182.085 211.505"
	 xml:space="preserve">
<path d="M105.603,63.558h75.463c-3.12-21.609-1.562-38.768-15.886-47.661c-9.695-6.019-23.152-2.24-35.746-5.958
	c-7.021-2.072-14.594-10.269-19.858-9.929C101.518,14.46,107.393,42.84,105.603,63.558z M181.065,73.487H42.055
	c-8.147-7.633-18.384-12.961-23.83-19.859c-2.209-2.797-3.476-12.805-9.93-9.929c-28.396,16.979,24.994,27.937,27.802,41.703
	c2.327,11.585,4.255,26.788,11.916,35.746c21.156,24.745,122.458,30.057,133.053-11.915
	C184.227,96.709,178.819,88.854,181.065,73.487z M71.843,145.972c-18.096,0-32.767,14.67-32.767,32.768
	c0,18.096,14.671,32.766,32.767,32.766c18.097,0,32.768-14.67,32.768-32.766C104.61,160.642,89.939,145.972,71.843,145.972z
	 M71.843,197.604c-10.42,0-18.865-8.447-18.865-18.865c0-10.42,8.445-18.867,18.865-18.867s18.866,8.447,18.866,18.867
	C90.709,189.157,82.263,197.604,71.843,197.604z M145.32,144.978c-18.097,0-32.767,14.671-32.767,32.768
	c0,18.098,14.67,32.768,32.767,32.768c18.096,0,32.767-14.67,32.767-32.768C178.087,159.648,163.416,144.978,145.32,144.978z
	 M145.32,196.61c-10.42,0-18.866-8.446-18.866-18.865c0-10.418,8.446-18.865,18.866-18.865s18.866,8.447,18.866,18.865
	C164.187,188.164,155.74,196.61,145.32,196.61z"/>
</svg>
