<?xml version="1.0" encoding="utf-8"?>
<!-- Generator: Adobe Illustrator 16.0.0, SVG Export Plug-In . SVG Version: 6.00 Build 0)  -->
<!DOCTYPE svg PUBLIC "-//W3C//DTD SVG 1.1//EN" "http://www.w3.org/Graphics/SVG/1.1/DTD/svg11.dtd">
<svg version="1.1" id="Layer_1" xmlns="http://www.w3.org/2000/svg" xmlns:xlink="http://www.w3.org/1999/xlink" x="0px" y="0px"
	 width="55.776px" height="38.559px" viewBox="0 0 55.776 38.559" enable-background="new 0 0 55.776 38.559" xml:space="preserve">
<g>
	<g id="OTzjCA_1_">
		<g>
			<path d="M12.699,19.993c-0.725-0.102-1.145-0.537-1.376-1.266c-0.636-2.004-1.302-4.001-2.145-5.934
				c-0.911-2.092-2.02-4.061-3.612-5.721c-0.1-0.104-0.193-0.29-0.339-0.252C5.052,6.865,5.074,7.084,5.039,7.238
				c-0.231,1.01-0.398,2.032-0.554,3.169c-0.197-0.205-0.329-0.342-0.459-0.479c-0.834-0.883-1.675-1.76-2.568-2.585
				C1.384,7.276,1.318,7.17,1.203,7.188c-0.12,0.018-0.101,0.135-0.098,0.216c0.029,1.243-0.401,2.39-0.77,3.543
				c-0.647,2.026-0.358,3.883,0.876,5.609c0.993,1.391,2.268,2.496,3.589,3.552c1.461,1.168,2.727,2.463,3.154,4.379"/>
			<path fill-rule="evenodd" clip-rule="evenodd" d="M7.955,24.487c-0.428-1.916-1.693-3.211-3.154-4.379
				c-1.321-1.057-2.596-2.162-3.589-3.552c-1.234-1.727-1.523-3.583-0.876-5.609c0.368-1.153,0.799-2.3,0.77-3.543
				C1.102,7.322,1.083,7.205,1.203,7.188C1.318,7.17,1.384,7.276,1.458,7.344c0.894,0.825,1.734,1.702,2.568,2.585
				c0.13,0.137,0.262,0.273,0.459,0.479C4.64,9.271,4.807,8.248,5.039,7.238C5.074,7.084,5.052,6.865,5.227,6.82
				c0.146-0.038,0.239,0.147,0.339,0.252c1.593,1.66,2.701,3.629,3.612,5.721c0.843,1.933,1.509,3.93,2.145,5.934
				c0.231,0.729,0.651,1.164,1.376,1.266C12.699,19.993,12.699,23.81,7.955,24.487z"/>
		</g>
	</g>
	<g>
		<path d="M29.172,38.559c-0.263,0-0.526-0.008-0.792-0.027c-0.835-0.062-1.594-0.213-2.329-0.359l-1.063-0.203
			c-0.865-0.158-1.683-0.309-2.513-0.563c-0.293-0.09-0.679-0.11-1.087-0.132c-0.616-0.031-1.313-0.067-1.98-0.359
			c-0.73-0.32-1.241-0.85-1.69-1.318c-0.263-0.271-0.51-0.529-0.718-0.648c-0.327-0.19-0.664-0.35-0.994-0.506
			c-0.559-0.266-1.136-0.541-1.667-0.932c-0.628-0.461-1.044-1.029-1.411-1.531c-0.212-0.291-0.413-0.564-0.604-0.738
			c-0.316-0.289-0.637-0.539-0.938-0.777c-0.483-0.38-0.939-0.739-1.33-1.182c-0.348-0.394-0.576-0.637-0.747-0.818
			c-0.457-0.484-0.6-0.65-1.171-1.569c-0.363-0.587-0.184-1.356,0.403-1.722c0.585-0.363,1.356-0.185,1.722,0.403
			c0.462,0.745,0.5,0.786,0.867,1.175c0.183,0.194,0.427,0.455,0.8,0.877c0.24,0.272,0.594,0.55,1.002,0.871
			c0.348,0.273,0.715,0.563,1.078,0.896c0.375,0.341,0.66,0.73,0.936,1.107c0.286,0.391,0.557,0.76,0.875,0.994
			c0.34,0.25,0.786,0.463,1.259,0.688c0.391,0.186,0.788,0.376,1.175,0.6c0.512,0.297,0.911,0.713,1.265,1.079
			c0.316,0.329,0.616,0.641,0.894,0.762c0.248,0.108,0.665,0.13,1.105,0.153c0.518,0.027,1.104,0.057,1.692,0.238
			c0.69,0.213,1.438,0.35,2.229,0.494l1.102,0.211c0.69,0.137,1.342,0.268,2.022,0.316c0.579,0.043,1.191,0.012,1.842-0.021
			c0.295-0.016,0.594-0.031,0.897-0.041c0.845-0.025,1.763-0.068,2.737-0.193c0.391-0.05,0.789-0.074,1.192-0.098
			c0.554-0.031,1.075-0.062,1.573-0.171c0.47-0.103,0.935-0.312,1.427-0.534c0.381-0.171,0.774-0.348,1.197-0.488
			c0.553-0.182,1.101-0.254,1.585-0.316c0.462-0.059,0.897-0.115,1.188-0.254c0.468-0.221,0.906-0.557,1.37-0.913
			c0.309-0.237,0.613-0.47,0.926-0.675l0.168-0.109c0.76-0.496,1.478-0.966,2.069-1.496c0.635-0.571,1.164-1.225,1.726-1.917
			l0.104-0.128c0.36-0.444,0.638-0.969,0.932-1.523c0.149-0.28,0.298-0.56,0.456-0.832c0.33-0.564,0.563-1.171,0.812-1.813
			c0.088-0.228,0.176-0.457,0.269-0.685c0.229-0.566,0.573-1.035,0.876-1.449c0.268-0.363,0.52-0.708,0.593-0.986
			c0.106-0.404,0.104-0.891,0.101-1.406c-0.002-0.459-0.005-0.933,0.065-1.423c0.074-0.521,0.205-0.994,0.331-1.452
			c0.134-0.484,0.26-0.94,0.273-1.323c0.021-0.629-0.049-1.271-0.117-1.891c-0.034-0.319-0.068-0.63-0.091-0.93
			c-0.039-0.539-0.03-1.053-0.021-1.506c0.009-0.508,0.018-0.987-0.05-1.299c-0.177-0.817-0.532-1.68-0.876-2.515l-0.102-0.246
			c-0.171-0.412-0.547-0.813-0.945-1.237c-0.278-0.297-0.567-0.605-0.826-0.957c-0.294-0.398-0.517-0.838-0.712-1.226
			c-0.235-0.466-0.479-0.947-0.735-1.112c-0.29-0.188-0.887-0.207-1.465-0.226c-0.389-0.013-0.779-0.028-1.157-0.078
			c-0.899-0.119-1.692-0.082-2.569,0.116l-0.381,0.085c-0.756,0.167-1.536,0.339-2.302,0.706c-0.825,0.396-1.413,0.917-2.042,1.509
			c-0.588,0.554-0.853,1.164-1.162,1.965c-0.174,0.451-0.423,0.862-0.643,1.224c-0.253,0.417-0.515,0.849-0.525,1.141
			c-0.013,0.363,0.106,0.815,0.231,1.293c0.129,0.491,0.263,0.999,0.301,1.551c0.023,0.353,0.102,0.732,0.184,1.134
			c0.132,0.643,0.268,1.308,0.22,2.013c-0.075,1.138-0.734,1.943-1.263,2.589c-0.156,0.19-0.312,0.379-0.445,0.576
			c-0.163,0.242-0.277,0.574-0.398,0.927c-0.188,0.545-0.4,1.162-0.877,1.662c-0.622,0.652-1.355,0.984-1.945,1.253
			c-0.214,0.097-0.422,0.188-0.607,0.298c-0.938,0.552-1.732,0.99-2.73,1.2c-0.24,0.051-0.482,0.116-0.727,0.183
			c-0.624,0.168-1.332,0.359-2.113,0.367c-0.752,0.015-1.527-0.22-2.336-0.46c-0.352-0.104-0.719-0.216-1.097-0.305
			c-0.717-0.169-1.425-0.423-2.108-0.669c-0.334-0.12-0.671-0.241-1.012-0.353c-0.391-0.128-0.847-0.19-1.331-0.257
			c-0.619-0.086-1.26-0.174-1.883-0.412c-0.81-0.311-1.469-0.777-1.998-1.152c-0.312-0.222-0.606-0.43-0.811-0.518
			c-0.634-0.273-0.926-1.01-0.652-1.644c0.272-0.634,1.007-0.926,1.643-0.653c0.445,0.192,0.844,0.475,1.266,0.774
			c0.458,0.325,0.932,0.66,1.447,0.857c0.354,0.136,0.827,0.201,1.329,0.271C19.381,19.915,20,20,20.606,20.198
			c0.362,0.119,0.721,0.248,1.077,0.375c0.647,0.232,1.259,0.453,1.839,0.59c0.426,0.101,0.839,0.223,1.235,0.342
			c0.621,0.185,1.18,0.348,1.597,0.355c0.463-0.005,0.961-0.139,1.487-0.281c0.291-0.078,0.578-0.155,0.863-0.215
			c0.628-0.133,1.215-0.46,1.977-0.908c0.258-0.152,0.545-0.285,0.843-0.42c0.453-0.206,0.882-0.4,1.17-0.703
			c0.099-0.104,0.222-0.461,0.321-0.749c0.152-0.444,0.343-0.998,0.69-1.513c0.175-0.259,0.378-0.51,0.583-0.76
			c0.365-0.446,0.681-0.832,0.703-1.174c0.024-0.368-0.072-0.842-0.175-1.343c-0.095-0.465-0.193-0.945-0.229-1.465
			c-0.021-0.315-0.12-0.689-0.225-1.086c-0.158-0.603-0.338-1.287-0.312-2.018c0.033-0.943,0.486-1.689,0.886-2.349
			c0.182-0.299,0.354-0.582,0.448-0.827c0.387-1.002,0.814-1.976,1.781-2.886c0.57-0.537,1.432-1.348,2.674-1.943
			c1.025-0.492,1.992-0.706,2.845-0.894l0.365-0.081c1.162-0.264,2.259-0.314,3.449-0.157c0.298,0.039,0.607,0.047,0.914,0.057
			c0.875,0.029,1.866,0.062,2.737,0.624c0.826,0.532,1.243,1.358,1.611,2.086c0.166,0.329,0.323,0.64,0.492,0.87
			c0.187,0.253,0.412,0.489,0.638,0.729c0.51,0.543,1.088,1.159,1.434,1.997l0.101,0.245c0.368,0.893,0.785,1.904,1.009,2.938
			c0.129,0.595,0.118,1.216,0.105,1.874c-0.007,0.405-0.017,0.835,0.017,1.277c0.02,0.271,0.051,0.552,0.082,0.841
			c0.074,0.675,0.158,1.44,0.13,2.25c-0.023,0.678-0.195,1.301-0.361,1.903c-0.11,0.399-0.215,0.776-0.267,1.139
			c-0.044,0.309-0.042,0.672-0.04,1.057c0.004,0.625,0.008,1.332-0.183,2.056c-0.194,0.737-0.619,1.317-0.994,1.829
			c-0.238,0.325-0.463,0.633-0.576,0.91c-0.087,0.215-0.17,0.43-0.253,0.645c-0.271,0.707-0.554,1.438-0.984,2.174
			c-0.142,0.243-0.273,0.493-0.406,0.744c-0.337,0.635-0.686,1.293-1.199,1.926l-0.103,0.127c-0.598,0.737-1.215,1.5-1.997,2.203
			c-0.735,0.659-1.567,1.203-2.372,1.729l-0.166,0.108c-0.261,0.172-0.515,0.367-0.773,0.566c-0.522,0.4-1.114,0.855-1.824,1.191
			c-0.647,0.305-1.332,0.395-1.937,0.473c-0.409,0.053-0.795,0.102-1.12,0.21c-0.321,0.106-0.636,0.25-0.957,0.395
			c-0.56,0.252-1.193,0.538-1.918,0.696c-0.69,0.15-1.337,0.188-1.962,0.225c-0.346,0.02-0.686,0.039-1.02,0.082
			c-1.083,0.139-2.113,0.186-2.979,0.213c-0.287,0.008-0.568,0.023-0.847,0.037C30.087,38.536,29.632,38.559,29.172,38.559z"/>
	</g>
</g>
</svg>
