<?xml version="1.0" encoding="utf-8"?>
<!-- Generator: Adobe Illustrator 13.0.2, SVG Export Plug-In . SVG Version: 6.00 Build 14948)  -->
<!DOCTYPE svg PUBLIC "-//W3C//DTD SVG 1.1//EN" "http://www.w3.org/Graphics/SVG/1.1/DTD/svg11.dtd">
<svg version="1.1" id="Layer_1" xmlns="http://www.w3.org/2000/svg" xmlns:xlink="http://www.w3.org/1999/xlink" x="0px" y="0px"
	 width="24px" height="22.415px" viewBox="0 0 24 22.415" enable-background="new 0 0 24 22.415" xml:space="preserve">
<g>
	<g>
		<path d="M18.741,16.656h3.172c0.593-0.003,1.085-0.492,1.087-1.088l0,0V8.431c-0.002-0.593-0.494-1.083-1.087-1.085l0,0H2.085
			C1.492,7.348,1,7.838,1,8.431l0,0v7.137c0,0.596,0.492,1.085,1.085,1.085l0,0h3.172v0.003v0.998H2.085
			C0.935,17.652,0.002,16.719,0,15.568l0,0V8.431C0.002,7.28,0.935,6.347,2.085,6.345l0,0h19.828
			c1.149,0.002,2.084,0.935,2.086,2.085l0,0v7.137c-0.002,1.151-0.937,2.086-2.086,2.086l0,0l-3.172,0.002V16.656L18.741,16.656z"/>
	</g>
	<g>
		<polygon points="18.241,5.258 18.239,3.881 15.358,1 5.758,1 5.758,5.258 5.76,5.258 4.758,5.258 4.758,-0.001 15.774,-0.001 
			19.239,3.463 19.241,5.258 18.241,5.258 		"/>
	</g>
	<g>
		<path d="M4.759,22.414v-8.432v-0.5h14.48v8.932H4.759L4.759,22.414z M5.758,21.414h12.481V14.48H5.758V21.414L5.758,21.414z"/>
	</g>
	<g>
		<polygon points="7.639,16.861 7.639,15.861 16.361,15.861 16.361,16.861 7.639,16.861 		"/>
	</g>
	<g>
		<polygon points="7.638,18.45 7.638,17.45 16.361,17.45 16.361,18.45 7.638,18.45 		"/>
	</g>
	<g>
		<polygon points="7.639,20.036 7.639,19.036 16.36,19.036 16.36,20.036 7.639,20.036 		"/>
	</g>
	<g>
		<polygon points="15.068,4.172 15.068,0.5 16.066,0.5 16.066,3.172 18.741,3.172 18.741,4.172 15.068,4.172 		"/>
	</g>
	<g>
		<path d="M1.586,9.622c0-0.936,0.756-1.69,1.69-1.69l0,0v0.5v0.5c-0.382,0-0.691,0.309-0.691,0.691l0,0
			c0,0.38,0.309,0.689,0.691,0.689l0,0c0.38,0,0.688-0.309,0.688-0.689l0,0c0-0.382-0.308-0.691-0.688-0.691l0,0v-0.5v-0.5
			c0.933,0,1.688,0.754,1.688,1.69l0,0c0,0.931-0.755,1.688-1.688,1.688l0,0C2.343,11.31,1.586,10.553,1.586,9.622L1.586,9.622z"/>
	</g>
</g>
</svg>
