<?xml version="1.0" encoding="utf-8"?>
<!-- Generator: Adobe Illustrator 15.1.0, SVG Export Plug-In . SVG Version: 6.00 Build 0)  -->
<!DOCTYPE svg PUBLIC "-//W3C//DTD SVG 1.1//EN" "http://www.w3.org/Graphics/SVG/1.1/DTD/svg11.dtd">
<svg version="1.1" id="Layer_1" xmlns="http://www.w3.org/2000/svg" xmlns:xlink="http://www.w3.org/1999/xlink" x="0px" y="0px"
	 width="72px" height="72px" viewBox="0 0 72 72" enable-background="new 0 0 72 72" xml:space="preserve">
<path d="M47.483,4.429h-9.352H7.154v22.361v37.1l6.958-0.002h0.011l5.326-6.318l8.337,9.99l0.094-0.117l0.107,0.127L36,57.646
	l8.018,9.924l0.105-0.127l0.094,0.117l8.336-9.99l5.324,6.318h0.011h6.96V25.024V4.429H47.483z M59.916,57.963l-7.274-8.348
	l-0.108,0.131l-0.083-0.1l-8.267,9.883l-8.15-9.984L36,49.586l-0.028-0.041l-8.155,9.984l-8.265-9.883l-0.08,0.1l-0.11-0.131
	l-7.378,8.348V9.365h47.933V57.963z"/>
</svg>
