<?xml version="1.0" encoding="utf-8"?>
<!-- Generator: Adobe Illustrator 16.0.0, SVG Export Plug-In . SVG Version: 6.00 Build 0)  -->
<!DOCTYPE svg PUBLIC "-//W3C//DTD SVG 1.1//EN" "http://www.w3.org/Graphics/SVG/1.1/DTD/svg11.dtd">
<svg version="1.1" id="Layer_1" xmlns="http://www.w3.org/2000/svg" xmlns:xlink="http://www.w3.org/1999/xlink" x="0px" y="0px"
	 width="63.995px" height="43.277px" viewBox="0 0 63.995 43.277" enable-background="new 0 0 63.995 43.277" xml:space="preserve">
<g>
	<path fill-rule="evenodd" clip-rule="evenodd" d="M0,26.982c0.076-0.015,0.136-0.033,0.195-0.036
		c0.123-0.005,0.248-0.002,0.371-0.002c20.502-0.003,41.004-0.007,61.508-0.006c0.274,0,0.561,0.011,0.822,0.084
		c0.738,0.208,1.164,0.884,1.091,1.673c-0.067,0.721-0.659,1.31-1.399,1.38c-0.168,0.018-0.339,0.009-0.51,0.009
		c-5.686,0-11.371,0-17.057,0c-0.185,0-0.368,0-0.504,0c-0.484,1.148-0.896,2.279-1.426,3.353c-2.018,4.08-5.008,7.278-8.924,9.598
		c-0.25,0.148-0.575,0.233-0.865,0.233c-7.153,0.013-14.308,0.013-21.461,0.002c-0.264,0-0.562-0.059-0.783-0.193
		c-6.014-3.618-9.692-8.877-11.038-15.766C0,27.207,0.007,27.1,0,26.982z"/>
	<path fill-rule="evenodd" clip-rule="evenodd" d="M22.17,19.72c0.604-1.444-0.147-2.53-1.141-3.588
		c-1.569-1.669-2.57-3.692-3.352-5.812c-1.098-2.982-0.344-5.632,1.697-7.947c0.721-0.816,1.591-1.501,2.409-2.228
		C21.899,0.042,22.108,0.047,22.273,0c-0.036,0.184-0.031,0.39-0.115,0.549c-0.636,1.208-1.392,2.364-1.91,3.621
		c-0.936,2.258-0.369,4.296,1.248,6.067c0.672,0.738,1.429,1.404,2.055,2.177c1.103,1.359,1.785,2.896,1.653,4.701
		c-0.102,1.4-1.14,2.717-2.426,3.105C22.389,20.339,22.174,20.246,22.17,19.72z"/>
</g>
</svg>
