<?xml version="1.0" encoding="utf-8"?>
<!-- Generator: Adobe Illustrator 16.0.0, SVG Export Plug-In . SVG Version: 6.00 Build 0)  -->
<!DOCTYPE svg PUBLIC "-//W3C//DTD SVG 1.1//EN" "http://www.w3.org/Graphics/SVG/1.1/DTD/svg11.dtd">
<svg version="1.1" id="Layer_1" xmlns="http://www.w3.org/2000/svg" xmlns:xlink="http://www.w3.org/1999/xlink" x="0px" y="0px"
	 width="63.995px" height="52.264px" viewBox="0 0 63.995 52.264" enable-background="new 0 0 63.995 52.264" xml:space="preserve">
<g>
	<g>
		<path fill-rule="evenodd" clip-rule="evenodd" d="M0,35.969c0.076-0.015,0.136-0.033,0.195-0.036
			c0.123-0.005,0.248-0.002,0.371-0.002c20.502-0.003,41.004-0.007,61.508-0.006c0.274,0,0.561,0.011,0.822,0.084
			c0.738,0.208,1.164,0.884,1.091,1.673c-0.067,0.721-0.659,1.31-1.399,1.38c-0.168,0.018-0.339,0.009-0.51,0.009
			c-5.686,0-11.371,0-17.057,0c-0.185,0-0.368,0-0.504,0c-0.484,1.148-0.896,2.279-1.426,3.353c-2.018,4.08-5.008,7.278-8.924,9.598
			c-0.25,0.148-0.575,0.233-0.865,0.233c-7.153,0.013-14.308,0.013-21.461,0.002c-0.264,0-0.562-0.059-0.783-0.193
			c-6.014-3.618-9.692-8.877-11.038-15.766C0,36.193,0.007,36.086,0,35.969z"/>
	</g>
	<path d="M11.665,17.098c0-0.436,0-0.87,0-1.306c1.108-1.921,2.81-2.01,4.155-0.216c0.213,0.285,0.414,0.578,0.626,0.863
		c0.476,0.641,0.952,1.277,1.429,1.916c0.048-0.012,0.096-0.026,0.143-0.039c0-0.227,0-0.454,0-0.681c0-4.313,0-8.627,0.001-12.94
		c0-0.217-0.001-0.436,0.024-0.65c0.132-1.125,0.89-1.799,1.93-1.728c0.957,0.065,1.605,0.833,1.605,1.912
		c0.003,2.672,0,5.343,0.004,8.014c0,0.236-0.031,0.504,0.066,0.698c0.101,0.195,0.351,0.441,0.524,0.434
		c0.181-0.008,0.391-0.267,0.509-0.465c0.08-0.132,0.025-0.347,0.025-0.524c0-3.482-0.004-6.964,0.002-10.446
		C22.713,0.723,23.415-0.006,24.54,0c1.062,0.006,1.729,0.761,1.729,1.959c0,3.463,0,6.925,0,10.388
		c0,0.178-0.057,0.397,0.026,0.524c0.137,0.211,0.362,0.495,0.556,0.5c0.172,0.004,0.398-0.306,0.515-0.523
		c0.083-0.155,0.03-0.387,0.031-0.584c0.001-3.066-0.003-6.134,0.001-9.2c0.002-1.004,0.53-1.708,1.387-1.874
		c1.233-0.238,2.17,0.575,2.173,1.906c0.005,3.463,0.001,6.926,0.001,10.388c0,0.178-0.057,0.392,0.021,0.526
		c0.123,0.211,0.333,0.508,0.515,0.514c0.185,0.006,0.418-0.27,0.556-0.473c0.084-0.125,0.035-0.346,0.035-0.523
		c0.002-2.375-0.002-4.748,0.003-7.123c0.001-0.838,0.517-1.493,1.301-1.688c0.811-0.203,1.616,0.139,2.018,0.851
		c0.071,0.128,0.161,0.247,0.242,0.371c0,5.777,0,11.556,0,17.335c-0.04,0.103-0.099,0.203-0.116,0.31
		c-0.586,3.514-2.638,5.766-5.961,6.544c-0.352,0.082-0.699,0.18-1.047,0.271c-1.267,0-2.533,0-3.8,0
		c-0.098-0.04-0.192-0.102-0.294-0.116c-2.866-0.426-5.236-1.682-6.861-4.149C15.592,23.127,13.633,20.109,11.665,17.098z"/>
</g>
</svg>
