<?xml version="1.0" encoding="utf-8"?>
<!-- Generator: Adobe Illustrator 16.0.0, SVG Export Plug-In . SVG Version: 6.00 Build 0)  -->
<!DOCTYPE svg PUBLIC "-//W3C//DTD SVG 1.1//EN" "http://www.w3.org/Graphics/SVG/1.1/DTD/svg11.dtd">
<svg version="1.1" id="Layer_1" xmlns="http://www.w3.org/2000/svg" xmlns:xlink="http://www.w3.org/1999/xlink" x="0px" y="0px"
	 width="63.996px" height="43.398px" viewBox="0 0 63.996 43.398" enable-background="new 0 0 63.996 43.398" xml:space="preserve">
<g>
	<path fill="#020304" d="M0,27.104c0.076-0.016,0.136-0.033,0.195-0.036c0.123-0.005,0.248-0.002,0.371-0.002
		c20.502-0.003,41.004-0.007,61.508-0.006c0.274,0,0.561,0.011,0.822,0.084c0.738,0.208,1.164,0.884,1.091,1.673
		c-0.067,0.721-0.659,1.31-1.399,1.38c-0.168,0.018-0.338,0.009-0.51,0.009c-5.686,0-11.371,0-17.057,0c-0.186,0-0.368,0-0.504,0
		c-0.484,1.148-0.896,2.279-1.426,3.354c-2.019,4.08-5.008,7.277-8.924,9.598c-0.25,0.148-0.576,0.233-0.865,0.233
		c-7.153,0.013-14.308,0.013-21.461,0.002c-0.264,0-0.562-0.06-0.783-0.193c-6.013-3.62-9.692-8.879-11.037-15.767
		C0,27.328,0.007,27.221,0,27.104z"/>
	<path fill="#020304" d="M17.17,19.841c0.604-1.443-0.147-2.529-1.141-3.588c-1.569-1.669-2.57-3.691-3.352-5.812
		c-1.098-2.982-0.344-5.632,1.697-7.947c0.721-0.816,1.591-1.501,2.409-2.228c0.115-0.104,0.324-0.099,0.489-0.146
		c-0.036,0.185-0.031,0.39-0.115,0.549c-0.636,1.208-1.392,2.364-1.91,3.621c-0.936,2.258-0.369,4.296,1.248,6.067
		c0.672,0.738,1.429,1.404,2.055,2.177c1.103,1.359,1.785,2.896,1.653,4.701c-0.102,1.399-1.14,2.717-2.426,3.104
		C17.389,20.46,17.174,20.367,17.17,19.841z"/>
	<path fill="#020304" d="M27.514,0.08c-0.043,0.188-0.046,0.396-0.135,0.56c-0.59,1.078-1.279,2.111-1.782,3.229
		c-1.133,2.521-0.593,4.771,1.314,6.725c0.575,0.591,1.185,1.146,1.712,1.776c1.121,1.342,1.852,2.857,1.804,4.654
		c-0.04,1.478-1.005,2.802-2.358,3.286c-0.541,0.193-0.787,0.019-0.646-0.521c0.327-1.255,0.014-2.28-0.902-3.206
		c-1.64-1.657-2.686-3.7-3.533-5.841c-1.078-2.716-0.694-5.264,1.057-7.59c0.435-0.578,0.924-1.122,1.441-1.625
		C26.045,0.984,26.67,0.507,27.267,0C27.348,0.027,27.431,0.055,27.514,0.08z"/>
</g>
</svg>
