<?xml version="1.0" encoding="utf-8"?>
<!-- Generator: Adobe Illustrator 16.0.0, SVG Export Plug-In . SVG Version: 6.00 Build 0)  -->
<!DOCTYPE svg PUBLIC "-//W3C//DTD SVG 1.1//EN" "http://www.w3.org/Graphics/SVG/1.1/DTD/svg11.dtd">
<svg version="1.1" id="Layer_1" xmlns="http://www.w3.org/2000/svg" xmlns:xlink="http://www.w3.org/1999/xlink" x="0px" y="0px"
	 width="51.38px" height="35.449px" viewBox="0 0 51.38 35.449" enable-background="new 0 0 51.38 35.449" xml:space="preserve">
<g>
	<path fill-rule="evenodd" clip-rule="evenodd" fill="#1D1D1B" d="M44.603,21.227c0.102,0.596,0.158,1.188,0.158,1.774
		c0,5.318-4.18,6.113-6.67,6.113c-1.582,0-3.355-0.238-5.406-0.515c-2.441-0.328-5.211-0.7-8.094-0.7
		c-2.821,0-5.527,0.355-7.93,0.68c-0.411,1.089-0.648,2.184-0.648,3.243c0,6.368,7.918,2.411,17.684,2.411
		c9.768,0,17.684,3.957,17.684-2.411C51.38,28.141,48.724,24.039,44.603,21.227z"/>
	<path fill-rule="evenodd" clip-rule="evenodd" fill="#1D1D1B" d="M37.853,14.139c0,0.014,0.002,0.028,0.002,0.042
		c0,5.318-4.182,6.112-6.672,6.112c-1.582,0-3.354-0.237-5.406-0.514c-2.442-0.328-5.21-0.7-8.095-0.7
		c-2.883,0-5.65,0.372-8.093,0.7c-0.775,0.104-1.5,0.198-2.199,0.281c-0.306,0.935-0.483,1.869-0.483,2.777
		c0,6.368,7.917,2.412,17.684,2.412c9.768,0,17.684,3.956,17.684-2.412C42.275,19.917,40.597,16.736,37.853,14.139z"/>
	<path fill-rule="evenodd" clip-rule="evenodd" fill="#1D1D1B" d="M35.367,14.017c0,6.368-7.916,2.411-17.684,2.411
		C7.917,16.428,0,20.384,0,14.017S7.917,0,17.683,0C27.451,0,35.367,7.649,35.367,14.017z"/>
</g>
</svg>
