<?xml version="1.0" encoding="utf-8"?>
<!-- Generator: Adobe Illustrator 13.0.2, SVG Export Plug-In . SVG Version: 6.00 Build 14948)  -->
<!DOCTYPE svg PUBLIC "-//W3C//DTD SVG 1.1//EN" "http://www.w3.org/Graphics/SVG/1.1/DTD/svg11.dtd">
<svg version="1.1" id="Layer_1" xmlns="http://www.w3.org/2000/svg" xmlns:xlink="http://www.w3.org/1999/xlink" x="0px" y="0px"
	 width="20.541px" height="20.541px" viewBox="0 0 20.541 20.541" enable-background="new 0 0 20.541 20.541" xml:space="preserve">
<g>
	<g>
		<polygon points="14.149,14.857 14.857,14.149 20.541,19.833 19.833,20.541 14.149,14.857 		"/>
	</g>
	<g>
		<path d="M0,8.704C0,3.897,3.896,0,8.702,0l0,0v0.5V1C4.449,1.009,1.006,4.449,1,8.704l0,0c0.006,4.253,3.448,7.695,7.701,7.701
			l0,0c4.253-0.006,7.696-3.448,7.704-7.701l0,0C16.397,4.449,12.957,1.009,8.702,1l0,0V0.5V0c4.806,0,8.702,3.897,8.704,8.704l0,0
			c-0.002,4.806-3.896,8.701-8.704,8.703l0,0C3.896,17.405,0,13.51,0,8.704L0,8.704z"/>
	</g>
</g>
</svg>
