<?xml version="1.0" encoding="utf-8"?>
<!-- Generator: Adobe Illustrator 13.0.2, SVG Export Plug-In . SVG Version: 6.00 Build 14948)  -->
<!DOCTYPE svg PUBLIC "-//W3C//DTD SVG 1.1//EN" "http://www.w3.org/Graphics/SVG/1.1/DTD/svg11.dtd">
<svg version="1.1" id="Layer_1" xmlns="http://www.w3.org/2000/svg" xmlns:xlink="http://www.w3.org/1999/xlink" x="0px" y="0px"
	 width="19px" height="22.959px" viewBox="0 0 19 22.959" enable-background="new 0 0 19 22.959" xml:space="preserve">
<g>
	<g>
		<path d="M2.003,22.957H1.952v-0.006c-0.105-0.009-0.497-0.047-0.933-0.271l0,0C0.533,22.444-0.014,21.856,0,20.958l0,0v-8.251
			c0.021-1.086,0.914-1.978,1.999-1.999l0,0h14.999c1.088,0.021,1.979,0.912,2.002,1.999l0,0v8.251
			c-0.023,1.085-0.914,1.977-2.002,1.999l0,0H2.044c-0.006,0.001-0.013,0.001-0.02,0.001l0,0C2.017,22.958,2.01,22.958,2.003,22.957
			L2.003,22.957z M1.952,22.45v-0.024l-0.376-0.228c-0.06,0.104-0.062,0.162-0.07,0.201l0,0L1.952,22.45L1.952,22.45z
			 M16.998,21.957c0.48-0.002,0.999-0.521,1.001-0.999l0,0v-8.251c-0.002-0.479-0.521-0.998-1.001-1l0,0H1.999
			c-0.479,0.002-0.998,0.521-1,1l0,0l0.002,8.251c0.012,0.518,0.216,0.678,0.481,0.836l0,0c0.266,0.145,0.543,0.163,0.545,0.161l0,0
			c0.009,0,0.017,0.001,0.026,0.002l0,0H16.998L16.998,21.957z"/>
	</g>
	<g>
		<polygon points="0.609,12.103 1.22,11.311 9.5,17.7 17.779,11.311 18.39,12.103 9.5,18.964 0.609,12.103 		"/>
	</g>
	<g>
		<g>
			<polygon points="8.999,8.956 9.018,0.707 10.017,0.709 10,8.959 8.999,8.956 			"/>
		</g>
		<g>
			<polygon points="5.022,4.478 9.517,0 13.979,4.48 13.271,5.186 9.515,1.416 5.728,5.186 5.728,5.188 5.022,4.478 			"/>
		</g>
	</g>
</g>
</svg>
