<?xml version="1.0" encoding="utf-8"?>
<!-- Generator: Adobe Illustrator 16.0.0, SVG Export Plug-In . SVG Version: 6.00 Build 0)  -->
<!DOCTYPE svg PUBLIC "-//W3C//DTD SVG 1.1//EN" "http://www.w3.org/Graphics/SVG/1.1/DTD/svg11.dtd">
<svg version="1.1" id="Layer_1" xmlns="http://www.w3.org/2000/svg" xmlns:xlink="http://www.w3.org/1999/xlink" x="0px" y="0px"
	 width="37.676px" height="32.678px" viewBox="0 0 37.676 32.678" enable-background="new 0 0 37.676 32.678" xml:space="preserve">
<g>
	<g>
		<g>
			<path d="M11.963,32.678c-0.091,0-0.182-0.018-0.27-0.053c-0.27-0.11-0.446-0.372-0.446-0.663v-5.533H0.715
				C0.32,26.429,0,26.108,0,25.713V0.715C0,0.32,0.32,0,0.715,0h36.247c0.396,0,0.716,0.32,0.716,0.715v24.998
				c0,0.396-0.32,0.716-0.716,0.716h-18.61l-5.876,6.032C12.338,32.603,12.152,32.678,11.963,32.678z M1.43,24.997h10.533
				c0.395,0,0.715,0.32,0.715,0.716v4.489l4.859-4.988c0.134-0.139,0.319-0.217,0.512-0.217h18.196V1.43H1.43V24.997z"/>
		</g>
	</g>
	<g>
		<circle cx="11.339" cy="12.59" r="1.503"/>
	</g>
	<g>
		<circle cx="26.336" cy="12.59" r="1.503"/>
	</g>
	<g>
		<circle cx="18.838" cy="12.59" r="1.503"/>
	</g>
</g>
</svg>
