<?xml version="1.0" encoding="utf-8"?>
<!-- Generator: Adobe Illustrator 16.0.0, SVG Export Plug-In . SVG Version: 6.00 Build 0)  -->
<!DOCTYPE svg PUBLIC "-//W3C//DTD SVG 1.1//EN" "http://www.w3.org/Graphics/SVG/1.1/DTD/svg11.dtd">
<svg version="1.1" id="Layer_1" xmlns="http://www.w3.org/2000/svg" xmlns:xlink="http://www.w3.org/1999/xlink" x="0px" y="0px"
	 width="30.015px" height="29.915px" viewBox="0 0 30.015 29.915" enable-background="new 0 0 30.015 29.915" xml:space="preserve">
<g>
	<path fill="#1E1E1C" d="M15.007,29.915c-0.898,0-1.797-0.079-2.671-0.236l0.177-0.984c1.919,0.345,3.948,0.283,5.843-0.182
		l0.238,0.971C17.427,29.769,16.221,29.915,15.007,29.915z M8.418,28.393c-1.877-0.918-3.581-2.255-4.927-3.864l0.767-0.641
		c1.257,1.502,2.848,2.749,4.6,3.606L8.418,28.393z M22.426,27.956l-0.494-0.869c1.696-0.967,3.206-2.311,4.366-3.887l0.805,0.592
		C25.861,25.48,24.244,26.919,22.426,27.956z M1.303,21.033C0.438,19.102,0,17.041,0,14.908l0.003-0.299l1,0.021L1,14.91
		c0,1.989,0.409,3.913,1.216,5.714L1.303,21.033z M29.069,20.165l-0.938-0.35c0.587-1.567,0.884-3.218,0.884-4.907
		c0-0.293-0.01-0.585-0.027-0.874l0.998-0.062c0.02,0.31,0.029,0.622,0.029,0.936C30.015,16.716,29.697,18.486,29.069,20.165z
		 M1.604,10.828l-0.957-0.291c0.616-2.027,1.638-3.87,3.037-5.478l0.754,0.656C3.132,7.216,2.179,8.936,1.604,10.828z
		 M28.227,10.262c-0.656-1.867-1.683-3.544-3.051-4.987l0.727-0.688c1.465,1.545,2.564,3.343,3.268,5.343L28.227,10.262z
		 M7.338,3.184L6.79,2.348c1.779-1.167,3.745-1.927,5.841-2.261l0.157,0.987C10.832,1.386,8.999,2.096,7.338,3.184z M22.172,2.868
		c-1.703-1.016-3.565-1.646-5.535-1.875L16.752,0c2.111,0.245,4.106,0.921,5.932,2.01L22.172,2.868z"/>
</g>
</svg>
