<?xml version="1.0" encoding="utf-8"?>
<!-- Generator: Adobe Illustrator 16.0.0, SVG Export Plug-In . SVG Version: 6.00 Build 0)  -->
<!DOCTYPE svg PUBLIC "-//W3C//DTD SVG 1.1//EN" "http://www.w3.org/Graphics/SVG/1.1/DTD/svg11.dtd">
<svg version="1.1" id="Layer_1" xmlns="http://www.w3.org/2000/svg" xmlns:xlink="http://www.w3.org/1999/xlink" x="0px" y="0px"
	 width="31.017px" height="31.017px" viewBox="0 0 31.017 31.017" enable-background="new 0 0 31.017 31.017" xml:space="preserve">
<g>
	<rect x="9.399" y="9.004" width="12.217" height="13.009"/>
	<path d="M21.616,6.884c0-0.988-0.808-1.797-1.796-1.797h-8.623c-0.99,0-1.798,0.809-1.798,1.797v1.474h12.217V6.884z M18.023,7.567
		h-5.031c-0.179,0-0.323-0.145-0.323-0.323s0.145-0.323,0.323-0.323h5.031c0.179,0,0.323,0.145,0.323,0.323
		S18.202,7.567,18.023,7.567z"/>
	<circle cx="15.508" cy="24.133" r="0.396"/>
	<path d="M9.399,24.132c0,0.988,0.808,1.797,1.798,1.797h8.623c0.988,0,1.796-0.809,1.796-1.797V22.66H9.399V24.132z M15.508,23.091
		c0.574,0,1.042,0.467,1.042,1.041s-0.468,1.043-1.042,1.043s-1.042-0.469-1.042-1.043S14.934,23.091,15.508,23.091z"/>
	<path d="M0,0v31.017h31.017V0H0z M22.91,24.132c0,1.704-1.387,3.091-3.09,3.091h-8.623c-1.705,0-3.092-1.387-3.092-3.091V6.884
		c0-1.704,1.387-3.091,3.092-3.091h8.623c1.703,0,3.09,1.387,3.09,3.091V24.132z"/>
</g>
</svg>
