<?xml version="1.0" encoding="utf-8"?>
<!-- Generator: Adobe Illustrator 16.0.0, SVG Export Plug-In . SVG Version: 6.00 Build 0)  -->
<!DOCTYPE svg PUBLIC "-//W3C//DTD SVG 1.1//EN" "http://www.w3.org/Graphics/SVG/1.1/DTD/svg11.dtd">
<svg version="1.1" id="Layer_1" xmlns="http://www.w3.org/2000/svg" xmlns:xlink="http://www.w3.org/1999/xlink" x="0px" y="0px"
	 width="31.017px" height="31.018px" viewBox="0 0 31.017 31.018" enable-background="new 0 0 31.017 31.018" xml:space="preserve">
<g>
	<path d="M16.024,16.735c-0.055,0.043-0.12,0.064-0.186,0.064c-0.062,0-0.124-0.019-0.177-0.058l-8.834-6.481l0.147-0.201
		c-0.259,0.286-0.409,0.676-0.409,1.143v8.609c0,0.923,0.663,1.656,1.6,1.656h14.627c0.922,0,1.656-0.733,1.656-1.656v-8.609
		c0-0.367-0.092-0.688-0.256-0.948L16.024,16.735z"/>
	<path d="M24.113,10.15l0.076,0.096C24.167,10.211,24.138,10.183,24.113,10.15z"/>
	<path d="M15.832,16.127l7.943-6.301c-0.267-0.178-0.599-0.279-0.982-0.279H8.223c-0.383,0-0.715,0.1-0.98,0.278L15.832,16.127z"/>
	<path d="M0,0v31.018h31.017V0H0z M25.642,19.812c0,1.57-1.278,2.849-2.849,2.849H8.166c-1.565,0-2.792-1.251-2.792-2.849v-8.609
		c0-1.65,1.198-2.848,2.849-2.848h14.57c1.65,0,2.849,1.197,2.849,2.848V19.812z"/>
</g>
</svg>
