<?xml version="1.0" encoding="utf-8"?>
<!-- Generator: Adobe Illustrator 13.0.2, SVG Export Plug-In . SVG Version: 6.00 Build 14948)  -->
<!DOCTYPE svg PUBLIC "-//W3C//DTD SVG 1.1//EN" "http://www.w3.org/Graphics/SVG/1.1/DTD/svg11.dtd">
<svg version="1.1" id="Layer_1" xmlns="http://www.w3.org/2000/svg" xmlns:xlink="http://www.w3.org/1999/xlink" x="0px" y="0px"
	 width="98.303px" height="101.011px" viewBox="0 0 98.303 101.011" enable-background="new 0 0 98.303 101.011"
	 xml:space="preserve">
<g>
	<g>
		<path fill-rule="evenodd" clip-rule="evenodd" d="M77,56.011c5.031,3.536,15.654,1.986,20-1c-0.194-13.806-7.283-20.717-17-25
			c-0.316-4.017-1.807-6.86-5-8c-4.766,3.648-2.438,15.957-1,18c-1.167-1.5-2.889-2.445-3-5c-4.353-0.363-7.365,4.558-12,6
			c-3.893,1.211-8.189,0.24-12,1c-16.51,3.292-24.025,14.464-27,33c-0.566-20.9,8.655-32.011,25-36c4.734-10.831,4.952-21.807-1-30
			c-11.66-16.05-44.041-9.396-44,10c2.41-8.047,20.239-11.709,25-3c-2.637-3.075-13.633-4.864-17-1c12.29-1.567,18.603,10.71,15,18
			c-5.194,10.511-13.922,11.652-17,20c-4.723,12.806,0.598,30.38,7,37c13.952,14.427,33.871,9.363,61,11
			c-1.021-5.979-11.615-2.385-16-5c0.182-4.485,3.511-5.822,5-9c2.731-15.484-5.915-25.319-19-28c11.498,0.502,18.223,5.777,21,15
			c14.086,4.58,20.915-8.405,33-6C101.275,52.352,76.906,65.158,77,56.011z M85,40.011c-2.074,2.059,0.004,5.072,3,5
			c1.172-0.161,0.844-1.823,1-3c1.357,0.31,0.83,2.504,1,4h-5C84.684,44.641,80.476,39.98,85,40.011z"/>
	</g>
</g>
</svg>
