<?xml version="1.0" encoding="utf-8"?>
<!-- Generator: Adobe Illustrator 15.1.0, SVG Export Plug-In . SVG Version: 6.00 Build 0)  -->
<!DOCTYPE svg PUBLIC "-//W3C//DTD SVG 1.1//EN" "http://www.w3.org/Graphics/SVG/1.1/DTD/svg11.dtd">
<svg version="1.1" id="Layer_1" xmlns="http://www.w3.org/2000/svg" xmlns:xlink="http://www.w3.org/1999/xlink" x="0px" y="0px"
	 width="72px" height="72px" viewBox="0 0 72 72" enable-background="new 0 0 72 72" xml:space="preserve">
<g>
	<path d="M56.85,57.276l5.129,11.304c-1.805,0.982-3.888,1.781-6.245,2.398s-4.647,0.926-6.862,0.926
		c-2.85,0-6.649-0.674-11.398-2.018c-4.75-1.346-8.265-2.02-10.544-2.02c-3.864,0-7.806,1.377-11.826,4.133l-5.081-11.494
		c3.578-2.564,6.15-5.295,7.717-8.192c1.567-2.897,2.352-5.659,2.352-8.288c0-0.854-0.064-1.757-0.19-2.707h-9.878V30.823h7.456
		c-1.299-3.735-1.947-7.52-1.947-11.352c0-3.449,0.943-6.744,2.826-9.878c1.883-3.135,4.553-5.517,8.002-7.148
		C29.809,0.815,33.578,0,37.662,0C43.9,0,48.871,1.575,52.575,4.726c3.704,3.151,5.967,7.67,6.792,13.56l-12.871,1.899
		c-0.601-3.388-1.693-5.825-3.277-7.314c-1.584-1.487-3.562-2.231-5.937-2.231c-2.534,0-4.638,0.848-6.316,2.54
		c-1.68,1.695-2.518,3.823-2.518,6.389c0,1.329,0.231,3.087,0.688,5.271c0.458,2.185,1.021,4.18,1.687,5.984h14.818v10.495H33.008
		c0.095,0.697,0.143,1.395,0.143,2.09c0,2.502-0.475,4.814-1.425,6.934c-0.95,2.123-2.897,4.91-5.842,8.359
		c1.74-0.885,3.925-1.33,6.554-1.33c1.109,0,2.107,0.064,2.992,0.19c0.444,0.064,1.74,0.364,3.895,0.902
		c3.83,0.981,6.442,1.472,7.837,1.472C49.631,59.936,52.86,59.051,56.85,57.276z"/>
</g>
</svg>
