<?xml version="1.0" encoding="utf-8"?>
<!-- Generator: Adobe Illustrator 16.0.0, SVG Export Plug-In . SVG Version: 6.00 Build 0)  -->
<!DOCTYPE svg PUBLIC "-//W3C//DTD SVG 1.1//EN" "http://www.w3.org/Graphics/SVG/1.1/DTD/svg11.dtd">
<svg version="1.1" id="Layer_1" xmlns="http://www.w3.org/2000/svg" xmlns:xlink="http://www.w3.org/1999/xlink" x="0px" y="0px"
	 width="51.53px" height="43.177px" viewBox="0 0 51.53 43.177" enable-background="new 0 0 51.53 43.177" xml:space="preserve">
<g>
	<g>
		<g>
			<path fill-rule="evenodd" clip-rule="evenodd" fill="#1D1D1B" d="M20.757,4.308c3.346-5.32,14.695-5.665,19.068-1.1
				C40.308,3.71,40.8,4.38,41.048,4.919c1.301,2.822,0.039,7.095,0.49,11.124c4.654,0.841,9.389,2.272,9.9,6.967
				c0.205,1.87,0,4.386,0,6.722c0,3.727,0.457,6.974-0.855,9.047c-3.422,5.403-15.865,6.008-19.801,0.121
				c-2.033,2.531-5.863,4.277-10.025,4.277c-4.125,0-8.852-1.939-10.268-5.011c-1.297-2.813-0.041-7.097-0.488-11.124
				c-4.471-0.693-9.398-2.354-9.902-6.965c-0.223-2.055,0-4.51,0-6.725c0-3.346-0.387-7.08,0.857-9.045
				C4.607-1.458,17.261-1.415,20.757,4.308z M4.867,3.208c-1.215,0.68-2.934,2.126-2.934,3.91c0,3.203,4.441,5.105,7.58,5.379
				c0.891,0.079,1.906,0.102,2.932,0c3.072-0.299,7.471-2.211,7.457-5.379c-0.008-1.948-1.814-3.324-3.178-4.033
				c-1.848-0.961-4.408-1.264-6.111-1.223C8.156,1.923,6.564,2.257,4.867,3.208z M23.57,3.94c-0.594,0.488-1.865,1.887-1.834,3.301
				c0.08,3.714,5.955,5.701,10.512,5.256c2.994-0.291,7.512-2.172,7.457-5.379c-0.021-1.254-0.955-2.457-1.834-3.178
				c-1.727-1.414-5.004-2.139-7.455-2.078C27.654,1.929,25.218,2.588,23.57,3.94z M21.736,16.163
				c4.18,0.262,7.066,1.816,9.047,4.279c1.752-2.648,4.859-3.939,8.922-4.279c0-1.629,0-3.258,0-4.887
				c-1.637,1.31-4.326,2.822-7.578,3.055c-4.281,0.309-8.314-0.965-10.391-3.179C21.736,12.823,21.736,14.495,21.736,16.163z
				 M1.933,11.642c0.242,3.926-0.654,8.35,0.855,10.39c1.383,1.866,4.268,2.773,7.213,3.056c-0.244-6.518,4.334-8.215,9.9-8.924
				c0-1.588,0-3.178,0-4.767c-0.617,0.106-0.93,0.63-1.467,0.979c-1.613,1.052-3.883,1.806-6.111,1.956
				c-4.723,0.316-8.115-1.121-10.391-3.055C1.933,11.396,1.933,11.521,1.933,11.642z M14.402,19.587
				c-1.213,0.739-2.598,2.018-2.566,3.789c0.031,1.838,1.686,3.203,2.934,3.911c2.883,1.641,8.746,1.899,12.1,0
				c1.389-0.784,2.912-2.285,2.934-3.911c0.025-1.742-1.537-3.314-3.178-4.154c-2.008-1.033-4.855-1.367-7.334-1.102
				C17.406,18.323,15.853,18.702,14.402,19.587z M31.636,23.498c0.059,1.675,1.564,3.072,3.18,3.913
				c3.654,1.902,8.195,1.596,11.488-0.124c1.395-0.728,3.293-1.905,3.303-3.911c0.006-1.535-1.381-3.008-2.689-3.789
				c-2.16-1.287-5.096-1.795-7.945-1.467C35.378,18.534,31.533,20.399,31.636,23.498z M20.757,30.589
				c-3.57-0.01-6.809-1.338-8.801-3.057c-0.006-0.129-0.156-0.096-0.121,0.123c0.244,3.062-0.336,6.484,0,8.678
				c0.178,1.166,1.143,2.299,1.955,2.934c3.543,2.768,10.906,2.46,14.059,0c0.631-0.492,1.631-1.643,1.832-2.322
				c0.795-2.664-0.336-6.025,0.121-9.412C27.835,29.065,24.552,30.599,20.757,30.589z M48.382,28.267
				c-4.344,3.125-13.08,3.006-16.623-0.734c-0.008-0.129-0.156-0.096-0.123,0.123c0,1.413,0,2.938,0,4.521
				c0,2.938-0.182,4.926,0.979,6.236c3.701,4.174,14.953,3.797,16.748-1.469c0.857-2.523-0.133-5.998,0.244-9.412
				C49.121,27.546,48.777,27.983,48.382,28.267z"/>
			<path fill-rule="evenodd" clip-rule="evenodd" fill="#1D1D1B" d="M10.125,4.552c1.816-0.168,6.215,0.371,6.232,2.566
				c0.016,1.944-3.34,2.773-5.256,2.812C9.234,9.968,5.537,9.085,5.478,7.241C5.427,5.622,8.181,4.731,10.125,4.552z"/>
			<path fill-rule="evenodd" clip-rule="evenodd" fill="#1D1D1B" d="M29.925,4.552c1.822-0.17,6.174,0.441,6.234,2.566
				c0.053,1.883-3.602,2.822-5.5,2.812c-1.715-0.01-5.299-0.834-5.379-2.689C25.207,5.487,28.148,4.718,29.925,4.552z"/>
			<path fill-rule="evenodd" clip-rule="evenodd" fill="#1D1D1B" d="M3.89,16.776c-0.758-1.9,1.752-1.943,1.711-0.613
				C5.58,16.863,4.724,17.362,3.89,16.776z"/>
			<path fill-rule="evenodd" clip-rule="evenodd" fill="#1D1D1B" d="M7.068,17.144c0.641-0.252,1.117-0.006,1.223,0.609
				C8.683,20.096,4.738,18.054,7.068,17.144z"/>
			<path fill-rule="evenodd" clip-rule="evenodd" fill="#1D1D1B" d="M3.767,20.198c-0.354-1.777,1.674-1.66,1.834-0.611
				C5.746,20.537,4.46,21.114,3.767,20.198z"/>
			<path fill-rule="evenodd" clip-rule="evenodd" fill="#1D1D1B" d="M20.757,20.687c1.391-0.021,5.395,0.504,5.502,2.567
				c0.09,1.726-2.877,2.676-4.646,2.812c-2.195,0.17-6.176-0.656-6.234-2.689C15.333,21.71,18.302,20.729,20.757,20.687z"/>
			<path fill-rule="evenodd" clip-rule="evenodd" fill="#1D1D1B" d="M40.56,20.687c0.648-0.01,2.398,0.084,3.545,0.611
				c0.666,0.309,1.932,1.182,1.955,1.956c0.068,2.12-3.977,2.933-6.111,2.812c-1.59-0.089-4.664-0.912-4.768-2.567
				C35.056,21.493,38.476,20.724,40.56,20.687z"/>
			<path fill-rule="evenodd" clip-rule="evenodd" fill="#1D1D1B" d="M15.013,31.444c0.824,0.645,0.406,1.861-0.488,1.834
				C13.404,33.243,13.115,31.102,15.013,31.444z"/>
			<path fill-rule="evenodd" clip-rule="evenodd" fill="#1D1D1B" d="M35.06,31.688c0.357,0.851-0.033,1.506-0.611,1.59
				C32.857,33.507,33.171,30.509,35.06,31.688z"/>
			<path fill-rule="evenodd" clip-rule="evenodd" fill="#1D1D1B" d="M16.724,34.987c-1.459-1.688,1.504-2.462,1.467-0.854
				C18.175,34.77,17.734,35.104,16.724,34.987z"/>
			<path fill-rule="evenodd" clip-rule="evenodd" fill="#1D1D1B" d="M37.871,33.644c0,0.325,0,0.652,0,0.979
				c-0.256,0.314-0.693,0.447-1.344,0.365C35.244,34.086,37,32.394,37.871,33.644z"/>
			<path fill-rule="evenodd" clip-rule="evenodd" fill="#1D1D1B" d="M13.912,36.7c-0.984-1.295,0.826-2.329,1.467-1.345
				C15.851,36.082,15.095,37.253,13.912,36.7z"/>
			<path fill-rule="evenodd" clip-rule="evenodd" fill="#1D1D1B" d="M35.181,35.478c0.051,0.539-0.033,0.946-0.244,1.223
				C32.521,37.702,33.365,33.612,35.181,35.478z"/>
		</g>
	</g>
</g>
</svg>
