<?xml version="1.0" encoding="utf-8"?>
<!-- Generator: Adobe Illustrator 16.0.0, SVG Export Plug-In . SVG Version: 6.00 Build 0)  -->
<!DOCTYPE svg PUBLIC "-//W3C//DTD SVG 1.1//EN" "http://www.w3.org/Graphics/SVG/1.1/DTD/svg11.dtd">
<svg version="1.1" id="Layer_1" xmlns="http://www.w3.org/2000/svg" xmlns:xlink="http://www.w3.org/1999/xlink" x="0px" y="0px"
	 width="42.755px" height="54.863px" viewBox="0 0 42.755 54.863" enable-background="new 0 0 42.755 54.863" xml:space="preserve">
<g>
	<path fill-rule="evenodd" clip-rule="evenodd" fill="#1D1D1B" d="M31.413,0c2.748-0.002,5.498,0.024,8.242,0.201
		c0.924,0.06,1.844,0.174,2.768,0.241c0.408,0.029,0.391,0.191,0.211,0.469c-0.635,0.974-1.258,1.955-1.893,2.927
		c-6.869,10.517-13.818,20.981-20.826,31.406c-4.078,6.067-8.15,12.139-12.419,18.074C7.178,53.76,6.85,54.193,6.52,54.627
		c-0.078,0.1-0.146,0.264-0.292,0.232c-0.148-0.031-0.139-0.209-0.159-0.332c-0.272-1.593-0.559-3.184-0.806-4.78
		c-0.59-3.818-1.178-7.637-1.732-11.46c-0.479-3.299-0.922-6.604-1.363-9.91c-0.385-2.882-0.765-5.766-1.107-8.653
		c-0.279-2.333-0.497-4.675-0.748-7.011c-0.159-1.477-0.235-2.958-0.307-4.44C-0.043,7.28,0.238,6.429,0.941,5.708
		c1.246-1.28,2.812-2.012,4.449-2.615c2.633-0.969,5.371-1.514,8.137-1.935c3.431-0.522,6.882-0.819,10.347-0.99
		C25.888,0.069,27.899-0.004,29.915,0C30.415,0.001,30.915,0,31.413,0z M16.549,12.73c2.064,0.018,4.11-0.17,6.135-0.548
		c3.893-0.728,7.537-2.067,10.754-4.43c1.434-1.051,2.68-2.29,3.729-3.729c0.201-0.275,0.148-0.376-0.17-0.401
		c-0.088-0.006-0.176-0.021-0.262-0.028c-1.379-0.098-2.756-0.181-4.133-0.294c-2.959-0.244-5.926-0.347-8.893-0.401
		c-3.057-0.056-6.113,0.062-9.154,0.416c-2.61,0.304-5.164,0.834-7.589,1.876c-1.177,0.507-2.33,1.069-3.239,2.012
		c-0.964,1-0.885,1.973,0.218,2.805c0.677,0.511,1.441,0.852,2.239,1.118C9.548,12.252,13.014,12.718,16.549,12.73z"/>
	<path fill-rule="evenodd" clip-rule="evenodd" fill="#1D1D1B" d="M15.917,9.831c-1.597-0.028-3.264-0.1-4.895-0.519
		c-0.408-0.105-0.804-0.247-1.166-0.467C9.149,8.415,9.083,7.787,9.69,7.225c0.481-0.445,1.082-0.674,1.69-0.878
		c1.198-0.404,2.439-0.623,3.688-0.781c1.821-0.229,3.649-0.34,5.484-0.287c1.325,0.039,2.649,0.124,3.944,0.449
		c0.391,0.098,0.77,0.227,1.117,0.435c0.541,0.323,0.648,0.778,0.309,1.311c-0.238,0.375-0.594,0.616-0.977,0.821
		c-1.072,0.577-2.246,0.847-3.43,1.062C19.692,9.688,17.845,9.813,15.917,9.831z"/>
</g>
</svg>
