<?xml version="1.0" encoding="utf-8"?>
<!-- Generator: Adobe Illustrator 16.0.0, SVG Export Plug-In . SVG Version: 6.00 Build 0)  -->
<!DOCTYPE svg PUBLIC "-//W3C//DTD SVG 1.1//EN" "http://www.w3.org/Graphics/SVG/1.1/DTD/svg11.dtd">
<svg version="1.1" id="Layer_1" xmlns="http://www.w3.org/2000/svg" xmlns:xlink="http://www.w3.org/1999/xlink" x="0px" y="0px"
	 width="83.988px" height="79.772px" viewBox="0 0 83.988 79.772" enable-background="new 0 0 83.988 79.772" xml:space="preserve">
<g>
	<g>
		<g>
			<path fill-rule="evenodd" clip-rule="evenodd" d="M4.155,30.823c2.561-0.527,6.608,0.156,9.713,0.309
				c2.876,0.14,7.129-0.061,8.357,1.391c1.014,1.198,0.565,5.559,0.392,9.095c-0.34,7.03-0.602,12.431-0.948,19.601
				c-0.149,2.979-0.076,7.699-1.26,8.855c-1.72,1.671-6.94,0.647-9.926,0.506c-2.989-0.145-8.464,0.146-9.837-1.464
				c-1.038-1.229-0.544-5.78-0.41-8.603c0.375-7.686,0.771-15.835,1.144-23.55C1.54,33.598,1.3,31.407,4.155,30.823z M10.306,63.969
				c1.318-0.063,3.227-1.052,3.137-3.478c-0.074-2.034-1.666-3.266-3.806-2.992C5.43,58.042,6.311,64.135,10.306,63.969z"/>
		</g>
	</g>
	<path fill-rule="evenodd" clip-rule="evenodd" d="M60.376,26.611c5.684,1.331,12.366-0.386,17.104,1.321
		c5.133,1.859,7.92,7.923,5.783,13.658c-0.534,1.385-1.504,2.471-2.5,3.84c1.378,3.679,0.114,8.676-2.018,10.963
		c1.146,4.28-0.99,8.639-3.324,10.73c0.197,7.786-4.379,12.446-11.83,12.633c-6.926,0.167-14.509-1.006-20.82-3.156
		c-4.09-1.388-8.309-3.447-12.971-4.752c-2.312-0.648-4.125-0.667-4.841-2.215c-0.762-1.638-0.026-6.393,0.103-9.078
		c0.339-6.934,0.549-11.253,0.912-18.774c0.192-4.035-0.342-8.71,2.459-9.784c0.463-0.18,1.18-0.049,2-0.398
		c1.42-0.607,2.965-2.224,4.293-3.588c2.703-2.746,4.581-5.395,7.34-8.393c1.362-1.488,3.059-2.747,3.821-3.94
		c2.737-4.24,2.303-13.688,7.355-15.485c2.23-0.802,7.449,1.076,8.949,2.408c3.788,3.33,3.992,12.619,1.443,18.062
		C62.562,22.962,60.941,24.509,60.376,26.611z"/>
</g>
</svg>
