<?xml version="1.0" encoding="utf-8"?>
<!-- Generator: Adobe Illustrator 13.0.2, SVG Export Plug-In . SVG Version: 6.00 Build 14948)  -->
<!DOCTYPE svg PUBLIC "-//W3C//DTD SVG 1.1//EN" "http://www.w3.org/Graphics/SVG/1.1/DTD/svg11.dtd">
<svg version="1.1" id="Layer_1" xmlns="http://www.w3.org/2000/svg" xmlns:xlink="http://www.w3.org/1999/xlink" x="0px" y="0px"
	 width="51.21px" height="51.209px" viewBox="0 0 51.21 51.209" enable-background="new 0 0 51.21 51.209" xml:space="preserve">
<g>
	<g>
		<path fill="#231F20" d="M8.149,51.209c-0.394,0-0.782-0.161-1.06-0.439l0,0c-0.278-0.28-0.439-0.666-0.439-1.062l0,0V8.148
			c0-0.396,0.159-0.782,0.439-1.062l0,0c0.278-0.279,0.664-0.439,1.06-0.439l0,0h34.913c0.394,0,0.781,0.161,1.061,0.439l0,0
			c0.278,0.28,0.438,0.666,0.438,1.062l0,0v41.559c0,0.396-0.16,0.782-0.438,1.062l0,0c-0.279,0.278-0.667,0.439-1.061,0.439l0,0
			H8.149L8.149,51.209z M43.062,49.708v-1.499V49.708L43.062,49.708z M9.65,48.208h31.91L41.559,9.647H9.65V48.208L9.65,48.208z"/>
	</g>
	<g>
		<path fill="#231F20" d="M16.461,9.647c-0.396,0-0.782-0.16-1.06-0.438l0,0c-0.28-0.28-0.441-0.667-0.441-1.062l0,0V1.5
			c0-0.397,0.161-0.782,0.441-1.062l0,0C15.679,0.159,16.065,0,16.461,0l0,0h18.288c0.394,0,0.78,0.161,1.061,0.438l0,0
			c0.279,0.28,0.438,0.667,0.438,1.062l0,0v6.646c0,0.396-0.158,0.782-0.438,1.062l0,0c-0.28,0.278-0.667,0.438-1.061,0.438l0,0
			H16.461L16.461,9.647z M34.749,8.147v-1.5V8.147L34.749,8.147z M17.961,6.646h15.287V2.999H17.961V6.646L17.961,6.646z"/>
	</g>
	<g>
		<path fill="#231F20" d="M1.499,9.648C0.67,9.648,0,8.976,0,8.147l0,0C0,7.32,0.67,6.648,1.499,6.648l0,0h48.21
			c0.829,0,1.501,0.672,1.501,1.499l0,0c0,0.829-0.672,1.501-1.501,1.501l0,0H1.499L1.499,9.648z"/>
	</g>
	<g>
		<path fill="#231F20" d="M14.96,40.563V17.291c0-0.828,0.672-1.5,1.5-1.5l0,0c0.828,0,1.501,0.671,1.501,1.5l0,0v23.272
			c0,0.828-0.673,1.501-1.501,1.501l0,0C15.632,42.064,14.96,41.391,14.96,40.563L14.96,40.563z"/>
	</g>
	<g>
		<path fill="#231F20" d="M24.104,40.563V17.291c0-0.828,0.672-1.5,1.5-1.5l0,0c0.828,0,1.499,0.671,1.499,1.5l0,0v23.272
			c0,0.828-0.671,1.501-1.499,1.501l0,0C24.776,42.064,24.104,41.391,24.104,40.563L24.104,40.563z"/>
	</g>
	<g>
		<path fill="#231F20" d="M33.249,40.563V17.291c0-0.828,0.671-1.5,1.499-1.5l0,0c0.828,0,1.5,0.671,1.5,1.5l0,0v23.272
			c0,0.828-0.672,1.501-1.5,1.501l0,0C33.92,42.064,33.249,41.391,33.249,40.563L33.249,40.563z"/>
	</g>
</g>
</svg>
