<?xml version="1.0" encoding="utf-8"?>
<!-- Generator: Adobe Illustrator 16.0.0, SVG Export Plug-In . SVG Version: 6.00 Build 0)  -->
<!DOCTYPE svg PUBLIC "-//W3C//DTD SVG 1.1//EN" "http://www.w3.org/Graphics/SVG/1.1/DTD/svg11.dtd">
<svg version="1.1" id="Layer_1" xmlns="http://www.w3.org/2000/svg" xmlns:xlink="http://www.w3.org/1999/xlink" x="0px" y="0px"
	 width="1190.55px" height="841.89px" viewBox="0 0 1190.55 841.89" enable-background="new 0 0 1190.55 841.89"
	 xml:space="preserve">
<g>
	<g>
		<rect x="201.182" y="726.615" width="786.207" height="26.5"/>
	</g>
	<g>
		<path d="M906.123,198.584c-29.734,0-53.93-24.176-53.93-53.859c0-29.734,24.195-53.938,53.93-53.938
			c29.719,0,53.887,24.203,53.887,53.938C960.01,174.408,935.842,198.584,906.123,198.584z M906.123,117.291
			c-15.113,0-27.434,12.32-27.434,27.434c0,15.09,12.32,27.355,27.434,27.355c15.098,0,27.391-12.266,27.391-27.355
			C933.514,129.611,921.221,117.291,906.123,117.291z"/>
	</g>
	<g>
		<path d="M702.76,442.67c-29.777,0-53.973-24.203-53.973-53.934c0-29.742,24.195-53.914,53.973-53.914
			c29.703,0,53.871,24.172,53.871,53.914C756.631,418.467,732.463,442.67,702.76,442.67z M702.76,361.33
			c-15.141,0-27.465,12.285-27.465,27.406c0,15.109,12.324,27.434,27.465,27.434c15.082,0,27.375-12.324,27.375-27.434
			C730.135,373.615,717.842,361.33,702.76,361.33z"/>
	</g>
	<g>
		<path d="M499.436,361.33c-29.691,0-53.859-24.176-53.859-53.887c0-29.762,24.168-53.965,53.859-53.965
			c29.734,0,53.93,24.203,53.93,53.965C553.365,337.154,529.17,361.33,499.436,361.33z M499.436,279.982
			c-15.098,0-27.363,12.32-27.363,27.461c0,15.082,12.266,27.379,27.363,27.379c15.113,0,27.434-12.297,27.434-27.379
			C526.869,292.303,514.549,279.982,499.436,279.982z"/>
	</g>
	<g>
		<path d="M296.057,537.623c-29.703,0-53.887-24.223-53.887-54.012c0-29.711,24.184-53.879,53.887-53.879
			s53.887,24.168,53.887,53.879C349.943,513.4,325.76,537.623,296.057,537.623z M296.057,456.232
			c-15.082,0-27.379,12.297-27.379,27.379c0,15.168,12.297,27.52,27.379,27.52s27.379-12.352,27.379-27.52
			C323.436,468.529,311.139,456.232,296.057,456.232z"/>
	</g>
	<g>
		<polygon points="335.365,467.076 318.025,447.045 460.072,323.955 477.412,343.99 		"/>
	</g>
	<g>
		<polygon points="660.1,385.967 532.225,334.725 542.053,310.135 669.939,361.381 		"/>
	</g>
	<g>
		<polygon points="738.854,366.115 718.514,349.135 869.912,167.4 890.268,184.377 		"/>
	</g>
</g>
</svg>
