<?xml version="1.0" encoding="utf-8"?>
<!-- Generator: Adobe Illustrator 16.0.0, SVG Export Plug-In . SVG Version: 6.00 Build 0)  -->
<!DOCTYPE svg PUBLIC "-//W3C//DTD SVG 1.1//EN" "http://www.w3.org/Graphics/SVG/1.1/DTD/svg11.dtd">
<svg version="1.1" id="Layer_1" xmlns="http://www.w3.org/2000/svg" xmlns:xlink="http://www.w3.org/1999/xlink" x="0px" y="0px"
	 width="24.538px" height="41.896px" viewBox="0 0 24.538 41.896" enable-background="new 0 0 24.538 41.896" xml:space="preserve">
<g>
	<path d="M23.994,19.963l-4.875-3.472l-3.016-6.227l-0.836-1.729c-0.271-0.554-0.832-0.942-2.049-1.009
		c-0.702-0.036-1.271,0.315-1.585,0.572l-8.361,6.861l-0.896,6.777c-0.095,0.714,0.406,1.366,1.118,1.462
		c0.057,0.006,0.116,0.011,0.172,0.011c0.645,0,1.203-0.473,1.29-1.129l0.761-5.76l4.102-3.366L7.702,22.46l-2.134,9.016
		l-5.223,7.441c-0.602,0.854-0.395,2.037,0.458,2.634c0.331,0.231,0.709,0.346,1.087,0.346c0.596,0,1.181-0.281,1.548-0.806
		l5.655-8.05l1.658-7.315l5.777,6.304l1.044,8.103c0.127,0.951,0.943,1.645,1.879,1.645c0.079,0,0.162-0.004,0.242-0.016
		c1.039-0.13,1.77-1.08,1.635-2.118l-1.197-9.285l-6.733-7.347l1.882-8.475l1.786,3.686l5.418,3.86
		c0.227,0.163,0.491,0.243,0.754,0.243c0.406,0,0.805-0.191,1.058-0.549C24.715,21.194,24.576,20.378,23.994,19.963"/>
	<path d="M14.121,6.784c1.873,0.005,3.396-1.51,3.398-3.382C17.525,1.527,16.014,0.003,14.137,0
		c-1.873-0.006-3.395,1.511-3.401,3.388C10.73,5.259,12.25,6.777,14.121,6.784"/>
</g>
</svg>
